M48
; DRILL file KiCad 10.0.1 date 2026-08-10T17:57:01
; FORMAT={-:-/ absolute / metric / decimal}
; #@! TF.CreationDate,2026-08-10T17:57:01+02:00
; #@! TF.GenerationSoftware,Kicad,Pcbnew,10.0.1
; #@! TF.FileFunction,Plated,1,2,PTH
FMAT,2
METRIC
; #@! TA.AperFunction,Plated,PTH,ViaDrill
T1C0.300
; #@! TA.AperFunction,Plated,PTH,ViaDrill
T2C0.400
; #@! TA.AperFunction,Plated,PTH,ComponentDrill
T3C0.800
; #@! TA.AperFunction,Plated,PTH,ComponentDrill
T4C0.900
; #@! TA.AperFunction,Plated,PTH,ComponentDrill
T5C0.914
; #@! TA.AperFunction,Plated,PTH,ComponentDrill
T6C0.914
; #@! TA.AperFunction,Plated,PTH,ComponentDrill
T7C1.000
; #@! TA.AperFunction,Plated,PTH,ComponentDrill
T8C1.016
%
G90
G05
T1
X80.0Y-81.0
X94.596Y-69.18
X97.0Y-83.0
X98.0Y-71.0
X99.848Y-80.848
X101.0Y-84.0
X101.0Y-99.0
X118.0Y-119.0
X121.0Y-111.0
X125.0Y-114.0
X126.262Y-113.748
X128.0Y-117.0
X130.0Y-117.0
X132.0Y-78.0
X132.0Y-118.0
X133.0Y-108.0
X136.43Y-99.748
X140.0Y-100.0
X140.0Y-118.0
X141.0Y-113.0
X141.929Y-108.929
X143.0Y-91.0
X144.0Y-92.0
X144.0Y-103.0
X147.832Y-105.653
T2
X109.0Y-68.0
T3
X99.0Y-101.84
X99.0Y-112.0
X107.0Y-101.84
X107.0Y-112.0
X114.5Y-88.0
X117.0Y-88.0
X120.65Y-123.589
X120.65Y-133.749
X128.65Y-123.509
X128.65Y-133.669
X144.84Y-100.0
X144.92Y-94.0
X145.0Y-88.0
X151.217Y-115.0
X151.217Y-121.0
X155.0Y-100.0
X155.08Y-94.0
X155.16Y-88.0
X161.377Y-115.0
X161.377Y-121.0
X162.55Y-65.3
X162.569Y-88.0
X164.189Y-72.0
X164.246Y-79.0
X165.768Y-88.0
X173.069Y-88.0
X173.85Y-140.0
X174.349Y-72.0
X174.406Y-79.0
X176.331Y-65.3
X176.35Y-88.0
X176.35Y-140.0
T4
X130.095Y-88.0
X131.365Y-88.0
X132.635Y-88.0
X133.905Y-88.0
T5
X174.801Y-108.38
X174.801Y-110.92
X174.801Y-113.46
X174.801Y-116.0
T6
X75.11Y-89.0
X77.61Y-89.0
X80.19Y-89.0
X82.73Y-89.0
X85.27Y-89.0
X87.81Y-89.0
X90.35Y-89.0
X111.95Y-104.0
X111.95Y-106.54
X111.95Y-109.08
X111.95Y-111.62
X111.95Y-114.16
X111.95Y-116.7
X111.95Y-119.24
X111.95Y-121.78
X111.95Y-124.32
X111.95Y-126.86
X111.95Y-129.4
X111.95Y-131.94
X111.95Y-134.48
X111.95Y-137.02
X137.35Y-101.46
X137.35Y-104.0
X137.35Y-106.54
X137.35Y-109.08
X137.35Y-111.62
X137.35Y-114.16
X137.35Y-116.7
X137.35Y-119.24
X137.35Y-121.78
X137.35Y-124.32
X137.35Y-126.86
X137.35Y-129.4
X137.35Y-131.94
X137.35Y-134.48
X137.35Y-137.02
T7
X142.532Y-65.127
X142.532Y-67.667
X142.532Y-70.207
X142.532Y-72.747
X142.532Y-75.287
X142.532Y-77.827
X155.232Y-65.127
X155.232Y-67.667
X155.232Y-70.207
X155.232Y-72.747
X155.232Y-75.287
X155.232Y-77.827
T8
X149.78Y-107.849
X152.297Y-107.849
X154.837Y-107.849
X157.377Y-107.849
X159.917Y-107.849
X162.457Y-107.849
T6
G00X111.927Y-101.46
M15
G01X111.973Y-101.46
M16
G05
M30
