%TF.GenerationSoftware,KiCad,Pcbnew,10.0.1*%
%TF.CreationDate,2026-08-10T17:57:08+02:00*%
%TF.ProjectId,Datalogger-v2,44617461-6c6f-4676-9765-722d76322e6b,rev?*%
%TF.SameCoordinates,Original*%
%TF.FileFunction,Legend,Bot*%
%TF.FilePolarity,Positive*%
%FSLAX46Y46*%
G04 Gerber Fmt 4.6, Leading zero omitted, Abs format (unit mm)*
G04 Created by KiCad (PCBNEW 10.0.1) date 2026-08-10 17:57:08*
%MOMM*%
%LPD*%
G01*
G04 APERTURE LIST*
%ADD10C,0.300000*%
%ADD11C,0.000000*%
%ADD12C,0.150000*%
%ADD13C,0.120000*%
G04 APERTURE END LIST*
D10*
X101561500Y-122385912D02*
X101561500Y-120885912D01*
X100847214Y-122385912D02*
X100847214Y-121385912D01*
X100847214Y-121528769D02*
X100775785Y-121457341D01*
X100775785Y-121457341D02*
X100632928Y-121385912D01*
X100632928Y-121385912D02*
X100418642Y-121385912D01*
X100418642Y-121385912D02*
X100275785Y-121457341D01*
X100275785Y-121457341D02*
X100204357Y-121600198D01*
X100204357Y-121600198D02*
X100204357Y-122385912D01*
X100204357Y-121600198D02*
X100132928Y-121457341D01*
X100132928Y-121457341D02*
X99990071Y-121385912D01*
X99990071Y-121385912D02*
X99775785Y-121385912D01*
X99775785Y-121385912D02*
X99632928Y-121457341D01*
X99632928Y-121457341D02*
X99561499Y-121600198D01*
X99561499Y-121600198D02*
X99561499Y-122385912D01*
X98847214Y-121385912D02*
X98847214Y-122885912D01*
X98847214Y-121457341D02*
X98704357Y-121385912D01*
X98704357Y-121385912D02*
X98418642Y-121385912D01*
X98418642Y-121385912D02*
X98275785Y-121457341D01*
X98275785Y-121457341D02*
X98204357Y-121528769D01*
X98204357Y-121528769D02*
X98132928Y-121671626D01*
X98132928Y-121671626D02*
X98132928Y-122100198D01*
X98132928Y-122100198D02*
X98204357Y-122243055D01*
X98204357Y-122243055D02*
X98275785Y-122314484D01*
X98275785Y-122314484D02*
X98418642Y-122385912D01*
X98418642Y-122385912D02*
X98704357Y-122385912D01*
X98704357Y-122385912D02*
X98847214Y-122314484D01*
X97275785Y-122385912D02*
X97418642Y-122314484D01*
X97418642Y-122314484D02*
X97490071Y-122243055D01*
X97490071Y-122243055D02*
X97561499Y-122100198D01*
X97561499Y-122100198D02*
X97561499Y-121671626D01*
X97561499Y-121671626D02*
X97490071Y-121528769D01*
X97490071Y-121528769D02*
X97418642Y-121457341D01*
X97418642Y-121457341D02*
X97275785Y-121385912D01*
X97275785Y-121385912D02*
X97061499Y-121385912D01*
X97061499Y-121385912D02*
X96918642Y-121457341D01*
X96918642Y-121457341D02*
X96847214Y-121528769D01*
X96847214Y-121528769D02*
X96775785Y-121671626D01*
X96775785Y-121671626D02*
X96775785Y-122100198D01*
X96775785Y-122100198D02*
X96847214Y-122243055D01*
X96847214Y-122243055D02*
X96918642Y-122314484D01*
X96918642Y-122314484D02*
X97061499Y-122385912D01*
X97061499Y-122385912D02*
X97275785Y-122385912D01*
X96132928Y-122385912D02*
X96132928Y-121385912D01*
X96132928Y-121671626D02*
X96061499Y-121528769D01*
X96061499Y-121528769D02*
X95990071Y-121457341D01*
X95990071Y-121457341D02*
X95847213Y-121385912D01*
X95847213Y-121385912D02*
X95704356Y-121385912D01*
X95418642Y-121385912D02*
X94847214Y-121385912D01*
X95204357Y-120885912D02*
X95204357Y-122171626D01*
X95204357Y-122171626D02*
X95132928Y-122314484D01*
X95132928Y-122314484D02*
X94990071Y-122385912D01*
X94990071Y-122385912D02*
X94847214Y-122385912D01*
X93704357Y-122385912D02*
X93704357Y-121600198D01*
X93704357Y-121600198D02*
X93775785Y-121457341D01*
X93775785Y-121457341D02*
X93918642Y-121385912D01*
X93918642Y-121385912D02*
X94204357Y-121385912D01*
X94204357Y-121385912D02*
X94347214Y-121457341D01*
X93704357Y-122314484D02*
X93847214Y-122385912D01*
X93847214Y-122385912D02*
X94204357Y-122385912D01*
X94204357Y-122385912D02*
X94347214Y-122314484D01*
X94347214Y-122314484D02*
X94418642Y-122171626D01*
X94418642Y-122171626D02*
X94418642Y-122028769D01*
X94418642Y-122028769D02*
X94347214Y-121885912D01*
X94347214Y-121885912D02*
X94204357Y-121814484D01*
X94204357Y-121814484D02*
X93847214Y-121814484D01*
X93847214Y-121814484D02*
X93704357Y-121743055D01*
X92990071Y-121385912D02*
X92990071Y-122385912D01*
X92990071Y-121528769D02*
X92918642Y-121457341D01*
X92918642Y-121457341D02*
X92775785Y-121385912D01*
X92775785Y-121385912D02*
X92561499Y-121385912D01*
X92561499Y-121385912D02*
X92418642Y-121457341D01*
X92418642Y-121457341D02*
X92347214Y-121600198D01*
X92347214Y-121600198D02*
X92347214Y-122385912D01*
X91847213Y-121385912D02*
X91275785Y-121385912D01*
X91632928Y-120885912D02*
X91632928Y-122171626D01*
X91632928Y-122171626D02*
X91561499Y-122314484D01*
X91561499Y-122314484D02*
X91418642Y-122385912D01*
X91418642Y-122385912D02*
X91275785Y-122385912D01*
X89847213Y-121385912D02*
X89275785Y-121385912D01*
X89632928Y-122385912D02*
X89632928Y-121100198D01*
X89632928Y-121100198D02*
X89561499Y-120957341D01*
X89561499Y-120957341D02*
X89418642Y-120885912D01*
X89418642Y-120885912D02*
X89275785Y-120885912D01*
X88561499Y-122385912D02*
X88704356Y-122314484D01*
X88704356Y-122314484D02*
X88775785Y-122243055D01*
X88775785Y-122243055D02*
X88847213Y-122100198D01*
X88847213Y-122100198D02*
X88847213Y-121671626D01*
X88847213Y-121671626D02*
X88775785Y-121528769D01*
X88775785Y-121528769D02*
X88704356Y-121457341D01*
X88704356Y-121457341D02*
X88561499Y-121385912D01*
X88561499Y-121385912D02*
X88347213Y-121385912D01*
X88347213Y-121385912D02*
X88204356Y-121457341D01*
X88204356Y-121457341D02*
X88132928Y-121528769D01*
X88132928Y-121528769D02*
X88061499Y-121671626D01*
X88061499Y-121671626D02*
X88061499Y-122100198D01*
X88061499Y-122100198D02*
X88132928Y-122243055D01*
X88132928Y-122243055D02*
X88204356Y-122314484D01*
X88204356Y-122314484D02*
X88347213Y-122385912D01*
X88347213Y-122385912D02*
X88561499Y-122385912D01*
X87418642Y-122385912D02*
X87418642Y-121385912D01*
X87418642Y-121671626D02*
X87347213Y-121528769D01*
X87347213Y-121528769D02*
X87275785Y-121457341D01*
X87275785Y-121457341D02*
X87132927Y-121385912D01*
X87132927Y-121385912D02*
X86990070Y-121385912D01*
X85418642Y-122314484D02*
X85275785Y-122385912D01*
X85275785Y-122385912D02*
X84990071Y-122385912D01*
X84990071Y-122385912D02*
X84847214Y-122314484D01*
X84847214Y-122314484D02*
X84775785Y-122171626D01*
X84775785Y-122171626D02*
X84775785Y-122100198D01*
X84775785Y-122100198D02*
X84847214Y-121957341D01*
X84847214Y-121957341D02*
X84990071Y-121885912D01*
X84990071Y-121885912D02*
X85204357Y-121885912D01*
X85204357Y-121885912D02*
X85347214Y-121814484D01*
X85347214Y-121814484D02*
X85418642Y-121671626D01*
X85418642Y-121671626D02*
X85418642Y-121600198D01*
X85418642Y-121600198D02*
X85347214Y-121457341D01*
X85347214Y-121457341D02*
X85204357Y-121385912D01*
X85204357Y-121385912D02*
X84990071Y-121385912D01*
X84990071Y-121385912D02*
X84847214Y-121457341D01*
X83918642Y-122385912D02*
X84061499Y-122314484D01*
X84061499Y-122314484D02*
X84132928Y-122243055D01*
X84132928Y-122243055D02*
X84204356Y-122100198D01*
X84204356Y-122100198D02*
X84204356Y-121671626D01*
X84204356Y-121671626D02*
X84132928Y-121528769D01*
X84132928Y-121528769D02*
X84061499Y-121457341D01*
X84061499Y-121457341D02*
X83918642Y-121385912D01*
X83918642Y-121385912D02*
X83704356Y-121385912D01*
X83704356Y-121385912D02*
X83561499Y-121457341D01*
X83561499Y-121457341D02*
X83490071Y-121528769D01*
X83490071Y-121528769D02*
X83418642Y-121671626D01*
X83418642Y-121671626D02*
X83418642Y-122100198D01*
X83418642Y-122100198D02*
X83490071Y-122243055D01*
X83490071Y-122243055D02*
X83561499Y-122314484D01*
X83561499Y-122314484D02*
X83704356Y-122385912D01*
X83704356Y-122385912D02*
X83918642Y-122385912D01*
X82561499Y-122385912D02*
X82704356Y-122314484D01*
X82704356Y-122314484D02*
X82775785Y-122171626D01*
X82775785Y-122171626D02*
X82775785Y-120885912D01*
X81347214Y-122385912D02*
X81347214Y-120885912D01*
X81347214Y-122314484D02*
X81490071Y-122385912D01*
X81490071Y-122385912D02*
X81775785Y-122385912D01*
X81775785Y-122385912D02*
X81918642Y-122314484D01*
X81918642Y-122314484D02*
X81990071Y-122243055D01*
X81990071Y-122243055D02*
X82061499Y-122100198D01*
X82061499Y-122100198D02*
X82061499Y-121671626D01*
X82061499Y-121671626D02*
X81990071Y-121528769D01*
X81990071Y-121528769D02*
X81918642Y-121457341D01*
X81918642Y-121457341D02*
X81775785Y-121385912D01*
X81775785Y-121385912D02*
X81490071Y-121385912D01*
X81490071Y-121385912D02*
X81347214Y-121457341D01*
X80061499Y-122314484D02*
X80204356Y-122385912D01*
X80204356Y-122385912D02*
X80490071Y-122385912D01*
X80490071Y-122385912D02*
X80632928Y-122314484D01*
X80632928Y-122314484D02*
X80704356Y-122171626D01*
X80704356Y-122171626D02*
X80704356Y-121600198D01*
X80704356Y-121600198D02*
X80632928Y-121457341D01*
X80632928Y-121457341D02*
X80490071Y-121385912D01*
X80490071Y-121385912D02*
X80204356Y-121385912D01*
X80204356Y-121385912D02*
X80061499Y-121457341D01*
X80061499Y-121457341D02*
X79990071Y-121600198D01*
X79990071Y-121600198D02*
X79990071Y-121743055D01*
X79990071Y-121743055D02*
X80704356Y-121885912D01*
X79347214Y-122385912D02*
X79347214Y-121385912D01*
X79347214Y-121671626D02*
X79275785Y-121528769D01*
X79275785Y-121528769D02*
X79204357Y-121457341D01*
X79204357Y-121457341D02*
X79061499Y-121385912D01*
X79061499Y-121385912D02*
X78918642Y-121385912D01*
X78418643Y-122385912D02*
X78418643Y-121385912D01*
X78418643Y-120885912D02*
X78490071Y-120957341D01*
X78490071Y-120957341D02*
X78418643Y-121028769D01*
X78418643Y-121028769D02*
X78347214Y-120957341D01*
X78347214Y-120957341D02*
X78418643Y-120885912D01*
X78418643Y-120885912D02*
X78418643Y-121028769D01*
X77704357Y-121385912D02*
X77704357Y-122385912D01*
X77704357Y-121528769D02*
X77632928Y-121457341D01*
X77632928Y-121457341D02*
X77490071Y-121385912D01*
X77490071Y-121385912D02*
X77275785Y-121385912D01*
X77275785Y-121385912D02*
X77132928Y-121457341D01*
X77132928Y-121457341D02*
X77061500Y-121600198D01*
X77061500Y-121600198D02*
X77061500Y-122385912D01*
X75704357Y-121385912D02*
X75704357Y-122600198D01*
X75704357Y-122600198D02*
X75775785Y-122743055D01*
X75775785Y-122743055D02*
X75847214Y-122814484D01*
X75847214Y-122814484D02*
X75990071Y-122885912D01*
X75990071Y-122885912D02*
X76204357Y-122885912D01*
X76204357Y-122885912D02*
X76347214Y-122814484D01*
X75704357Y-122314484D02*
X75847214Y-122385912D01*
X75847214Y-122385912D02*
X76132928Y-122385912D01*
X76132928Y-122385912D02*
X76275785Y-122314484D01*
X76275785Y-122314484D02*
X76347214Y-122243055D01*
X76347214Y-122243055D02*
X76418642Y-122100198D01*
X76418642Y-122100198D02*
X76418642Y-121671626D01*
X76418642Y-121671626D02*
X76347214Y-121528769D01*
X76347214Y-121528769D02*
X76275785Y-121457341D01*
X76275785Y-121457341D02*
X76132928Y-121385912D01*
X76132928Y-121385912D02*
X75847214Y-121385912D01*
X75847214Y-121385912D02*
X75704357Y-121457341D01*
X95990072Y-124800828D02*
X95990072Y-124015114D01*
X95990072Y-124015114D02*
X96061500Y-123872257D01*
X96061500Y-123872257D02*
X96204357Y-123800828D01*
X96204357Y-123800828D02*
X96490072Y-123800828D01*
X96490072Y-123800828D02*
X96632929Y-123872257D01*
X95990072Y-124729400D02*
X96132929Y-124800828D01*
X96132929Y-124800828D02*
X96490072Y-124800828D01*
X96490072Y-124800828D02*
X96632929Y-124729400D01*
X96632929Y-124729400D02*
X96704357Y-124586542D01*
X96704357Y-124586542D02*
X96704357Y-124443685D01*
X96704357Y-124443685D02*
X96632929Y-124300828D01*
X96632929Y-124300828D02*
X96490072Y-124229400D01*
X96490072Y-124229400D02*
X96132929Y-124229400D01*
X96132929Y-124229400D02*
X95990072Y-124157971D01*
X95275786Y-123800828D02*
X95275786Y-124800828D01*
X95275786Y-123943685D02*
X95204357Y-123872257D01*
X95204357Y-123872257D02*
X95061500Y-123800828D01*
X95061500Y-123800828D02*
X94847214Y-123800828D01*
X94847214Y-123800828D02*
X94704357Y-123872257D01*
X94704357Y-123872257D02*
X94632929Y-124015114D01*
X94632929Y-124015114D02*
X94632929Y-124800828D01*
X93275786Y-124800828D02*
X93275786Y-123300828D01*
X93275786Y-124729400D02*
X93418643Y-124800828D01*
X93418643Y-124800828D02*
X93704357Y-124800828D01*
X93704357Y-124800828D02*
X93847214Y-124729400D01*
X93847214Y-124729400D02*
X93918643Y-124657971D01*
X93918643Y-124657971D02*
X93990071Y-124515114D01*
X93990071Y-124515114D02*
X93990071Y-124086542D01*
X93990071Y-124086542D02*
X93918643Y-123943685D01*
X93918643Y-123943685D02*
X93847214Y-123872257D01*
X93847214Y-123872257D02*
X93704357Y-123800828D01*
X93704357Y-123800828D02*
X93418643Y-123800828D01*
X93418643Y-123800828D02*
X93275786Y-123872257D01*
X90775786Y-124800828D02*
X90775786Y-124015114D01*
X90775786Y-124015114D02*
X90847214Y-123872257D01*
X90847214Y-123872257D02*
X90990071Y-123800828D01*
X90990071Y-123800828D02*
X91275786Y-123800828D01*
X91275786Y-123800828D02*
X91418643Y-123872257D01*
X90775786Y-124729400D02*
X90918643Y-124800828D01*
X90918643Y-124800828D02*
X91275786Y-124800828D01*
X91275786Y-124800828D02*
X91418643Y-124729400D01*
X91418643Y-124729400D02*
X91490071Y-124586542D01*
X91490071Y-124586542D02*
X91490071Y-124443685D01*
X91490071Y-124443685D02*
X91418643Y-124300828D01*
X91418643Y-124300828D02*
X91275786Y-124229400D01*
X91275786Y-124229400D02*
X90918643Y-124229400D01*
X90918643Y-124229400D02*
X90775786Y-124157971D01*
X90132928Y-124729400D02*
X89990071Y-124800828D01*
X89990071Y-124800828D02*
X89704357Y-124800828D01*
X89704357Y-124800828D02*
X89561500Y-124729400D01*
X89561500Y-124729400D02*
X89490071Y-124586542D01*
X89490071Y-124586542D02*
X89490071Y-124515114D01*
X89490071Y-124515114D02*
X89561500Y-124372257D01*
X89561500Y-124372257D02*
X89704357Y-124300828D01*
X89704357Y-124300828D02*
X89918643Y-124300828D01*
X89918643Y-124300828D02*
X90061500Y-124229400D01*
X90061500Y-124229400D02*
X90132928Y-124086542D01*
X90132928Y-124086542D02*
X90132928Y-124015114D01*
X90132928Y-124015114D02*
X90061500Y-123872257D01*
X90061500Y-123872257D02*
X89918643Y-123800828D01*
X89918643Y-123800828D02*
X89704357Y-123800828D01*
X89704357Y-123800828D02*
X89561500Y-123872257D01*
X88918642Y-124729400D02*
X88775785Y-124800828D01*
X88775785Y-124800828D02*
X88490071Y-124800828D01*
X88490071Y-124800828D02*
X88347214Y-124729400D01*
X88347214Y-124729400D02*
X88275785Y-124586542D01*
X88275785Y-124586542D02*
X88275785Y-124515114D01*
X88275785Y-124515114D02*
X88347214Y-124372257D01*
X88347214Y-124372257D02*
X88490071Y-124300828D01*
X88490071Y-124300828D02*
X88704357Y-124300828D01*
X88704357Y-124300828D02*
X88847214Y-124229400D01*
X88847214Y-124229400D02*
X88918642Y-124086542D01*
X88918642Y-124086542D02*
X88918642Y-124015114D01*
X88918642Y-124015114D02*
X88847214Y-123872257D01*
X88847214Y-123872257D02*
X88704357Y-123800828D01*
X88704357Y-123800828D02*
X88490071Y-123800828D01*
X88490071Y-123800828D02*
X88347214Y-123872257D01*
X87061499Y-124729400D02*
X87204356Y-124800828D01*
X87204356Y-124800828D02*
X87490071Y-124800828D01*
X87490071Y-124800828D02*
X87632928Y-124729400D01*
X87632928Y-124729400D02*
X87704356Y-124586542D01*
X87704356Y-124586542D02*
X87704356Y-124015114D01*
X87704356Y-124015114D02*
X87632928Y-123872257D01*
X87632928Y-123872257D02*
X87490071Y-123800828D01*
X87490071Y-123800828D02*
X87204356Y-123800828D01*
X87204356Y-123800828D02*
X87061499Y-123872257D01*
X87061499Y-123872257D02*
X86990071Y-124015114D01*
X86990071Y-124015114D02*
X86990071Y-124157971D01*
X86990071Y-124157971D02*
X87704356Y-124300828D01*
X86347214Y-124800828D02*
X86347214Y-123800828D01*
X86347214Y-123943685D02*
X86275785Y-123872257D01*
X86275785Y-123872257D02*
X86132928Y-123800828D01*
X86132928Y-123800828D02*
X85918642Y-123800828D01*
X85918642Y-123800828D02*
X85775785Y-123872257D01*
X85775785Y-123872257D02*
X85704357Y-124015114D01*
X85704357Y-124015114D02*
X85704357Y-124800828D01*
X85704357Y-124015114D02*
X85632928Y-123872257D01*
X85632928Y-123872257D02*
X85490071Y-123800828D01*
X85490071Y-123800828D02*
X85275785Y-123800828D01*
X85275785Y-123800828D02*
X85132928Y-123872257D01*
X85132928Y-123872257D02*
X85061499Y-124015114D01*
X85061499Y-124015114D02*
X85061499Y-124800828D01*
X84347214Y-124800828D02*
X84347214Y-123300828D01*
X84347214Y-123872257D02*
X84204357Y-123800828D01*
X84204357Y-123800828D02*
X83918642Y-123800828D01*
X83918642Y-123800828D02*
X83775785Y-123872257D01*
X83775785Y-123872257D02*
X83704357Y-123943685D01*
X83704357Y-123943685D02*
X83632928Y-124086542D01*
X83632928Y-124086542D02*
X83632928Y-124515114D01*
X83632928Y-124515114D02*
X83704357Y-124657971D01*
X83704357Y-124657971D02*
X83775785Y-124729400D01*
X83775785Y-124729400D02*
X83918642Y-124800828D01*
X83918642Y-124800828D02*
X84204357Y-124800828D01*
X84204357Y-124800828D02*
X84347214Y-124729400D01*
X82775785Y-124800828D02*
X82918642Y-124729400D01*
X82918642Y-124729400D02*
X82990071Y-124586542D01*
X82990071Y-124586542D02*
X82990071Y-123300828D01*
X82204357Y-124800828D02*
X82204357Y-123800828D01*
X82204357Y-123300828D02*
X82275785Y-123372257D01*
X82275785Y-123372257D02*
X82204357Y-123443685D01*
X82204357Y-123443685D02*
X82132928Y-123372257D01*
X82132928Y-123372257D02*
X82204357Y-123300828D01*
X82204357Y-123300828D02*
X82204357Y-123443685D01*
X81490071Y-123800828D02*
X81490071Y-124800828D01*
X81490071Y-123943685D02*
X81418642Y-123872257D01*
X81418642Y-123872257D02*
X81275785Y-123800828D01*
X81275785Y-123800828D02*
X81061499Y-123800828D01*
X81061499Y-123800828D02*
X80918642Y-123872257D01*
X80918642Y-123872257D02*
X80847214Y-124015114D01*
X80847214Y-124015114D02*
X80847214Y-124800828D01*
X79490071Y-123800828D02*
X79490071Y-125015114D01*
X79490071Y-125015114D02*
X79561499Y-125157971D01*
X79561499Y-125157971D02*
X79632928Y-125229400D01*
X79632928Y-125229400D02*
X79775785Y-125300828D01*
X79775785Y-125300828D02*
X79990071Y-125300828D01*
X79990071Y-125300828D02*
X80132928Y-125229400D01*
X79490071Y-124729400D02*
X79632928Y-124800828D01*
X79632928Y-124800828D02*
X79918642Y-124800828D01*
X79918642Y-124800828D02*
X80061499Y-124729400D01*
X80061499Y-124729400D02*
X80132928Y-124657971D01*
X80132928Y-124657971D02*
X80204356Y-124515114D01*
X80204356Y-124515114D02*
X80204356Y-124086542D01*
X80204356Y-124086542D02*
X80132928Y-123943685D01*
X80132928Y-123943685D02*
X80061499Y-123872257D01*
X80061499Y-123872257D02*
X79918642Y-123800828D01*
X79918642Y-123800828D02*
X79632928Y-123800828D01*
X79632928Y-123800828D02*
X79490071Y-123872257D01*
D11*
G36*
X86530000Y-134600000D02*
G01*
X86130000Y-134600000D01*
X86130000Y-134200000D01*
X86530000Y-134200000D01*
X86530000Y-134600000D01*
G37*
G36*
X90130000Y-129000000D02*
G01*
X90530000Y-129000000D01*
X90530000Y-129400000D01*
X90530000Y-129800000D01*
X90130000Y-129800000D01*
X90130000Y-129400000D01*
X89730000Y-129400000D01*
X89730000Y-129800000D01*
X90130000Y-129800000D01*
X90130000Y-130200000D01*
X89730000Y-130200000D01*
X89730000Y-130600000D01*
X90130000Y-130600000D01*
X90130000Y-130200000D01*
X91330000Y-130200000D01*
X91330000Y-130600000D01*
X90530000Y-130600000D01*
X90530000Y-131000000D01*
X91330000Y-131000000D01*
X91330000Y-131400000D01*
X90130000Y-131400000D01*
X90130000Y-131000000D01*
X88930000Y-131000000D01*
X88930000Y-131400000D01*
X88130000Y-131400000D01*
X88130000Y-131800000D01*
X88130000Y-132200000D01*
X87730000Y-132200000D01*
X87730000Y-131800000D01*
X86930000Y-131800000D01*
X86930000Y-132200000D01*
X86130000Y-132200000D01*
X86130000Y-132600000D01*
X86130000Y-133000000D01*
X86130000Y-133400000D01*
X88530000Y-133400000D01*
X88530000Y-133800000D01*
X88530000Y-134200000D01*
X88130000Y-134200000D01*
X88130000Y-133800000D01*
X87330000Y-133800000D01*
X87330000Y-135000000D01*
X88530000Y-135000000D01*
X88530000Y-134200000D01*
X88930000Y-134200000D01*
X88930000Y-135000000D01*
X89330000Y-135000000D01*
X89330000Y-135400000D01*
X89330000Y-135800000D01*
X88930000Y-135800000D01*
X88930000Y-135400000D01*
X88530000Y-135400000D01*
X88530000Y-135800000D01*
X88130000Y-135800000D01*
X88130000Y-135400000D01*
X86930000Y-135400000D01*
X86930000Y-135800000D01*
X86930000Y-136200000D01*
X86530000Y-136200000D01*
X86530000Y-135800000D01*
X86130000Y-135800000D01*
X86130000Y-135400000D01*
X85730000Y-135400000D01*
X85730000Y-135800000D01*
X85330000Y-135800000D01*
X85330000Y-136200000D01*
X86130000Y-136200000D01*
X86130000Y-136600000D01*
X86930000Y-136600000D01*
X86930000Y-137000000D01*
X83730000Y-137000000D01*
X83730000Y-136600000D01*
X83730000Y-135800000D01*
X84130000Y-135800000D01*
X84130000Y-136600000D01*
X84930000Y-136600000D01*
X84930000Y-136200000D01*
X84530000Y-136200000D01*
X84530000Y-135800000D01*
X84530000Y-135400000D01*
X84530000Y-135000000D01*
X84930000Y-135000000D01*
X84930000Y-135400000D01*
X85330000Y-135400000D01*
X85330000Y-135000000D01*
X84930000Y-135000000D01*
X84930000Y-134600000D01*
X85330000Y-134600000D01*
X85330000Y-134200000D01*
X85730000Y-134200000D01*
X85730000Y-134600000D01*
X85730000Y-135000000D01*
X86930000Y-135000000D01*
X86930000Y-133800000D01*
X85730000Y-133800000D01*
X85730000Y-134200000D01*
X85330000Y-134200000D01*
X84930000Y-134200000D01*
X84930000Y-133800000D01*
X85330000Y-133800000D01*
X85330000Y-133400000D01*
X85330000Y-133000000D01*
X84930000Y-133000000D01*
X84930000Y-132600000D01*
X84930000Y-132200000D01*
X85330000Y-132200000D01*
X85330000Y-132600000D01*
X85730000Y-132600000D01*
X85730000Y-132200000D01*
X85330000Y-132200000D01*
X85330000Y-131800000D01*
X85730000Y-131800000D01*
X85730000Y-131400000D01*
X87330000Y-131400000D01*
X87330000Y-131000000D01*
X88130000Y-131000000D01*
X88530000Y-131000000D01*
X88930000Y-131000000D01*
X88930000Y-130600000D01*
X88530000Y-130600000D01*
X88530000Y-131000000D01*
X88130000Y-131000000D01*
X88130000Y-130600000D01*
X88130000Y-130200000D01*
X88930000Y-130200000D01*
X88930000Y-129800000D01*
X89330000Y-129800000D01*
X89330000Y-129400000D01*
X89330000Y-129000000D01*
X89730000Y-129000000D01*
X89730000Y-128600000D01*
X90130000Y-128600000D01*
X90130000Y-129000000D01*
G37*
G36*
X90530000Y-135400000D02*
G01*
X90530000Y-135800000D01*
X90530000Y-136600000D01*
X90530000Y-137000000D01*
X89330000Y-137000000D01*
X89330000Y-136600000D01*
X88930000Y-136600000D01*
X88930000Y-137000000D01*
X87730000Y-137000000D01*
X87730000Y-136600000D01*
X87730000Y-136200000D01*
X88130000Y-136200000D01*
X88130000Y-136600000D01*
X88930000Y-136600000D01*
X88930000Y-136200000D01*
X89730000Y-136200000D01*
X89730000Y-136600000D01*
X90130000Y-136600000D01*
X90130000Y-135800000D01*
X89730000Y-135800000D01*
X89730000Y-135400000D01*
X90130000Y-135400000D01*
X90130000Y-135000000D01*
X90530000Y-135000000D01*
X90530000Y-135400000D01*
G37*
G36*
X92930000Y-136200000D02*
G01*
X91730000Y-136200000D01*
X91730000Y-135000000D01*
X92930000Y-135000000D01*
X92930000Y-136200000D01*
G37*
G36*
X93730000Y-136600000D02*
G01*
X93730000Y-137000000D01*
X90930000Y-137000000D01*
X90930000Y-136600000D01*
X90930000Y-134600000D01*
X91330000Y-134600000D01*
X91330000Y-136600000D01*
X93330000Y-136600000D01*
X93330000Y-134600000D01*
X91330000Y-134600000D01*
X90930000Y-134600000D01*
X90930000Y-134200000D01*
X93730000Y-134200000D01*
X93730000Y-134600000D01*
X93730000Y-136600000D01*
G37*
G36*
X87330000Y-136600000D02*
G01*
X86930000Y-136600000D01*
X86930000Y-136200000D01*
X87330000Y-136200000D01*
X87330000Y-136600000D01*
G37*
G36*
X84930000Y-134600000D02*
G01*
X84130000Y-134600000D01*
X84130000Y-135400000D01*
X83730000Y-135400000D01*
X83730000Y-134600000D01*
X83730000Y-134200000D01*
X84930000Y-134200000D01*
X84930000Y-134600000D01*
G37*
G36*
X88130000Y-134600000D02*
G01*
X87730000Y-134600000D01*
X87730000Y-134200000D01*
X88130000Y-134200000D01*
X88130000Y-134600000D01*
G37*
G36*
X89730000Y-134600000D02*
G01*
X89330000Y-134600000D01*
X89330000Y-134200000D01*
X89730000Y-134200000D01*
X89730000Y-134600000D01*
G37*
G36*
X90530000Y-134600000D02*
G01*
X90130000Y-134600000D01*
X90130000Y-133800000D01*
X90530000Y-133800000D01*
X90530000Y-134600000D01*
G37*
G36*
X89330000Y-134200000D02*
G01*
X88930000Y-134200000D01*
X88930000Y-133800000D01*
X89330000Y-133800000D01*
X89330000Y-134200000D01*
G37*
G36*
X84930000Y-133800000D02*
G01*
X84530000Y-133800000D01*
X84530000Y-133400000D01*
X84930000Y-133400000D01*
X84930000Y-133800000D01*
G37*
G36*
X90130000Y-133800000D02*
G01*
X89730000Y-133800000D01*
X89730000Y-133400000D01*
X90130000Y-133400000D01*
X90130000Y-133800000D01*
G37*
G36*
X90130000Y-132600000D02*
G01*
X91330000Y-132600000D01*
X91330000Y-133000000D01*
X90930000Y-133000000D01*
X90930000Y-133400000D01*
X91330000Y-133400000D01*
X91330000Y-133000000D01*
X91730000Y-133000000D01*
X91730000Y-132600000D01*
X92530000Y-132600000D01*
X92530000Y-133000000D01*
X92530000Y-133400000D01*
X91730000Y-133400000D01*
X91730000Y-133800000D01*
X90530000Y-133800000D01*
X90530000Y-133400000D01*
X90530000Y-133000000D01*
X89730000Y-133000000D01*
X89730000Y-132600000D01*
X89730000Y-131400000D01*
X90130000Y-131400000D01*
X90130000Y-132600000D01*
G37*
G36*
X92930000Y-133800000D02*
G01*
X92530000Y-133800000D01*
X92530000Y-133400000D01*
X92930000Y-133400000D01*
X92930000Y-133800000D01*
G37*
G36*
X93730000Y-130600000D02*
G01*
X93330000Y-130600000D01*
X93330000Y-131000000D01*
X93730000Y-131000000D01*
X93730000Y-131400000D01*
X93730000Y-132200000D01*
X93730000Y-132600000D01*
X93730000Y-133800000D01*
X93330000Y-133800000D01*
X93330000Y-132600000D01*
X92530000Y-132600000D01*
X92530000Y-132200000D01*
X93330000Y-132200000D01*
X93330000Y-131400000D01*
X92930000Y-131400000D01*
X92930000Y-131000000D01*
X92130000Y-131000000D01*
X92130000Y-130600000D01*
X91730000Y-130600000D01*
X91730000Y-130200000D01*
X93730000Y-130200000D01*
X93730000Y-130600000D01*
G37*
G36*
X84530000Y-131000000D02*
G01*
X84530000Y-131400000D01*
X84130000Y-131400000D01*
X84130000Y-131800000D01*
X84930000Y-131800000D01*
X84930000Y-132200000D01*
X84530000Y-132200000D01*
X84530000Y-132600000D01*
X84530000Y-133000000D01*
X84130000Y-133000000D01*
X84130000Y-133400000D01*
X83730000Y-133400000D01*
X83730000Y-133000000D01*
X83730000Y-132600000D01*
X84130000Y-132600000D01*
X84130000Y-132200000D01*
X83730000Y-132200000D01*
X83730000Y-131800000D01*
X83730000Y-131400000D01*
X83730000Y-131000000D01*
X84130000Y-131000000D01*
X84130000Y-130200000D01*
X84530000Y-130200000D01*
X84530000Y-131000000D01*
G37*
G36*
X86930000Y-133000000D02*
G01*
X86530000Y-133000000D01*
X86530000Y-132600000D01*
X86930000Y-132600000D01*
X86930000Y-133000000D01*
G37*
G36*
X88930000Y-133000000D02*
G01*
X87330000Y-133000000D01*
X87330000Y-132600000D01*
X88930000Y-132600000D01*
X88930000Y-133000000D01*
G37*
G36*
X87330000Y-132600000D02*
G01*
X86930000Y-132600000D01*
X86930000Y-132200000D01*
X87330000Y-132200000D01*
X87330000Y-132600000D01*
G37*
G36*
X89330000Y-132200000D02*
G01*
X88530000Y-132200000D01*
X88530000Y-131800000D01*
X89330000Y-131800000D01*
X89330000Y-132200000D01*
G37*
G36*
X91730000Y-131800000D02*
G01*
X91730000Y-132200000D01*
X90530000Y-132200000D01*
X90530000Y-131800000D01*
X91330000Y-131800000D01*
X91330000Y-131400000D01*
X91730000Y-131400000D01*
X91730000Y-131800000D01*
G37*
G36*
X92930000Y-131800000D02*
G01*
X92530000Y-131800000D01*
X92530000Y-132200000D01*
X92130000Y-132200000D01*
X92130000Y-131800000D01*
X92130000Y-131400000D01*
X92930000Y-131400000D01*
X92930000Y-131800000D01*
G37*
G36*
X85330000Y-131400000D02*
G01*
X84930000Y-131400000D01*
X84930000Y-131000000D01*
X85330000Y-131000000D01*
X85330000Y-131400000D01*
G37*
G36*
X92130000Y-131400000D02*
G01*
X91730000Y-131400000D01*
X91730000Y-131000000D01*
X92130000Y-131000000D01*
X92130000Y-131400000D01*
G37*
G36*
X86130000Y-131000000D02*
G01*
X85730000Y-131000000D01*
X85730000Y-130200000D01*
X86130000Y-130200000D01*
X86130000Y-131000000D01*
G37*
G36*
X85330000Y-130600000D02*
G01*
X84930000Y-130600000D01*
X84930000Y-130200000D01*
X85330000Y-130200000D01*
X85330000Y-130600000D01*
G37*
G36*
X86930000Y-130600000D02*
G01*
X86530000Y-130600000D01*
X86530000Y-130200000D01*
X86930000Y-130200000D01*
X86930000Y-130600000D01*
G37*
G36*
X87330000Y-130200000D02*
G01*
X86930000Y-130200000D01*
X86930000Y-129400000D01*
X87330000Y-129400000D01*
X87330000Y-130200000D01*
G37*
G36*
X88130000Y-129400000D02*
G01*
X88130000Y-130200000D01*
X87730000Y-130200000D01*
X87730000Y-129400000D01*
X87330000Y-129400000D01*
X87330000Y-129000000D01*
X88130000Y-129000000D01*
X88130000Y-129400000D01*
G37*
G36*
X85730000Y-129000000D02*
G01*
X84530000Y-129000000D01*
X84530000Y-127800000D01*
X85730000Y-127800000D01*
X85730000Y-129000000D01*
G37*
G36*
X86530000Y-129400000D02*
G01*
X86530000Y-129800000D01*
X83730000Y-129800000D01*
X83730000Y-129400000D01*
X83730000Y-127400000D01*
X84130000Y-127400000D01*
X84130000Y-129400000D01*
X86130000Y-129400000D01*
X86130000Y-127400000D01*
X84130000Y-127400000D01*
X83730000Y-127400000D01*
X83730000Y-127000000D01*
X86530000Y-127000000D01*
X86530000Y-127400000D01*
X86530000Y-129400000D01*
G37*
G36*
X88930000Y-129800000D02*
G01*
X88530000Y-129800000D01*
X88530000Y-129400000D01*
X88930000Y-129400000D01*
X88930000Y-129800000D01*
G37*
G36*
X92930000Y-129000000D02*
G01*
X91730000Y-129000000D01*
X91730000Y-127800000D01*
X92930000Y-127800000D01*
X92930000Y-129000000D01*
G37*
G36*
X93730000Y-129400000D02*
G01*
X93730000Y-129800000D01*
X90930000Y-129800000D01*
X90930000Y-129400000D01*
X90930000Y-127400000D01*
X91330000Y-127400000D01*
X91330000Y-129400000D01*
X93330000Y-129400000D01*
X93330000Y-127400000D01*
X91330000Y-127400000D01*
X90930000Y-127400000D01*
X90930000Y-127000000D01*
X93730000Y-127000000D01*
X93730000Y-127400000D01*
X93730000Y-129400000D01*
G37*
G36*
X87330000Y-129000000D02*
G01*
X86930000Y-129000000D01*
X86930000Y-128600000D01*
X87330000Y-128600000D01*
X87330000Y-129000000D01*
G37*
G36*
X87330000Y-127400000D02*
G01*
X88130000Y-127400000D01*
X88130000Y-127000000D01*
X88530000Y-127000000D01*
X88530000Y-127400000D01*
X88530000Y-127800000D01*
X88130000Y-127800000D01*
X88130000Y-128200000D01*
X88930000Y-128200000D01*
X88930000Y-127800000D01*
X89330000Y-127800000D01*
X89330000Y-127400000D01*
X89730000Y-127400000D01*
X89730000Y-127800000D01*
X90130000Y-127800000D01*
X90130000Y-128200000D01*
X89730000Y-128200000D01*
X89730000Y-128600000D01*
X89330000Y-128600000D01*
X89330000Y-128200000D01*
X88930000Y-128200000D01*
X88930000Y-128600000D01*
X88530000Y-128600000D01*
X88530000Y-129000000D01*
X88130000Y-129000000D01*
X88130000Y-128600000D01*
X87330000Y-128600000D01*
X87330000Y-128200000D01*
X87730000Y-128200000D01*
X87730000Y-127800000D01*
X86930000Y-127800000D01*
X86930000Y-127400000D01*
X86930000Y-127000000D01*
X87330000Y-127000000D01*
X87330000Y-127400000D01*
G37*
G36*
X89330000Y-129000000D02*
G01*
X88930000Y-129000000D01*
X88930000Y-128600000D01*
X89330000Y-128600000D01*
X89330000Y-129000000D01*
G37*
G36*
X90530000Y-128600000D02*
G01*
X90130000Y-128600000D01*
X90130000Y-128200000D01*
X90530000Y-128200000D01*
X90530000Y-128600000D01*
G37*
G36*
X90530000Y-127800000D02*
G01*
X90130000Y-127800000D01*
X90130000Y-127400000D01*
X90530000Y-127400000D01*
X90530000Y-127800000D01*
G37*
G36*
X89330000Y-127400000D02*
G01*
X88930000Y-127400000D01*
X88930000Y-127000000D01*
X89330000Y-127000000D01*
X89330000Y-127400000D01*
G37*
G36*
X90130000Y-127400000D02*
G01*
X89730000Y-127400000D01*
X89730000Y-127000000D01*
X90130000Y-127000000D01*
X90130000Y-127400000D01*
G37*
D12*
X150086666Y-98084819D02*
X150419999Y-97608628D01*
X150658094Y-98084819D02*
X150658094Y-97084819D01*
X150658094Y-97084819D02*
X150277142Y-97084819D01*
X150277142Y-97084819D02*
X150181904Y-97132438D01*
X150181904Y-97132438D02*
X150134285Y-97180057D01*
X150134285Y-97180057D02*
X150086666Y-97275295D01*
X150086666Y-97275295D02*
X150086666Y-97418152D01*
X150086666Y-97418152D02*
X150134285Y-97513390D01*
X150134285Y-97513390D02*
X150181904Y-97561009D01*
X150181904Y-97561009D02*
X150277142Y-97608628D01*
X150277142Y-97608628D02*
X150658094Y-97608628D01*
X149181904Y-97084819D02*
X149658094Y-97084819D01*
X149658094Y-97084819D02*
X149705713Y-97561009D01*
X149705713Y-97561009D02*
X149658094Y-97513390D01*
X149658094Y-97513390D02*
X149562856Y-97465771D01*
X149562856Y-97465771D02*
X149324761Y-97465771D01*
X149324761Y-97465771D02*
X149229523Y-97513390D01*
X149229523Y-97513390D02*
X149181904Y-97561009D01*
X149181904Y-97561009D02*
X149134285Y-97656247D01*
X149134285Y-97656247D02*
X149134285Y-97894342D01*
X149134285Y-97894342D02*
X149181904Y-97989580D01*
X149181904Y-97989580D02*
X149229523Y-98037200D01*
X149229523Y-98037200D02*
X149324761Y-98084819D01*
X149324761Y-98084819D02*
X149562856Y-98084819D01*
X149562856Y-98084819D02*
X149658094Y-98037200D01*
X149658094Y-98037200D02*
X149705713Y-97989580D01*
X151777142Y-99454819D02*
X151158095Y-99454819D01*
X151158095Y-99454819D02*
X151491428Y-99835771D01*
X151491428Y-99835771D02*
X151348571Y-99835771D01*
X151348571Y-99835771D02*
X151253333Y-99883390D01*
X151253333Y-99883390D02*
X151205714Y-99931009D01*
X151205714Y-99931009D02*
X151158095Y-100026247D01*
X151158095Y-100026247D02*
X151158095Y-100264342D01*
X151158095Y-100264342D02*
X151205714Y-100359580D01*
X151205714Y-100359580D02*
X151253333Y-100407200D01*
X151253333Y-100407200D02*
X151348571Y-100454819D01*
X151348571Y-100454819D02*
X151634285Y-100454819D01*
X151634285Y-100454819D02*
X151729523Y-100407200D01*
X151729523Y-100407200D02*
X151777142Y-100359580D01*
X150824761Y-99454819D02*
X150205714Y-99454819D01*
X150205714Y-99454819D02*
X150539047Y-99835771D01*
X150539047Y-99835771D02*
X150396190Y-99835771D01*
X150396190Y-99835771D02*
X150300952Y-99883390D01*
X150300952Y-99883390D02*
X150253333Y-99931009D01*
X150253333Y-99931009D02*
X150205714Y-100026247D01*
X150205714Y-100026247D02*
X150205714Y-100264342D01*
X150205714Y-100264342D02*
X150253333Y-100359580D01*
X150253333Y-100359580D02*
X150300952Y-100407200D01*
X150300952Y-100407200D02*
X150396190Y-100454819D01*
X150396190Y-100454819D02*
X150681904Y-100454819D01*
X150681904Y-100454819D02*
X150777142Y-100407200D01*
X150777142Y-100407200D02*
X150824761Y-100359580D01*
X149586666Y-99454819D02*
X149491428Y-99454819D01*
X149491428Y-99454819D02*
X149396190Y-99502438D01*
X149396190Y-99502438D02*
X149348571Y-99550057D01*
X149348571Y-99550057D02*
X149300952Y-99645295D01*
X149300952Y-99645295D02*
X149253333Y-99835771D01*
X149253333Y-99835771D02*
X149253333Y-100073866D01*
X149253333Y-100073866D02*
X149300952Y-100264342D01*
X149300952Y-100264342D02*
X149348571Y-100359580D01*
X149348571Y-100359580D02*
X149396190Y-100407200D01*
X149396190Y-100407200D02*
X149491428Y-100454819D01*
X149491428Y-100454819D02*
X149586666Y-100454819D01*
X149586666Y-100454819D02*
X149681904Y-100407200D01*
X149681904Y-100407200D02*
X149729523Y-100359580D01*
X149729523Y-100359580D02*
X149777142Y-100264342D01*
X149777142Y-100264342D02*
X149824761Y-100073866D01*
X149824761Y-100073866D02*
X149824761Y-99835771D01*
X149824761Y-99835771D02*
X149777142Y-99645295D01*
X149777142Y-99645295D02*
X149729523Y-99550057D01*
X149729523Y-99550057D02*
X149681904Y-99502438D01*
X149681904Y-99502438D02*
X149586666Y-99454819D01*
X148872380Y-100454819D02*
X148634285Y-100454819D01*
X148634285Y-100454819D02*
X148634285Y-100264342D01*
X148634285Y-100264342D02*
X148729523Y-100216723D01*
X148729523Y-100216723D02*
X148824761Y-100121485D01*
X148824761Y-100121485D02*
X148872380Y-99978628D01*
X148872380Y-99978628D02*
X148872380Y-99740533D01*
X148872380Y-99740533D02*
X148824761Y-99597676D01*
X148824761Y-99597676D02*
X148729523Y-99502438D01*
X148729523Y-99502438D02*
X148586666Y-99454819D01*
X148586666Y-99454819D02*
X148396190Y-99454819D01*
X148396190Y-99454819D02*
X148253333Y-99502438D01*
X148253333Y-99502438D02*
X148158095Y-99597676D01*
X148158095Y-99597676D02*
X148110476Y-99740533D01*
X148110476Y-99740533D02*
X148110476Y-99978628D01*
X148110476Y-99978628D02*
X148158095Y-100121485D01*
X148158095Y-100121485D02*
X148253333Y-100216723D01*
X148253333Y-100216723D02*
X148348571Y-100264342D01*
X148348571Y-100264342D02*
X148348571Y-100454819D01*
X148348571Y-100454819D02*
X148110476Y-100454819D01*
X150166666Y-92084819D02*
X150499999Y-91608628D01*
X150738094Y-92084819D02*
X150738094Y-91084819D01*
X150738094Y-91084819D02*
X150357142Y-91084819D01*
X150357142Y-91084819D02*
X150261904Y-91132438D01*
X150261904Y-91132438D02*
X150214285Y-91180057D01*
X150214285Y-91180057D02*
X150166666Y-91275295D01*
X150166666Y-91275295D02*
X150166666Y-91418152D01*
X150166666Y-91418152D02*
X150214285Y-91513390D01*
X150214285Y-91513390D02*
X150261904Y-91561009D01*
X150261904Y-91561009D02*
X150357142Y-91608628D01*
X150357142Y-91608628D02*
X150738094Y-91608628D01*
X149309523Y-91084819D02*
X149499999Y-91084819D01*
X149499999Y-91084819D02*
X149595237Y-91132438D01*
X149595237Y-91132438D02*
X149642856Y-91180057D01*
X149642856Y-91180057D02*
X149738094Y-91322914D01*
X149738094Y-91322914D02*
X149785713Y-91513390D01*
X149785713Y-91513390D02*
X149785713Y-91894342D01*
X149785713Y-91894342D02*
X149738094Y-91989580D01*
X149738094Y-91989580D02*
X149690475Y-92037200D01*
X149690475Y-92037200D02*
X149595237Y-92084819D01*
X149595237Y-92084819D02*
X149404761Y-92084819D01*
X149404761Y-92084819D02*
X149309523Y-92037200D01*
X149309523Y-92037200D02*
X149261904Y-91989580D01*
X149261904Y-91989580D02*
X149214285Y-91894342D01*
X149214285Y-91894342D02*
X149214285Y-91656247D01*
X149214285Y-91656247D02*
X149261904Y-91561009D01*
X149261904Y-91561009D02*
X149309523Y-91513390D01*
X149309523Y-91513390D02*
X149404761Y-91465771D01*
X149404761Y-91465771D02*
X149595237Y-91465771D01*
X149595237Y-91465771D02*
X149690475Y-91513390D01*
X149690475Y-91513390D02*
X149738094Y-91561009D01*
X149738094Y-91561009D02*
X149785713Y-91656247D01*
X151857142Y-93454819D02*
X151238095Y-93454819D01*
X151238095Y-93454819D02*
X151571428Y-93835771D01*
X151571428Y-93835771D02*
X151428571Y-93835771D01*
X151428571Y-93835771D02*
X151333333Y-93883390D01*
X151333333Y-93883390D02*
X151285714Y-93931009D01*
X151285714Y-93931009D02*
X151238095Y-94026247D01*
X151238095Y-94026247D02*
X151238095Y-94264342D01*
X151238095Y-94264342D02*
X151285714Y-94359580D01*
X151285714Y-94359580D02*
X151333333Y-94407200D01*
X151333333Y-94407200D02*
X151428571Y-94454819D01*
X151428571Y-94454819D02*
X151714285Y-94454819D01*
X151714285Y-94454819D02*
X151809523Y-94407200D01*
X151809523Y-94407200D02*
X151857142Y-94359580D01*
X150904761Y-93454819D02*
X150285714Y-93454819D01*
X150285714Y-93454819D02*
X150619047Y-93835771D01*
X150619047Y-93835771D02*
X150476190Y-93835771D01*
X150476190Y-93835771D02*
X150380952Y-93883390D01*
X150380952Y-93883390D02*
X150333333Y-93931009D01*
X150333333Y-93931009D02*
X150285714Y-94026247D01*
X150285714Y-94026247D02*
X150285714Y-94264342D01*
X150285714Y-94264342D02*
X150333333Y-94359580D01*
X150333333Y-94359580D02*
X150380952Y-94407200D01*
X150380952Y-94407200D02*
X150476190Y-94454819D01*
X150476190Y-94454819D02*
X150761904Y-94454819D01*
X150761904Y-94454819D02*
X150857142Y-94407200D01*
X150857142Y-94407200D02*
X150904761Y-94359580D01*
X149666666Y-93454819D02*
X149571428Y-93454819D01*
X149571428Y-93454819D02*
X149476190Y-93502438D01*
X149476190Y-93502438D02*
X149428571Y-93550057D01*
X149428571Y-93550057D02*
X149380952Y-93645295D01*
X149380952Y-93645295D02*
X149333333Y-93835771D01*
X149333333Y-93835771D02*
X149333333Y-94073866D01*
X149333333Y-94073866D02*
X149380952Y-94264342D01*
X149380952Y-94264342D02*
X149428571Y-94359580D01*
X149428571Y-94359580D02*
X149476190Y-94407200D01*
X149476190Y-94407200D02*
X149571428Y-94454819D01*
X149571428Y-94454819D02*
X149666666Y-94454819D01*
X149666666Y-94454819D02*
X149761904Y-94407200D01*
X149761904Y-94407200D02*
X149809523Y-94359580D01*
X149809523Y-94359580D02*
X149857142Y-94264342D01*
X149857142Y-94264342D02*
X149904761Y-94073866D01*
X149904761Y-94073866D02*
X149904761Y-93835771D01*
X149904761Y-93835771D02*
X149857142Y-93645295D01*
X149857142Y-93645295D02*
X149809523Y-93550057D01*
X149809523Y-93550057D02*
X149761904Y-93502438D01*
X149761904Y-93502438D02*
X149666666Y-93454819D01*
X148952380Y-94454819D02*
X148714285Y-94454819D01*
X148714285Y-94454819D02*
X148714285Y-94264342D01*
X148714285Y-94264342D02*
X148809523Y-94216723D01*
X148809523Y-94216723D02*
X148904761Y-94121485D01*
X148904761Y-94121485D02*
X148952380Y-93978628D01*
X148952380Y-93978628D02*
X148952380Y-93740533D01*
X148952380Y-93740533D02*
X148904761Y-93597676D01*
X148904761Y-93597676D02*
X148809523Y-93502438D01*
X148809523Y-93502438D02*
X148666666Y-93454819D01*
X148666666Y-93454819D02*
X148476190Y-93454819D01*
X148476190Y-93454819D02*
X148333333Y-93502438D01*
X148333333Y-93502438D02*
X148238095Y-93597676D01*
X148238095Y-93597676D02*
X148190476Y-93740533D01*
X148190476Y-93740533D02*
X148190476Y-93978628D01*
X148190476Y-93978628D02*
X148238095Y-94121485D01*
X148238095Y-94121485D02*
X148333333Y-94216723D01*
X148333333Y-94216723D02*
X148428571Y-94264342D01*
X148428571Y-94264342D02*
X148428571Y-94454819D01*
X148428571Y-94454819D02*
X148190476Y-94454819D01*
X123474868Y-128502506D02*
X122998677Y-128169173D01*
X123474868Y-127931078D02*
X122474868Y-127931078D01*
X122474868Y-127931078D02*
X122474868Y-128312030D01*
X122474868Y-128312030D02*
X122522487Y-128407268D01*
X122522487Y-128407268D02*
X122570106Y-128454887D01*
X122570106Y-128454887D02*
X122665344Y-128502506D01*
X122665344Y-128502506D02*
X122808201Y-128502506D01*
X122808201Y-128502506D02*
X122903439Y-128454887D01*
X122903439Y-128454887D02*
X122951058Y-128407268D01*
X122951058Y-128407268D02*
X122998677Y-128312030D01*
X122998677Y-128312030D02*
X122998677Y-127931078D01*
X122570106Y-128883459D02*
X122522487Y-128931078D01*
X122522487Y-128931078D02*
X122474868Y-129026316D01*
X122474868Y-129026316D02*
X122474868Y-129264411D01*
X122474868Y-129264411D02*
X122522487Y-129359649D01*
X122522487Y-129359649D02*
X122570106Y-129407268D01*
X122570106Y-129407268D02*
X122665344Y-129454887D01*
X122665344Y-129454887D02*
X122760582Y-129454887D01*
X122760582Y-129454887D02*
X122903439Y-129407268D01*
X122903439Y-129407268D02*
X123474868Y-128835840D01*
X123474868Y-128835840D02*
X123474868Y-129454887D01*
X120438201Y-127169173D02*
X121104868Y-127169173D01*
X120057249Y-126931078D02*
X120771534Y-126692983D01*
X120771534Y-126692983D02*
X120771534Y-127312030D01*
X121009629Y-127692983D02*
X121057249Y-127740602D01*
X121057249Y-127740602D02*
X121104868Y-127692983D01*
X121104868Y-127692983D02*
X121057249Y-127645364D01*
X121057249Y-127645364D02*
X121009629Y-127692983D01*
X121009629Y-127692983D02*
X121104868Y-127692983D01*
X120104868Y-128073935D02*
X120104868Y-128740601D01*
X120104868Y-128740601D02*
X121104868Y-128312030D01*
X121104868Y-129121554D02*
X120104868Y-129121554D01*
X120723915Y-129216792D02*
X121104868Y-129502506D01*
X120438201Y-129502506D02*
X120819153Y-129121554D01*
X121104868Y-129883459D02*
X121104868Y-130121554D01*
X121104868Y-130121554D02*
X120914391Y-130121554D01*
X120914391Y-130121554D02*
X120866772Y-130026316D01*
X120866772Y-130026316D02*
X120771534Y-129931078D01*
X120771534Y-129931078D02*
X120628677Y-129883459D01*
X120628677Y-129883459D02*
X120390582Y-129883459D01*
X120390582Y-129883459D02*
X120247725Y-129931078D01*
X120247725Y-129931078D02*
X120152487Y-130026316D01*
X120152487Y-130026316D02*
X120104868Y-130169173D01*
X120104868Y-130169173D02*
X120104868Y-130359649D01*
X120104868Y-130359649D02*
X120152487Y-130502506D01*
X120152487Y-130502506D02*
X120247725Y-130597744D01*
X120247725Y-130597744D02*
X120390582Y-130645363D01*
X120390582Y-130645363D02*
X120628677Y-130645363D01*
X120628677Y-130645363D02*
X120771534Y-130597744D01*
X120771534Y-130597744D02*
X120866772Y-130502506D01*
X120866772Y-130502506D02*
X120914391Y-130407268D01*
X120914391Y-130407268D02*
X121104868Y-130407268D01*
X121104868Y-130407268D02*
X121104868Y-130645363D01*
X131474868Y-128422506D02*
X130998677Y-128089173D01*
X131474868Y-127851078D02*
X130474868Y-127851078D01*
X130474868Y-127851078D02*
X130474868Y-128232030D01*
X130474868Y-128232030D02*
X130522487Y-128327268D01*
X130522487Y-128327268D02*
X130570106Y-128374887D01*
X130570106Y-128374887D02*
X130665344Y-128422506D01*
X130665344Y-128422506D02*
X130808201Y-128422506D01*
X130808201Y-128422506D02*
X130903439Y-128374887D01*
X130903439Y-128374887D02*
X130951058Y-128327268D01*
X130951058Y-128327268D02*
X130998677Y-128232030D01*
X130998677Y-128232030D02*
X130998677Y-127851078D01*
X131474868Y-129374887D02*
X131474868Y-128803459D01*
X131474868Y-129089173D02*
X130474868Y-129089173D01*
X130474868Y-129089173D02*
X130617725Y-128993935D01*
X130617725Y-128993935D02*
X130712963Y-128898697D01*
X130712963Y-128898697D02*
X130760582Y-128803459D01*
X128438201Y-127089173D02*
X129104868Y-127089173D01*
X128057249Y-126851078D02*
X128771534Y-126612983D01*
X128771534Y-126612983D02*
X128771534Y-127232030D01*
X129009629Y-127612983D02*
X129057249Y-127660602D01*
X129057249Y-127660602D02*
X129104868Y-127612983D01*
X129104868Y-127612983D02*
X129057249Y-127565364D01*
X129057249Y-127565364D02*
X129009629Y-127612983D01*
X129009629Y-127612983D02*
X129104868Y-127612983D01*
X128104868Y-127993935D02*
X128104868Y-128660601D01*
X128104868Y-128660601D02*
X129104868Y-128232030D01*
X129104868Y-129041554D02*
X128104868Y-129041554D01*
X128723915Y-129136792D02*
X129104868Y-129422506D01*
X128438201Y-129422506D02*
X128819153Y-129041554D01*
X129104868Y-129803459D02*
X129104868Y-130041554D01*
X129104868Y-130041554D02*
X128914391Y-130041554D01*
X128914391Y-130041554D02*
X128866772Y-129946316D01*
X128866772Y-129946316D02*
X128771534Y-129851078D01*
X128771534Y-129851078D02*
X128628677Y-129803459D01*
X128628677Y-129803459D02*
X128390582Y-129803459D01*
X128390582Y-129803459D02*
X128247725Y-129851078D01*
X128247725Y-129851078D02*
X128152487Y-129946316D01*
X128152487Y-129946316D02*
X128104868Y-130089173D01*
X128104868Y-130089173D02*
X128104868Y-130279649D01*
X128104868Y-130279649D02*
X128152487Y-130422506D01*
X128152487Y-130422506D02*
X128247725Y-130517744D01*
X128247725Y-130517744D02*
X128390582Y-130565363D01*
X128390582Y-130565363D02*
X128628677Y-130565363D01*
X128628677Y-130565363D02*
X128771534Y-130517744D01*
X128771534Y-130517744D02*
X128866772Y-130422506D01*
X128866772Y-130422506D02*
X128914391Y-130327268D01*
X128914391Y-130327268D02*
X129104868Y-130327268D01*
X129104868Y-130327268D02*
X129104868Y-130565363D01*
X169435376Y-70084819D02*
X169768709Y-69608628D01*
X170006804Y-70084819D02*
X170006804Y-69084819D01*
X170006804Y-69084819D02*
X169625852Y-69084819D01*
X169625852Y-69084819D02*
X169530614Y-69132438D01*
X169530614Y-69132438D02*
X169482995Y-69180057D01*
X169482995Y-69180057D02*
X169435376Y-69275295D01*
X169435376Y-69275295D02*
X169435376Y-69418152D01*
X169435376Y-69418152D02*
X169482995Y-69513390D01*
X169482995Y-69513390D02*
X169530614Y-69561009D01*
X169530614Y-69561009D02*
X169625852Y-69608628D01*
X169625852Y-69608628D02*
X170006804Y-69608628D01*
X169102042Y-69084819D02*
X168482995Y-69084819D01*
X168482995Y-69084819D02*
X168816328Y-69465771D01*
X168816328Y-69465771D02*
X168673471Y-69465771D01*
X168673471Y-69465771D02*
X168578233Y-69513390D01*
X168578233Y-69513390D02*
X168530614Y-69561009D01*
X168530614Y-69561009D02*
X168482995Y-69656247D01*
X168482995Y-69656247D02*
X168482995Y-69894342D01*
X168482995Y-69894342D02*
X168530614Y-69989580D01*
X168530614Y-69989580D02*
X168578233Y-70037200D01*
X168578233Y-70037200D02*
X168673471Y-70084819D01*
X168673471Y-70084819D02*
X168959185Y-70084819D01*
X168959185Y-70084819D02*
X169054423Y-70037200D01*
X169054423Y-70037200D02*
X169102042Y-69989580D01*
X170530614Y-71550057D02*
X170482995Y-71502438D01*
X170482995Y-71502438D02*
X170387757Y-71454819D01*
X170387757Y-71454819D02*
X170149662Y-71454819D01*
X170149662Y-71454819D02*
X170054424Y-71502438D01*
X170054424Y-71502438D02*
X170006805Y-71550057D01*
X170006805Y-71550057D02*
X169959186Y-71645295D01*
X169959186Y-71645295D02*
X169959186Y-71740533D01*
X169959186Y-71740533D02*
X170006805Y-71883390D01*
X170006805Y-71883390D02*
X170578233Y-72454819D01*
X170578233Y-72454819D02*
X169959186Y-72454819D01*
X169530614Y-72454819D02*
X169530614Y-71454819D01*
X169435376Y-72073866D02*
X169149662Y-72454819D01*
X169149662Y-71788152D02*
X169530614Y-72169104D01*
X168768709Y-72454819D02*
X168530614Y-72454819D01*
X168530614Y-72454819D02*
X168530614Y-72264342D01*
X168530614Y-72264342D02*
X168625852Y-72216723D01*
X168625852Y-72216723D02*
X168721090Y-72121485D01*
X168721090Y-72121485D02*
X168768709Y-71978628D01*
X168768709Y-71978628D02*
X168768709Y-71740533D01*
X168768709Y-71740533D02*
X168721090Y-71597676D01*
X168721090Y-71597676D02*
X168625852Y-71502438D01*
X168625852Y-71502438D02*
X168482995Y-71454819D01*
X168482995Y-71454819D02*
X168292519Y-71454819D01*
X168292519Y-71454819D02*
X168149662Y-71502438D01*
X168149662Y-71502438D02*
X168054424Y-71597676D01*
X168054424Y-71597676D02*
X168006805Y-71740533D01*
X168006805Y-71740533D02*
X168006805Y-71978628D01*
X168006805Y-71978628D02*
X168054424Y-72121485D01*
X168054424Y-72121485D02*
X168149662Y-72216723D01*
X168149662Y-72216723D02*
X168244900Y-72264342D01*
X168244900Y-72264342D02*
X168244900Y-72454819D01*
X168244900Y-72454819D02*
X168006805Y-72454819D01*
X156463995Y-113084819D02*
X156797328Y-112608628D01*
X157035423Y-113084819D02*
X157035423Y-112084819D01*
X157035423Y-112084819D02*
X156654471Y-112084819D01*
X156654471Y-112084819D02*
X156559233Y-112132438D01*
X156559233Y-112132438D02*
X156511614Y-112180057D01*
X156511614Y-112180057D02*
X156463995Y-112275295D01*
X156463995Y-112275295D02*
X156463995Y-112418152D01*
X156463995Y-112418152D02*
X156511614Y-112513390D01*
X156511614Y-112513390D02*
X156559233Y-112561009D01*
X156559233Y-112561009D02*
X156654471Y-112608628D01*
X156654471Y-112608628D02*
X157035423Y-112608628D01*
X155892566Y-112513390D02*
X155987804Y-112465771D01*
X155987804Y-112465771D02*
X156035423Y-112418152D01*
X156035423Y-112418152D02*
X156083042Y-112322914D01*
X156083042Y-112322914D02*
X156083042Y-112275295D01*
X156083042Y-112275295D02*
X156035423Y-112180057D01*
X156035423Y-112180057D02*
X155987804Y-112132438D01*
X155987804Y-112132438D02*
X155892566Y-112084819D01*
X155892566Y-112084819D02*
X155702090Y-112084819D01*
X155702090Y-112084819D02*
X155606852Y-112132438D01*
X155606852Y-112132438D02*
X155559233Y-112180057D01*
X155559233Y-112180057D02*
X155511614Y-112275295D01*
X155511614Y-112275295D02*
X155511614Y-112322914D01*
X155511614Y-112322914D02*
X155559233Y-112418152D01*
X155559233Y-112418152D02*
X155606852Y-112465771D01*
X155606852Y-112465771D02*
X155702090Y-112513390D01*
X155702090Y-112513390D02*
X155892566Y-112513390D01*
X155892566Y-112513390D02*
X155987804Y-112561009D01*
X155987804Y-112561009D02*
X156035423Y-112608628D01*
X156035423Y-112608628D02*
X156083042Y-112703866D01*
X156083042Y-112703866D02*
X156083042Y-112894342D01*
X156083042Y-112894342D02*
X156035423Y-112989580D01*
X156035423Y-112989580D02*
X155987804Y-113037200D01*
X155987804Y-113037200D02*
X155892566Y-113084819D01*
X155892566Y-113084819D02*
X155702090Y-113084819D01*
X155702090Y-113084819D02*
X155606852Y-113037200D01*
X155606852Y-113037200D02*
X155559233Y-112989580D01*
X155559233Y-112989580D02*
X155511614Y-112894342D01*
X155511614Y-112894342D02*
X155511614Y-112703866D01*
X155511614Y-112703866D02*
X155559233Y-112608628D01*
X155559233Y-112608628D02*
X155606852Y-112561009D01*
X155606852Y-112561009D02*
X155702090Y-112513390D01*
X156987805Y-115454819D02*
X157559233Y-115454819D01*
X157273519Y-115454819D02*
X157273519Y-114454819D01*
X157273519Y-114454819D02*
X157368757Y-114597676D01*
X157368757Y-114597676D02*
X157463995Y-114692914D01*
X157463995Y-114692914D02*
X157559233Y-114740533D01*
X156559233Y-115454819D02*
X156559233Y-114454819D01*
X156463995Y-115073866D02*
X156178281Y-115454819D01*
X156178281Y-114788152D02*
X156559233Y-115169104D01*
X155797328Y-115454819D02*
X155559233Y-115454819D01*
X155559233Y-115454819D02*
X155559233Y-115264342D01*
X155559233Y-115264342D02*
X155654471Y-115216723D01*
X155654471Y-115216723D02*
X155749709Y-115121485D01*
X155749709Y-115121485D02*
X155797328Y-114978628D01*
X155797328Y-114978628D02*
X155797328Y-114740533D01*
X155797328Y-114740533D02*
X155749709Y-114597676D01*
X155749709Y-114597676D02*
X155654471Y-114502438D01*
X155654471Y-114502438D02*
X155511614Y-114454819D01*
X155511614Y-114454819D02*
X155321138Y-114454819D01*
X155321138Y-114454819D02*
X155178281Y-114502438D01*
X155178281Y-114502438D02*
X155083043Y-114597676D01*
X155083043Y-114597676D02*
X155035424Y-114740533D01*
X155035424Y-114740533D02*
X155035424Y-114978628D01*
X155035424Y-114978628D02*
X155083043Y-115121485D01*
X155083043Y-115121485D02*
X155178281Y-115216723D01*
X155178281Y-115216723D02*
X155273519Y-115264342D01*
X155273519Y-115264342D02*
X155273519Y-115454819D01*
X155273519Y-115454819D02*
X155035424Y-115454819D01*
X156463995Y-119084819D02*
X156797328Y-118608628D01*
X157035423Y-119084819D02*
X157035423Y-118084819D01*
X157035423Y-118084819D02*
X156654471Y-118084819D01*
X156654471Y-118084819D02*
X156559233Y-118132438D01*
X156559233Y-118132438D02*
X156511614Y-118180057D01*
X156511614Y-118180057D02*
X156463995Y-118275295D01*
X156463995Y-118275295D02*
X156463995Y-118418152D01*
X156463995Y-118418152D02*
X156511614Y-118513390D01*
X156511614Y-118513390D02*
X156559233Y-118561009D01*
X156559233Y-118561009D02*
X156654471Y-118608628D01*
X156654471Y-118608628D02*
X157035423Y-118608628D01*
X155987804Y-119084819D02*
X155797328Y-119084819D01*
X155797328Y-119084819D02*
X155702090Y-119037200D01*
X155702090Y-119037200D02*
X155654471Y-118989580D01*
X155654471Y-118989580D02*
X155559233Y-118846723D01*
X155559233Y-118846723D02*
X155511614Y-118656247D01*
X155511614Y-118656247D02*
X155511614Y-118275295D01*
X155511614Y-118275295D02*
X155559233Y-118180057D01*
X155559233Y-118180057D02*
X155606852Y-118132438D01*
X155606852Y-118132438D02*
X155702090Y-118084819D01*
X155702090Y-118084819D02*
X155892566Y-118084819D01*
X155892566Y-118084819D02*
X155987804Y-118132438D01*
X155987804Y-118132438D02*
X156035423Y-118180057D01*
X156035423Y-118180057D02*
X156083042Y-118275295D01*
X156083042Y-118275295D02*
X156083042Y-118513390D01*
X156083042Y-118513390D02*
X156035423Y-118608628D01*
X156035423Y-118608628D02*
X155987804Y-118656247D01*
X155987804Y-118656247D02*
X155892566Y-118703866D01*
X155892566Y-118703866D02*
X155702090Y-118703866D01*
X155702090Y-118703866D02*
X155606852Y-118656247D01*
X155606852Y-118656247D02*
X155559233Y-118608628D01*
X155559233Y-118608628D02*
X155511614Y-118513390D01*
X156987805Y-121454819D02*
X157559233Y-121454819D01*
X157273519Y-121454819D02*
X157273519Y-120454819D01*
X157273519Y-120454819D02*
X157368757Y-120597676D01*
X157368757Y-120597676D02*
X157463995Y-120692914D01*
X157463995Y-120692914D02*
X157559233Y-120740533D01*
X156559233Y-121454819D02*
X156559233Y-120454819D01*
X156463995Y-121073866D02*
X156178281Y-121454819D01*
X156178281Y-120788152D02*
X156559233Y-121169104D01*
X155797328Y-121454819D02*
X155559233Y-121454819D01*
X155559233Y-121454819D02*
X155559233Y-121264342D01*
X155559233Y-121264342D02*
X155654471Y-121216723D01*
X155654471Y-121216723D02*
X155749709Y-121121485D01*
X155749709Y-121121485D02*
X155797328Y-120978628D01*
X155797328Y-120978628D02*
X155797328Y-120740533D01*
X155797328Y-120740533D02*
X155749709Y-120597676D01*
X155749709Y-120597676D02*
X155654471Y-120502438D01*
X155654471Y-120502438D02*
X155511614Y-120454819D01*
X155511614Y-120454819D02*
X155321138Y-120454819D01*
X155321138Y-120454819D02*
X155178281Y-120502438D01*
X155178281Y-120502438D02*
X155083043Y-120597676D01*
X155083043Y-120597676D02*
X155035424Y-120740533D01*
X155035424Y-120740533D02*
X155035424Y-120978628D01*
X155035424Y-120978628D02*
X155083043Y-121121485D01*
X155083043Y-121121485D02*
X155178281Y-121216723D01*
X155178281Y-121216723D02*
X155273519Y-121264342D01*
X155273519Y-121264342D02*
X155273519Y-121454819D01*
X155273519Y-121454819D02*
X155035424Y-121454819D01*
X150246666Y-86084819D02*
X150579999Y-85608628D01*
X150818094Y-86084819D02*
X150818094Y-85084819D01*
X150818094Y-85084819D02*
X150437142Y-85084819D01*
X150437142Y-85084819D02*
X150341904Y-85132438D01*
X150341904Y-85132438D02*
X150294285Y-85180057D01*
X150294285Y-85180057D02*
X150246666Y-85275295D01*
X150246666Y-85275295D02*
X150246666Y-85418152D01*
X150246666Y-85418152D02*
X150294285Y-85513390D01*
X150294285Y-85513390D02*
X150341904Y-85561009D01*
X150341904Y-85561009D02*
X150437142Y-85608628D01*
X150437142Y-85608628D02*
X150818094Y-85608628D01*
X149913332Y-85084819D02*
X149246666Y-85084819D01*
X149246666Y-85084819D02*
X149675237Y-86084819D01*
X151937142Y-87454819D02*
X151318095Y-87454819D01*
X151318095Y-87454819D02*
X151651428Y-87835771D01*
X151651428Y-87835771D02*
X151508571Y-87835771D01*
X151508571Y-87835771D02*
X151413333Y-87883390D01*
X151413333Y-87883390D02*
X151365714Y-87931009D01*
X151365714Y-87931009D02*
X151318095Y-88026247D01*
X151318095Y-88026247D02*
X151318095Y-88264342D01*
X151318095Y-88264342D02*
X151365714Y-88359580D01*
X151365714Y-88359580D02*
X151413333Y-88407200D01*
X151413333Y-88407200D02*
X151508571Y-88454819D01*
X151508571Y-88454819D02*
X151794285Y-88454819D01*
X151794285Y-88454819D02*
X151889523Y-88407200D01*
X151889523Y-88407200D02*
X151937142Y-88359580D01*
X150984761Y-87454819D02*
X150365714Y-87454819D01*
X150365714Y-87454819D02*
X150699047Y-87835771D01*
X150699047Y-87835771D02*
X150556190Y-87835771D01*
X150556190Y-87835771D02*
X150460952Y-87883390D01*
X150460952Y-87883390D02*
X150413333Y-87931009D01*
X150413333Y-87931009D02*
X150365714Y-88026247D01*
X150365714Y-88026247D02*
X150365714Y-88264342D01*
X150365714Y-88264342D02*
X150413333Y-88359580D01*
X150413333Y-88359580D02*
X150460952Y-88407200D01*
X150460952Y-88407200D02*
X150556190Y-88454819D01*
X150556190Y-88454819D02*
X150841904Y-88454819D01*
X150841904Y-88454819D02*
X150937142Y-88407200D01*
X150937142Y-88407200D02*
X150984761Y-88359580D01*
X149746666Y-87454819D02*
X149651428Y-87454819D01*
X149651428Y-87454819D02*
X149556190Y-87502438D01*
X149556190Y-87502438D02*
X149508571Y-87550057D01*
X149508571Y-87550057D02*
X149460952Y-87645295D01*
X149460952Y-87645295D02*
X149413333Y-87835771D01*
X149413333Y-87835771D02*
X149413333Y-88073866D01*
X149413333Y-88073866D02*
X149460952Y-88264342D01*
X149460952Y-88264342D02*
X149508571Y-88359580D01*
X149508571Y-88359580D02*
X149556190Y-88407200D01*
X149556190Y-88407200D02*
X149651428Y-88454819D01*
X149651428Y-88454819D02*
X149746666Y-88454819D01*
X149746666Y-88454819D02*
X149841904Y-88407200D01*
X149841904Y-88407200D02*
X149889523Y-88359580D01*
X149889523Y-88359580D02*
X149937142Y-88264342D01*
X149937142Y-88264342D02*
X149984761Y-88073866D01*
X149984761Y-88073866D02*
X149984761Y-87835771D01*
X149984761Y-87835771D02*
X149937142Y-87645295D01*
X149937142Y-87645295D02*
X149889523Y-87550057D01*
X149889523Y-87550057D02*
X149841904Y-87502438D01*
X149841904Y-87502438D02*
X149746666Y-87454819D01*
X149032380Y-88454819D02*
X148794285Y-88454819D01*
X148794285Y-88454819D02*
X148794285Y-88264342D01*
X148794285Y-88264342D02*
X148889523Y-88216723D01*
X148889523Y-88216723D02*
X148984761Y-88121485D01*
X148984761Y-88121485D02*
X149032380Y-87978628D01*
X149032380Y-87978628D02*
X149032380Y-87740533D01*
X149032380Y-87740533D02*
X148984761Y-87597676D01*
X148984761Y-87597676D02*
X148889523Y-87502438D01*
X148889523Y-87502438D02*
X148746666Y-87454819D01*
X148746666Y-87454819D02*
X148556190Y-87454819D01*
X148556190Y-87454819D02*
X148413333Y-87502438D01*
X148413333Y-87502438D02*
X148318095Y-87597676D01*
X148318095Y-87597676D02*
X148270476Y-87740533D01*
X148270476Y-87740533D02*
X148270476Y-87978628D01*
X148270476Y-87978628D02*
X148318095Y-88121485D01*
X148318095Y-88121485D02*
X148413333Y-88216723D01*
X148413333Y-88216723D02*
X148508571Y-88264342D01*
X148508571Y-88264342D02*
X148508571Y-88454819D01*
X148508571Y-88454819D02*
X148270476Y-88454819D01*
X169492243Y-77084819D02*
X169825576Y-76608628D01*
X170063671Y-77084819D02*
X170063671Y-76084819D01*
X170063671Y-76084819D02*
X169682719Y-76084819D01*
X169682719Y-76084819D02*
X169587481Y-76132438D01*
X169587481Y-76132438D02*
X169539862Y-76180057D01*
X169539862Y-76180057D02*
X169492243Y-76275295D01*
X169492243Y-76275295D02*
X169492243Y-76418152D01*
X169492243Y-76418152D02*
X169539862Y-76513390D01*
X169539862Y-76513390D02*
X169587481Y-76561009D01*
X169587481Y-76561009D02*
X169682719Y-76608628D01*
X169682719Y-76608628D02*
X170063671Y-76608628D01*
X168635100Y-76418152D02*
X168635100Y-77084819D01*
X168873195Y-76037200D02*
X169111290Y-76751485D01*
X169111290Y-76751485D02*
X168492243Y-76751485D01*
X170611291Y-78454819D02*
X171087481Y-78454819D01*
X171087481Y-78454819D02*
X171135100Y-78931009D01*
X171135100Y-78931009D02*
X171087481Y-78883390D01*
X171087481Y-78883390D02*
X170992243Y-78835771D01*
X170992243Y-78835771D02*
X170754148Y-78835771D01*
X170754148Y-78835771D02*
X170658910Y-78883390D01*
X170658910Y-78883390D02*
X170611291Y-78931009D01*
X170611291Y-78931009D02*
X170563672Y-79026247D01*
X170563672Y-79026247D02*
X170563672Y-79264342D01*
X170563672Y-79264342D02*
X170611291Y-79359580D01*
X170611291Y-79359580D02*
X170658910Y-79407200D01*
X170658910Y-79407200D02*
X170754148Y-79454819D01*
X170754148Y-79454819D02*
X170992243Y-79454819D01*
X170992243Y-79454819D02*
X171087481Y-79407200D01*
X171087481Y-79407200D02*
X171135100Y-79359580D01*
X169706529Y-78454819D02*
X169897005Y-78454819D01*
X169897005Y-78454819D02*
X169992243Y-78502438D01*
X169992243Y-78502438D02*
X170039862Y-78550057D01*
X170039862Y-78550057D02*
X170135100Y-78692914D01*
X170135100Y-78692914D02*
X170182719Y-78883390D01*
X170182719Y-78883390D02*
X170182719Y-79264342D01*
X170182719Y-79264342D02*
X170135100Y-79359580D01*
X170135100Y-79359580D02*
X170087481Y-79407200D01*
X170087481Y-79407200D02*
X169992243Y-79454819D01*
X169992243Y-79454819D02*
X169801767Y-79454819D01*
X169801767Y-79454819D02*
X169706529Y-79407200D01*
X169706529Y-79407200D02*
X169658910Y-79359580D01*
X169658910Y-79359580D02*
X169611291Y-79264342D01*
X169611291Y-79264342D02*
X169611291Y-79026247D01*
X169611291Y-79026247D02*
X169658910Y-78931009D01*
X169658910Y-78931009D02*
X169706529Y-78883390D01*
X169706529Y-78883390D02*
X169801767Y-78835771D01*
X169801767Y-78835771D02*
X169992243Y-78835771D01*
X169992243Y-78835771D02*
X170087481Y-78883390D01*
X170087481Y-78883390D02*
X170135100Y-78931009D01*
X170135100Y-78931009D02*
X170182719Y-79026247D01*
X168992243Y-78454819D02*
X168897005Y-78454819D01*
X168897005Y-78454819D02*
X168801767Y-78502438D01*
X168801767Y-78502438D02*
X168754148Y-78550057D01*
X168754148Y-78550057D02*
X168706529Y-78645295D01*
X168706529Y-78645295D02*
X168658910Y-78835771D01*
X168658910Y-78835771D02*
X168658910Y-79073866D01*
X168658910Y-79073866D02*
X168706529Y-79264342D01*
X168706529Y-79264342D02*
X168754148Y-79359580D01*
X168754148Y-79359580D02*
X168801767Y-79407200D01*
X168801767Y-79407200D02*
X168897005Y-79454819D01*
X168897005Y-79454819D02*
X168992243Y-79454819D01*
X168992243Y-79454819D02*
X169087481Y-79407200D01*
X169087481Y-79407200D02*
X169135100Y-79359580D01*
X169135100Y-79359580D02*
X169182719Y-79264342D01*
X169182719Y-79264342D02*
X169230338Y-79073866D01*
X169230338Y-79073866D02*
X169230338Y-78835771D01*
X169230338Y-78835771D02*
X169182719Y-78645295D01*
X169182719Y-78645295D02*
X169135100Y-78550057D01*
X169135100Y-78550057D02*
X169087481Y-78502438D01*
X169087481Y-78502438D02*
X168992243Y-78454819D01*
X168277957Y-79454819D02*
X168039862Y-79454819D01*
X168039862Y-79454819D02*
X168039862Y-79264342D01*
X168039862Y-79264342D02*
X168135100Y-79216723D01*
X168135100Y-79216723D02*
X168230338Y-79121485D01*
X168230338Y-79121485D02*
X168277957Y-78978628D01*
X168277957Y-78978628D02*
X168277957Y-78740533D01*
X168277957Y-78740533D02*
X168230338Y-78597676D01*
X168230338Y-78597676D02*
X168135100Y-78502438D01*
X168135100Y-78502438D02*
X167992243Y-78454819D01*
X167992243Y-78454819D02*
X167801767Y-78454819D01*
X167801767Y-78454819D02*
X167658910Y-78502438D01*
X167658910Y-78502438D02*
X167563672Y-78597676D01*
X167563672Y-78597676D02*
X167516053Y-78740533D01*
X167516053Y-78740533D02*
X167516053Y-78978628D01*
X167516053Y-78978628D02*
X167563672Y-79121485D01*
X167563672Y-79121485D02*
X167658910Y-79216723D01*
X167658910Y-79216723D02*
X167754148Y-79264342D01*
X167754148Y-79264342D02*
X167754148Y-79454819D01*
X167754148Y-79454819D02*
X167516053Y-79454819D01*
%TO.C,R5*%
D13*
X145880000Y-100000000D02*
X146650000Y-100000000D01*
X153960000Y-100000000D02*
X153190000Y-100000000D01*
X146650000Y-98630000D02*
X153190000Y-98630000D01*
X153190000Y-101370000D01*
X146650000Y-101370000D01*
X146650000Y-98630000D01*
%TO.C,R6*%
X145960000Y-94000000D02*
X146730000Y-94000000D01*
X154040000Y-94000000D02*
X153270000Y-94000000D01*
X146730000Y-92630000D02*
X153270000Y-92630000D01*
X153270000Y-95370000D01*
X146730000Y-95370000D01*
X146730000Y-92630000D01*
%TO.C,R2*%
X120650049Y-124629173D02*
X120650049Y-125399173D01*
X120650049Y-132709173D02*
X120650049Y-131939173D01*
X119280049Y-125399173D02*
X122020049Y-125399173D01*
X122020049Y-131939173D01*
X119280049Y-131939173D01*
X119280049Y-125399173D01*
%TO.C,R1*%
X128650049Y-124549173D02*
X128650049Y-125319173D01*
X128650049Y-132629173D02*
X128650049Y-131859173D01*
X127280049Y-125319173D02*
X130020049Y-125319173D01*
X130020049Y-131859173D01*
X127280049Y-131859173D01*
X127280049Y-125319173D01*
%TO.C,R3*%
X165228710Y-72000000D02*
X165998710Y-72000000D01*
X173308710Y-72000000D02*
X172538710Y-72000000D01*
X165998710Y-70630000D02*
X172538710Y-70630000D01*
X172538710Y-73370000D01*
X165998710Y-73370000D01*
X165998710Y-70630000D01*
%TO.C,R8*%
X152257329Y-115000000D02*
X153027329Y-115000000D01*
X160337329Y-115000000D02*
X159567329Y-115000000D01*
X153027329Y-113630000D02*
X159567329Y-113630000D01*
X159567329Y-116370000D01*
X153027329Y-116370000D01*
X153027329Y-113630000D01*
%TO.C,R9*%
X152257329Y-121000000D02*
X153027329Y-121000000D01*
X160337329Y-121000000D02*
X159567329Y-121000000D01*
X153027329Y-119630000D02*
X159567329Y-119630000D01*
X159567329Y-122370000D01*
X153027329Y-122370000D01*
X153027329Y-119630000D01*
%TO.C,R7*%
X146040000Y-88000000D02*
X146810000Y-88000000D01*
X154120000Y-88000000D02*
X153350000Y-88000000D01*
X146810000Y-86630000D02*
X153350000Y-86630000D01*
X153350000Y-89370000D01*
X146810000Y-89370000D01*
X146810000Y-86630000D01*
%TO.C,R4*%
X165285577Y-79000000D02*
X166055577Y-79000000D01*
X173365577Y-79000000D02*
X172595577Y-79000000D01*
X166055577Y-77630000D02*
X172595577Y-77630000D01*
X172595577Y-80370000D01*
X166055577Y-80370000D01*
X166055577Y-77630000D01*
%TD*%
M02*
