%TF.GenerationSoftware,KiCad,Pcbnew,10.0.1*%
%TF.CreationDate,2026-08-10T17:57:07+02:00*%
%TF.ProjectId,Datalogger-v2,44617461-6c6f-4676-9765-722d76322e6b,rev?*%
%TF.SameCoordinates,Original*%
%TF.FileFunction,Copper,L1,Top*%
%TF.FilePolarity,Positive*%
%FSLAX46Y46*%
G04 Gerber Fmt 4.6, Leading zero omitted, Abs format (unit mm)*
G04 Created by KiCad (PCBNEW 10.0.1) date 2026-08-10 17:57:07*
%MOMM*%
%LPD*%
G01*
G04 APERTURE LIST*
G04 Aperture macros list*
%AMRoundRect*
0 Rectangle with rounded corners*
0 $1 Rounding radius*
0 $2 $3 $4 $5 $6 $7 $8 $9 X,Y pos of 4 corners*
0 Add a 4 corners polygon primitive as box body*
4,1,4,$2,$3,$4,$5,$6,$7,$8,$9,$2,$3,0*
0 Add four circle primitives for the rounded corners*
1,1,$1+$1,$2,$3*
1,1,$1+$1,$4,$5*
1,1,$1+$1,$6,$7*
1,1,$1+$1,$8,$9*
0 Add four rect primitives between the rounded corners*
20,1,$1+$1,$2,$3,$4,$5,0*
20,1,$1+$1,$4,$5,$6,$7,0*
20,1,$1+$1,$6,$7,$8,$9,0*
20,1,$1+$1,$8,$9,$2,$3,0*%
G04 Aperture macros list end*
%TA.AperFunction,NonConductor*%
%ADD10C,0.200000*%
%TD*%
%TA.AperFunction,ComponentPad*%
%ADD11RoundRect,0.250000X-0.550000X-0.550000X0.550000X-0.550000X0.550000X0.550000X-0.550000X0.550000X0*%
%TD*%
%TA.AperFunction,ComponentPad*%
%ADD12C,1.600000*%
%TD*%
%TA.AperFunction,SMDPad,CuDef*%
%ADD13RoundRect,0.250000X0.475000X-0.337500X0.475000X0.337500X-0.475000X0.337500X-0.475000X-0.337500X0*%
%TD*%
%TA.AperFunction,ComponentPad*%
%ADD14C,1.727200*%
%TD*%
%TA.AperFunction,ComponentPad*%
%ADD15R,1.727200X1.727200*%
%TD*%
%TA.AperFunction,ComponentPad*%
%ADD16R,1.070000X1.800000*%
%TD*%
%TA.AperFunction,ComponentPad*%
%ADD17O,1.070000X1.800000*%
%TD*%
%TA.AperFunction,ComponentPad*%
%ADD18R,1.524000X1.700000*%
%TD*%
%TA.AperFunction,ComponentPad*%
%ADD19O,1.700000X1.700000*%
%TD*%
%TA.AperFunction,ComponentPad*%
%ADD20R,2.400000X2.400000*%
%TD*%
%TA.AperFunction,WasherPad*%
%ADD21C,3.980000*%
%TD*%
%TA.AperFunction,SMDPad,CuDef*%
%ADD22RoundRect,0.150000X0.700000X-0.150000X0.700000X0.150000X-0.700000X0.150000X-0.700000X-0.150000X0*%
%TD*%
%TA.AperFunction,SMDPad,CuDef*%
%ADD23RoundRect,0.250000X1.100000X-0.250000X1.100000X0.250000X-1.100000X0.250000X-1.100000X-0.250000X0*%
%TD*%
%TA.AperFunction,ComponentPad*%
%ADD24R,1.524000X1.524000*%
%TD*%
%TA.AperFunction,ComponentPad*%
%ADD25O,1.524000X1.524000*%
%TD*%
%TA.AperFunction,SMDPad,CuDef*%
%ADD26RoundRect,0.250000X0.337500X0.475000X-0.337500X0.475000X-0.337500X-0.475000X0.337500X-0.475000X0*%
%TD*%
%TA.AperFunction,SMDPad,CuDef*%
%ADD27R,6.000000X3.000000*%
%TD*%
%TA.AperFunction,ViaPad*%
%ADD28C,0.800000*%
%TD*%
%TA.AperFunction,ViaPad*%
%ADD29C,0.700000*%
%TD*%
%TA.AperFunction,Conductor*%
%ADD30C,0.500000*%
%TD*%
%TA.AperFunction,Conductor*%
%ADD31C,0.800000*%
%TD*%
%TA.AperFunction,Conductor*%
%ADD32C,0.200000*%
%TD*%
%TA.AperFunction,Conductor*%
%ADD33C,0.300000*%
%TD*%
%TA.AperFunction,Conductor*%
%ADD34C,0.400000*%
%TD*%
G04 APERTURE END LIST*
D10*
X194000000Y-77500000D02*
X194000000Y-80500000D01*
X194000000Y-80500000D02*
X192000000Y-80500000D01*
X194000000Y-80500000D02*
X196000000Y-80500000D01*
X194000000Y-84500000D02*
X192000000Y-80500000D01*
X194000000Y-84500000D02*
X196000000Y-80500000D01*
D11*
%TO.P,C4,1*%
%TO.N,+5V*%
X114500000Y-88000000D03*
D12*
%TO.P,C4,2*%
%TO.N,GND*%
X117000000Y-88000000D03*
%TD*%
D13*
%TO.P,C5,1*%
%TO.N,GND*%
X107828519Y-89570432D03*
%TO.P,C5,2*%
%TO.N,+5V*%
X107828519Y-87495432D03*
%TD*%
D14*
%TO.P,U1,1,CS_1*%
%TO.N,Net-(U1-CS)*%
X149780218Y-107849473D03*
%TO.P,U1,2,SCK_2*%
%TO.N,Net-(U1-SCK)*%
X152297098Y-107849473D03*
%TO.P,U1,3,MOSI_3*%
%TO.N,Net-(U1-MOSI)*%
X154837098Y-107849473D03*
%TO.P,U1,4,MISO_4*%
%TO.N,Net-(U1-MISO)*%
X157377098Y-107849473D03*
%TO.P,U1,5,VCC_5*%
%TO.N,+5V*%
X159917098Y-107849473D03*
D15*
%TO.P,U1,6,GND_6*%
%TO.N,GND*%
X162457098Y-107849473D03*
%TD*%
D16*
%TO.P,D1,1,DO_1*%
%TO.N,Net-(D1-DO)*%
X130095000Y-88000000D03*
D17*
%TO.P,D1,2,GND_2*%
%TO.N,GND*%
X131365000Y-88000000D03*
%TO.P,D1,3,VDD_3*%
%TO.N,Net-(D1-VDD)*%
X132635000Y-88000000D03*
%TO.P,D1,4,DI_4*%
%TO.N,Net-(D1-DI)*%
X133905000Y-88000000D03*
%TD*%
D18*
%TO.P,U3,1,D0_1*%
%TO.N,unconnected-(U3-D0-Pad1)*%
X155231663Y-65127000D03*
D19*
%TO.P,U3,2,VCC_2*%
%TO.N,unconnected-(U3-VCC-Pad2)*%
X155231663Y-67667000D03*
%TO.P,U3,3,RX_3*%
%TO.N,unconnected-(U3-RX-Pad3)*%
X155231663Y-70207000D03*
%TO.P,U3,4,TX_4*%
%TO.N,unconnected-(U3-TX-Pad4)*%
X155231663Y-72747000D03*
%TO.P,U3,5,GND_5*%
%TO.N,unconnected-(U3-GND-Pad5)*%
X155231663Y-75287000D03*
%TO.P,U3,6,D1_6*%
%TO.N,unconnected-(U3-D1-Pad6)*%
X155231663Y-77827000D03*
%TO.P,U3,7,D2_7*%
%TO.N,unconnected-(U3-D2-Pad7)*%
X142531663Y-65127000D03*
%TO.P,U3,8,VCC_8*%
%TO.N,+5V*%
X142531663Y-67667000D03*
%TO.P,U3,9,SCL_9*%
%TO.N,Net-(U3-SCL)*%
X142531663Y-70207000D03*
%TO.P,U3,10,SDA_10*%
%TO.N,Net-(U3-SDA)*%
X142531663Y-72747000D03*
%TO.P,U3,11,GND_11*%
%TO.N,GND*%
X142531663Y-75287000D03*
%TO.P,U3,12,D3_12*%
%TO.N,unconnected-(U3-D3-Pad12)*%
X142531663Y-77827000D03*
%TD*%
D20*
%TO.P,U7,1,+IN_1*%
%TO.N,unconnected-(U7-+IN-Pad1)*%
X176331000Y-65300000D03*
%TO.P,U7,2,-IN_2*%
%TO.N,unconnected-(U7--IN-Pad2)*%
X162550000Y-65300000D03*
%TO.P,U7,3,B+_3*%
%TO.N,Net-(BT1-+)*%
X173068900Y-88000000D03*
%TO.P,U7,4,B-_4*%
%TO.N,Net-(BT1--)*%
X165768100Y-88000000D03*
%TO.P,U7,5,OUT+_5*%
%TO.N,Net-(U2-VIN+)*%
X176350000Y-88000000D03*
%TO.P,U7,6,OUT-_6*%
%TO.N,Net-(U2-VIN-)*%
X162569000Y-88000000D03*
%TD*%
D21*
%TO.P,U5,*%
%TO.N,*%
X93670000Y-76320000D03*
X74740000Y-64640000D03*
D22*
%TO.P,U5,1,GND_1*%
%TO.N,GND*%
X89375000Y-66680000D03*
%TO.P,U5,2,VIN_2*%
%TO.N,+5V*%
X89375000Y-67930000D03*
%TO.P,U5,3,SDA_3*%
%TO.N,Net-(U5-SDA)*%
X89375000Y-69180000D03*
%TO.P,U5,4,SCL_4*%
%TO.N,Net-(U5-SCL)*%
X89375000Y-70430000D03*
D23*
%TO.P,U5,MP*%
%TO.N,N/C*%
X92575000Y-72280000D03*
X92575000Y-64830000D03*
%TD*%
D11*
%TO.P,C1,1*%
%TO.N,+5V*%
X173850000Y-140000000D03*
D12*
%TO.P,C1,2*%
%TO.N,GND*%
X176350000Y-140000000D03*
%TD*%
D24*
%TO.P,U8,1,EN_1*%
%TO.N,unconnected-(U8-EN-Pad1)*%
X111950000Y-101459800D03*
D25*
%TO.P,U8,2,VP_(ADC/D36\u002A)_2*%
%TO.N,unconnected-(U8-VP_(ADC{slash}D36\u002A)-Pad2)*%
X111950000Y-104000000D03*
%TO.P,U8,3,VN_(ADC/D39\u002A)_3*%
%TO.N,unconnected-(U8-VN_(ADC{slash}D39\u002A)-Pad3)*%
X111950000Y-106540000D03*
%TO.P,U8,4,ADC/D34\u002A_4*%
%TO.N,unconnected-(U8-ADC{slash}D34\u002A-Pad4)*%
X111950000Y-109080000D03*
%TO.P,U8,5,ADC/D35\u002A_5*%
%TO.N,unconnected-(U8-ADC{slash}D35\u002A-Pad5)*%
X111950000Y-111620000D03*
%TO.P,U8,6,ADC/D32_6*%
%TO.N,Net-(U6-RX)*%
X111950000Y-114160000D03*
%TO.P,U8,7,ADC/D33_7*%
%TO.N,Net-(U6-TX)*%
X111950000Y-116700000D03*
%TO.P,U8,8,ADC/DAC0/D25_8*%
%TO.N,Net-(U8-ADC{slash}DAC0{slash}D25)*%
X111950000Y-119240000D03*
%TO.P,U8,9,ADC/DAC1/D26_9*%
%TO.N,Net-(U8-ADC{slash}DAC1{slash}D26)*%
X111950000Y-121780000D03*
%TO.P,U8,10,ADC/D27_10*%
%TO.N,+5V*%
X111950000Y-124320000D03*
%TO.P,U8,11,ADC/D14_11*%
X111950000Y-126860000D03*
%TO.P,U8,12,ADC/D12_12*%
%TO.N,unconnected-(U8-ADC{slash}D12-Pad12)*%
X111950000Y-129400000D03*
%TO.P,U8,13,ADC/D13_13*%
%TO.N,Net-(U8-ADC{slash}D13)*%
X111950000Y-131940000D03*
%TO.P,U8,14,GND_14*%
%TO.N,GND*%
X111950000Y-134480000D03*
%TO.P,U8,15,VIN_15*%
%TO.N,+5V*%
X111950000Y-137020000D03*
%TO.P,U8,16,D23_16*%
%TO.N,Net-(U1-MOSI)*%
X137350000Y-101460000D03*
%TO.P,U8,17,SCL/D22_17*%
%TO.N,Net-(U3-SCL)*%
X137350000Y-104000000D03*
%TO.P,U8,18,UA0TX/D1_18*%
%TO.N,unconnected-(U8-UA0TX{slash}D1-Pad18)*%
X137350000Y-106540000D03*
%TO.P,U8,19,UA0RX/D3_19*%
%TO.N,unconnected-(U8-UA0RX{slash}D3-Pad19)*%
X137350000Y-109080000D03*
%TO.P,U8,20,SDA/D21_20*%
%TO.N,Net-(U3-SDA)*%
X137350000Y-111620000D03*
%TO.P,U8,21,D19_21*%
%TO.N,Net-(U1-MISO)*%
X137350000Y-114160000D03*
%TO.P,U8,22,SCK/D18_22*%
%TO.N,Net-(U1-SCK)*%
X137350000Y-116700000D03*
%TO.P,U8,23,CS/D5_23*%
%TO.N,Net-(U1-CS)*%
X137350000Y-119240000D03*
%TO.P,U8,24,UA2TX/D17_24*%
%TO.N,Net-(U4-RX)*%
X137350000Y-121780000D03*
%TO.P,U8,25,UA2RX/D16_25*%
%TO.N,Net-(U4-TX)*%
X137350000Y-124320000D03*
%TO.P,U8,26,ADC/D4_26*%
%TO.N,Net-(U8-ADC{slash}D4)*%
X137350000Y-126860000D03*
%TO.P,U8,27,LED0/D2_27*%
%TO.N,unconnected-(U8-LED0{slash}D2-Pad27)*%
X137350000Y-129400000D03*
%TO.P,U8,28,ADC/D15_28*%
%TO.N,unconnected-(U8-ADC{slash}D15-Pad28)*%
X137350000Y-131940000D03*
%TO.P,U8,29,GND_29*%
%TO.N,unconnected-(U8-GND-Pad29)*%
X137350000Y-134480000D03*
%TO.P,U8,30,3V3_30*%
%TO.N,+3.3V*%
X137350000Y-137020000D03*
%TD*%
%TO.P,U6,1,RX_1*%
%TO.N,Net-(U6-RX)*%
X174800703Y-116000000D03*
%TO.P,U6,2,TX_2*%
%TO.N,Net-(U6-TX)*%
X174800703Y-113460000D03*
%TO.P,U6,3,VIN_3*%
%TO.N,+5V*%
X174800703Y-110920000D03*
%TO.P,U6,4,GND_4*%
%TO.N,GND*%
X174800703Y-108380000D03*
%TD*%
D12*
%TO.P,R10,1*%
%TO.N,Net-(U5-SDA)*%
X99000000Y-112000000D03*
%TO.P,R10,2*%
%TO.N,+5V*%
X99000000Y-101840000D03*
%TD*%
D26*
%TO.P,C3,1*%
%TO.N,+5V*%
X77000000Y-82000000D03*
%TO.P,C3,2*%
%TO.N,GND*%
X74925000Y-82000000D03*
%TD*%
D27*
%TO.P,U2,1,VIN+_1*%
%TO.N,Net-(U2-VIN+)*%
X133350000Y-68000000D03*
%TO.P,U2,2,VIN-_2*%
%TO.N,Net-(U2-VIN-)*%
X133350000Y-74499900D03*
%TO.P,U2,3,VOUT+_3*%
%TO.N,+5V*%
X102850200Y-68000000D03*
%TO.P,U2,4,VOUT-_4*%
%TO.N,GND*%
X102850200Y-74499900D03*
%TD*%
D25*
%TO.P,U4,1,M0_1*%
%TO.N,GND*%
X90350000Y-89000000D03*
%TO.P,U4,2,M1_2*%
X87810000Y-89000000D03*
%TO.P,U4,3,RX_3*%
%TO.N,Net-(U4-RX)*%
X85270000Y-89000000D03*
%TO.P,U4,4,TX_4*%
%TO.N,Net-(U4-TX)*%
X82730000Y-89000000D03*
%TO.P,U4,5,AUX_5*%
%TO.N,unconnected-(U4-AUX-Pad5)*%
X80190000Y-89000000D03*
%TO.P,U4,6,VCC_6*%
%TO.N,+5V*%
X77610100Y-89000000D03*
%TO.P,U4,7,GND_7*%
%TO.N,GND*%
X75110000Y-89000000D03*
%TD*%
D12*
%TO.P,R11,1*%
%TO.N,Net-(U5-SCL)*%
X107000000Y-112000000D03*
%TO.P,R11,2*%
%TO.N,+5V*%
X107000000Y-101840000D03*
%TD*%
D13*
%TO.P,C2,1*%
%TO.N,GND*%
X174965061Y-128075000D03*
%TO.P,C2,2*%
%TO.N,+5V*%
X174965061Y-126000000D03*
%TD*%
D12*
%TO.P,R5,1*%
%TO.N,Net-(U8-ADC{slash}D4)*%
X155000000Y-100000000D03*
%TO.P,R5,2*%
%TO.N,Net-(D1-DI)*%
X144840000Y-100000000D03*
%TD*%
%TO.P,R6,1*%
%TO.N,Net-(U8-ADC{slash}DAC1{slash}D26)*%
X155080000Y-94000000D03*
%TO.P,R6,2*%
%TO.N,Net-(D1-VDD)*%
X144920000Y-94000000D03*
%TD*%
%TO.P,R2,1*%
%TO.N,Net-(U3-SCL)*%
X120650049Y-133749173D03*
%TO.P,R2,2*%
%TO.N,+3.3V*%
X120650049Y-123589173D03*
%TD*%
%TO.P,R1,1*%
%TO.N,+3.3V*%
X128650049Y-133669173D03*
%TO.P,R1,2*%
%TO.N,Net-(U3-SDA)*%
X128650049Y-123509173D03*
%TD*%
%TO.P,R3,1*%
%TO.N,Net-(U8-ADC{slash}D13)*%
X174348710Y-72000000D03*
%TO.P,R3,2*%
%TO.N,Net-(BT1--)*%
X164188710Y-72000000D03*
%TD*%
%TO.P,R8,1*%
%TO.N,+3.3V*%
X161377329Y-115000000D03*
%TO.P,R8,2*%
%TO.N,Net-(U1-MOSI)*%
X151217329Y-115000000D03*
%TD*%
%TO.P,R9,1*%
%TO.N,+3.3V*%
X161377329Y-121000000D03*
%TO.P,R9,2*%
%TO.N,Net-(U1-MISO)*%
X151217329Y-121000000D03*
%TD*%
%TO.P,R7,1*%
%TO.N,Net-(U8-ADC{slash}DAC0{slash}D25)*%
X155160000Y-88000000D03*
%TO.P,R7,2*%
%TO.N,Net-(D1-DO)*%
X145000000Y-88000000D03*
%TD*%
%TO.P,R4,1*%
%TO.N,Net-(U8-ADC{slash}D13)*%
X174405577Y-79000000D03*
%TO.P,R4,2*%
%TO.N,Net-(BT1-+)*%
X164245577Y-79000000D03*
%TD*%
D28*
%TO.N,+5V*%
X109000000Y-68000000D03*
D29*
X80000000Y-81000000D03*
X98000000Y-71000000D03*
%TO.N,GND*%
X132000000Y-78000000D03*
%TO.N,Net-(U1-MOSI)*%
X144000000Y-103000000D03*
X147831957Y-105652716D03*
%TO.N,Net-(U3-SCL)*%
X140000000Y-100000000D03*
X141000000Y-113000000D03*
X144000000Y-92000000D03*
%TO.N,Net-(U3-SDA)*%
X143000000Y-91000000D03*
X136430293Y-99748000D03*
%TO.N,Net-(U5-SDA)*%
X94596040Y-69179645D03*
X97000000Y-83000000D03*
%TO.N,Net-(U5-SCL)*%
X99847981Y-80847982D03*
X101000000Y-84000000D03*
X101000000Y-99000000D03*
%TO.N,Net-(U6-RX)*%
X140000000Y-118000000D03*
X132000000Y-118000000D03*
%TO.N,Net-(U8-ADC{slash}DAC0{slash}D25)*%
X121000000Y-111000000D03*
X118000000Y-119000000D03*
%TO.N,Net-(U8-ADC{slash}DAC1{slash}D26)*%
X133000000Y-108000000D03*
%TO.N,Net-(U8-ADC{slash}D13)*%
X141929303Y-108929303D03*
%TO.N,Net-(U4-RX)*%
X128000000Y-117000000D03*
X125000000Y-114000000D03*
%TO.N,Net-(U4-TX)*%
X126262051Y-113748000D03*
X130000000Y-117000000D03*
%TD*%
%TO.N,+5V*%
D30*
X80000000Y-81000000D02*
X78000000Y-81000000D01*
X107000000Y-92000000D02*
X106000000Y-91000000D01*
D31*
X109000000Y-68000000D02*
X102850200Y-68000000D01*
D32*
X174965061Y-126000000D02*
X177000000Y-123965061D01*
D33*
X113995432Y-87495432D02*
X114500000Y-88000000D01*
D30*
X102850200Y-68000000D02*
X89445000Y-68000000D01*
X106000000Y-91000000D02*
X106000000Y-89323951D01*
X89445000Y-68000000D02*
X89375000Y-67930000D01*
X109000000Y-129810000D02*
X111950000Y-126860000D01*
X99000000Y-101840000D02*
X107000000Y-101840000D01*
D33*
X98000000Y-71000000D02*
X101000000Y-68000000D01*
D30*
X106000000Y-89323951D02*
X107828519Y-87495432D01*
D32*
X177000000Y-113119297D02*
X174800703Y-110920000D01*
X173850000Y-127115061D02*
X174965061Y-126000000D01*
X177000000Y-123965061D02*
X177000000Y-113119297D01*
D30*
X108472796Y-103312796D02*
X108472796Y-120842796D01*
X111950000Y-137020000D02*
X109000000Y-134070000D01*
X107000000Y-101840000D02*
X108472796Y-103312796D01*
X108472796Y-120842796D02*
X111950000Y-124320000D01*
X78000000Y-81000000D02*
X77000000Y-82000000D01*
X109000000Y-134070000D02*
X109000000Y-129810000D01*
D33*
X102780200Y-67930000D02*
X102850200Y-68000000D01*
D30*
X107000000Y-101840000D02*
X107000000Y-92000000D01*
X111950000Y-124320000D02*
X111950000Y-126860000D01*
D32*
X173850000Y-140000000D02*
X173850000Y-127115061D01*
D33*
X101000000Y-68000000D02*
X102850200Y-68000000D01*
X107828519Y-87495432D02*
X113995432Y-87495432D01*
%TO.N,GND*%
D30*
X100987978Y-82000000D02*
X102850200Y-80137778D01*
D32*
X179000000Y-110000000D02*
X177380000Y-108380000D01*
D33*
X74925000Y-82000000D02*
X74925000Y-83925000D01*
D30*
X89000000Y-82000000D02*
X92000000Y-82000000D01*
D32*
X125499900Y-74499900D02*
X102850200Y-74499900D01*
D33*
X74925000Y-83925000D02*
X76500000Y-85500000D01*
X90350000Y-83650000D02*
X92000000Y-82000000D01*
D31*
X102850200Y-74499900D02*
X103499900Y-74499900D01*
D33*
X131365000Y-87135000D02*
X130980000Y-86750000D01*
D30*
X102850200Y-80137778D02*
X102850200Y-74499900D01*
D33*
X131365000Y-88000000D02*
X131365000Y-87135000D01*
D32*
X179000000Y-124040061D02*
X179000000Y-110000000D01*
D33*
X88525001Y-66680000D02*
X74925000Y-80280001D01*
D32*
X176350000Y-140000000D02*
X176350000Y-133350000D01*
D34*
X162457098Y-106542902D02*
X163500000Y-105500000D01*
D30*
X75110000Y-86890000D02*
X76500000Y-85500000D01*
D32*
X174965061Y-128075000D02*
X179000000Y-124040061D01*
D30*
X80000000Y-82000000D02*
X89000000Y-82000000D01*
D34*
X174800172Y-108379469D02*
X174800703Y-108380000D01*
D33*
X87810000Y-89000000D02*
X87810000Y-83190000D01*
D30*
X92000000Y-82000000D02*
X100987978Y-82000000D01*
X75110000Y-89000000D02*
X75110000Y-86890000D01*
D33*
X115429568Y-89570432D02*
X117000000Y-88000000D01*
X116480000Y-134480000D02*
X124000000Y-142000000D01*
X87810000Y-83190000D02*
X89000000Y-82000000D01*
X118250000Y-86750000D02*
X117000000Y-88000000D01*
D32*
X174965061Y-131965061D02*
X174965061Y-128075000D01*
D33*
X74925000Y-80280001D02*
X74925000Y-82000000D01*
D34*
X167532550Y-105500000D02*
X170412019Y-108379469D01*
D33*
X124000000Y-142000000D02*
X174350000Y-142000000D01*
X90350000Y-89000000D02*
X90350000Y-83650000D01*
D34*
X162457098Y-107849473D02*
X162457098Y-106542902D01*
D32*
X177380000Y-108380000D02*
X174800703Y-108380000D01*
X129000000Y-78000000D02*
X125499900Y-74499900D01*
D34*
X170412019Y-108379469D02*
X174800172Y-108379469D01*
D30*
X76500000Y-85500000D02*
X80000000Y-82000000D01*
D32*
X176350000Y-133350000D02*
X174965061Y-131965061D01*
D33*
X111950000Y-134480000D02*
X116480000Y-134480000D01*
X174350000Y-142000000D02*
X176350000Y-140000000D01*
X130980000Y-86750000D02*
X118250000Y-86750000D01*
X107828519Y-89570432D02*
X115429568Y-89570432D01*
D32*
X132000000Y-78000000D02*
X129000000Y-78000000D01*
D33*
X89375000Y-66680000D02*
X88525001Y-66680000D01*
D34*
X163500000Y-105500000D02*
X167532550Y-105500000D01*
%TO.N,Net-(U1-MOSI)*%
D33*
X148179241Y-106000000D02*
X153000000Y-106000000D01*
X147831957Y-105652716D02*
X148179241Y-106000000D01*
X153000000Y-106000000D02*
X153000000Y-106012375D01*
X137350000Y-101460000D02*
X138890000Y-103000000D01*
X153000000Y-106012375D02*
X154837098Y-107849473D01*
X154837098Y-107843286D02*
X154837098Y-107849473D01*
X138890000Y-103000000D02*
X144000000Y-103000000D01*
%TO.N,Net-(D1-DO)*%
X143750000Y-89250000D02*
X145000000Y-88000000D01*
X130095000Y-88365000D02*
X130980000Y-89250000D01*
X130980000Y-89250000D02*
X143750000Y-89250000D01*
X130095000Y-88000000D02*
X130095000Y-88365000D01*
%TO.N,Net-(D1-VDD)*%
X133520000Y-86750000D02*
X132635000Y-87635000D01*
X132635000Y-87635000D02*
X132635000Y-88000000D01*
X146150000Y-92770000D02*
X146150000Y-87523654D01*
X144920000Y-94000000D02*
X146150000Y-92770000D01*
X145376346Y-86750000D02*
X133520000Y-86750000D01*
X146150000Y-87523654D02*
X145376346Y-86750000D01*
%TO.N,Net-(U3-SCL)*%
D32*
X141000000Y-114551895D02*
X137373895Y-118178000D01*
X137373895Y-118178000D02*
X136221222Y-118178000D01*
X136221222Y-118178000D02*
X120650049Y-133749173D01*
X141000000Y-113000000D02*
X141000000Y-114551895D01*
X144000000Y-92000000D02*
X140000000Y-96000000D01*
X140000000Y-96000000D02*
X140000000Y-100000000D01*
%TO.N,Net-(U3-SDA)*%
X139000000Y-98000000D02*
X137252000Y-99748000D01*
X133000000Y-115970000D02*
X137350000Y-111620000D01*
X128650049Y-123509173D02*
X133000000Y-119159222D01*
X143000000Y-91000000D02*
X139000000Y-95000000D01*
X137252000Y-99748000D02*
X136430293Y-99748000D01*
X133000000Y-119159222D02*
X133000000Y-115970000D01*
X139000000Y-95000000D02*
X139000000Y-98000000D01*
%TO.N,Net-(BT1-+)*%
X179000000Y-89000000D02*
X178000000Y-90000000D01*
X178000000Y-90000000D02*
X175068900Y-90000000D01*
X171000000Y-79000000D02*
X179000000Y-87000000D01*
X164245577Y-79000000D02*
X171000000Y-79000000D01*
X175068900Y-90000000D02*
X173068900Y-88000000D01*
X179000000Y-87000000D02*
X179000000Y-89000000D01*
%TO.N,Net-(U2-VIN+)*%
D31*
X176350000Y-88000000D02*
X173350000Y-85000000D01*
X136950000Y-76599900D02*
X136950000Y-71600000D01*
X145350100Y-85000000D02*
X136950000Y-76599900D01*
X136950000Y-71600000D02*
X133350000Y-68000000D01*
X173350000Y-85000000D02*
X145350100Y-85000000D01*
%TO.N,Net-(U2-VIN-)*%
X162569000Y-88000000D02*
X160569000Y-86000000D01*
X160569000Y-86000000D02*
X144850100Y-86000000D01*
X144850100Y-86000000D02*
X133350000Y-74499900D01*
%TO.N,Net-(U5-SDA)*%
D32*
X94596040Y-69179645D02*
X94595685Y-69180000D01*
X94595685Y-69180000D02*
X89375000Y-69180000D01*
X97000000Y-110000000D02*
X97000000Y-83000000D01*
X99000000Y-112000000D02*
X97000000Y-110000000D01*
%TO.N,Net-(U5-SCL)*%
X99847981Y-80847982D02*
X99000000Y-80000000D01*
X101000000Y-84000000D02*
X101000000Y-99000000D01*
X99000000Y-80000000D02*
X94111450Y-80000000D01*
X89375000Y-75263550D02*
X89375000Y-70430000D01*
X94111450Y-80000000D02*
X89375000Y-75263550D01*
%TO.N,Net-(U6-RX)*%
D33*
X111677394Y-118000000D02*
X132000000Y-118000000D01*
X172800703Y-118000000D02*
X174800703Y-116000000D01*
X110838000Y-117160606D02*
X111677394Y-118000000D01*
X140000000Y-118000000D02*
X172800703Y-118000000D01*
X110838000Y-115272000D02*
X110838000Y-117160606D01*
X111950000Y-114160000D02*
X110838000Y-115272000D01*
%TO.N,Net-(U6-TX)*%
X171848703Y-110508000D02*
X174800703Y-113460000D01*
X111950000Y-116700000D02*
X116650000Y-112000000D01*
X128492000Y-110508000D02*
X171848703Y-110508000D01*
X127000000Y-112000000D02*
X128492000Y-110508000D01*
X116650000Y-112000000D02*
X127000000Y-112000000D01*
%TO.N,Net-(U8-ADC{slash}DAC0{slash}D25)*%
D32*
X138407314Y-101015419D02*
X141099768Y-101015419D01*
X117760000Y-119240000D02*
X111950000Y-119240000D01*
X131602000Y-100398000D02*
X137789895Y-100398000D01*
X137789895Y-100398000D02*
X138407314Y-101015419D01*
X141104454Y-101020105D02*
X142139895Y-101020105D01*
X121000000Y-111000000D02*
X131602000Y-100398000D01*
X118000000Y-119000000D02*
X117760000Y-119240000D01*
X142139895Y-101020105D02*
X155160000Y-88000000D01*
X141099768Y-101015419D02*
X141104454Y-101020105D01*
%TO.N,Net-(U8-ADC{slash}DAC1{slash}D26)*%
D33*
X133000000Y-108000000D02*
X133348000Y-107652000D01*
X141428000Y-107652000D02*
X155080000Y-94000000D01*
X133348000Y-107652000D02*
X141428000Y-107652000D01*
%TO.N,Net-(U8-ADC{slash}D13)*%
X170000000Y-92000000D02*
X177000000Y-92000000D01*
X180000000Y-89000000D02*
X180000000Y-84594423D01*
X160612532Y-101387468D02*
X170000000Y-92000000D01*
X149471138Y-101387468D02*
X160612532Y-101387468D01*
X141929303Y-108929303D02*
X149471138Y-101387468D01*
D32*
X174348710Y-78943133D02*
X174405577Y-79000000D01*
X174348710Y-72000000D02*
X174348710Y-78943133D01*
D33*
X177000000Y-92000000D02*
X180000000Y-89000000D01*
X180000000Y-84594423D02*
X174405577Y-79000000D01*
%TO.N,Net-(U4-RX)*%
D32*
X125000000Y-114000000D02*
X128000000Y-117000000D01*
%TO.N,Net-(U4-TX)*%
X126262051Y-113748000D02*
X126748000Y-113748000D01*
X126748000Y-113748000D02*
X130000000Y-117000000D01*
%TD*%
%TA.AperFunction,Conductor*%
%TO.N,GND*%
G36*
X110606834Y-129367047D02*
G01*
X110662767Y-129408919D01*
X110687184Y-129474383D01*
X110687500Y-129483229D01*
X110687500Y-129499360D01*
X110718587Y-129695637D01*
X110779993Y-129884629D01*
X110779994Y-129884632D01*
X110870213Y-130061694D01*
X110987019Y-130222464D01*
X111127536Y-130362981D01*
X111288306Y-130479787D01*
X111406832Y-130540179D01*
X111444780Y-130559515D01*
X111495576Y-130607490D01*
X111512371Y-130675311D01*
X111489833Y-130741446D01*
X111444780Y-130780485D01*
X111288305Y-130860213D01*
X111127533Y-130977021D01*
X110987021Y-131117533D01*
X110870213Y-131278305D01*
X110779994Y-131455367D01*
X110779993Y-131455370D01*
X110718587Y-131644362D01*
X110687500Y-131840639D01*
X110687500Y-132039360D01*
X110718587Y-132235637D01*
X110779993Y-132424629D01*
X110779994Y-132424632D01*
X110822894Y-132508826D01*
X110870213Y-132601694D01*
X110987019Y-132762464D01*
X111127536Y-132902981D01*
X111288306Y-133019787D01*
X111445332Y-133099796D01*
X111496127Y-133147769D01*
X111512922Y-133215590D01*
X111490385Y-133281725D01*
X111445332Y-133320764D01*
X111288569Y-133400639D01*
X111127860Y-133517403D01*
X111127859Y-133517403D01*
X110987403Y-133657859D01*
X110987403Y-133657860D01*
X110870641Y-133818567D01*
X110780456Y-133995564D01*
X110719074Y-134184482D01*
X110711865Y-134229999D01*
X110711865Y-134230000D01*
X111566409Y-134230000D01*
X111523958Y-134303527D01*
X111492800Y-134419808D01*
X111492800Y-134540192D01*
X111523958Y-134656473D01*
X111566409Y-134730000D01*
X110772730Y-134730000D01*
X110705691Y-134710315D01*
X110685049Y-134693681D01*
X109786819Y-133795451D01*
X109753334Y-133734128D01*
X109750500Y-133707770D01*
X109750500Y-130172229D01*
X109770185Y-130105190D01*
X109786815Y-130084552D01*
X110475819Y-129395547D01*
X110537142Y-129362063D01*
X110606834Y-129367047D01*
G37*
%TD.AperFunction*%
%TA.AperFunction,Conductor*%
G36*
X89923958Y-88823527D02*
G01*
X89892800Y-88939808D01*
X89892800Y-89060192D01*
X89923958Y-89176473D01*
X89966409Y-89250000D01*
X88193591Y-89250000D01*
X88236042Y-89176473D01*
X88267200Y-89060192D01*
X88267200Y-88939808D01*
X88236042Y-88823527D01*
X88193591Y-88750000D01*
X89966409Y-88750000D01*
X89923958Y-88823527D01*
G37*
%TD.AperFunction*%
%TA.AperFunction,Conductor*%
G36*
X180992539Y-60320185D02*
G01*
X181038294Y-60372989D01*
X181049500Y-60424500D01*
X181049500Y-149575500D01*
X181029815Y-149642539D01*
X180977011Y-149688294D01*
X180925500Y-149699500D01*
X68884600Y-149699500D01*
X68817561Y-149679815D01*
X68771806Y-149627011D01*
X68760600Y-149575500D01*
X68760600Y-144775995D01*
X111165500Y-144775995D01*
X111165500Y-145012004D01*
X111165501Y-145012020D01*
X111196306Y-145246010D01*
X111257394Y-145473993D01*
X111347714Y-145692045D01*
X111347719Y-145692056D01*
X111402659Y-145787213D01*
X111465727Y-145896450D01*
X111465729Y-145896453D01*
X111465730Y-145896454D01*
X111609406Y-146083697D01*
X111609412Y-146083704D01*
X111776295Y-146250587D01*
X111776301Y-146250592D01*
X111963550Y-146394273D01*
X112094918Y-146470118D01*
X112167943Y-146512280D01*
X112167948Y-146512282D01*
X112167951Y-146512284D01*
X112386007Y-146602606D01*
X112613986Y-146663693D01*
X112847989Y-146694500D01*
X112847996Y-146694500D01*
X113084004Y-146694500D01*
X113084011Y-146694500D01*
X113318014Y-146663693D01*
X113545993Y-146602606D01*
X113764049Y-146512284D01*
X113968450Y-146394273D01*
X114155699Y-146250592D01*
X114322592Y-146083699D01*
X114466273Y-145896450D01*
X114584284Y-145692049D01*
X114674606Y-145473993D01*
X114735693Y-145246014D01*
X114766500Y-145012011D01*
X114766500Y-144775995D01*
X134533500Y-144775995D01*
X134533500Y-145012004D01*
X134533501Y-145012020D01*
X134564306Y-145246010D01*
X134625394Y-145473993D01*
X134715714Y-145692045D01*
X134715719Y-145692056D01*
X134770659Y-145787213D01*
X134833727Y-145896450D01*
X134833729Y-145896453D01*
X134833730Y-145896454D01*
X134977406Y-146083697D01*
X134977412Y-146083704D01*
X135144295Y-146250587D01*
X135144301Y-146250592D01*
X135331550Y-146394273D01*
X135462918Y-146470118D01*
X135535943Y-146512280D01*
X135535948Y-146512282D01*
X135535951Y-146512284D01*
X135754007Y-146602606D01*
X135981986Y-146663693D01*
X136215989Y-146694500D01*
X136215996Y-146694500D01*
X136452004Y-146694500D01*
X136452011Y-146694500D01*
X136686014Y-146663693D01*
X136913993Y-146602606D01*
X137132049Y-146512284D01*
X137336450Y-146394273D01*
X137523699Y-146250592D01*
X137690592Y-146083699D01*
X137834273Y-145896450D01*
X137952284Y-145692049D01*
X138042606Y-145473993D01*
X138103693Y-145246014D01*
X138134500Y-145012011D01*
X138134500Y-144837648D01*
X145109500Y-144837648D01*
X145109500Y-145042351D01*
X145141522Y-145244534D01*
X145204781Y-145439223D01*
X145297715Y-145621613D01*
X145418028Y-145787213D01*
X145562786Y-145931971D01*
X145645371Y-145991971D01*
X145728390Y-146052287D01*
X145844607Y-146111503D01*
X145910776Y-146145218D01*
X145910778Y-146145218D01*
X145910781Y-146145220D01*
X146015137Y-146179127D01*
X146105465Y-146208477D01*
X146206557Y-146224488D01*
X146307648Y-146240500D01*
X146307649Y-146240500D01*
X146512351Y-146240500D01*
X146512352Y-146240500D01*
X146714534Y-146208477D01*
X146909219Y-146145220D01*
X147091610Y-146052287D01*
X147184590Y-145984732D01*
X147257213Y-145931971D01*
X147257215Y-145931968D01*
X147257219Y-145931966D01*
X147401966Y-145787219D01*
X147401968Y-145787215D01*
X147401971Y-145787213D01*
X147471113Y-145692045D01*
X147522287Y-145621610D01*
X147615220Y-145439219D01*
X147678477Y-145244534D01*
X147710500Y-145042352D01*
X147710500Y-144897648D01*
X165049500Y-144897648D01*
X165049500Y-145102351D01*
X165081522Y-145304534D01*
X165144781Y-145499223D01*
X165237715Y-145681613D01*
X165358028Y-145847213D01*
X165502786Y-145991971D01*
X165657749Y-146104556D01*
X165668390Y-146112287D01*
X165733021Y-146145218D01*
X165850776Y-146205218D01*
X165850778Y-146205218D01*
X165850781Y-146205220D01*
X165955137Y-146239127D01*
X166045465Y-146268477D01*
X166146557Y-146284488D01*
X166247648Y-146300500D01*
X166247649Y-146300500D01*
X166452351Y-146300500D01*
X166452352Y-146300500D01*
X166654534Y-146268477D01*
X166849219Y-146205220D01*
X167031610Y-146112287D01*
X167124590Y-146044732D01*
X167197213Y-145991971D01*
X167197215Y-145991968D01*
X167197219Y-145991966D01*
X167341966Y-145847219D01*
X167341968Y-145847215D01*
X167341971Y-145847213D01*
X167394732Y-145774590D01*
X167462287Y-145681610D01*
X167555220Y-145499219D01*
X167618477Y-145304534D01*
X167650500Y-145102352D01*
X167650500Y-144897648D01*
X167618477Y-144695466D01*
X167598981Y-144635465D01*
X167555218Y-144500776D01*
X167521503Y-144434607D01*
X167462287Y-144318390D01*
X167418692Y-144258386D01*
X167341971Y-144152786D01*
X167197213Y-144008028D01*
X167031613Y-143887715D01*
X167031612Y-143887714D01*
X167031610Y-143887713D01*
X166974653Y-143858691D01*
X166849223Y-143794781D01*
X166654534Y-143731522D01*
X166479995Y-143703878D01*
X166452352Y-143699500D01*
X166247648Y-143699500D01*
X166223329Y-143703351D01*
X166045465Y-143731522D01*
X165850776Y-143794781D01*
X165668386Y-143887715D01*
X165502786Y-144008028D01*
X165358028Y-144152786D01*
X165237715Y-144318386D01*
X165144781Y-144500776D01*
X165081522Y-144695465D01*
X165049500Y-144897648D01*
X147710500Y-144897648D01*
X147710500Y-144837648D01*
X147678477Y-144635466D01*
X147615220Y-144440781D01*
X147615218Y-144440778D01*
X147615218Y-144440776D01*
X147581503Y-144374607D01*
X147522287Y-144258390D01*
X147514556Y-144247749D01*
X147401971Y-144092786D01*
X147257213Y-143948028D01*
X147091613Y-143827715D01*
X147091612Y-143827714D01*
X147091610Y-143827713D01*
X147034653Y-143798691D01*
X146909223Y-143734781D01*
X146714534Y-143671522D01*
X146539995Y-143643878D01*
X146512352Y-143639500D01*
X146307648Y-143639500D01*
X146283329Y-143643351D01*
X146105465Y-143671522D01*
X145910776Y-143734781D01*
X145728386Y-143827715D01*
X145562786Y-143948028D01*
X145418028Y-144092786D01*
X145297715Y-144258386D01*
X145204781Y-144440776D01*
X145141522Y-144635465D01*
X145109500Y-144837648D01*
X138134500Y-144837648D01*
X138134500Y-144775989D01*
X138103693Y-144541986D01*
X138042606Y-144314007D01*
X137952284Y-144095951D01*
X137952282Y-144095948D01*
X137952280Y-144095943D01*
X137901525Y-144008034D01*
X137834273Y-143891550D01*
X137711480Y-143731523D01*
X137690593Y-143704302D01*
X137690587Y-143704295D01*
X137523704Y-143537412D01*
X137523697Y-143537406D01*
X137336454Y-143393730D01*
X137336453Y-143393729D01*
X137336450Y-143393727D01*
X137254957Y-143346677D01*
X137132056Y-143275719D01*
X137132045Y-143275714D01*
X136913993Y-143185394D01*
X136686010Y-143124306D01*
X136452020Y-143093501D01*
X136452017Y-143093500D01*
X136452011Y-143093500D01*
X136215989Y-143093500D01*
X136215983Y-143093500D01*
X136215979Y-143093501D01*
X135981989Y-143124306D01*
X135754006Y-143185394D01*
X135535954Y-143275714D01*
X135535943Y-143275719D01*
X135331545Y-143393730D01*
X135144302Y-143537406D01*
X135144295Y-143537412D01*
X134977412Y-143704295D01*
X134977406Y-143704302D01*
X134833730Y-143891545D01*
X134715719Y-144095943D01*
X134715714Y-144095954D01*
X134625394Y-144314006D01*
X134564306Y-144541989D01*
X134533501Y-144775979D01*
X134533500Y-144775995D01*
X114766500Y-144775995D01*
X114766500Y-144775989D01*
X114735693Y-144541986D01*
X114674606Y-144314007D01*
X114584284Y-144095951D01*
X114584282Y-144095948D01*
X114584280Y-144095943D01*
X114533525Y-144008034D01*
X114466273Y-143891550D01*
X114343480Y-143731523D01*
X114322593Y-143704302D01*
X114322587Y-143704295D01*
X114155704Y-143537412D01*
X114155697Y-143537406D01*
X113968454Y-143393730D01*
X113968453Y-143393729D01*
X113968450Y-143393727D01*
X113886957Y-143346677D01*
X113764056Y-143275719D01*
X113764045Y-143275714D01*
X113545993Y-143185394D01*
X113318010Y-143124306D01*
X113084020Y-143093501D01*
X113084017Y-143093500D01*
X113084011Y-143093500D01*
X112847989Y-143093500D01*
X112847983Y-143093500D01*
X112847979Y-143093501D01*
X112613989Y-143124306D01*
X112386006Y-143185394D01*
X112167954Y-143275714D01*
X112167943Y-143275719D01*
X111963545Y-143393730D01*
X111776302Y-143537406D01*
X111776295Y-143537412D01*
X111609412Y-143704295D01*
X111609406Y-143704302D01*
X111465730Y-143891545D01*
X111347719Y-144095943D01*
X111347714Y-144095954D01*
X111257394Y-144314006D01*
X111196306Y-144541989D01*
X111165501Y-144775979D01*
X111165500Y-144775995D01*
X68760600Y-144775995D01*
X68760600Y-88749999D01*
X73871865Y-88749999D01*
X73871865Y-88750000D01*
X74726409Y-88750000D01*
X74683958Y-88823527D01*
X74652800Y-88939808D01*
X74652800Y-89060192D01*
X74683958Y-89176473D01*
X74726409Y-89250000D01*
X73871865Y-89250000D01*
X73879074Y-89295517D01*
X73940456Y-89484435D01*
X74030641Y-89661432D01*
X74147403Y-89822139D01*
X74147403Y-89822140D01*
X74287859Y-89962596D01*
X74448567Y-90079358D01*
X74625562Y-90169542D01*
X74814473Y-90230922D01*
X74860000Y-90238133D01*
X74860000Y-89383591D01*
X74933527Y-89426042D01*
X75049808Y-89457200D01*
X75170192Y-89457200D01*
X75286473Y-89426042D01*
X75360000Y-89383591D01*
X75360000Y-90238132D01*
X75405526Y-90230922D01*
X75594437Y-90169542D01*
X75771432Y-90079358D01*
X75932139Y-89962596D01*
X75932140Y-89962596D01*
X76072596Y-89822140D01*
X76072596Y-89822139D01*
X76189358Y-89661432D01*
X76249284Y-89543822D01*
X76297258Y-89493026D01*
X76365079Y-89476231D01*
X76431214Y-89498768D01*
X76470253Y-89543821D01*
X76530313Y-89661694D01*
X76647119Y-89822464D01*
X76787636Y-89962981D01*
X76948406Y-90079787D01*
X77035249Y-90124035D01*
X77125467Y-90170005D01*
X77125470Y-90170006D01*
X77162945Y-90182182D01*
X77314464Y-90231413D01*
X77510739Y-90262500D01*
X77510740Y-90262500D01*
X77709460Y-90262500D01*
X77709461Y-90262500D01*
X77905736Y-90231413D01*
X78094732Y-90170005D01*
X78271794Y-90079787D01*
X78432564Y-89962981D01*
X78573081Y-89822464D01*
X78689887Y-89661694D01*
X78780105Y-89484632D01*
X78782118Y-89478435D01*
X78821555Y-89420760D01*
X78885913Y-89393561D01*
X78954760Y-89405474D01*
X79006236Y-89452717D01*
X79017982Y-89478436D01*
X79019995Y-89484633D01*
X79092736Y-89627393D01*
X79110213Y-89661694D01*
X79227019Y-89822464D01*
X79367536Y-89962981D01*
X79528306Y-90079787D01*
X79615149Y-90124035D01*
X79705367Y-90170005D01*
X79705370Y-90170006D01*
X79742845Y-90182182D01*
X79894364Y-90231413D01*
X80090639Y-90262500D01*
X80090640Y-90262500D01*
X80289360Y-90262500D01*
X80289361Y-90262500D01*
X80485636Y-90231413D01*
X80674632Y-90170005D01*
X80851694Y-90079787D01*
X81012464Y-89962981D01*
X81152981Y-89822464D01*
X81269787Y-89661694D01*
X81349515Y-89505218D01*
X81397490Y-89454423D01*
X81465311Y-89437628D01*
X81531446Y-89460165D01*
X81570484Y-89505218D01*
X81650213Y-89661694D01*
X81767019Y-89822464D01*
X81907536Y-89962981D01*
X82068306Y-90079787D01*
X82155149Y-90124035D01*
X82245367Y-90170005D01*
X82245370Y-90170006D01*
X82282845Y-90182182D01*
X82434364Y-90231413D01*
X82630639Y-90262500D01*
X82630640Y-90262500D01*
X82829360Y-90262500D01*
X82829361Y-90262500D01*
X83025636Y-90231413D01*
X83214632Y-90170005D01*
X83391694Y-90079787D01*
X83552464Y-89962981D01*
X83692981Y-89822464D01*
X83809787Y-89661694D01*
X83889515Y-89505218D01*
X83937490Y-89454423D01*
X84005311Y-89437628D01*
X84071446Y-89460165D01*
X84110484Y-89505218D01*
X84190213Y-89661694D01*
X84307019Y-89822464D01*
X84447536Y-89962981D01*
X84608306Y-90079787D01*
X84695149Y-90124035D01*
X84785367Y-90170005D01*
X84785370Y-90170006D01*
X84822845Y-90182182D01*
X84974364Y-90231413D01*
X85170639Y-90262500D01*
X85170640Y-90262500D01*
X85369360Y-90262500D01*
X85369361Y-90262500D01*
X85565636Y-90231413D01*
X85754632Y-90170005D01*
X85931694Y-90079787D01*
X86092464Y-89962981D01*
X86232981Y-89822464D01*
X86349787Y-89661694D01*
X86429796Y-89504667D01*
X86477769Y-89453872D01*
X86545590Y-89437077D01*
X86611725Y-89459614D01*
X86650765Y-89504668D01*
X86730641Y-89661432D01*
X86847403Y-89822139D01*
X86847403Y-89822140D01*
X86987859Y-89962596D01*
X87148567Y-90079358D01*
X87325562Y-90169542D01*
X87514473Y-90230922D01*
X87560000Y-90238133D01*
X87560000Y-89383591D01*
X87633527Y-89426042D01*
X87749808Y-89457200D01*
X87870192Y-89457200D01*
X87986473Y-89426042D01*
X88060000Y-89383591D01*
X88060000Y-90238132D01*
X88105526Y-90230922D01*
X88294437Y-90169542D01*
X88471432Y-90079358D01*
X88632139Y-89962596D01*
X88632140Y-89962596D01*
X88772596Y-89822140D01*
X88772596Y-89822139D01*
X88889358Y-89661432D01*
X88969515Y-89504117D01*
X89017490Y-89453321D01*
X89085311Y-89436526D01*
X89151446Y-89459063D01*
X89190485Y-89504117D01*
X89270641Y-89661432D01*
X89387403Y-89822139D01*
X89387403Y-89822140D01*
X89527859Y-89962596D01*
X89688567Y-90079358D01*
X89865562Y-90169542D01*
X90054473Y-90230922D01*
X90100000Y-90238133D01*
X90100000Y-89383591D01*
X90173527Y-89426042D01*
X90289808Y-89457200D01*
X90410192Y-89457200D01*
X90526473Y-89426042D01*
X90600000Y-89383591D01*
X90600000Y-90238132D01*
X90645526Y-90230922D01*
X90834437Y-90169542D01*
X91011432Y-90079358D01*
X91172139Y-89962596D01*
X91172140Y-89962596D01*
X91312596Y-89822140D01*
X91312596Y-89822139D01*
X91429358Y-89661432D01*
X91519543Y-89484435D01*
X91580925Y-89295517D01*
X91588134Y-89250000D01*
X90733591Y-89250000D01*
X90776042Y-89176473D01*
X90807200Y-89060192D01*
X90807200Y-88939808D01*
X90776042Y-88823527D01*
X90733591Y-88750000D01*
X91588135Y-88750000D01*
X91588134Y-88749999D01*
X91580925Y-88704482D01*
X91519543Y-88515564D01*
X91429358Y-88338567D01*
X91312596Y-88177860D01*
X91312596Y-88177859D01*
X91172140Y-88037403D01*
X91011432Y-87920641D01*
X90834434Y-87830456D01*
X90834436Y-87830456D01*
X90645517Y-87769074D01*
X90600000Y-87761865D01*
X90600000Y-88616408D01*
X90526473Y-88573958D01*
X90410192Y-88542800D01*
X90289808Y-88542800D01*
X90173527Y-88573958D01*
X90100000Y-88616408D01*
X90100000Y-87761865D01*
X90099999Y-87761865D01*
X90054482Y-87769074D01*
X89865564Y-87830456D01*
X89688567Y-87920641D01*
X89527860Y-88037403D01*
X89527859Y-88037403D01*
X89387403Y-88177859D01*
X89387403Y-88177860D01*
X89270641Y-88338567D01*
X89190485Y-88495882D01*
X89142510Y-88546678D01*
X89074689Y-88563473D01*
X89008554Y-88540935D01*
X88969515Y-88495882D01*
X88889358Y-88338567D01*
X88772596Y-88177860D01*
X88772596Y-88177859D01*
X88632140Y-88037403D01*
X88471432Y-87920641D01*
X88294434Y-87830456D01*
X88294436Y-87830456D01*
X88105517Y-87769074D01*
X88060000Y-87761865D01*
X88060000Y-88616408D01*
X87986473Y-88573958D01*
X87870192Y-88542800D01*
X87749808Y-88542800D01*
X87633527Y-88573958D01*
X87560000Y-88616408D01*
X87560000Y-87761865D01*
X87559999Y-87761865D01*
X87514482Y-87769074D01*
X87325564Y-87830456D01*
X87148567Y-87920641D01*
X86987860Y-88037403D01*
X86987859Y-88037403D01*
X86847403Y-88177859D01*
X86847403Y-88177860D01*
X86730639Y-88338569D01*
X86650764Y-88495332D01*
X86602790Y-88546127D01*
X86534969Y-88562922D01*
X86468834Y-88540384D01*
X86429796Y-88495332D01*
X86349787Y-88338306D01*
X86232981Y-88177536D01*
X86092464Y-88037019D01*
X85931694Y-87920213D01*
X85754632Y-87829994D01*
X85754629Y-87829993D01*
X85565637Y-87768587D01*
X85467498Y-87753043D01*
X85369361Y-87737500D01*
X85170639Y-87737500D01*
X85105214Y-87747862D01*
X84974362Y-87768587D01*
X84785370Y-87829993D01*
X84785367Y-87829994D01*
X84608305Y-87920213D01*
X84447533Y-88037021D01*
X84307021Y-88177533D01*
X84190213Y-88338305D01*
X84110485Y-88494780D01*
X84062510Y-88545576D01*
X83994689Y-88562371D01*
X83928554Y-88539833D01*
X83889515Y-88494780D01*
X83854286Y-88425640D01*
X83809787Y-88338306D01*
X83692981Y-88177536D01*
X83552464Y-88037019D01*
X83391694Y-87920213D01*
X83214632Y-87829994D01*
X83214629Y-87829993D01*
X83025637Y-87768587D01*
X82927498Y-87753043D01*
X82829361Y-87737500D01*
X82630639Y-87737500D01*
X82565214Y-87747862D01*
X82434362Y-87768587D01*
X82245370Y-87829993D01*
X82245367Y-87829994D01*
X82068305Y-87920213D01*
X81907533Y-88037021D01*
X81767021Y-88177533D01*
X81650213Y-88338305D01*
X81570485Y-88494780D01*
X81522510Y-88545576D01*
X81454689Y-88562371D01*
X81388554Y-88539833D01*
X81349515Y-88494780D01*
X81314286Y-88425640D01*
X81269787Y-88338306D01*
X81152981Y-88177536D01*
X81012464Y-88037019D01*
X80851694Y-87920213D01*
X80674632Y-87829994D01*
X80674629Y-87829993D01*
X80485637Y-87768587D01*
X80387498Y-87753043D01*
X80289361Y-87737500D01*
X80090639Y-87737500D01*
X80025214Y-87747862D01*
X79894362Y-87768587D01*
X79705370Y-87829993D01*
X79705367Y-87829994D01*
X79528305Y-87920213D01*
X79367533Y-88037021D01*
X79227021Y-88177533D01*
X79110213Y-88338305D01*
X79019995Y-88515367D01*
X79017981Y-88521566D01*
X78978543Y-88579241D01*
X78914184Y-88606439D01*
X78845337Y-88594524D01*
X78793862Y-88547279D01*
X78782119Y-88521566D01*
X78780911Y-88517849D01*
X78780105Y-88515368D01*
X78780104Y-88515367D01*
X78780105Y-88515367D01*
X78734135Y-88425149D01*
X78689887Y-88338306D01*
X78573081Y-88177536D01*
X78432564Y-88037019D01*
X78271794Y-87920213D01*
X78094732Y-87829994D01*
X78094729Y-87829993D01*
X77905737Y-87768587D01*
X77807598Y-87753043D01*
X77709461Y-87737500D01*
X77510739Y-87737500D01*
X77445314Y-87747862D01*
X77314462Y-87768587D01*
X77125470Y-87829993D01*
X77125467Y-87829994D01*
X76948405Y-87920213D01*
X76787633Y-88037021D01*
X76647121Y-88177533D01*
X76530309Y-88338310D01*
X76470253Y-88456177D01*
X76422279Y-88506973D01*
X76354458Y-88523768D01*
X76288323Y-88501230D01*
X76249284Y-88456177D01*
X76189358Y-88338567D01*
X76072596Y-88177860D01*
X76072596Y-88177859D01*
X75932140Y-88037403D01*
X75771432Y-87920641D01*
X75594434Y-87830456D01*
X75594436Y-87830456D01*
X75405517Y-87769074D01*
X75360000Y-87761865D01*
X75360000Y-88616408D01*
X75286473Y-88573958D01*
X75170192Y-88542800D01*
X75049808Y-88542800D01*
X74933527Y-88573958D01*
X74860000Y-88616408D01*
X74860000Y-87761865D01*
X74859999Y-87761865D01*
X74814482Y-87769074D01*
X74625564Y-87830456D01*
X74448567Y-87920641D01*
X74287860Y-88037403D01*
X74287859Y-88037403D01*
X74147403Y-88177859D01*
X74147403Y-88177860D01*
X74030641Y-88338567D01*
X73940456Y-88515564D01*
X73879074Y-88704482D01*
X73871865Y-88749999D01*
X68760600Y-88749999D01*
X68760600Y-82524986D01*
X73837501Y-82524986D01*
X73847994Y-82627697D01*
X73903141Y-82794119D01*
X73903143Y-82794124D01*
X73995184Y-82943345D01*
X74119154Y-83067315D01*
X74268375Y-83159356D01*
X74268380Y-83159358D01*
X74434802Y-83214505D01*
X74434809Y-83214506D01*
X74537519Y-83224999D01*
X74674999Y-83224999D01*
X74675000Y-83224998D01*
X74675000Y-82250000D01*
X73837501Y-82250000D01*
X73837501Y-82524986D01*
X68760600Y-82524986D01*
X68760600Y-81475013D01*
X73837500Y-81475013D01*
X73837500Y-81750000D01*
X74675000Y-81750000D01*
X74675000Y-80775000D01*
X75175000Y-80775000D01*
X75175000Y-83224999D01*
X75312472Y-83224999D01*
X75312486Y-83224998D01*
X75415197Y-83214505D01*
X75581619Y-83159358D01*
X75581624Y-83159356D01*
X75730845Y-83067315D01*
X75854818Y-82943342D01*
X75856665Y-82940348D01*
X75858469Y-82938724D01*
X75859298Y-82937677D01*
X75859476Y-82937818D01*
X75908610Y-82893621D01*
X75977573Y-82882396D01*
X76041656Y-82910236D01*
X76067743Y-82940341D01*
X76069788Y-82943656D01*
X76193844Y-83067712D01*
X76343166Y-83159814D01*
X76509703Y-83214999D01*
X76612491Y-83225500D01*
X77387508Y-83225499D01*
X77387516Y-83225498D01*
X77387519Y-83225498D01*
X77443802Y-83219748D01*
X77490297Y-83214999D01*
X77656834Y-83159814D01*
X77806156Y-83067712D01*
X77930212Y-82943656D01*
X77947130Y-82916228D01*
X96149500Y-82916228D01*
X96149500Y-83083771D01*
X96182182Y-83248074D01*
X96182184Y-83248082D01*
X96246295Y-83402860D01*
X96339372Y-83542160D01*
X96339373Y-83542161D01*
X96339374Y-83542162D01*
X96363181Y-83565969D01*
X96396666Y-83627290D01*
X96399500Y-83653650D01*
X96399500Y-109913330D01*
X96399499Y-109913348D01*
X96399499Y-110079054D01*
X96399498Y-110079054D01*
X96408643Y-110113181D01*
X96418374Y-110149500D01*
X96440424Y-110231787D01*
X96455734Y-110258304D01*
X96455735Y-110258306D01*
X96519477Y-110368712D01*
X96519481Y-110368717D01*
X96638349Y-110487585D01*
X96638355Y-110487590D01*
X97705922Y-111555157D01*
X97739407Y-111616480D01*
X97736173Y-111681155D01*
X97731522Y-111695468D01*
X97699500Y-111897648D01*
X97699500Y-112102351D01*
X97731522Y-112304534D01*
X97794781Y-112499223D01*
X97837457Y-112582978D01*
X97872968Y-112652672D01*
X97887715Y-112681613D01*
X98008028Y-112847213D01*
X98152786Y-112991971D01*
X98307749Y-113104556D01*
X98318390Y-113112287D01*
X98391425Y-113149500D01*
X98500776Y-113205218D01*
X98500778Y-113205218D01*
X98500781Y-113205220D01*
X98605137Y-113239127D01*
X98695465Y-113268477D01*
X98796557Y-113284488D01*
X98897648Y-113300500D01*
X98897649Y-113300500D01*
X99102351Y-113300500D01*
X99102352Y-113300500D01*
X99304534Y-113268477D01*
X99499219Y-113205220D01*
X99681610Y-113112287D01*
X99780775Y-113040240D01*
X99847213Y-112991971D01*
X99847215Y-112991968D01*
X99847219Y-112991966D01*
X99991966Y-112847219D01*
X99991968Y-112847215D01*
X99991971Y-112847213D01*
X100044732Y-112774590D01*
X100112287Y-112681610D01*
X100205220Y-112499219D01*
X100268477Y-112304534D01*
X100300500Y-112102352D01*
X100300500Y-111897648D01*
X100272262Y-111719361D01*
X100268477Y-111695465D01*
X100205218Y-111500776D01*
X100140876Y-111374499D01*
X100112287Y-111318390D01*
X100088786Y-111286043D01*
X99991971Y-111152786D01*
X99847213Y-111008028D01*
X99681613Y-110887715D01*
X99681612Y-110887714D01*
X99681610Y-110887713D01*
X99624653Y-110858691D01*
X99499223Y-110794781D01*
X99304534Y-110731522D01*
X99129995Y-110703878D01*
X99102352Y-110699500D01*
X98897648Y-110699500D01*
X98859599Y-110705526D01*
X98695468Y-110731522D01*
X98686717Y-110734365D01*
X98681154Y-110736173D01*
X98611313Y-110738167D01*
X98555157Y-110705922D01*
X97636819Y-109787584D01*
X97603334Y-109726261D01*
X97600500Y-109699903D01*
X97600500Y-102474420D01*
X97620185Y-102407381D01*
X97672989Y-102361626D01*
X97742147Y-102351682D01*
X97805703Y-102380707D01*
X97834984Y-102418123D01*
X97882146Y-102510684D01*
X97887715Y-102521614D01*
X98008028Y-102687213D01*
X98152786Y-102831971D01*
X98284273Y-102927500D01*
X98318390Y-102952287D01*
X98432033Y-103010191D01*
X98500776Y-103045218D01*
X98500778Y-103045218D01*
X98500781Y-103045220D01*
X98605137Y-103079127D01*
X98695465Y-103108477D01*
X98779564Y-103121797D01*
X98897648Y-103140500D01*
X98897649Y-103140500D01*
X99102351Y-103140500D01*
X99102352Y-103140500D01*
X99304534Y-103108477D01*
X99499219Y-103045220D01*
X99681610Y-102952287D01*
X99843890Y-102834385D01*
X99847213Y-102831971D01*
X99847215Y-102831968D01*
X99847219Y-102831966D01*
X99991966Y-102687219D01*
X100006300Y-102667490D01*
X100025100Y-102641615D01*
X100080429Y-102598949D01*
X100125418Y-102590500D01*
X105874582Y-102590500D01*
X105941621Y-102610185D01*
X105974900Y-102641615D01*
X106008028Y-102687212D01*
X106008032Y-102687217D01*
X106152786Y-102831971D01*
X106284273Y-102927500D01*
X106318390Y-102952287D01*
X106432033Y-103010191D01*
X106500776Y-103045218D01*
X106500778Y-103045218D01*
X106500781Y-103045220D01*
X106605137Y-103079127D01*
X106695465Y-103108477D01*
X106779564Y-103121797D01*
X106897648Y-103140500D01*
X106897649Y-103140500D01*
X107102350Y-103140500D01*
X107102352Y-103140500D01*
X107158026Y-103131681D01*
X107227318Y-103140635D01*
X107265105Y-103166473D01*
X107685977Y-103587345D01*
X107719462Y-103648668D01*
X107722296Y-103675026D01*
X107722296Y-110706093D01*
X107702611Y-110773132D01*
X107649807Y-110818887D01*
X107580649Y-110828831D01*
X107542002Y-110816578D01*
X107499226Y-110794782D01*
X107304534Y-110731522D01*
X107129995Y-110703878D01*
X107102352Y-110699500D01*
X106897648Y-110699500D01*
X106873329Y-110703351D01*
X106695465Y-110731522D01*
X106500776Y-110794781D01*
X106318386Y-110887715D01*
X106152786Y-111008028D01*
X106008028Y-111152786D01*
X105887715Y-111318386D01*
X105794781Y-111500776D01*
X105731522Y-111695465D01*
X105699500Y-111897648D01*
X105699500Y-112102351D01*
X105731522Y-112304534D01*
X105794781Y-112499223D01*
X105837457Y-112582978D01*
X105872968Y-112652672D01*
X105887715Y-112681613D01*
X106008028Y-112847213D01*
X106152786Y-112991971D01*
X106307749Y-113104556D01*
X106318390Y-113112287D01*
X106391425Y-113149500D01*
X106500776Y-113205218D01*
X106500778Y-113205218D01*
X106500781Y-113205220D01*
X106605137Y-113239127D01*
X106695465Y-113268477D01*
X106796557Y-113284488D01*
X106897648Y-113300500D01*
X106897649Y-113300500D01*
X107102351Y-113300500D01*
X107102352Y-113300500D01*
X107304534Y-113268477D01*
X107499219Y-113205220D01*
X107502819Y-113203386D01*
X107542000Y-113183422D01*
X107610669Y-113170525D01*
X107675410Y-113196801D01*
X107715667Y-113253907D01*
X107722296Y-113293906D01*
X107722296Y-120916714D01*
X107722296Y-120916716D01*
X107722295Y-120916716D01*
X107751136Y-121061703D01*
X107751139Y-121061713D01*
X107807710Y-121198288D01*
X107840608Y-121247523D01*
X107840609Y-121247526D01*
X107889842Y-121321210D01*
X107889848Y-121321217D01*
X110656738Y-124088106D01*
X110690223Y-124149429D01*
X110691531Y-124195182D01*
X110687500Y-124220636D01*
X110687500Y-124220639D01*
X110687500Y-124419361D01*
X110691653Y-124445581D01*
X110718587Y-124615637D01*
X110779993Y-124804629D01*
X110779994Y-124804632D01*
X110868170Y-124977685D01*
X110870213Y-124981694D01*
X110987019Y-125142464D01*
X111127536Y-125282981D01*
X111148384Y-125298128D01*
X111191050Y-125353455D01*
X111199500Y-125398446D01*
X111199500Y-125781553D01*
X111179815Y-125848592D01*
X111148387Y-125881869D01*
X111138126Y-125889324D01*
X111127534Y-125897020D01*
X110987021Y-126037533D01*
X110870213Y-126198305D01*
X110779994Y-126375367D01*
X110779993Y-126375370D01*
X110718587Y-126564362D01*
X110687500Y-126760639D01*
X110687500Y-126959361D01*
X110687499Y-126959361D01*
X110691531Y-126984813D01*
X110682576Y-127054106D01*
X110656739Y-127091891D01*
X108417050Y-129331580D01*
X108417044Y-129331588D01*
X108367812Y-129405268D01*
X108367813Y-129405269D01*
X108334921Y-129454496D01*
X108334914Y-129454508D01*
X108278342Y-129591086D01*
X108278340Y-129591092D01*
X108249500Y-129736079D01*
X108249500Y-129736082D01*
X108249500Y-134143918D01*
X108249500Y-134143920D01*
X108249499Y-134143920D01*
X108278340Y-134288907D01*
X108278343Y-134288917D01*
X108334912Y-134425488D01*
X108334916Y-134425495D01*
X108350377Y-134448634D01*
X108350378Y-134448637D01*
X108417046Y-134548414D01*
X108417052Y-134548421D01*
X110656738Y-136788106D01*
X110690223Y-136849429D01*
X110691531Y-136895182D01*
X110687500Y-136920636D01*
X110687500Y-137119360D01*
X110718587Y-137315637D01*
X110779993Y-137504629D01*
X110779994Y-137504632D01*
X110870213Y-137681694D01*
X110987019Y-137842464D01*
X111127536Y-137982981D01*
X111288306Y-138099787D01*
X111375149Y-138144035D01*
X111465367Y-138190005D01*
X111465370Y-138190006D01*
X111559866Y-138220709D01*
X111654364Y-138251413D01*
X111850639Y-138282500D01*
X111850640Y-138282500D01*
X112049360Y-138282500D01*
X112049361Y-138282500D01*
X112245636Y-138251413D01*
X112434632Y-138190005D01*
X112611694Y-138099787D01*
X112772464Y-137982981D01*
X112912981Y-137842464D01*
X113029787Y-137681694D01*
X113120005Y-137504632D01*
X113181413Y-137315636D01*
X113212500Y-137119361D01*
X113212500Y-136920639D01*
X113181413Y-136724364D01*
X113120005Y-136535368D01*
X113120005Y-136535367D01*
X113029786Y-136358305D01*
X112912981Y-136197536D01*
X112772464Y-136057019D01*
X112611694Y-135940213D01*
X112454667Y-135860203D01*
X112403872Y-135812229D01*
X112387077Y-135744408D01*
X112409614Y-135678273D01*
X112454668Y-135639234D01*
X112611432Y-135559358D01*
X112772139Y-135442596D01*
X112772140Y-135442596D01*
X112912596Y-135302140D01*
X112912596Y-135302139D01*
X113029358Y-135141432D01*
X113119543Y-134964435D01*
X113180925Y-134775517D01*
X113188134Y-134730000D01*
X112333591Y-134730000D01*
X112376042Y-134656473D01*
X112407200Y-134540192D01*
X112407200Y-134419808D01*
X112376042Y-134303527D01*
X112333591Y-134230000D01*
X113188135Y-134230000D01*
X113188134Y-134229999D01*
X113180925Y-134184482D01*
X113119543Y-133995564D01*
X113029358Y-133818567D01*
X112912596Y-133657860D01*
X112912596Y-133657859D01*
X112772140Y-133517403D01*
X112611432Y-133400641D01*
X112454668Y-133320765D01*
X112403872Y-133272790D01*
X112387077Y-133204969D01*
X112409615Y-133138834D01*
X112454667Y-133099796D01*
X112611694Y-133019787D01*
X112772464Y-132902981D01*
X112912981Y-132762464D01*
X113029787Y-132601694D01*
X113120005Y-132424632D01*
X113181413Y-132235636D01*
X113212500Y-132039361D01*
X113212500Y-131840639D01*
X113181413Y-131644364D01*
X113120005Y-131455368D01*
X113120005Y-131455367D01*
X113029786Y-131278305D01*
X112912981Y-131117536D01*
X112772464Y-130977019D01*
X112611694Y-130860213D01*
X112455218Y-130780484D01*
X112404423Y-130732510D01*
X112387628Y-130664689D01*
X112410165Y-130598554D01*
X112455218Y-130559515D01*
X112611694Y-130479787D01*
X112772464Y-130362981D01*
X112912981Y-130222464D01*
X113029787Y-130061694D01*
X113120005Y-129884632D01*
X113181413Y-129695636D01*
X113212500Y-129499361D01*
X113212500Y-129300639D01*
X113181413Y-129104364D01*
X113120005Y-128915368D01*
X113120005Y-128915367D01*
X113029786Y-128738305D01*
X113024932Y-128731624D01*
X112912981Y-128577536D01*
X112772464Y-128437019D01*
X112611694Y-128320213D01*
X112455218Y-128240484D01*
X112404423Y-128192510D01*
X112387628Y-128124689D01*
X112410165Y-128058554D01*
X112455218Y-128019515D01*
X112611694Y-127939787D01*
X112772464Y-127822981D01*
X112912981Y-127682464D01*
X113029787Y-127521694D01*
X113120005Y-127344632D01*
X113181413Y-127155636D01*
X113212500Y-126959361D01*
X113212500Y-126760639D01*
X113181413Y-126564364D01*
X113120005Y-126375368D01*
X113120005Y-126375367D01*
X113029786Y-126198305D01*
X112912981Y-126037536D01*
X112772464Y-125897019D01*
X112751613Y-125881870D01*
X112708949Y-125826540D01*
X112700500Y-125781553D01*
X112700500Y-125398446D01*
X112720185Y-125331407D01*
X112751614Y-125298129D01*
X112772464Y-125282981D01*
X112912981Y-125142464D01*
X113029787Y-124981694D01*
X113120005Y-124804632D01*
X113181413Y-124615636D01*
X113212500Y-124419361D01*
X113212500Y-124220639D01*
X113181413Y-124024364D01*
X113120005Y-123835368D01*
X113120005Y-123835367D01*
X113067337Y-123732002D01*
X113029787Y-123658306D01*
X112912981Y-123497536D01*
X112902266Y-123486821D01*
X119349549Y-123486821D01*
X119349549Y-123691524D01*
X119381571Y-123893707D01*
X119444830Y-124088396D01*
X119537764Y-124270786D01*
X119658077Y-124436386D01*
X119802835Y-124581144D01*
X119957798Y-124693729D01*
X119968439Y-124701460D01*
X120084656Y-124760676D01*
X120150825Y-124794391D01*
X120150827Y-124794391D01*
X120150830Y-124794393D01*
X120253852Y-124827867D01*
X120345514Y-124857650D01*
X120446606Y-124873661D01*
X120547697Y-124889673D01*
X120547698Y-124889673D01*
X120752400Y-124889673D01*
X120752401Y-124889673D01*
X120954583Y-124857650D01*
X121149268Y-124794393D01*
X121331659Y-124701460D01*
X121424639Y-124633905D01*
X121497262Y-124581144D01*
X121497264Y-124581141D01*
X121497268Y-124581139D01*
X121642015Y-124436392D01*
X121642017Y-124436388D01*
X121642020Y-124436386D01*
X121716568Y-124333778D01*
X121762336Y-124270783D01*
X121855269Y-124088392D01*
X121918526Y-123893707D01*
X121950549Y-123691525D01*
X121950549Y-123486821D01*
X121918526Y-123284639D01*
X121855269Y-123089954D01*
X121855267Y-123089951D01*
X121855267Y-123089949D01*
X121803061Y-122987490D01*
X121762336Y-122907563D01*
X121727625Y-122859787D01*
X121642020Y-122741959D01*
X121497262Y-122597201D01*
X121331662Y-122476888D01*
X121331661Y-122476887D01*
X121331659Y-122476886D01*
X121262591Y-122441694D01*
X121149272Y-122383954D01*
X120954583Y-122320695D01*
X120780044Y-122293051D01*
X120752401Y-122288673D01*
X120547697Y-122288673D01*
X120523378Y-122292524D01*
X120345514Y-122320695D01*
X120150825Y-122383954D01*
X119968435Y-122476888D01*
X119802835Y-122597201D01*
X119658077Y-122741959D01*
X119537764Y-122907559D01*
X119444830Y-123089949D01*
X119381571Y-123284638D01*
X119349549Y-123486821D01*
X112902266Y-123486821D01*
X112772464Y-123357019D01*
X112611694Y-123240213D01*
X112455218Y-123160484D01*
X112404423Y-123112510D01*
X112387628Y-123044689D01*
X112410165Y-122978554D01*
X112455218Y-122939515D01*
X112611694Y-122859787D01*
X112772464Y-122742981D01*
X112912981Y-122602464D01*
X113029787Y-122441694D01*
X113120005Y-122264632D01*
X113181413Y-122075636D01*
X113212500Y-121879361D01*
X113212500Y-121680639D01*
X113181413Y-121484364D01*
X113128402Y-121321210D01*
X113120006Y-121295370D01*
X113120005Y-121295367D01*
X113029786Y-121118305D01*
X112912981Y-120957536D01*
X112772464Y-120817019D01*
X112611694Y-120700213D01*
X112455218Y-120620484D01*
X112404423Y-120572510D01*
X112387628Y-120504689D01*
X112410165Y-120438554D01*
X112455218Y-120399515D01*
X112611694Y-120319787D01*
X112772464Y-120202981D01*
X112912981Y-120062464D01*
X113029787Y-119901694D01*
X113029789Y-119901689D01*
X113031000Y-119899715D01*
X113031656Y-119899121D01*
X113032651Y-119897752D01*
X113032938Y-119897960D01*
X113082810Y-119852837D01*
X113136730Y-119840500D01*
X117680939Y-119840500D01*
X117680943Y-119840501D01*
X117839057Y-119840501D01*
X117840889Y-119840009D01*
X117850774Y-119839981D01*
X117856904Y-119841761D01*
X117875323Y-119842362D01*
X117916233Y-119850500D01*
X117916234Y-119850500D01*
X118083768Y-119850500D01*
X118083769Y-119850499D01*
X118248082Y-119817816D01*
X118402863Y-119753703D01*
X118542162Y-119660626D01*
X118660626Y-119542162D01*
X118753703Y-119402863D01*
X118817816Y-119248082D01*
X118850500Y-119083767D01*
X118850500Y-118916233D01*
X118849357Y-118910486D01*
X118827120Y-118798691D01*
X118833347Y-118729100D01*
X118876210Y-118673922D01*
X118942100Y-118650678D01*
X118948737Y-118650500D01*
X131405068Y-118650500D01*
X131472107Y-118670185D01*
X131473959Y-118671398D01*
X131526205Y-118706307D01*
X131597137Y-118753703D01*
X131597138Y-118753703D01*
X131597139Y-118753704D01*
X131601161Y-118755370D01*
X131751918Y-118817816D01*
X131879448Y-118843183D01*
X131916228Y-118850499D01*
X131916232Y-118850500D01*
X131916233Y-118850500D01*
X132083768Y-118850500D01*
X132083768Y-118850499D01*
X132127645Y-118841772D01*
X132151859Y-118836956D01*
X132221450Y-118843183D01*
X132276628Y-118886046D01*
X132299872Y-118951936D01*
X132283804Y-119019933D01*
X132263731Y-119046254D01*
X129094891Y-122215094D01*
X129033568Y-122248579D01*
X128968897Y-122245346D01*
X128954583Y-122240695D01*
X128780044Y-122213051D01*
X128752401Y-122208673D01*
X128547697Y-122208673D01*
X128523378Y-122212524D01*
X128345514Y-122240695D01*
X128150825Y-122303954D01*
X127968435Y-122396888D01*
X127802835Y-122517201D01*
X127658077Y-122661959D01*
X127537764Y-122827559D01*
X127444830Y-123009949D01*
X127381571Y-123204638D01*
X127349549Y-123406821D01*
X127349549Y-123611524D01*
X127381571Y-123813707D01*
X127444830Y-124008396D01*
X127537764Y-124190786D01*
X127658077Y-124356386D01*
X127802835Y-124501144D01*
X127912941Y-124581139D01*
X127968439Y-124621460D01*
X128084656Y-124680676D01*
X128150825Y-124714391D01*
X128150827Y-124714391D01*
X128150830Y-124714393D01*
X128255186Y-124748300D01*
X128345514Y-124777650D01*
X128372898Y-124781987D01*
X128473611Y-124797938D01*
X128536745Y-124827867D01*
X128573677Y-124887178D01*
X128572679Y-124957041D01*
X128541894Y-125008092D01*
X121094891Y-132455094D01*
X121033568Y-132488579D01*
X120968897Y-132485346D01*
X120954583Y-132480695D01*
X120780044Y-132453051D01*
X120752401Y-132448673D01*
X120547697Y-132448673D01*
X120523378Y-132452524D01*
X120345514Y-132480695D01*
X120150825Y-132543954D01*
X119968435Y-132636888D01*
X119802835Y-132757201D01*
X119658077Y-132901959D01*
X119537764Y-133067559D01*
X119444830Y-133249949D01*
X119381571Y-133444638D01*
X119349549Y-133646821D01*
X119349549Y-133851524D01*
X119381571Y-134053707D01*
X119444830Y-134248396D01*
X119537764Y-134430786D01*
X119658077Y-134596386D01*
X119802835Y-134741144D01*
X119946955Y-134845851D01*
X119968439Y-134861460D01*
X120055936Y-134906042D01*
X120150825Y-134954391D01*
X120150827Y-134954391D01*
X120150830Y-134954393D01*
X120255186Y-134988300D01*
X120345514Y-135017650D01*
X120446606Y-135033661D01*
X120547697Y-135049673D01*
X120547698Y-135049673D01*
X120752400Y-135049673D01*
X120752401Y-135049673D01*
X120954583Y-135017650D01*
X121149268Y-134954393D01*
X121331659Y-134861460D01*
X121424639Y-134793905D01*
X121497262Y-134741144D01*
X121497264Y-134741141D01*
X121497268Y-134741139D01*
X121642015Y-134596392D01*
X121642017Y-134596388D01*
X121642020Y-134596386D01*
X121749367Y-134448633D01*
X121762336Y-134430783D01*
X121855269Y-134248392D01*
X121918526Y-134053707D01*
X121950549Y-133851525D01*
X121950549Y-133646821D01*
X121937878Y-133566821D01*
X127349549Y-133566821D01*
X127349549Y-133771524D01*
X127381571Y-133973707D01*
X127444830Y-134168396D01*
X127537764Y-134350786D01*
X127658077Y-134516386D01*
X127802835Y-134661144D01*
X127912941Y-134741139D01*
X127968439Y-134781460D01*
X128084656Y-134840676D01*
X128150825Y-134874391D01*
X128150827Y-134874391D01*
X128150830Y-134874393D01*
X128248236Y-134906042D01*
X128345514Y-134937650D01*
X128446606Y-134953661D01*
X128547697Y-134969673D01*
X128547698Y-134969673D01*
X128752400Y-134969673D01*
X128752401Y-134969673D01*
X128954583Y-134937650D01*
X129149268Y-134874393D01*
X129331659Y-134781460D01*
X129424639Y-134713905D01*
X129497262Y-134661144D01*
X129497264Y-134661141D01*
X129497268Y-134661139D01*
X129642015Y-134516392D01*
X129642017Y-134516388D01*
X129642020Y-134516386D01*
X129704213Y-134430783D01*
X129762336Y-134350783D01*
X129855269Y-134168392D01*
X129918526Y-133973707D01*
X129950549Y-133771525D01*
X129950549Y-133566821D01*
X129924228Y-133400639D01*
X129918526Y-133364638D01*
X129888591Y-133272510D01*
X129855269Y-133169954D01*
X129855267Y-133169951D01*
X129855267Y-133169949D01*
X129778755Y-133019788D01*
X129762336Y-132987563D01*
X129754605Y-132976922D01*
X129642020Y-132821959D01*
X129497262Y-132677201D01*
X129331662Y-132556888D01*
X129331661Y-132556887D01*
X129331659Y-132556886D01*
X129274702Y-132527864D01*
X129149272Y-132463954D01*
X128954583Y-132400695D01*
X128780044Y-132373051D01*
X128752401Y-132368673D01*
X128547697Y-132368673D01*
X128523378Y-132372524D01*
X128345514Y-132400695D01*
X128150825Y-132463954D01*
X127968435Y-132556888D01*
X127802835Y-132677201D01*
X127658077Y-132821959D01*
X127537764Y-132987559D01*
X127444830Y-133169949D01*
X127381571Y-133364638D01*
X127349549Y-133566821D01*
X121937878Y-133566821D01*
X121918526Y-133444639D01*
X121911291Y-133422375D01*
X121909800Y-133414155D01*
X121912649Y-133387390D01*
X121911881Y-133360485D01*
X121916339Y-133352719D01*
X121917196Y-133344678D01*
X121930351Y-133328317D01*
X121944124Y-133304331D01*
X135891025Y-119357431D01*
X135952346Y-119323948D01*
X136022038Y-119328932D01*
X136077971Y-119370804D01*
X136101177Y-119425716D01*
X136118587Y-119535637D01*
X136179993Y-119724629D01*
X136179994Y-119724632D01*
X136244128Y-119850500D01*
X136270213Y-119901694D01*
X136387019Y-120062464D01*
X136527536Y-120202981D01*
X136688306Y-120319787D01*
X136806832Y-120380179D01*
X136844780Y-120399515D01*
X136895576Y-120447490D01*
X136912371Y-120515311D01*
X136889833Y-120581446D01*
X136844780Y-120620485D01*
X136688305Y-120700213D01*
X136527533Y-120817021D01*
X136387021Y-120957533D01*
X136270213Y-121118305D01*
X136179994Y-121295367D01*
X136179993Y-121295370D01*
X136118587Y-121484362D01*
X136087500Y-121680639D01*
X136087500Y-121879360D01*
X136118587Y-122075637D01*
X136179993Y-122264629D01*
X136179994Y-122264632D01*
X136240792Y-122383953D01*
X136270213Y-122441694D01*
X136387019Y-122602464D01*
X136527536Y-122742981D01*
X136688306Y-122859787D01*
X136782071Y-122907563D01*
X136844780Y-122939515D01*
X136895576Y-122987490D01*
X136912371Y-123055311D01*
X136889833Y-123121446D01*
X136844780Y-123160485D01*
X136688305Y-123240213D01*
X136527533Y-123357021D01*
X136387021Y-123497533D01*
X136270213Y-123658305D01*
X136179994Y-123835367D01*
X136179993Y-123835370D01*
X136118587Y-124024362D01*
X136092229Y-124190783D01*
X136087500Y-124220639D01*
X136087500Y-124419361D01*
X136091653Y-124445581D01*
X136118587Y-124615637D01*
X136179993Y-124804629D01*
X136179994Y-124804632D01*
X136268170Y-124977685D01*
X136270213Y-124981694D01*
X136387019Y-125142464D01*
X136527536Y-125282981D01*
X136688306Y-125399787D01*
X136806832Y-125460179D01*
X136844780Y-125479515D01*
X136895576Y-125527490D01*
X136912371Y-125595311D01*
X136889833Y-125661446D01*
X136844780Y-125700485D01*
X136688305Y-125780213D01*
X136527533Y-125897021D01*
X136387021Y-126037533D01*
X136270213Y-126198305D01*
X136179994Y-126375367D01*
X136179993Y-126375370D01*
X136118587Y-126564362D01*
X136087500Y-126760639D01*
X136087500Y-126959360D01*
X136118587Y-127155637D01*
X136179993Y-127344629D01*
X136179994Y-127344632D01*
X136270213Y-127521694D01*
X136387019Y-127682464D01*
X136527536Y-127822981D01*
X136688306Y-127939787D01*
X136806832Y-128000179D01*
X136844780Y-128019515D01*
X136895576Y-128067490D01*
X136912371Y-128135311D01*
X136889833Y-128201446D01*
X136844780Y-128240485D01*
X136688305Y-128320213D01*
X136527533Y-128437021D01*
X136387021Y-128577533D01*
X136270213Y-128738305D01*
X136179994Y-128915367D01*
X136179993Y-128915370D01*
X136118587Y-129104362D01*
X136087500Y-129300639D01*
X136087500Y-129499360D01*
X136118587Y-129695637D01*
X136179993Y-129884629D01*
X136179994Y-129884632D01*
X136270213Y-130061694D01*
X136387019Y-130222464D01*
X136527536Y-130362981D01*
X136688306Y-130479787D01*
X136806832Y-130540179D01*
X136844780Y-130559515D01*
X136895576Y-130607490D01*
X136912371Y-130675311D01*
X136889833Y-130741446D01*
X136844780Y-130780485D01*
X136688305Y-130860213D01*
X136527533Y-130977021D01*
X136387021Y-131117533D01*
X136270213Y-131278305D01*
X136179994Y-131455367D01*
X136179993Y-131455370D01*
X136118587Y-131644362D01*
X136087500Y-131840639D01*
X136087500Y-132039360D01*
X136118587Y-132235637D01*
X136179993Y-132424629D01*
X136179994Y-132424632D01*
X136222894Y-132508826D01*
X136270213Y-132601694D01*
X136387019Y-132762464D01*
X136527536Y-132902981D01*
X136688306Y-133019787D01*
X136782071Y-133067563D01*
X136844780Y-133099515D01*
X136895576Y-133147490D01*
X136912371Y-133215311D01*
X136889833Y-133281446D01*
X136844780Y-133320485D01*
X136688305Y-133400213D01*
X136527533Y-133517021D01*
X136387021Y-133657533D01*
X136270213Y-133818305D01*
X136179994Y-133995367D01*
X136179993Y-133995370D01*
X136118587Y-134184362D01*
X136111359Y-134229999D01*
X136087500Y-134380639D01*
X136087500Y-134579361D01*
X136099713Y-134656473D01*
X136118587Y-134775637D01*
X136179993Y-134964629D01*
X136179994Y-134964632D01*
X136270080Y-135141432D01*
X136270213Y-135141694D01*
X136387019Y-135302464D01*
X136527536Y-135442981D01*
X136688306Y-135559787D01*
X136806832Y-135620179D01*
X136844780Y-135639515D01*
X136895576Y-135687490D01*
X136912371Y-135755311D01*
X136889833Y-135821446D01*
X136844780Y-135860485D01*
X136688305Y-135940213D01*
X136527533Y-136057021D01*
X136387021Y-136197533D01*
X136270213Y-136358305D01*
X136179994Y-136535367D01*
X136179993Y-136535370D01*
X136118587Y-136724362D01*
X136087500Y-136920639D01*
X136087500Y-137119360D01*
X136118587Y-137315637D01*
X136179993Y-137504629D01*
X136179994Y-137504632D01*
X136270213Y-137681694D01*
X136387019Y-137842464D01*
X136527536Y-137982981D01*
X136688306Y-138099787D01*
X136775149Y-138144035D01*
X136865367Y-138190005D01*
X136865370Y-138190006D01*
X136959866Y-138220709D01*
X137054364Y-138251413D01*
X137250639Y-138282500D01*
X137250640Y-138282500D01*
X137449360Y-138282500D01*
X137449361Y-138282500D01*
X137645636Y-138251413D01*
X137834632Y-138190005D01*
X138011694Y-138099787D01*
X138172464Y-137982981D01*
X138312981Y-137842464D01*
X138429787Y-137681694D01*
X138520005Y-137504632D01*
X138581413Y-137315636D01*
X138612500Y-137119361D01*
X138612500Y-136920639D01*
X138581413Y-136724364D01*
X138520005Y-136535368D01*
X138520005Y-136535367D01*
X138429786Y-136358305D01*
X138312981Y-136197536D01*
X138172464Y-136057019D01*
X138011694Y-135940213D01*
X137855218Y-135860484D01*
X137804423Y-135812510D01*
X137787628Y-135744689D01*
X137810165Y-135678554D01*
X137855218Y-135639515D01*
X138011694Y-135559787D01*
X138172464Y-135442981D01*
X138312981Y-135302464D01*
X138429787Y-135141694D01*
X138520005Y-134964632D01*
X138581413Y-134775636D01*
X138612500Y-134579361D01*
X138612500Y-134380639D01*
X138581413Y-134184364D01*
X138520005Y-133995368D01*
X138520005Y-133995367D01*
X138446712Y-133851524D01*
X138429787Y-133818306D01*
X138312981Y-133657536D01*
X138172464Y-133517019D01*
X138011694Y-133400213D01*
X137855218Y-133320484D01*
X137804423Y-133272510D01*
X137787628Y-133204689D01*
X137810165Y-133138554D01*
X137855218Y-133099515D01*
X138011694Y-133019787D01*
X138172464Y-132902981D01*
X138312981Y-132762464D01*
X138429787Y-132601694D01*
X138520005Y-132424632D01*
X138581413Y-132235636D01*
X138612500Y-132039361D01*
X138612500Y-131840639D01*
X138581413Y-131644364D01*
X138520005Y-131455368D01*
X138520005Y-131455367D01*
X138429786Y-131278305D01*
X138312981Y-131117536D01*
X138172464Y-130977019D01*
X138011694Y-130860213D01*
X137855218Y-130780484D01*
X137804423Y-130732510D01*
X137787628Y-130664689D01*
X137810165Y-130598554D01*
X137855218Y-130559515D01*
X138011694Y-130479787D01*
X138172464Y-130362981D01*
X138312981Y-130222464D01*
X138429787Y-130061694D01*
X138520005Y-129884632D01*
X138581413Y-129695636D01*
X138612500Y-129499361D01*
X138612500Y-129300639D01*
X138581413Y-129104364D01*
X138520005Y-128915368D01*
X138520005Y-128915367D01*
X138429786Y-128738305D01*
X138424932Y-128731624D01*
X138312981Y-128577536D01*
X138172464Y-128437019D01*
X138011694Y-128320213D01*
X137855218Y-128240484D01*
X137804423Y-128192510D01*
X137787628Y-128124689D01*
X137810165Y-128058554D01*
X137855218Y-128019515D01*
X138011694Y-127939787D01*
X138172464Y-127822981D01*
X138312981Y-127682464D01*
X138429787Y-127521694D01*
X138520005Y-127344632D01*
X138581413Y-127155636D01*
X138612500Y-126959361D01*
X138612500Y-126760639D01*
X138581413Y-126564364D01*
X138520005Y-126375368D01*
X138520005Y-126375367D01*
X138429786Y-126198305D01*
X138312981Y-126037536D01*
X138172464Y-125897019D01*
X138011694Y-125780213D01*
X137855218Y-125700484D01*
X137804423Y-125652510D01*
X137787628Y-125584689D01*
X137810165Y-125518554D01*
X137855218Y-125479515D01*
X138011694Y-125399787D01*
X138172464Y-125282981D01*
X138312981Y-125142464D01*
X138429787Y-124981694D01*
X138520005Y-124804632D01*
X138581413Y-124615636D01*
X138612500Y-124419361D01*
X138612500Y-124220639D01*
X138581413Y-124024364D01*
X138520005Y-123835368D01*
X138520005Y-123835367D01*
X138446712Y-123691524D01*
X138429787Y-123658306D01*
X138312981Y-123497536D01*
X138172464Y-123357019D01*
X138011694Y-123240213D01*
X137855218Y-123160484D01*
X137804423Y-123112510D01*
X137787628Y-123044689D01*
X137810165Y-122978554D01*
X137855218Y-122939515D01*
X138011694Y-122859787D01*
X138172464Y-122742981D01*
X138312981Y-122602464D01*
X138429787Y-122441694D01*
X138520005Y-122264632D01*
X138581413Y-122075636D01*
X138612500Y-121879361D01*
X138612500Y-121680639D01*
X138581413Y-121484364D01*
X138528402Y-121321210D01*
X138520006Y-121295370D01*
X138520005Y-121295367D01*
X138429786Y-121118305D01*
X138312981Y-120957536D01*
X138253093Y-120897648D01*
X149916829Y-120897648D01*
X149916829Y-121102351D01*
X149948851Y-121304534D01*
X150012110Y-121499223D01*
X150076020Y-121624653D01*
X150104547Y-121680639D01*
X150105044Y-121681613D01*
X150225357Y-121847213D01*
X150370115Y-121991971D01*
X150485274Y-122075637D01*
X150535719Y-122112287D01*
X150651936Y-122171503D01*
X150718105Y-122205218D01*
X150718107Y-122205218D01*
X150718110Y-122205220D01*
X150822466Y-122239127D01*
X150912794Y-122268477D01*
X151013886Y-122284488D01*
X151114977Y-122300500D01*
X151114978Y-122300500D01*
X151319680Y-122300500D01*
X151319681Y-122300500D01*
X151521863Y-122268477D01*
X151716548Y-122205220D01*
X151898939Y-122112287D01*
X152028568Y-122018107D01*
X152064542Y-121991971D01*
X152064544Y-121991968D01*
X152064548Y-121991966D01*
X152209295Y-121847219D01*
X152209297Y-121847215D01*
X152209300Y-121847213D01*
X152269895Y-121763809D01*
X152329616Y-121681610D01*
X152422549Y-121499219D01*
X152485806Y-121304534D01*
X152517829Y-121102352D01*
X152517829Y-120897648D01*
X160076829Y-120897648D01*
X160076829Y-121102351D01*
X160108851Y-121304534D01*
X160172110Y-121499223D01*
X160236020Y-121624653D01*
X160264547Y-121680639D01*
X160265044Y-121681613D01*
X160385357Y-121847213D01*
X160530115Y-121991971D01*
X160645274Y-122075637D01*
X160695719Y-122112287D01*
X160811936Y-122171503D01*
X160878105Y-122205218D01*
X160878107Y-122205218D01*
X160878110Y-122205220D01*
X160982466Y-122239127D01*
X161072794Y-122268477D01*
X161173886Y-122284488D01*
X161274977Y-122300500D01*
X161274978Y-122300500D01*
X161479680Y-122300500D01*
X161479681Y-122300500D01*
X161681863Y-122268477D01*
X161876548Y-122205220D01*
X162058939Y-122112287D01*
X162188568Y-122018107D01*
X162224542Y-121991971D01*
X162224544Y-121991968D01*
X162224548Y-121991966D01*
X162369295Y-121847219D01*
X162369297Y-121847215D01*
X162369300Y-121847213D01*
X162429895Y-121763809D01*
X162489616Y-121681610D01*
X162582549Y-121499219D01*
X162645806Y-121304534D01*
X162677829Y-121102352D01*
X162677829Y-120897648D01*
X162645806Y-120695466D01*
X162582549Y-120500781D01*
X162582547Y-120500778D01*
X162582547Y-120500776D01*
X162530951Y-120399515D01*
X162489616Y-120318390D01*
X162481885Y-120307749D01*
X162369300Y-120152786D01*
X162224542Y-120008028D01*
X162058942Y-119887715D01*
X162058941Y-119887714D01*
X162058939Y-119887713D01*
X161990491Y-119852837D01*
X161876552Y-119794781D01*
X161681863Y-119731522D01*
X161507324Y-119703878D01*
X161479681Y-119699500D01*
X161274977Y-119699500D01*
X161250658Y-119703351D01*
X161072794Y-119731522D01*
X160878105Y-119794781D01*
X160695715Y-119887715D01*
X160530115Y-120008028D01*
X160385357Y-120152786D01*
X160265044Y-120318386D01*
X160172110Y-120500776D01*
X160108851Y-120695465D01*
X160076829Y-120897648D01*
X152517829Y-120897648D01*
X152485806Y-120695466D01*
X152422549Y-120500781D01*
X152422547Y-120500778D01*
X152422547Y-120500776D01*
X152370951Y-120399515D01*
X152329616Y-120318390D01*
X152321885Y-120307749D01*
X152209300Y-120152786D01*
X152064542Y-120008028D01*
X151898942Y-119887715D01*
X151898941Y-119887714D01*
X151898939Y-119887713D01*
X151830491Y-119852837D01*
X151716552Y-119794781D01*
X151521863Y-119731522D01*
X151347324Y-119703878D01*
X151319681Y-119699500D01*
X151114977Y-119699500D01*
X151090658Y-119703351D01*
X150912794Y-119731522D01*
X150718105Y-119794781D01*
X150535715Y-119887715D01*
X150370115Y-120008028D01*
X150225357Y-120152786D01*
X150105044Y-120318386D01*
X150012110Y-120500776D01*
X149948851Y-120695465D01*
X149916829Y-120897648D01*
X138253093Y-120897648D01*
X138172464Y-120817019D01*
X138011694Y-120700213D01*
X137855218Y-120620484D01*
X137804423Y-120572510D01*
X137787628Y-120504689D01*
X137810165Y-120438554D01*
X137855218Y-120399515D01*
X138011694Y-120319787D01*
X138172464Y-120202981D01*
X138312981Y-120062464D01*
X138429787Y-119901694D01*
X138520005Y-119724632D01*
X138581413Y-119535636D01*
X138612500Y-119339361D01*
X138612500Y-119140639D01*
X138581413Y-118944364D01*
X138540296Y-118817817D01*
X138520006Y-118755370D01*
X138520005Y-118755367D01*
X138471731Y-118660626D01*
X138429787Y-118578306D01*
X138312981Y-118417536D01*
X138235968Y-118340523D01*
X138202483Y-118279200D01*
X138207467Y-118209508D01*
X138235968Y-118165161D01*
X139794088Y-116607041D01*
X141358506Y-115042623D01*
X141358511Y-115042619D01*
X141368714Y-115032415D01*
X141368716Y-115032415D01*
X141480520Y-114920611D01*
X141493778Y-114897648D01*
X149916829Y-114897648D01*
X149916829Y-115102351D01*
X149948851Y-115304534D01*
X150012110Y-115499223D01*
X150064113Y-115601282D01*
X150105041Y-115681609D01*
X150105044Y-115681613D01*
X150225357Y-115847213D01*
X150370115Y-115991971D01*
X150517926Y-116099360D01*
X150535719Y-116112287D01*
X150608754Y-116149500D01*
X150718105Y-116205218D01*
X150718107Y-116205218D01*
X150718110Y-116205220D01*
X150822466Y-116239127D01*
X150912794Y-116268477D01*
X151013886Y-116284488D01*
X151114977Y-116300500D01*
X151114978Y-116300500D01*
X151319680Y-116300500D01*
X151319681Y-116300500D01*
X151521863Y-116268477D01*
X151716548Y-116205220D01*
X151898939Y-116112287D01*
X152000767Y-116038305D01*
X152064542Y-115991971D01*
X152064544Y-115991968D01*
X152064548Y-115991966D01*
X152209295Y-115847219D01*
X152209297Y-115847215D01*
X152209300Y-115847213D01*
X152313084Y-115704364D01*
X152329616Y-115681610D01*
X152422549Y-115499219D01*
X152485806Y-115304534D01*
X152517829Y-115102352D01*
X152517829Y-114897648D01*
X160076829Y-114897648D01*
X160076829Y-115102351D01*
X160108851Y-115304534D01*
X160172110Y-115499223D01*
X160224113Y-115601282D01*
X160265041Y-115681609D01*
X160265044Y-115681613D01*
X160385357Y-115847213D01*
X160530115Y-115991971D01*
X160677926Y-116099360D01*
X160695719Y-116112287D01*
X160768754Y-116149500D01*
X160878105Y-116205218D01*
X160878107Y-116205218D01*
X160878110Y-116205220D01*
X160982466Y-116239127D01*
X161072794Y-116268477D01*
X161173886Y-116284488D01*
X161274977Y-116300500D01*
X161274978Y-116300500D01*
X161479680Y-116300500D01*
X161479681Y-116300500D01*
X161681863Y-116268477D01*
X161876548Y-116205220D01*
X162058939Y-116112287D01*
X162160767Y-116038305D01*
X162224542Y-115991971D01*
X162224544Y-115991968D01*
X162224548Y-115991966D01*
X162369295Y-115847219D01*
X162369297Y-115847215D01*
X162369300Y-115847213D01*
X162473084Y-115704364D01*
X162489616Y-115681610D01*
X162582549Y-115499219D01*
X162645806Y-115304534D01*
X162677829Y-115102352D01*
X162677829Y-114897648D01*
X162665185Y-114817816D01*
X162645806Y-114695465D01*
X162603680Y-114565816D01*
X162582549Y-114500781D01*
X162582547Y-114500778D01*
X162582547Y-114500776D01*
X162542906Y-114422978D01*
X162489616Y-114318390D01*
X162463516Y-114282466D01*
X162369300Y-114152786D01*
X162224542Y-114008028D01*
X162058942Y-113887715D01*
X162058941Y-113887714D01*
X162058939Y-113887713D01*
X162001982Y-113858691D01*
X161876552Y-113794781D01*
X161681863Y-113731522D01*
X161507324Y-113703878D01*
X161479681Y-113699500D01*
X161274977Y-113699500D01*
X161250658Y-113703351D01*
X161072794Y-113731522D01*
X160878105Y-113794781D01*
X160695715Y-113887715D01*
X160530115Y-114008028D01*
X160385357Y-114152786D01*
X160265044Y-114318386D01*
X160172110Y-114500776D01*
X160108851Y-114695465D01*
X160076829Y-114897648D01*
X152517829Y-114897648D01*
X152505185Y-114817816D01*
X152485806Y-114695465D01*
X152443680Y-114565816D01*
X152422549Y-114500781D01*
X152422547Y-114500778D01*
X152422547Y-114500776D01*
X152382906Y-114422978D01*
X152329616Y-114318390D01*
X152303516Y-114282466D01*
X152209300Y-114152786D01*
X152064542Y-114008028D01*
X151898942Y-113887715D01*
X151898941Y-113887714D01*
X151898939Y-113887713D01*
X151841982Y-113858691D01*
X151716552Y-113794781D01*
X151521863Y-113731522D01*
X151347324Y-113703878D01*
X151319681Y-113699500D01*
X151114977Y-113699500D01*
X151090658Y-113703351D01*
X150912794Y-113731522D01*
X150718105Y-113794781D01*
X150535715Y-113887715D01*
X150370115Y-114008028D01*
X150225357Y-114152786D01*
X150105044Y-114318386D01*
X150012110Y-114500776D01*
X149948851Y-114695465D01*
X149916829Y-114897648D01*
X141493778Y-114897648D01*
X141539868Y-114817816D01*
X141559577Y-114783680D01*
X141600501Y-114630952D01*
X141600501Y-114472838D01*
X141600501Y-114465243D01*
X141600500Y-114465225D01*
X141600500Y-113653650D01*
X141620185Y-113586611D01*
X141636815Y-113565972D01*
X141660626Y-113542162D01*
X141753703Y-113402863D01*
X141817816Y-113248082D01*
X141850500Y-113083767D01*
X141850500Y-112916233D01*
X141817816Y-112751918D01*
X141753703Y-112597137D01*
X141688276Y-112499219D01*
X141660626Y-112457837D01*
X141542162Y-112339373D01*
X141402860Y-112246295D01*
X141248082Y-112182184D01*
X141248074Y-112182182D01*
X141083771Y-112149500D01*
X141083767Y-112149500D01*
X140916233Y-112149500D01*
X140916228Y-112149500D01*
X140751925Y-112182182D01*
X140751917Y-112182184D01*
X140597139Y-112246295D01*
X140457837Y-112339373D01*
X140339373Y-112457837D01*
X140246295Y-112597139D01*
X140182184Y-112751917D01*
X140182182Y-112751925D01*
X140149500Y-112916228D01*
X140149500Y-113083771D01*
X140182182Y-113248074D01*
X140182184Y-113248082D01*
X140246295Y-113402860D01*
X140339372Y-113542160D01*
X140339373Y-113542161D01*
X140339374Y-113542162D01*
X140363181Y-113565969D01*
X140396666Y-113627290D01*
X140399500Y-113653650D01*
X140399500Y-114251797D01*
X140379815Y-114318836D01*
X140363181Y-114339478D01*
X138629645Y-116073013D01*
X138568322Y-116106498D01*
X138498630Y-116101514D01*
X138442697Y-116059642D01*
X138431479Y-116041627D01*
X138429786Y-116038305D01*
X138312981Y-115877536D01*
X138172464Y-115737019D01*
X138011694Y-115620213D01*
X137855218Y-115540484D01*
X137804423Y-115492510D01*
X137787628Y-115424689D01*
X137810165Y-115358554D01*
X137855218Y-115319515D01*
X138011694Y-115239787D01*
X138172464Y-115122981D01*
X138312981Y-114982464D01*
X138429787Y-114821694D01*
X138520005Y-114644632D01*
X138581413Y-114455636D01*
X138612500Y-114259361D01*
X138612500Y-114060639D01*
X138581413Y-113864364D01*
X138538251Y-113731523D01*
X138520006Y-113675370D01*
X138520005Y-113675367D01*
X138429786Y-113498305D01*
X138400385Y-113457838D01*
X138312981Y-113337536D01*
X138172464Y-113197019D01*
X138011694Y-113080213D01*
X137855218Y-113000484D01*
X137804423Y-112952510D01*
X137787628Y-112884689D01*
X137810165Y-112818554D01*
X137855218Y-112779515D01*
X138011694Y-112699787D01*
X138172464Y-112582981D01*
X138312981Y-112442464D01*
X138429787Y-112281694D01*
X138520005Y-112104632D01*
X138581413Y-111915636D01*
X138612500Y-111719361D01*
X138612500Y-111520639D01*
X138581413Y-111324364D01*
X138581357Y-111324192D01*
X138580262Y-111320820D01*
X138578265Y-111250979D01*
X138614345Y-111191146D01*
X138677045Y-111160316D01*
X138698192Y-111158500D01*
X171527895Y-111158500D01*
X171594934Y-111178185D01*
X171615576Y-111194819D01*
X173526778Y-113106021D01*
X173560263Y-113167344D01*
X173561570Y-113213099D01*
X173541862Y-113337536D01*
X173538203Y-113360639D01*
X173538203Y-113559361D01*
X173544910Y-113601708D01*
X173569290Y-113755637D01*
X173630696Y-113944629D01*
X173630697Y-113944632D01*
X173701591Y-114083767D01*
X173720916Y-114121694D01*
X173837722Y-114282464D01*
X173978239Y-114422981D01*
X174139009Y-114539787D01*
X174190094Y-114565816D01*
X174295483Y-114619515D01*
X174346279Y-114667490D01*
X174363074Y-114735311D01*
X174340536Y-114801446D01*
X174295483Y-114840485D01*
X174139008Y-114920213D01*
X173978236Y-115037021D01*
X173837724Y-115177533D01*
X173720916Y-115338305D01*
X173630697Y-115515367D01*
X173630696Y-115515370D01*
X173569290Y-115704362D01*
X173538203Y-115900639D01*
X173538203Y-116099361D01*
X173538202Y-116099361D01*
X173561570Y-116246900D01*
X173552615Y-116316193D01*
X173526778Y-116353978D01*
X172567576Y-117313181D01*
X172506253Y-117346666D01*
X172479895Y-117349500D01*
X140594932Y-117349500D01*
X140527893Y-117329815D01*
X140526041Y-117328602D01*
X140402860Y-117246295D01*
X140248082Y-117182184D01*
X140248074Y-117182182D01*
X140083771Y-117149500D01*
X140083767Y-117149500D01*
X139916233Y-117149500D01*
X139916228Y-117149500D01*
X139751925Y-117182182D01*
X139751917Y-117182184D01*
X139597139Y-117246295D01*
X139457837Y-117339373D01*
X139339373Y-117457837D01*
X139246295Y-117597139D01*
X139182184Y-117751917D01*
X139182182Y-117751925D01*
X139149500Y-117916228D01*
X139149500Y-118083771D01*
X139182182Y-118248074D01*
X139182184Y-118248082D01*
X139246295Y-118402860D01*
X139339373Y-118542162D01*
X139457837Y-118660626D01*
X139550494Y-118722537D01*
X139597137Y-118753703D01*
X139597138Y-118753703D01*
X139597139Y-118753704D01*
X139601161Y-118755370D01*
X139751918Y-118817816D01*
X139879448Y-118843183D01*
X139916228Y-118850499D01*
X139916232Y-118850500D01*
X139916233Y-118850500D01*
X140083768Y-118850500D01*
X140083769Y-118850499D01*
X140248082Y-118817816D01*
X140402863Y-118753703D01*
X140501671Y-118687681D01*
X140526041Y-118671398D01*
X140592719Y-118650520D01*
X140594932Y-118650500D01*
X172864774Y-118650500D01*
X172949318Y-118633682D01*
X172990447Y-118625501D01*
X173108830Y-118576465D01*
X173153353Y-118546716D01*
X173215372Y-118505277D01*
X174446725Y-117273921D01*
X174508046Y-117240438D01*
X174553797Y-117239131D01*
X174701342Y-117262500D01*
X174701344Y-117262500D01*
X174900063Y-117262500D01*
X174900064Y-117262500D01*
X175096339Y-117231413D01*
X175285335Y-117170005D01*
X175462397Y-117079787D01*
X175623167Y-116962981D01*
X175763684Y-116822464D01*
X175880490Y-116661694D01*
X175970708Y-116484632D01*
X176032116Y-116295636D01*
X176063203Y-116099361D01*
X176063203Y-115900639D01*
X176032116Y-115704364D01*
X175970708Y-115515368D01*
X175970708Y-115515367D01*
X175880489Y-115338305D01*
X175874459Y-115330005D01*
X175763684Y-115177536D01*
X175623167Y-115037019D01*
X175462397Y-114920213D01*
X175305921Y-114840484D01*
X175255126Y-114792510D01*
X175238331Y-114724689D01*
X175260868Y-114658554D01*
X175305921Y-114619515D01*
X175462397Y-114539787D01*
X175623167Y-114422981D01*
X175763684Y-114282464D01*
X175880490Y-114121694D01*
X175970708Y-113944632D01*
X176032116Y-113755636D01*
X176063203Y-113559361D01*
X176063203Y-113360639D01*
X176061006Y-113346770D01*
X176069960Y-113277480D01*
X176114955Y-113224027D01*
X176181706Y-113203386D01*
X176249020Y-113222110D01*
X176271160Y-113239692D01*
X176363181Y-113331713D01*
X176396666Y-113393036D01*
X176399500Y-113419394D01*
X176399500Y-123664963D01*
X176379815Y-123732002D01*
X176363181Y-123752644D01*
X175240143Y-124875681D01*
X175178820Y-124909166D01*
X175152462Y-124912000D01*
X174440059Y-124912000D01*
X174440041Y-124912001D01*
X174337264Y-124922500D01*
X174337261Y-124922501D01*
X174170729Y-124977685D01*
X174170724Y-124977687D01*
X174021403Y-125069789D01*
X173897350Y-125193842D01*
X173805248Y-125343163D01*
X173805246Y-125343168D01*
X173786929Y-125398446D01*
X173750062Y-125509703D01*
X173750062Y-125509704D01*
X173750061Y-125509704D01*
X173739561Y-125612483D01*
X173739561Y-126324902D01*
X173719876Y-126391941D01*
X173703242Y-126412583D01*
X173369481Y-126746343D01*
X173369480Y-126746345D01*
X173334949Y-126806156D01*
X173319361Y-126833155D01*
X173319359Y-126833157D01*
X173290425Y-126883270D01*
X173290424Y-126883271D01*
X173274544Y-126942533D01*
X173249499Y-127036004D01*
X173249499Y-127036006D01*
X173249499Y-127204107D01*
X173249500Y-127204120D01*
X173249500Y-138587837D01*
X173229815Y-138654876D01*
X173177011Y-138700631D01*
X173151459Y-138709089D01*
X173147207Y-138709999D01*
X172980668Y-138765185D01*
X172980663Y-138765187D01*
X172831342Y-138857289D01*
X172707289Y-138981342D01*
X172615187Y-139130663D01*
X172615186Y-139130666D01*
X172560001Y-139297203D01*
X172560001Y-139297204D01*
X172560000Y-139297204D01*
X172549500Y-139399983D01*
X172549500Y-140600001D01*
X172549501Y-140600018D01*
X172560000Y-140702796D01*
X172560001Y-140702799D01*
X172575681Y-140750116D01*
X172615186Y-140869334D01*
X172707288Y-141018656D01*
X172831344Y-141142712D01*
X172980666Y-141234814D01*
X173147203Y-141289999D01*
X173249991Y-141300500D01*
X174450008Y-141300499D01*
X174552797Y-141289999D01*
X174719334Y-141234814D01*
X174868656Y-141142712D01*
X174992712Y-141018656D01*
X175084814Y-140869334D01*
X175108102Y-140799054D01*
X175112110Y-140791050D01*
X175130060Y-140771772D01*
X175145055Y-140750116D01*
X175153495Y-140746606D01*
X175159725Y-140739917D01*
X175185249Y-140733404D01*
X175209571Y-140723292D01*
X175225834Y-140723048D01*
X175227425Y-140722643D01*
X175228523Y-140723008D01*
X175232719Y-140722946D01*
X175270525Y-140725921D01*
X175950000Y-140046446D01*
X175950000Y-140052661D01*
X175977259Y-140154394D01*
X176029920Y-140245606D01*
X176104394Y-140320080D01*
X176195606Y-140372741D01*
X176297339Y-140400000D01*
X176303553Y-140400000D01*
X175624076Y-141079474D01*
X175668650Y-141111859D01*
X175850968Y-141204755D01*
X176045582Y-141267990D01*
X176247683Y-141300000D01*
X176452317Y-141300000D01*
X176654417Y-141267990D01*
X176849031Y-141204755D01*
X177031349Y-141111859D01*
X177075921Y-141079474D01*
X176396447Y-140400000D01*
X176402661Y-140400000D01*
X176504394Y-140372741D01*
X176595606Y-140320080D01*
X176670080Y-140245606D01*
X176722741Y-140154394D01*
X176750000Y-140052661D01*
X176750000Y-140046448D01*
X177429474Y-140725922D01*
X177429474Y-140725921D01*
X177461859Y-140681349D01*
X177554755Y-140499031D01*
X177617990Y-140304417D01*
X177650000Y-140102317D01*
X177650000Y-139897682D01*
X177617990Y-139695582D01*
X177554755Y-139500968D01*
X177461859Y-139318650D01*
X177429474Y-139274077D01*
X177429474Y-139274076D01*
X176750000Y-139953551D01*
X176750000Y-139947339D01*
X176722741Y-139845606D01*
X176670080Y-139754394D01*
X176595606Y-139679920D01*
X176504394Y-139627259D01*
X176402661Y-139600000D01*
X176396446Y-139600000D01*
X177075922Y-138920524D01*
X177075921Y-138920523D01*
X177031359Y-138888147D01*
X177031350Y-138888141D01*
X176849031Y-138795244D01*
X176654417Y-138732009D01*
X176452317Y-138700000D01*
X176247683Y-138700000D01*
X176045582Y-138732009D01*
X175850968Y-138795244D01*
X175668644Y-138888143D01*
X175624077Y-138920523D01*
X175624077Y-138920524D01*
X176303554Y-139600000D01*
X176297339Y-139600000D01*
X176195606Y-139627259D01*
X176104394Y-139679920D01*
X176029920Y-139754394D01*
X175977259Y-139845606D01*
X175950000Y-139947339D01*
X175950000Y-139953553D01*
X175270524Y-139274077D01*
X175232719Y-139277053D01*
X175164341Y-139262689D01*
X175114584Y-139213638D01*
X175112110Y-139208949D01*
X175108101Y-139200942D01*
X175084814Y-139130666D01*
X174992712Y-138981344D01*
X174868656Y-138857288D01*
X174719334Y-138765186D01*
X174619213Y-138732009D01*
X174552795Y-138710000D01*
X174548533Y-138709088D01*
X174487102Y-138675801D01*
X174453419Y-138614586D01*
X174450500Y-138587837D01*
X174450500Y-129286499D01*
X174470185Y-129219460D01*
X174522989Y-129173705D01*
X174574500Y-129162499D01*
X174715061Y-129162499D01*
X175215061Y-129162499D01*
X175490033Y-129162499D01*
X175490047Y-129162498D01*
X175592758Y-129152005D01*
X175759180Y-129096858D01*
X175759185Y-129096856D01*
X175908406Y-129004815D01*
X176032376Y-128880845D01*
X176124417Y-128731624D01*
X176124419Y-128731619D01*
X176179566Y-128565197D01*
X176179567Y-128565190D01*
X176190060Y-128462486D01*
X176190061Y-128462473D01*
X176190061Y-128325000D01*
X175215061Y-128325000D01*
X175215061Y-129162499D01*
X174715061Y-129162499D01*
X174715061Y-128199000D01*
X174734746Y-128131961D01*
X174787550Y-128086206D01*
X174839061Y-128075000D01*
X174965061Y-128075000D01*
X174965061Y-127949000D01*
X174984746Y-127881961D01*
X175037550Y-127836206D01*
X175089061Y-127825000D01*
X176190060Y-127825000D01*
X176190060Y-127687528D01*
X176190059Y-127687513D01*
X176179566Y-127584802D01*
X176124419Y-127418380D01*
X176124417Y-127418375D01*
X176032376Y-127269154D01*
X175908405Y-127145183D01*
X175908402Y-127145181D01*
X175905400Y-127143329D01*
X175903774Y-127141521D01*
X175902738Y-127140702D01*
X175902878Y-127140524D01*
X175858678Y-127091380D01*
X175847458Y-127022417D01*
X175875304Y-126958336D01*
X175905405Y-126932254D01*
X175908717Y-126930212D01*
X176032773Y-126806156D01*
X176124875Y-126656834D01*
X176180060Y-126490297D01*
X176190561Y-126387509D01*
X176190560Y-125675095D01*
X176210244Y-125608057D01*
X176226874Y-125587420D01*
X177358506Y-124455789D01*
X177358511Y-124455785D01*
X177368714Y-124445581D01*
X177368716Y-124445581D01*
X177480520Y-124333777D01*
X177559577Y-124196845D01*
X177600500Y-124044118D01*
X177600500Y-113208357D01*
X177600501Y-113208344D01*
X177600501Y-113040241D01*
X177588190Y-112994297D01*
X177559577Y-112887513D01*
X177538735Y-112851413D01*
X177480524Y-112750587D01*
X177480518Y-112750579D01*
X176832290Y-112102351D01*
X176064464Y-111334526D01*
X176030980Y-111273204D01*
X176031546Y-111220478D01*
X176031354Y-111220448D01*
X176031560Y-111219143D01*
X176031574Y-111217891D01*
X176032112Y-111215646D01*
X176032116Y-111215636D01*
X176063203Y-111019361D01*
X176063203Y-110820639D01*
X176032116Y-110624364D01*
X175970708Y-110435368D01*
X175970708Y-110435367D01*
X175880489Y-110258304D01*
X175799379Y-110146666D01*
X175763684Y-110097536D01*
X175623167Y-109957019D01*
X175462397Y-109840213D01*
X175305370Y-109760203D01*
X175254575Y-109712229D01*
X175237780Y-109644408D01*
X175260317Y-109578273D01*
X175305371Y-109539234D01*
X175462135Y-109459358D01*
X175622842Y-109342596D01*
X175622843Y-109342596D01*
X175763299Y-109202140D01*
X175763299Y-109202139D01*
X175880061Y-109041432D01*
X175970246Y-108864435D01*
X176031628Y-108675517D01*
X176038837Y-108630000D01*
X175184063Y-108630000D01*
X175226559Y-108556395D01*
X175257703Y-108440165D01*
X175257703Y-108319835D01*
X175226559Y-108203605D01*
X175184063Y-108130000D01*
X176038838Y-108130000D01*
X176038837Y-108129999D01*
X176031628Y-108084482D01*
X175970246Y-107895564D01*
X175880061Y-107718567D01*
X175763299Y-107557860D01*
X175763299Y-107557859D01*
X175622843Y-107417403D01*
X175462135Y-107300641D01*
X175285137Y-107210456D01*
X175285139Y-107210456D01*
X175096220Y-107149074D01*
X175050703Y-107141865D01*
X175050703Y-107996639D01*
X174977098Y-107954144D01*
X174860868Y-107923000D01*
X174740538Y-107923000D01*
X174624308Y-107954144D01*
X174550703Y-107996639D01*
X174550703Y-107141865D01*
X174550702Y-107141865D01*
X174505185Y-107149074D01*
X174316267Y-107210456D01*
X174139270Y-107300641D01*
X173978563Y-107417403D01*
X173978562Y-107417403D01*
X173838106Y-107557859D01*
X173838106Y-107557860D01*
X173721344Y-107718567D01*
X173631159Y-107895564D01*
X173569777Y-108084482D01*
X173562568Y-108129999D01*
X173562568Y-108130000D01*
X174417343Y-108130000D01*
X174374847Y-108203605D01*
X174343703Y-108319835D01*
X174343703Y-108440165D01*
X174374847Y-108556395D01*
X174417343Y-108630000D01*
X173562568Y-108630000D01*
X173569777Y-108675517D01*
X173631159Y-108864435D01*
X173721344Y-109041432D01*
X173838106Y-109202139D01*
X173838106Y-109202140D01*
X173978562Y-109342596D01*
X174139270Y-109459358D01*
X174296034Y-109539234D01*
X174346830Y-109587209D01*
X174363625Y-109655030D01*
X174341087Y-109721165D01*
X174296034Y-109760204D01*
X174139008Y-109840213D01*
X173978236Y-109957021D01*
X173837724Y-110097533D01*
X173720917Y-110258304D01*
X173630697Y-110435367D01*
X173630696Y-110435370D01*
X173569290Y-110624362D01*
X173538203Y-110820639D01*
X173538203Y-110978191D01*
X173518518Y-111045230D01*
X173465714Y-111090985D01*
X173396556Y-111100929D01*
X173333000Y-111071904D01*
X173326522Y-111065872D01*
X172263376Y-110002726D01*
X172156837Y-109931540D01*
X172156830Y-109931535D01*
X172112879Y-109913330D01*
X172038447Y-109882499D01*
X172038441Y-109882497D01*
X171912774Y-109857500D01*
X171912772Y-109857500D01*
X142479790Y-109857500D01*
X142412751Y-109837815D01*
X142366996Y-109785011D01*
X142357052Y-109715853D01*
X142386077Y-109652297D01*
X142410900Y-109630398D01*
X142449374Y-109604689D01*
X142471465Y-109589929D01*
X142589929Y-109471465D01*
X142683006Y-109332166D01*
X142747119Y-109177385D01*
X142772325Y-109050663D01*
X142776021Y-109032084D01*
X142808405Y-108970173D01*
X142809900Y-108968651D01*
X144837819Y-106940731D01*
X144899142Y-106907247D01*
X144968834Y-106912231D01*
X145024767Y-106954103D01*
X145049184Y-107019567D01*
X145049500Y-107028413D01*
X145049500Y-107102351D01*
X145081522Y-107304534D01*
X145144781Y-107499223D01*
X145237715Y-107681613D01*
X145358028Y-107847213D01*
X145502786Y-107991971D01*
X145630119Y-108084482D01*
X145668390Y-108112287D01*
X145764766Y-108161393D01*
X145850776Y-108205218D01*
X145850778Y-108205218D01*
X145850781Y-108205220D01*
X145955137Y-108239127D01*
X146045465Y-108268477D01*
X146146557Y-108284488D01*
X146247648Y-108300500D01*
X146247649Y-108300500D01*
X146452351Y-108300500D01*
X146452352Y-108300500D01*
X146654534Y-108268477D01*
X146849219Y-108205220D01*
X147031610Y-108112287D01*
X147124590Y-108044732D01*
X147197213Y-107991971D01*
X147197215Y-107991968D01*
X147197219Y-107991966D01*
X147341966Y-107847219D01*
X147341968Y-107847215D01*
X147341971Y-107847213D01*
X147397042Y-107771413D01*
X147462287Y-107681610D01*
X147555220Y-107499219D01*
X147618477Y-107304534D01*
X147650500Y-107102352D01*
X147650500Y-106897648D01*
X147618477Y-106695466D01*
X147618476Y-106695462D01*
X147618476Y-106695461D01*
X147609531Y-106667931D01*
X147607536Y-106598090D01*
X147643616Y-106538257D01*
X147706317Y-106507429D01*
X147775732Y-106515394D01*
X147796344Y-106526506D01*
X147871114Y-106576465D01*
X147989497Y-106625501D01*
X147989501Y-106625501D01*
X147989502Y-106625502D01*
X148115169Y-106650500D01*
X148115172Y-106650500D01*
X148243310Y-106650500D01*
X148750701Y-106650500D01*
X148817740Y-106670185D01*
X148863495Y-106722989D01*
X148873439Y-106792147D01*
X148844414Y-106855703D01*
X148838382Y-106862181D01*
X148739743Y-106960819D01*
X148739743Y-106960820D01*
X148739741Y-106960822D01*
X148724489Y-106981815D01*
X148613535Y-107134528D01*
X148516056Y-107325839D01*
X148516055Y-107325842D01*
X148449707Y-107530044D01*
X148416118Y-107742116D01*
X148416118Y-107956829D01*
X148449707Y-108168901D01*
X148516055Y-108373103D01*
X148516056Y-108373106D01*
X148594185Y-108526440D01*
X148613535Y-108564417D01*
X148739741Y-108738124D01*
X148891567Y-108889950D01*
X149065274Y-109016156D01*
X149114881Y-109041432D01*
X149256584Y-109113634D01*
X149256587Y-109113635D01*
X149358688Y-109146809D01*
X149460791Y-109179984D01*
X149672861Y-109213573D01*
X149672862Y-109213573D01*
X149887574Y-109213573D01*
X149887575Y-109213573D01*
X150099645Y-109179984D01*
X150303851Y-109113634D01*
X150495162Y-109016156D01*
X150668869Y-108889950D01*
X150820695Y-108738124D01*
X150938340Y-108576199D01*
X150993670Y-108533535D01*
X151063284Y-108527556D01*
X151125079Y-108560162D01*
X151138975Y-108576199D01*
X151256621Y-108738124D01*
X151408447Y-108889950D01*
X151582154Y-109016156D01*
X151631761Y-109041432D01*
X151773464Y-109113634D01*
X151773467Y-109113635D01*
X151875568Y-109146809D01*
X151977671Y-109179984D01*
X152189741Y-109213573D01*
X152189742Y-109213573D01*
X152404454Y-109213573D01*
X152404455Y-109213573D01*
X152616525Y-109179984D01*
X152820731Y-109113634D01*
X153012042Y-109016156D01*
X153185749Y-108889950D01*
X153337575Y-108738124D01*
X153463781Y-108564417D01*
X153463781Y-108564416D01*
X153466645Y-108560475D01*
X153468576Y-108561878D01*
X153513025Y-108521551D01*
X153581938Y-108510031D01*
X153646140Y-108537598D01*
X153666576Y-108561182D01*
X153667551Y-108560475D01*
X153670414Y-108564416D01*
X153670415Y-108564417D01*
X153796621Y-108738124D01*
X153948447Y-108889950D01*
X154122154Y-109016156D01*
X154171761Y-109041432D01*
X154313464Y-109113634D01*
X154313467Y-109113635D01*
X154415568Y-109146809D01*
X154517671Y-109179984D01*
X154729741Y-109213573D01*
X154729742Y-109213573D01*
X154944454Y-109213573D01*
X154944455Y-109213573D01*
X155156525Y-109179984D01*
X155360731Y-109113634D01*
X155552042Y-109016156D01*
X155725749Y-108889950D01*
X155877575Y-108738124D01*
X156003781Y-108564417D01*
X156003781Y-108564416D01*
X156006645Y-108560475D01*
X156008576Y-108561878D01*
X156053025Y-108521551D01*
X156121938Y-108510031D01*
X156186140Y-108537598D01*
X156206576Y-108561182D01*
X156207551Y-108560475D01*
X156210414Y-108564416D01*
X156210415Y-108564417D01*
X156336621Y-108738124D01*
X156488447Y-108889950D01*
X156662154Y-109016156D01*
X156711761Y-109041432D01*
X156853464Y-109113634D01*
X156853467Y-109113635D01*
X156955568Y-109146809D01*
X157057671Y-109179984D01*
X157269741Y-109213573D01*
X157269742Y-109213573D01*
X157484454Y-109213573D01*
X157484455Y-109213573D01*
X157696525Y-109179984D01*
X157900731Y-109113634D01*
X158092042Y-109016156D01*
X158265749Y-108889950D01*
X158417575Y-108738124D01*
X158543781Y-108564417D01*
X158543781Y-108564416D01*
X158546645Y-108560475D01*
X158548576Y-108561878D01*
X158593025Y-108521551D01*
X158661938Y-108510031D01*
X158726140Y-108537598D01*
X158746576Y-108561182D01*
X158747551Y-108560475D01*
X158750414Y-108564416D01*
X158750415Y-108564417D01*
X158876621Y-108738124D01*
X159028447Y-108889950D01*
X159202154Y-109016156D01*
X159251761Y-109041432D01*
X159393464Y-109113634D01*
X159393467Y-109113635D01*
X159495568Y-109146809D01*
X159597671Y-109179984D01*
X159809741Y-109213573D01*
X159809742Y-109213573D01*
X160024454Y-109213573D01*
X160024455Y-109213573D01*
X160236525Y-109179984D01*
X160440731Y-109113634D01*
X160632042Y-109016156D01*
X160805749Y-108889950D01*
X160902440Y-108793258D01*
X160963759Y-108759776D01*
X161033451Y-108764760D01*
X161089385Y-108806631D01*
X161106300Y-108837609D01*
X161150143Y-108955159D01*
X161150147Y-108955166D01*
X161236307Y-109070260D01*
X161236310Y-109070263D01*
X161351404Y-109156423D01*
X161351411Y-109156427D01*
X161486118Y-109206669D01*
X161486125Y-109206671D01*
X161545653Y-109213072D01*
X161545670Y-109213073D01*
X162207098Y-109213073D01*
X162207098Y-108291724D01*
X162261017Y-108322854D01*
X162390218Y-108357473D01*
X162523978Y-108357473D01*
X162653179Y-108322854D01*
X162707098Y-108291724D01*
X162707098Y-109213073D01*
X163368526Y-109213073D01*
X163368542Y-109213072D01*
X163428070Y-109206671D01*
X163428077Y-109206669D01*
X163562784Y-109156427D01*
X163562791Y-109156423D01*
X163677885Y-109070263D01*
X163677888Y-109070260D01*
X163764048Y-108955166D01*
X163764052Y-108955159D01*
X163814294Y-108820452D01*
X163814296Y-108820445D01*
X163820697Y-108760917D01*
X163820698Y-108760900D01*
X163820698Y-108099473D01*
X162899349Y-108099473D01*
X162930479Y-108045554D01*
X162965098Y-107916353D01*
X162965098Y-107782593D01*
X162930479Y-107653392D01*
X162899349Y-107599473D01*
X163820698Y-107599473D01*
X163820698Y-106938045D01*
X163820696Y-106938026D01*
X163817257Y-106906031D01*
X163816355Y-106897648D01*
X165049500Y-106897648D01*
X165049500Y-107102351D01*
X165081522Y-107304534D01*
X165144781Y-107499223D01*
X165237715Y-107681613D01*
X165358028Y-107847213D01*
X165502786Y-107991971D01*
X165630119Y-108084482D01*
X165668390Y-108112287D01*
X165764766Y-108161393D01*
X165850776Y-108205218D01*
X165850778Y-108205218D01*
X165850781Y-108205220D01*
X165955137Y-108239127D01*
X166045465Y-108268477D01*
X166146557Y-108284488D01*
X166247648Y-108300500D01*
X166247649Y-108300500D01*
X166452351Y-108300500D01*
X166452352Y-108300500D01*
X166654534Y-108268477D01*
X166849219Y-108205220D01*
X167031610Y-108112287D01*
X167197219Y-107991966D01*
X167341966Y-107847219D01*
X167341968Y-107847215D01*
X167341971Y-107847213D01*
X167397042Y-107771413D01*
X167462287Y-107681610D01*
X167555220Y-107499219D01*
X167618477Y-107304534D01*
X167650500Y-107102352D01*
X167650500Y-106897648D01*
X167647466Y-106878493D01*
X167618477Y-106695465D01*
X167568389Y-106541312D01*
X167555220Y-106500781D01*
X167555218Y-106500778D01*
X167555218Y-106500776D01*
X167521503Y-106434607D01*
X167462287Y-106318390D01*
X167454556Y-106307749D01*
X167341971Y-106152786D01*
X167197213Y-106008028D01*
X167031613Y-105887715D01*
X167031612Y-105887714D01*
X167031610Y-105887713D01*
X166974653Y-105858691D01*
X166849223Y-105794781D01*
X166654534Y-105731522D01*
X166479995Y-105703878D01*
X166452352Y-105699500D01*
X166247648Y-105699500D01*
X166223329Y-105703351D01*
X166045465Y-105731522D01*
X165850776Y-105794781D01*
X165668386Y-105887715D01*
X165502786Y-106008028D01*
X165358028Y-106152786D01*
X165237715Y-106318386D01*
X165144781Y-106500776D01*
X165081522Y-106695465D01*
X165049500Y-106897648D01*
X163816355Y-106897648D01*
X163814296Y-106878499D01*
X163814294Y-106878493D01*
X163764052Y-106743786D01*
X163764048Y-106743779D01*
X163677888Y-106628685D01*
X163677885Y-106628682D01*
X163562791Y-106542522D01*
X163562784Y-106542518D01*
X163428077Y-106492276D01*
X163428070Y-106492274D01*
X163368542Y-106485873D01*
X162707098Y-106485873D01*
X162707098Y-107407221D01*
X162653179Y-107376092D01*
X162523978Y-107341473D01*
X162390218Y-107341473D01*
X162261017Y-107376092D01*
X162207098Y-107407221D01*
X162207098Y-106485873D01*
X161545653Y-106485873D01*
X161486125Y-106492274D01*
X161486118Y-106492276D01*
X161351411Y-106542518D01*
X161351404Y-106542522D01*
X161236310Y-106628682D01*
X161236307Y-106628685D01*
X161150147Y-106743779D01*
X161150143Y-106743786D01*
X161106300Y-106861336D01*
X161064428Y-106917270D01*
X160998964Y-106941687D01*
X160930691Y-106926835D01*
X160902437Y-106905684D01*
X160805751Y-106808998D01*
X160805749Y-106808996D01*
X160632042Y-106682790D01*
X160617211Y-106675233D01*
X160440731Y-106585311D01*
X160440728Y-106585310D01*
X160236526Y-106518962D01*
X160121736Y-106500781D01*
X160024455Y-106485373D01*
X159809741Y-106485373D01*
X159766158Y-106492276D01*
X159597669Y-106518962D01*
X159393467Y-106585310D01*
X159393464Y-106585311D01*
X159202153Y-106682790D01*
X159103047Y-106754795D01*
X159028447Y-106808996D01*
X159028445Y-106808998D01*
X159028444Y-106808998D01*
X158876623Y-106960819D01*
X158876623Y-106960820D01*
X158876621Y-106960822D01*
X158828904Y-107026499D01*
X158747551Y-107138471D01*
X158745660Y-107137097D01*
X158700946Y-107177503D01*
X158632009Y-107188884D01*
X158567863Y-107161188D01*
X158547586Y-107137787D01*
X158546645Y-107138471D01*
X158500918Y-107075534D01*
X158417575Y-106960822D01*
X158265749Y-106808996D01*
X158092042Y-106682790D01*
X158077211Y-106675233D01*
X157900731Y-106585311D01*
X157900728Y-106585310D01*
X157696526Y-106518962D01*
X157581736Y-106500781D01*
X157484455Y-106485373D01*
X157269741Y-106485373D01*
X157226158Y-106492276D01*
X157057669Y-106518962D01*
X156853467Y-106585310D01*
X156853464Y-106585311D01*
X156662153Y-106682790D01*
X156563047Y-106754795D01*
X156488447Y-106808996D01*
X156488445Y-106808998D01*
X156488444Y-106808998D01*
X156336623Y-106960819D01*
X156336623Y-106960820D01*
X156336621Y-106960822D01*
X156288904Y-107026499D01*
X156207551Y-107138471D01*
X156205660Y-107137097D01*
X156160946Y-107177503D01*
X156092009Y-107188884D01*
X156027863Y-107161188D01*
X156007586Y-107137787D01*
X156006645Y-107138471D01*
X155960918Y-107075534D01*
X155877575Y-106960822D01*
X155725749Y-106808996D01*
X155552042Y-106682790D01*
X155537211Y-106675233D01*
X155360731Y-106585311D01*
X155360728Y-106585310D01*
X155156526Y-106518962D01*
X155041736Y-106500781D01*
X154944455Y-106485373D01*
X154729741Y-106485373D01*
X154715807Y-106487580D01*
X154517667Y-106518962D01*
X154512928Y-106520100D01*
X154512449Y-106518104D01*
X154451188Y-106519793D01*
X154395151Y-106487580D01*
X153538830Y-105631259D01*
X153523408Y-105612468D01*
X153505274Y-105585328D01*
X153414672Y-105494726D01*
X153414668Y-105494723D01*
X153308133Y-105423538D01*
X153308124Y-105423533D01*
X153189744Y-105374499D01*
X153189738Y-105374497D01*
X153064071Y-105349500D01*
X153064069Y-105349500D01*
X148709790Y-105349500D01*
X148642751Y-105329815D01*
X148596996Y-105277011D01*
X148595230Y-105272954D01*
X148585663Y-105249859D01*
X148585661Y-105249855D01*
X148492583Y-105110553D01*
X148374119Y-104992089D01*
X148234817Y-104899011D01*
X148080039Y-104834900D01*
X148080031Y-104834898D01*
X147915728Y-104802216D01*
X147915724Y-104802216D01*
X147748190Y-104802216D01*
X147748185Y-104802216D01*
X147583882Y-104834898D01*
X147583874Y-104834900D01*
X147429096Y-104899011D01*
X147289794Y-104992089D01*
X147171330Y-105110553D01*
X147078252Y-105249855D01*
X147014141Y-105404633D01*
X147014139Y-105404641D01*
X146981457Y-105568944D01*
X146981457Y-105667075D01*
X146961772Y-105734114D01*
X146908968Y-105779869D01*
X146839810Y-105789813D01*
X146819139Y-105785006D01*
X146654536Y-105731523D01*
X146519746Y-105710174D01*
X146452352Y-105699500D01*
X146378413Y-105699500D01*
X146311374Y-105679815D01*
X146265619Y-105627011D01*
X146255675Y-105557853D01*
X146284700Y-105494297D01*
X146290732Y-105487819D01*
X147908367Y-103870185D01*
X149704265Y-102074287D01*
X149765588Y-102040802D01*
X149791946Y-102037968D01*
X160676603Y-102037968D01*
X160761147Y-102021150D01*
X160802276Y-102012969D01*
X160920659Y-101963933D01*
X160949544Y-101944633D01*
X160949545Y-101944633D01*
X161007654Y-101905805D01*
X161027201Y-101892745D01*
X170233127Y-92686819D01*
X170294450Y-92653334D01*
X170320808Y-92650500D01*
X177064071Y-92650500D01*
X177148615Y-92633682D01*
X177189744Y-92625501D01*
X177308127Y-92576465D01*
X177414669Y-92505277D01*
X180505277Y-89414669D01*
X180576465Y-89308127D01*
X180588384Y-89279351D01*
X180625501Y-89189744D01*
X180634857Y-89142710D01*
X180650500Y-89064071D01*
X180650500Y-84530351D01*
X180625502Y-84404684D01*
X180625501Y-84404683D01*
X180625501Y-84404679D01*
X180576465Y-84286296D01*
X180505277Y-84179754D01*
X180505275Y-84179752D01*
X180505273Y-84179749D01*
X180505272Y-84179748D01*
X175712714Y-79387191D01*
X175679229Y-79325868D01*
X175677922Y-79280112D01*
X175706077Y-79102352D01*
X175706077Y-78897648D01*
X175687313Y-78779179D01*
X175674054Y-78695465D01*
X175621857Y-78534820D01*
X175610797Y-78500781D01*
X175610795Y-78500778D01*
X175610795Y-78500776D01*
X175577080Y-78434607D01*
X175517864Y-78318390D01*
X175510133Y-78307749D01*
X175397548Y-78152786D01*
X175252790Y-78008028D01*
X175087188Y-77887713D01*
X175016914Y-77851906D01*
X174966119Y-77803932D01*
X174949210Y-77741422D01*
X174949210Y-73229601D01*
X174968895Y-73162562D01*
X175016916Y-73119116D01*
X175030320Y-73112287D01*
X175195929Y-72991966D01*
X175340676Y-72847219D01*
X175340678Y-72847215D01*
X175340681Y-72847213D01*
X175405638Y-72757806D01*
X175460997Y-72681610D01*
X175553930Y-72499219D01*
X175617187Y-72304534D01*
X175649210Y-72102352D01*
X175649210Y-71897648D01*
X175644390Y-71867214D01*
X175617187Y-71695465D01*
X175582102Y-71587486D01*
X175553930Y-71500781D01*
X175553928Y-71500778D01*
X175553928Y-71500776D01*
X175504038Y-71402863D01*
X175460997Y-71318390D01*
X175449808Y-71302989D01*
X175340681Y-71152786D01*
X175195923Y-71008028D01*
X175030323Y-70887715D01*
X175030322Y-70887714D01*
X175030320Y-70887713D01*
X174973363Y-70858691D01*
X174847933Y-70794781D01*
X174653244Y-70731522D01*
X174478705Y-70703878D01*
X174451062Y-70699500D01*
X174246358Y-70699500D01*
X174222039Y-70703351D01*
X174044175Y-70731522D01*
X173849486Y-70794781D01*
X173667096Y-70887715D01*
X173501496Y-71008028D01*
X173356738Y-71152786D01*
X173236425Y-71318386D01*
X173143491Y-71500776D01*
X173080232Y-71695465D01*
X173048210Y-71897648D01*
X173048210Y-72102351D01*
X173080232Y-72304534D01*
X173143491Y-72499223D01*
X173207401Y-72624653D01*
X173216603Y-72642712D01*
X173236425Y-72681613D01*
X173356738Y-72847213D01*
X173356744Y-72847219D01*
X173501491Y-72991966D01*
X173667100Y-73112287D01*
X173680503Y-73119116D01*
X173731299Y-73167088D01*
X173748210Y-73229601D01*
X173748210Y-77806917D01*
X173728525Y-77873956D01*
X173697095Y-77907235D01*
X173558364Y-78008028D01*
X173558359Y-78008032D01*
X173413605Y-78152786D01*
X173293292Y-78318386D01*
X173200358Y-78500776D01*
X173137099Y-78695465D01*
X173105077Y-78897648D01*
X173105077Y-79102351D01*
X173137099Y-79304534D01*
X173200358Y-79499223D01*
X173251962Y-79600500D01*
X173271250Y-79638355D01*
X173293292Y-79681613D01*
X173413605Y-79847213D01*
X173558363Y-79991971D01*
X173699178Y-80094277D01*
X173723967Y-80112287D01*
X173797002Y-80149500D01*
X173906353Y-80205218D01*
X173906355Y-80205218D01*
X173906358Y-80205220D01*
X173998335Y-80235105D01*
X174101042Y-80268477D01*
X174202134Y-80284488D01*
X174303225Y-80300500D01*
X174303226Y-80300500D01*
X174507928Y-80300500D01*
X174507929Y-80300500D01*
X174685689Y-80272345D01*
X174754982Y-80281299D01*
X174792768Y-80307137D01*
X179313181Y-84827550D01*
X179346666Y-84888873D01*
X179349500Y-84915231D01*
X179349500Y-86200903D01*
X179329815Y-86267942D01*
X179277011Y-86313697D01*
X179207853Y-86323641D01*
X179144297Y-86294616D01*
X179137819Y-86288584D01*
X171487590Y-78638355D01*
X171487588Y-78638352D01*
X171368717Y-78519481D01*
X171368716Y-78519480D01*
X171281904Y-78469360D01*
X171281904Y-78469359D01*
X171281900Y-78469358D01*
X171231785Y-78440423D01*
X171079057Y-78399499D01*
X170920943Y-78399499D01*
X170913347Y-78399499D01*
X170913331Y-78399500D01*
X165475179Y-78399500D01*
X165408140Y-78379815D01*
X165364694Y-78331795D01*
X165357861Y-78318385D01*
X165237548Y-78152786D01*
X165092790Y-78008028D01*
X164927190Y-77887715D01*
X164927189Y-77887714D01*
X164927187Y-77887713D01*
X164856912Y-77851906D01*
X164744800Y-77794781D01*
X164550111Y-77731522D01*
X164375572Y-77703878D01*
X164347929Y-77699500D01*
X164143225Y-77699500D01*
X164118906Y-77703351D01*
X163941042Y-77731522D01*
X163746353Y-77794781D01*
X163563963Y-77887715D01*
X163398363Y-78008028D01*
X163253605Y-78152786D01*
X163133292Y-78318386D01*
X163040358Y-78500776D01*
X162977099Y-78695465D01*
X162945077Y-78897648D01*
X162945077Y-79102351D01*
X162977099Y-79304534D01*
X163040358Y-79499223D01*
X163091962Y-79600500D01*
X163111250Y-79638355D01*
X163133292Y-79681613D01*
X163253605Y-79847213D01*
X163398363Y-79991971D01*
X163539178Y-80094277D01*
X163563967Y-80112287D01*
X163637002Y-80149500D01*
X163746353Y-80205218D01*
X163746355Y-80205218D01*
X163746358Y-80205220D01*
X163838335Y-80235105D01*
X163941042Y-80268477D01*
X164042134Y-80284488D01*
X164143225Y-80300500D01*
X164143226Y-80300500D01*
X164347928Y-80300500D01*
X164347929Y-80300500D01*
X164550111Y-80268477D01*
X164744796Y-80205220D01*
X164927187Y-80112287D01*
X165054926Y-80019480D01*
X165092790Y-79991971D01*
X165092792Y-79991968D01*
X165092796Y-79991966D01*
X165237543Y-79847219D01*
X165237545Y-79847215D01*
X165237548Y-79847213D01*
X165357861Y-79681614D01*
X165357862Y-79681613D01*
X165357864Y-79681610D01*
X165364694Y-79668204D01*
X165412668Y-79617409D01*
X165475179Y-79600500D01*
X170699903Y-79600500D01*
X170766942Y-79620185D01*
X170787584Y-79636819D01*
X177238584Y-86087819D01*
X177272069Y-86149142D01*
X177267085Y-86218834D01*
X177225213Y-86274767D01*
X177159749Y-86299184D01*
X177150903Y-86299500D01*
X175974362Y-86299500D01*
X175907323Y-86279815D01*
X175886681Y-86263181D01*
X173924035Y-84300535D01*
X173924030Y-84300531D01*
X173869622Y-84264178D01*
X173869616Y-84264175D01*
X173864959Y-84261063D01*
X173776547Y-84201987D01*
X173694606Y-84168046D01*
X173612666Y-84134105D01*
X173612658Y-84134103D01*
X173438696Y-84099500D01*
X173438692Y-84099500D01*
X173438691Y-84099500D01*
X145774461Y-84099500D01*
X145707422Y-84079815D01*
X145686780Y-84063181D01*
X139427122Y-77803522D01*
X137886819Y-76263219D01*
X137853334Y-76201896D01*
X137850500Y-76175538D01*
X137850500Y-71511308D01*
X137850499Y-71511307D01*
X137836400Y-71440423D01*
X137836400Y-71440420D01*
X137817457Y-71345187D01*
X137815895Y-71337334D01*
X137767895Y-71221452D01*
X137748013Y-71173453D01*
X137688086Y-71083767D01*
X137649464Y-71025964D01*
X137649462Y-71025962D01*
X137649460Y-71025959D01*
X137649459Y-71025958D01*
X136679202Y-70055702D01*
X136645717Y-69994379D01*
X136650701Y-69924688D01*
X136692571Y-69868755D01*
X136707546Y-69857546D01*
X136793796Y-69742331D01*
X136844091Y-69607483D01*
X136850500Y-69547873D01*
X136850499Y-66452128D01*
X136844091Y-66392517D01*
X136843783Y-66391692D01*
X136793797Y-66257671D01*
X136793793Y-66257664D01*
X136707547Y-66142455D01*
X136707544Y-66142452D01*
X136592335Y-66056206D01*
X136592328Y-66056202D01*
X136457482Y-66005908D01*
X136457483Y-66005908D01*
X136397883Y-65999501D01*
X136397881Y-65999500D01*
X136397873Y-65999500D01*
X136397864Y-65999500D01*
X130302129Y-65999500D01*
X130302123Y-65999501D01*
X130242516Y-66005908D01*
X130107671Y-66056202D01*
X130107664Y-66056206D01*
X129992455Y-66142452D01*
X129992452Y-66142455D01*
X129906206Y-66257664D01*
X129906202Y-66257671D01*
X129855908Y-66392517D01*
X129852868Y-66420798D01*
X129849501Y-66452123D01*
X129849500Y-66452135D01*
X129849500Y-69547870D01*
X129849501Y-69547876D01*
X129855908Y-69607483D01*
X129906202Y-69742328D01*
X129906206Y-69742335D01*
X129992452Y-69857544D01*
X129992455Y-69857547D01*
X130107664Y-69943793D01*
X130107671Y-69943797D01*
X130242517Y-69994091D01*
X130242516Y-69994091D01*
X130249444Y-69994835D01*
X130302127Y-70000500D01*
X134025637Y-70000499D01*
X134092676Y-70020184D01*
X134113318Y-70036818D01*
X136013181Y-71936681D01*
X136046666Y-71998004D01*
X136049500Y-72024362D01*
X136049500Y-72375400D01*
X136029815Y-72442439D01*
X135977011Y-72488194D01*
X135925500Y-72499400D01*
X130302129Y-72499400D01*
X130302123Y-72499401D01*
X130242516Y-72505808D01*
X130107671Y-72556102D01*
X130107664Y-72556106D01*
X129992455Y-72642352D01*
X129992452Y-72642355D01*
X129906206Y-72757564D01*
X129906202Y-72757571D01*
X129855908Y-72892417D01*
X129849501Y-72952016D01*
X129849500Y-72952035D01*
X129849500Y-76047770D01*
X129849501Y-76047776D01*
X129855908Y-76107383D01*
X129906202Y-76242228D01*
X129906206Y-76242235D01*
X129992452Y-76357444D01*
X129992455Y-76357447D01*
X130107664Y-76443693D01*
X130107671Y-76443697D01*
X130242517Y-76493991D01*
X130242516Y-76493991D01*
X130244535Y-76494208D01*
X130302127Y-76500400D01*
X134025637Y-76500399D01*
X134092676Y-76520084D01*
X134113318Y-76536718D01*
X138827445Y-81250845D01*
X143464420Y-85887819D01*
X143497905Y-85949142D01*
X143492921Y-86018834D01*
X143451049Y-86074767D01*
X143385585Y-86099184D01*
X143376739Y-86099500D01*
X133455929Y-86099500D01*
X133330261Y-86124497D01*
X133330255Y-86124499D01*
X133211874Y-86173534D01*
X133105329Y-86244724D01*
X132786872Y-86563181D01*
X132725549Y-86596666D01*
X132699191Y-86599500D01*
X132533010Y-86599500D01*
X132332961Y-86639292D01*
X132332951Y-86639295D01*
X132144511Y-86717349D01*
X132068438Y-86768178D01*
X132001760Y-86789054D01*
X131934380Y-86770568D01*
X131930659Y-86768177D01*
X131855254Y-86717794D01*
X131666896Y-86639773D01*
X131666893Y-86639772D01*
X131615000Y-86629449D01*
X131615000Y-87442876D01*
X131612617Y-87467068D01*
X131599500Y-87533010D01*
X131599500Y-87615773D01*
X131538694Y-87580667D01*
X131424244Y-87550000D01*
X131305756Y-87550000D01*
X131191306Y-87580667D01*
X131130499Y-87615773D01*
X131130499Y-87052129D01*
X131130498Y-87052123D01*
X131130497Y-87052116D01*
X131124091Y-86992517D01*
X131122818Y-86989103D01*
X131115000Y-86945771D01*
X131115000Y-86629450D01*
X131114999Y-86629449D01*
X131063106Y-86639772D01*
X131063099Y-86639774D01*
X130991393Y-86669476D01*
X130921924Y-86676945D01*
X130880867Y-86659074D01*
X130880114Y-86660454D01*
X130872328Y-86656202D01*
X130737482Y-86605908D01*
X130737483Y-86605908D01*
X130677883Y-86599501D01*
X130677881Y-86599500D01*
X130677873Y-86599500D01*
X130677864Y-86599500D01*
X129512129Y-86599500D01*
X129512123Y-86599501D01*
X129452516Y-86605908D01*
X129317671Y-86656202D01*
X129317664Y-86656206D01*
X129202455Y-86742452D01*
X129202452Y-86742455D01*
X129116206Y-86857664D01*
X129116202Y-86857671D01*
X129065908Y-86992517D01*
X129062071Y-87028212D01*
X129059501Y-87052123D01*
X129059500Y-87052135D01*
X129059500Y-88947870D01*
X129059501Y-88947876D01*
X129065908Y-89007483D01*
X129116202Y-89142328D01*
X129116206Y-89142335D01*
X129202452Y-89257544D01*
X129202455Y-89257547D01*
X129317664Y-89343793D01*
X129317671Y-89343797D01*
X129346778Y-89354653D01*
X129452517Y-89394091D01*
X129512127Y-89400500D01*
X130159190Y-89400499D01*
X130226229Y-89420183D01*
X130246871Y-89436818D01*
X130565325Y-89755272D01*
X130565332Y-89755278D01*
X130665882Y-89822463D01*
X130665883Y-89822463D01*
X130671872Y-89826465D01*
X130720908Y-89846776D01*
X130790256Y-89875501D01*
X130790260Y-89875501D01*
X130790261Y-89875502D01*
X130915928Y-89900500D01*
X130915931Y-89900500D01*
X143814071Y-89900500D01*
X143898615Y-89883682D01*
X143939744Y-89875501D01*
X144058127Y-89826465D01*
X144064114Y-89822465D01*
X144064117Y-89822463D01*
X144114392Y-89788870D01*
X144164669Y-89755277D01*
X144612808Y-89307136D01*
X144674131Y-89273652D01*
X144719887Y-89272345D01*
X144897648Y-89300500D01*
X144897649Y-89300500D01*
X145102351Y-89300500D01*
X145102352Y-89300500D01*
X145304534Y-89268477D01*
X145304539Y-89268475D01*
X145304541Y-89268475D01*
X145337180Y-89257870D01*
X145407021Y-89255873D01*
X145466855Y-89291953D01*
X145497684Y-89354653D01*
X145499500Y-89375800D01*
X145499500Y-92449191D01*
X145490855Y-92478631D01*
X145484332Y-92508618D01*
X145480577Y-92513633D01*
X145479815Y-92516230D01*
X145463181Y-92536873D01*
X145307190Y-92692863D01*
X145245867Y-92726347D01*
X145200111Y-92727654D01*
X145054611Y-92704609D01*
X145022352Y-92699500D01*
X144817648Y-92699500D01*
X144817645Y-92699500D01*
X144804459Y-92701588D01*
X144735166Y-92692630D01*
X144681717Y-92647631D01*
X144661081Y-92580878D01*
X144679809Y-92513565D01*
X144681936Y-92510268D01*
X144753703Y-92402863D01*
X144817816Y-92248082D01*
X144850500Y-92083767D01*
X144850500Y-91916233D01*
X144817816Y-91751918D01*
X144753703Y-91597137D01*
X144685271Y-91494721D01*
X144660626Y-91457837D01*
X144542162Y-91339373D01*
X144402860Y-91246295D01*
X144248082Y-91182184D01*
X144248074Y-91182182D01*
X144083771Y-91149500D01*
X144083767Y-91149500D01*
X143974500Y-91149500D01*
X143907461Y-91129815D01*
X143861706Y-91077011D01*
X143850500Y-91025500D01*
X143850500Y-90916232D01*
X143850499Y-90916228D01*
X143817817Y-90751925D01*
X143817816Y-90751918D01*
X143755096Y-90600499D01*
X143753704Y-90597139D01*
X143660626Y-90457837D01*
X143542162Y-90339373D01*
X143402860Y-90246295D01*
X143248082Y-90182184D01*
X143248074Y-90182182D01*
X143083771Y-90149500D01*
X143083767Y-90149500D01*
X142916233Y-90149500D01*
X142916228Y-90149500D01*
X142751925Y-90182182D01*
X142751917Y-90182184D01*
X142597139Y-90246295D01*
X142457837Y-90339373D01*
X142339373Y-90457837D01*
X142246295Y-90597139D01*
X142182184Y-90751917D01*
X142182182Y-90751925D01*
X142149500Y-90916228D01*
X142149500Y-90949902D01*
X142129815Y-91016941D01*
X142113181Y-91037583D01*
X138519481Y-94631282D01*
X138519479Y-94631285D01*
X138490426Y-94681608D01*
X138490425Y-94681610D01*
X138440423Y-94768214D01*
X138440423Y-94768215D01*
X138399499Y-94920943D01*
X138399499Y-94920945D01*
X138399499Y-95089046D01*
X138399500Y-95089059D01*
X138399500Y-97699902D01*
X138379815Y-97766941D01*
X138363181Y-97787583D01*
X138316652Y-97834112D01*
X138255329Y-97867597D01*
X138185637Y-97862613D01*
X138129704Y-97820741D01*
X138105287Y-97755277D01*
X138106032Y-97730246D01*
X138110027Y-97699902D01*
X138134500Y-97514011D01*
X138134500Y-97277989D01*
X138103693Y-97043986D01*
X138042606Y-96816007D01*
X137952284Y-96597951D01*
X137952282Y-96597948D01*
X137952280Y-96597943D01*
X137910118Y-96524918D01*
X137834273Y-96393550D01*
X137723153Y-96248735D01*
X137690593Y-96206302D01*
X137690587Y-96206295D01*
X137523704Y-96039412D01*
X137523697Y-96039406D01*
X137336454Y-95895730D01*
X137336453Y-95895729D01*
X137336450Y-95895727D01*
X137254957Y-95848677D01*
X137132056Y-95777719D01*
X137132045Y-95777714D01*
X136913993Y-95687394D01*
X136686010Y-95626306D01*
X136452020Y-95595501D01*
X136452017Y-95595500D01*
X136452011Y-95595500D01*
X136215989Y-95595500D01*
X136215983Y-95595500D01*
X136215979Y-95595501D01*
X135981989Y-95626306D01*
X135754006Y-95687394D01*
X135535954Y-95777714D01*
X135535943Y-95777719D01*
X135331545Y-95895730D01*
X135144302Y-96039406D01*
X135144295Y-96039412D01*
X134977412Y-96206295D01*
X134977406Y-96206302D01*
X134833730Y-96393545D01*
X134715719Y-96597943D01*
X134715714Y-96597954D01*
X134625394Y-96816006D01*
X134564306Y-97043989D01*
X134533501Y-97277979D01*
X134533500Y-97277995D01*
X134533500Y-97514004D01*
X134533501Y-97514020D01*
X134561967Y-97730246D01*
X134564307Y-97748014D01*
X134574910Y-97787583D01*
X134625394Y-97975993D01*
X134715714Y-98194045D01*
X134715719Y-98194056D01*
X134786677Y-98316957D01*
X134833727Y-98398450D01*
X134833729Y-98398453D01*
X134833730Y-98398454D01*
X134977406Y-98585697D01*
X134977412Y-98585704D01*
X135144295Y-98752587D01*
X135144302Y-98752593D01*
X135199283Y-98794781D01*
X135331550Y-98896273D01*
X135462918Y-98972118D01*
X135535943Y-99014280D01*
X135535948Y-99014282D01*
X135535951Y-99014284D01*
X135679657Y-99073809D01*
X135734060Y-99117650D01*
X135756125Y-99183944D01*
X135738846Y-99251643D01*
X135735307Y-99257260D01*
X135676588Y-99345140D01*
X135612477Y-99499917D01*
X135612475Y-99499925D01*
X135579793Y-99664228D01*
X135579793Y-99673500D01*
X135560108Y-99740539D01*
X135507304Y-99786294D01*
X135455793Y-99797500D01*
X131681057Y-99797500D01*
X131522943Y-99797500D01*
X131370215Y-99838423D01*
X131370214Y-99838423D01*
X131370212Y-99838424D01*
X131370209Y-99838425D01*
X131320096Y-99867359D01*
X131320095Y-99867360D01*
X131298588Y-99879777D01*
X131233285Y-99917479D01*
X131233282Y-99917481D01*
X131121480Y-100029284D01*
X131121478Y-100029286D01*
X126070978Y-105079787D01*
X121037584Y-110113181D01*
X120976261Y-110146666D01*
X120949903Y-110149500D01*
X120916228Y-110149500D01*
X120751925Y-110182182D01*
X120751917Y-110182184D01*
X120597139Y-110246295D01*
X120457837Y-110339373D01*
X120339373Y-110457837D01*
X120246295Y-110597139D01*
X120182184Y-110751917D01*
X120182182Y-110751925D01*
X120149500Y-110916228D01*
X120149500Y-111083771D01*
X120172880Y-111201309D01*
X120166653Y-111270900D01*
X120123790Y-111326078D01*
X120057900Y-111349322D01*
X120051263Y-111349500D01*
X116585929Y-111349500D01*
X116460261Y-111374497D01*
X116460255Y-111374499D01*
X116341874Y-111423534D01*
X116235326Y-111494726D01*
X116235325Y-111494727D01*
X113424181Y-114305872D01*
X113362858Y-114339357D01*
X113293166Y-114334373D01*
X113237233Y-114292501D01*
X113212816Y-114227037D01*
X113212500Y-114218191D01*
X113212500Y-114060639D01*
X113194126Y-113944632D01*
X113181413Y-113864364D01*
X113138251Y-113731523D01*
X113120006Y-113675370D01*
X113120005Y-113675367D01*
X113029786Y-113498305D01*
X113000385Y-113457838D01*
X112912981Y-113337536D01*
X112772464Y-113197019D01*
X112611694Y-113080213D01*
X112455218Y-113000484D01*
X112404423Y-112952510D01*
X112387628Y-112884689D01*
X112410165Y-112818554D01*
X112455218Y-112779515D01*
X112611694Y-112699787D01*
X112772464Y-112582981D01*
X112912981Y-112442464D01*
X113029787Y-112281694D01*
X113120005Y-112104632D01*
X113181413Y-111915636D01*
X113212500Y-111719361D01*
X113212500Y-111520639D01*
X113181413Y-111324364D01*
X113131655Y-111171224D01*
X113120006Y-111135370D01*
X113120005Y-111135367D01*
X113060896Y-111019360D01*
X113029787Y-110958306D01*
X112912981Y-110797536D01*
X112772464Y-110657019D01*
X112611694Y-110540213D01*
X112455218Y-110460484D01*
X112404423Y-110412510D01*
X112387628Y-110344689D01*
X112410165Y-110278554D01*
X112455218Y-110239515D01*
X112611694Y-110159787D01*
X112772464Y-110042981D01*
X112912981Y-109902464D01*
X113029787Y-109741694D01*
X113120005Y-109564632D01*
X113181413Y-109375636D01*
X113212500Y-109179361D01*
X113212500Y-108980639D01*
X113181413Y-108784364D01*
X113146047Y-108675517D01*
X113120006Y-108595370D01*
X113120005Y-108595367D01*
X113052842Y-108463554D01*
X113029787Y-108418306D01*
X112912981Y-108257536D01*
X112772464Y-108117019D01*
X112611694Y-108000213D01*
X112455218Y-107920484D01*
X112404423Y-107872510D01*
X112387628Y-107804689D01*
X112410165Y-107738554D01*
X112455218Y-107699515D01*
X112611694Y-107619787D01*
X112772464Y-107502981D01*
X112912981Y-107362464D01*
X113029787Y-107201694D01*
X113120005Y-107024632D01*
X113181413Y-106835636D01*
X113212500Y-106639361D01*
X113212500Y-106440639D01*
X113181413Y-106244364D01*
X113120005Y-106055368D01*
X113120005Y-106055367D01*
X113029786Y-105878305D01*
X113028353Y-105876332D01*
X112912981Y-105717536D01*
X112772464Y-105577019D01*
X112611694Y-105460213D01*
X112455218Y-105380484D01*
X112404423Y-105332510D01*
X112387628Y-105264689D01*
X112410165Y-105198554D01*
X112455218Y-105159515D01*
X112611694Y-105079787D01*
X112772464Y-104962981D01*
X112912981Y-104822464D01*
X113029787Y-104661694D01*
X113120005Y-104484632D01*
X113181413Y-104295636D01*
X113212500Y-104099361D01*
X113212500Y-103900639D01*
X113181413Y-103704364D01*
X113143392Y-103587345D01*
X113120006Y-103515370D01*
X113120005Y-103515367D01*
X113068036Y-103413374D01*
X113029787Y-103338306D01*
X112912981Y-103177536D01*
X112772464Y-103037019D01*
X112648035Y-102946616D01*
X112605370Y-102891287D01*
X112599391Y-102821674D01*
X112631997Y-102759879D01*
X112692835Y-102725522D01*
X112720920Y-102722299D01*
X112759872Y-102722299D01*
X112819483Y-102715891D01*
X112954331Y-102665596D01*
X113069546Y-102579346D01*
X113155796Y-102464131D01*
X113206091Y-102329283D01*
X113212500Y-102269673D01*
X113212499Y-100649928D01*
X113206091Y-100590317D01*
X113199081Y-100571523D01*
X113155797Y-100455471D01*
X113155793Y-100455464D01*
X113069547Y-100340255D01*
X113069544Y-100340252D01*
X112954335Y-100254006D01*
X112954328Y-100254002D01*
X112819482Y-100203708D01*
X112819483Y-100203708D01*
X112759883Y-100197301D01*
X112759881Y-100197300D01*
X112759873Y-100197300D01*
X112759864Y-100197300D01*
X111140129Y-100197300D01*
X111140123Y-100197301D01*
X111080516Y-100203708D01*
X110945671Y-100254002D01*
X110945664Y-100254006D01*
X110830455Y-100340252D01*
X110830452Y-100340255D01*
X110744206Y-100455464D01*
X110744202Y-100455471D01*
X110693908Y-100590317D01*
X110689128Y-100634781D01*
X110687501Y-100649923D01*
X110687500Y-100649935D01*
X110687500Y-102269670D01*
X110687501Y-102269676D01*
X110693908Y-102329283D01*
X110744202Y-102464128D01*
X110744206Y-102464135D01*
X110830452Y-102579344D01*
X110830455Y-102579347D01*
X110945664Y-102665593D01*
X110945671Y-102665597D01*
X111080517Y-102715891D01*
X111080516Y-102715891D01*
X111087444Y-102716635D01*
X111140127Y-102722300D01*
X111179076Y-102722299D01*
X111246113Y-102741982D01*
X111291869Y-102794785D01*
X111301814Y-102863943D01*
X111272791Y-102927500D01*
X111251962Y-102946616D01*
X111127542Y-103037014D01*
X111127533Y-103037021D01*
X110987021Y-103177533D01*
X110870213Y-103338305D01*
X110779994Y-103515367D01*
X110779993Y-103515370D01*
X110718587Y-103704362D01*
X110687500Y-103900639D01*
X110687500Y-104099360D01*
X110718587Y-104295637D01*
X110779993Y-104484629D01*
X110779994Y-104484632D01*
X110870213Y-104661694D01*
X110987019Y-104822464D01*
X111127536Y-104962981D01*
X111288306Y-105079787D01*
X111406832Y-105140179D01*
X111444780Y-105159515D01*
X111495576Y-105207490D01*
X111512371Y-105275311D01*
X111489833Y-105341446D01*
X111444780Y-105380485D01*
X111288305Y-105460213D01*
X111127533Y-105577021D01*
X110987021Y-105717533D01*
X110870213Y-105878305D01*
X110779994Y-106055367D01*
X110779993Y-106055370D01*
X110718587Y-106244362D01*
X110718587Y-106244364D01*
X110687500Y-106440639D01*
X110687500Y-106639361D01*
X110696385Y-106695461D01*
X110718587Y-106835637D01*
X110779993Y-107024629D01*
X110779994Y-107024632D01*
X110844202Y-107150645D01*
X110870213Y-107201694D01*
X110987019Y-107362464D01*
X111127536Y-107502981D01*
X111288306Y-107619787D01*
X111406832Y-107680179D01*
X111444780Y-107699515D01*
X111495576Y-107747490D01*
X111512371Y-107815311D01*
X111489833Y-107881446D01*
X111444780Y-107920485D01*
X111288305Y-108000213D01*
X111127533Y-108117021D01*
X110987021Y-108257533D01*
X110870213Y-108418305D01*
X110779994Y-108595367D01*
X110779993Y-108595370D01*
X110718587Y-108784362D01*
X110689408Y-108968594D01*
X110687500Y-108980639D01*
X110687500Y-109179361D01*
X110692919Y-109213573D01*
X110718587Y-109375637D01*
X110779993Y-109564629D01*
X110779994Y-109564632D01*
X110848919Y-109699903D01*
X110870213Y-109741694D01*
X110987019Y-109902464D01*
X111127536Y-110042981D01*
X111288306Y-110159787D01*
X111406832Y-110220179D01*
X111444780Y-110239515D01*
X111495576Y-110287490D01*
X111512371Y-110355311D01*
X111489833Y-110421446D01*
X111444780Y-110460485D01*
X111288305Y-110540213D01*
X111127533Y-110657021D01*
X110987021Y-110797533D01*
X110870213Y-110958305D01*
X110779994Y-111135367D01*
X110779993Y-111135370D01*
X110718587Y-111324362D01*
X110687500Y-111520639D01*
X110687500Y-111719360D01*
X110718587Y-111915637D01*
X110779993Y-112104629D01*
X110779994Y-112104632D01*
X110845131Y-112232469D01*
X110870213Y-112281694D01*
X110987019Y-112442464D01*
X111127536Y-112582981D01*
X111288306Y-112699787D01*
X111390632Y-112751925D01*
X111444780Y-112779515D01*
X111495576Y-112827490D01*
X111512371Y-112895311D01*
X111489833Y-112961446D01*
X111444780Y-113000485D01*
X111288305Y-113080213D01*
X111127533Y-113197021D01*
X110987021Y-113337533D01*
X110870213Y-113498305D01*
X110779994Y-113675367D01*
X110779993Y-113675370D01*
X110718587Y-113864362D01*
X110687500Y-114060639D01*
X110687500Y-114259361D01*
X110687499Y-114259361D01*
X110710867Y-114406899D01*
X110701912Y-114476192D01*
X110676075Y-114513977D01*
X110332725Y-114857328D01*
X110332724Y-114857329D01*
X110261534Y-114963874D01*
X110212499Y-115082255D01*
X110212497Y-115082261D01*
X110187500Y-115207928D01*
X110187500Y-117224677D01*
X110204100Y-117308127D01*
X110204100Y-117308128D01*
X110212496Y-117350343D01*
X110212498Y-117350348D01*
X110212499Y-117350350D01*
X110261535Y-117468733D01*
X110332723Y-117575275D01*
X110332726Y-117575279D01*
X110993319Y-118235872D01*
X111026804Y-118297195D01*
X111021820Y-118366887D01*
X110993324Y-118411230D01*
X110987015Y-118417539D01*
X110870215Y-118578302D01*
X110779994Y-118755367D01*
X110779993Y-118755370D01*
X110718587Y-118944362D01*
X110687500Y-119140639D01*
X110687500Y-119339360D01*
X110718587Y-119535637D01*
X110779993Y-119724629D01*
X110779994Y-119724632D01*
X110844128Y-119850500D01*
X110870213Y-119901694D01*
X110987019Y-120062464D01*
X111127536Y-120202981D01*
X111288306Y-120319787D01*
X111406832Y-120380179D01*
X111444780Y-120399515D01*
X111495576Y-120447490D01*
X111512371Y-120515311D01*
X111489833Y-120581446D01*
X111444780Y-120620485D01*
X111288305Y-120700213D01*
X111127533Y-120817021D01*
X110987021Y-120957533D01*
X110870213Y-121118305D01*
X110779994Y-121295367D01*
X110779993Y-121295370D01*
X110718587Y-121484362D01*
X110687500Y-121680639D01*
X110687500Y-121696770D01*
X110667815Y-121763809D01*
X110615011Y-121809564D01*
X110545853Y-121819508D01*
X110482297Y-121790483D01*
X110475819Y-121784451D01*
X109259615Y-120568247D01*
X109226130Y-120506924D01*
X109223296Y-120480566D01*
X109223296Y-103238875D01*
X109194455Y-103093888D01*
X109194454Y-103093887D01*
X109194454Y-103093883D01*
X109174297Y-103045220D01*
X109137882Y-102957305D01*
X109137881Y-102957303D01*
X109134529Y-102952287D01*
X109104982Y-102908066D01*
X109075501Y-102863943D01*
X109055752Y-102834385D01*
X109055748Y-102834380D01*
X108326473Y-102105105D01*
X108292988Y-102043782D01*
X108291681Y-101998027D01*
X108300500Y-101942352D01*
X108300500Y-101737648D01*
X108272262Y-101559361D01*
X108268477Y-101535465D01*
X108205218Y-101340776D01*
X108160092Y-101252212D01*
X108112287Y-101158390D01*
X108099033Y-101140147D01*
X107991971Y-100992786D01*
X107847217Y-100848032D01*
X107847212Y-100848028D01*
X107801615Y-100814900D01*
X107758949Y-100759571D01*
X107750500Y-100714582D01*
X107750500Y-97277995D01*
X111165500Y-97277995D01*
X111165500Y-97514004D01*
X111165501Y-97514020D01*
X111193967Y-97730246D01*
X111196307Y-97748014D01*
X111206910Y-97787583D01*
X111257394Y-97975993D01*
X111347714Y-98194045D01*
X111347719Y-98194056D01*
X111418677Y-98316957D01*
X111465727Y-98398450D01*
X111465729Y-98398453D01*
X111465730Y-98398454D01*
X111609406Y-98585697D01*
X111609412Y-98585704D01*
X111776295Y-98752587D01*
X111776302Y-98752593D01*
X111831283Y-98794781D01*
X111963550Y-98896273D01*
X112094918Y-98972118D01*
X112167943Y-99014280D01*
X112167948Y-99014282D01*
X112167951Y-99014284D01*
X112386007Y-99104606D01*
X112613986Y-99165693D01*
X112847989Y-99196500D01*
X112847996Y-99196500D01*
X113084004Y-99196500D01*
X113084011Y-99196500D01*
X113318014Y-99165693D01*
X113545993Y-99104606D01*
X113764049Y-99014284D01*
X113968450Y-98896273D01*
X114155699Y-98752592D01*
X114322592Y-98585699D01*
X114466273Y-98398450D01*
X114584284Y-98194049D01*
X114674606Y-97975993D01*
X114735693Y-97748014D01*
X114766500Y-97514011D01*
X114766500Y-97277989D01*
X114735693Y-97043986D01*
X114674606Y-96816007D01*
X114584284Y-96597951D01*
X114584282Y-96597948D01*
X114584280Y-96597943D01*
X114542118Y-96524918D01*
X114466273Y-96393550D01*
X114355153Y-96248735D01*
X114322593Y-96206302D01*
X114322587Y-96206295D01*
X114155704Y-96039412D01*
X114155697Y-96039406D01*
X113968454Y-95895730D01*
X113968453Y-95895729D01*
X113968450Y-95895727D01*
X113886957Y-95848677D01*
X113764056Y-95777719D01*
X113764045Y-95777714D01*
X113545993Y-95687394D01*
X113318010Y-95626306D01*
X113084020Y-95595501D01*
X113084017Y-95595500D01*
X113084011Y-95595500D01*
X112847989Y-95595500D01*
X112847983Y-95595500D01*
X112847979Y-95595501D01*
X112613989Y-95626306D01*
X112386006Y-95687394D01*
X112167954Y-95777714D01*
X112167943Y-95777719D01*
X111963545Y-95895730D01*
X111776302Y-96039406D01*
X111776295Y-96039412D01*
X111609412Y-96206295D01*
X111609406Y-96206302D01*
X111465730Y-96393545D01*
X111347719Y-96597943D01*
X111347714Y-96597954D01*
X111257394Y-96816006D01*
X111196306Y-97043989D01*
X111165501Y-97277979D01*
X111165500Y-97277995D01*
X107750500Y-97277995D01*
X107750500Y-91926081D01*
X107744763Y-91897242D01*
X107744763Y-91897240D01*
X107721660Y-91781095D01*
X107721659Y-91781088D01*
X107673608Y-91665084D01*
X107665084Y-91644505D01*
X107582951Y-91521584D01*
X107478416Y-91417049D01*
X106790955Y-90729587D01*
X106757470Y-90668264D01*
X106762454Y-90598572D01*
X106804326Y-90542639D01*
X106869790Y-90518222D01*
X106938063Y-90533074D01*
X106943733Y-90536368D01*
X107034388Y-90592285D01*
X107034399Y-90592290D01*
X107200821Y-90647437D01*
X107200828Y-90647438D01*
X107303538Y-90657931D01*
X107578518Y-90657931D01*
X108078519Y-90657931D01*
X108353491Y-90657931D01*
X108353505Y-90657930D01*
X108456216Y-90647437D01*
X108622638Y-90592290D01*
X108622643Y-90592288D01*
X108771864Y-90500247D01*
X108895834Y-90376277D01*
X108987875Y-90227056D01*
X108987877Y-90227051D01*
X109043024Y-90060629D01*
X109043025Y-90060622D01*
X109053518Y-89957918D01*
X109053519Y-89957905D01*
X109053519Y-89820432D01*
X108078519Y-89820432D01*
X108078519Y-90657931D01*
X107578518Y-90657931D01*
X107578519Y-90657930D01*
X107578519Y-89694432D01*
X107598204Y-89627393D01*
X107651008Y-89581638D01*
X107702519Y-89570432D01*
X107828519Y-89570432D01*
X107828519Y-89444432D01*
X107848204Y-89377393D01*
X107901008Y-89331638D01*
X107952519Y-89320432D01*
X109053518Y-89320432D01*
X109053518Y-89182960D01*
X109053517Y-89182945D01*
X109043024Y-89080234D01*
X108987877Y-88913812D01*
X108987875Y-88913807D01*
X108895834Y-88764586D01*
X108771863Y-88640615D01*
X108771860Y-88640613D01*
X108768858Y-88638761D01*
X108767232Y-88636953D01*
X108766196Y-88636134D01*
X108766336Y-88635956D01*
X108722136Y-88586812D01*
X108710916Y-88517849D01*
X108738762Y-88453768D01*
X108768863Y-88427686D01*
X108772175Y-88425644D01*
X108896231Y-88301588D01*
X108955908Y-88204834D01*
X109007856Y-88158111D01*
X109061447Y-88145932D01*
X113075501Y-88145932D01*
X113142540Y-88165617D01*
X113188295Y-88218421D01*
X113199501Y-88269932D01*
X113199501Y-88600018D01*
X113210000Y-88702796D01*
X113210001Y-88702799D01*
X113265185Y-88869331D01*
X113265187Y-88869336D01*
X113277059Y-88888583D01*
X113357288Y-89018656D01*
X113481344Y-89142712D01*
X113630666Y-89234814D01*
X113797203Y-89289999D01*
X113899991Y-89300500D01*
X115100008Y-89300499D01*
X115202797Y-89289999D01*
X115369334Y-89234814D01*
X115518656Y-89142712D01*
X115642712Y-89018656D01*
X115734814Y-88869334D01*
X115758102Y-88799054D01*
X115762110Y-88791050D01*
X115780060Y-88771772D01*
X115795055Y-88750116D01*
X115803495Y-88746606D01*
X115809725Y-88739917D01*
X115835249Y-88733404D01*
X115859571Y-88723292D01*
X115875834Y-88723048D01*
X115877425Y-88722643D01*
X115878523Y-88723008D01*
X115882719Y-88722946D01*
X115920525Y-88725921D01*
X116600000Y-88046446D01*
X116600000Y-88052661D01*
X116627259Y-88154394D01*
X116679920Y-88245606D01*
X116754394Y-88320080D01*
X116845606Y-88372741D01*
X116947339Y-88400000D01*
X116953553Y-88400000D01*
X116274076Y-89079474D01*
X116318650Y-89111859D01*
X116500968Y-89204755D01*
X116695582Y-89267990D01*
X116897683Y-89300000D01*
X117102317Y-89300000D01*
X117304417Y-89267990D01*
X117499031Y-89204755D01*
X117681349Y-89111859D01*
X117725921Y-89079474D01*
X117046447Y-88400000D01*
X117052661Y-88400000D01*
X117154394Y-88372741D01*
X117245606Y-88320080D01*
X117320080Y-88245606D01*
X117372741Y-88154394D01*
X117400000Y-88052661D01*
X117400000Y-88046447D01*
X118079474Y-88725921D01*
X118111859Y-88681349D01*
X118204755Y-88499031D01*
X118267990Y-88304417D01*
X118300000Y-88102317D01*
X118300000Y-87897682D01*
X118267990Y-87695582D01*
X118204755Y-87500968D01*
X118111859Y-87318650D01*
X118079474Y-87274077D01*
X118079474Y-87274076D01*
X117400000Y-87953551D01*
X117400000Y-87947339D01*
X117372741Y-87845606D01*
X117320080Y-87754394D01*
X117245606Y-87679920D01*
X117154394Y-87627259D01*
X117052661Y-87600000D01*
X117046446Y-87600000D01*
X117725922Y-86920524D01*
X117725921Y-86920523D01*
X117681359Y-86888147D01*
X117681350Y-86888141D01*
X117499031Y-86795244D01*
X117304417Y-86732009D01*
X117102317Y-86700000D01*
X116897683Y-86700000D01*
X116695582Y-86732009D01*
X116500968Y-86795244D01*
X116318644Y-86888143D01*
X116274077Y-86920523D01*
X116274077Y-86920524D01*
X116953554Y-87600000D01*
X116947339Y-87600000D01*
X116845606Y-87627259D01*
X116754394Y-87679920D01*
X116679920Y-87754394D01*
X116627259Y-87845606D01*
X116600000Y-87947339D01*
X116600000Y-87953553D01*
X115920524Y-87274077D01*
X115882719Y-87277053D01*
X115814341Y-87262689D01*
X115764584Y-87213638D01*
X115762110Y-87208949D01*
X115758101Y-87200942D01*
X115734814Y-87130666D01*
X115642712Y-86981344D01*
X115518656Y-86857288D01*
X115418066Y-86795244D01*
X115369336Y-86765187D01*
X115369331Y-86765185D01*
X115367862Y-86764698D01*
X115202797Y-86710001D01*
X115202795Y-86710000D01*
X115100010Y-86699500D01*
X113899998Y-86699500D01*
X113899981Y-86699501D01*
X113797203Y-86710000D01*
X113797200Y-86710001D01*
X113630668Y-86765185D01*
X113630659Y-86765189D01*
X113531306Y-86826471D01*
X113466210Y-86844932D01*
X109061447Y-86844932D01*
X108994408Y-86825247D01*
X108955908Y-86786029D01*
X108946372Y-86770568D01*
X108896231Y-86689276D01*
X108772175Y-86565220D01*
X108622853Y-86473118D01*
X108456316Y-86417933D01*
X108456314Y-86417932D01*
X108353529Y-86407432D01*
X107303517Y-86407432D01*
X107303499Y-86407433D01*
X107200722Y-86417932D01*
X107200719Y-86417933D01*
X107034187Y-86473117D01*
X107034182Y-86473119D01*
X106884861Y-86565221D01*
X106760808Y-86689274D01*
X106668706Y-86838595D01*
X106668704Y-86838600D01*
X106662511Y-86857289D01*
X106613520Y-87005135D01*
X106613520Y-87005136D01*
X106613519Y-87005136D01*
X106603019Y-87107915D01*
X106603019Y-87608201D01*
X106583334Y-87675240D01*
X106566700Y-87695882D01*
X105417045Y-88845537D01*
X105380232Y-88900636D01*
X105380230Y-88900639D01*
X105334919Y-88968450D01*
X105334912Y-88968462D01*
X105278343Y-89105033D01*
X105278340Y-89105043D01*
X105249500Y-89250030D01*
X105249500Y-89250033D01*
X105249500Y-91073918D01*
X105249500Y-91073920D01*
X105249499Y-91073920D01*
X105278340Y-91218907D01*
X105278343Y-91218917D01*
X105334912Y-91355488D01*
X105334915Y-91355494D01*
X105334916Y-91355495D01*
X105343748Y-91368713D01*
X105343749Y-91368716D01*
X105417046Y-91478414D01*
X105417052Y-91478421D01*
X106213181Y-92274548D01*
X106246666Y-92335871D01*
X106249500Y-92362229D01*
X106249500Y-100714582D01*
X106229815Y-100781621D01*
X106198385Y-100814900D01*
X106152787Y-100848028D01*
X106152782Y-100848032D01*
X106008032Y-100992782D01*
X106008028Y-100992787D01*
X105974900Y-101038385D01*
X105919571Y-101081051D01*
X105874582Y-101089500D01*
X100125418Y-101089500D01*
X100058379Y-101069815D01*
X100025100Y-101038385D01*
X99991971Y-100992787D01*
X99991967Y-100992782D01*
X99847213Y-100848028D01*
X99681613Y-100727715D01*
X99681612Y-100727714D01*
X99681610Y-100727713D01*
X99591128Y-100681610D01*
X99499223Y-100634781D01*
X99304534Y-100571522D01*
X99129995Y-100543878D01*
X99102352Y-100539500D01*
X98897648Y-100539500D01*
X98873329Y-100543351D01*
X98695465Y-100571522D01*
X98500776Y-100634781D01*
X98318386Y-100727715D01*
X98152786Y-100848028D01*
X98008028Y-100992786D01*
X97887715Y-101158386D01*
X97834985Y-101261874D01*
X97787010Y-101312670D01*
X97719189Y-101329465D01*
X97653054Y-101306927D01*
X97609603Y-101252212D01*
X97600500Y-101205579D01*
X97600500Y-83916228D01*
X100149500Y-83916228D01*
X100149500Y-84083771D01*
X100182182Y-84248074D01*
X100182184Y-84248082D01*
X100246295Y-84402860D01*
X100339372Y-84542160D01*
X100339373Y-84542161D01*
X100339374Y-84542162D01*
X100363181Y-84565969D01*
X100396666Y-84627290D01*
X100399500Y-84653650D01*
X100399500Y-98346349D01*
X100379815Y-98413388D01*
X100363181Y-98434030D01*
X100339376Y-98457834D01*
X100339373Y-98457837D01*
X100246295Y-98597139D01*
X100182184Y-98751917D01*
X100182182Y-98751925D01*
X100149500Y-98916228D01*
X100149500Y-99083771D01*
X100182182Y-99248074D01*
X100182184Y-99248082D01*
X100246295Y-99402860D01*
X100339373Y-99542162D01*
X100457837Y-99660626D01*
X100550494Y-99722537D01*
X100597137Y-99753703D01*
X100751918Y-99817816D01*
X100914574Y-99850170D01*
X100916228Y-99850499D01*
X100916232Y-99850500D01*
X100916233Y-99850500D01*
X101083768Y-99850500D01*
X101083769Y-99850499D01*
X101248082Y-99817816D01*
X101402863Y-99753703D01*
X101542162Y-99660626D01*
X101660626Y-99542162D01*
X101753703Y-99402863D01*
X101817816Y-99248082D01*
X101850500Y-99083767D01*
X101850500Y-98916233D01*
X101817816Y-98751918D01*
X101753703Y-98597137D01*
X101722537Y-98550494D01*
X101660626Y-98457837D01*
X101636819Y-98434030D01*
X101603334Y-98372707D01*
X101600500Y-98346349D01*
X101600500Y-84653650D01*
X101620185Y-84586611D01*
X101636815Y-84565972D01*
X101660626Y-84542162D01*
X101753703Y-84402863D01*
X101817816Y-84248082D01*
X101850500Y-84083767D01*
X101850500Y-83916233D01*
X101817816Y-83751918D01*
X101753703Y-83597137D01*
X101716968Y-83542160D01*
X101660626Y-83457837D01*
X101542162Y-83339373D01*
X101402860Y-83246295D01*
X101248082Y-83182184D01*
X101248074Y-83182182D01*
X101083771Y-83149500D01*
X101083767Y-83149500D01*
X100916233Y-83149500D01*
X100916228Y-83149500D01*
X100751925Y-83182182D01*
X100751917Y-83182184D01*
X100597139Y-83246295D01*
X100457837Y-83339373D01*
X100339373Y-83457837D01*
X100246295Y-83597139D01*
X100182184Y-83751917D01*
X100182182Y-83751925D01*
X100149500Y-83916228D01*
X97600500Y-83916228D01*
X97600500Y-83653650D01*
X97620185Y-83586611D01*
X97636815Y-83565972D01*
X97660626Y-83542162D01*
X97753703Y-83402863D01*
X97817816Y-83248082D01*
X97850500Y-83083767D01*
X97850500Y-82916233D01*
X97817816Y-82751918D01*
X97766402Y-82627795D01*
X97753704Y-82597139D01*
X97660626Y-82457837D01*
X97542162Y-82339373D01*
X97402860Y-82246295D01*
X97248082Y-82182184D01*
X97248074Y-82182182D01*
X97083771Y-82149500D01*
X97083767Y-82149500D01*
X96916233Y-82149500D01*
X96916228Y-82149500D01*
X96751925Y-82182182D01*
X96751917Y-82182184D01*
X96597139Y-82246295D01*
X96457837Y-82339373D01*
X96339373Y-82457837D01*
X96246295Y-82597139D01*
X96182184Y-82751917D01*
X96182182Y-82751925D01*
X96149500Y-82916228D01*
X77947130Y-82916228D01*
X78022314Y-82794334D01*
X78077499Y-82627797D01*
X78088000Y-82525009D01*
X78087999Y-82024728D01*
X78096645Y-81995282D01*
X78103167Y-81965302D01*
X78106920Y-81960288D01*
X78107683Y-81957690D01*
X78124313Y-81937052D01*
X78274549Y-81786816D01*
X78335871Y-81753334D01*
X78362229Y-81750500D01*
X79564739Y-81750500D01*
X79612191Y-81759938D01*
X79751918Y-81817816D01*
X79916228Y-81850499D01*
X79916232Y-81850500D01*
X79916233Y-81850500D01*
X80083768Y-81850500D01*
X80083769Y-81850499D01*
X80248082Y-81817816D01*
X80402863Y-81753703D01*
X80542162Y-81660626D01*
X80660626Y-81542162D01*
X80753703Y-81402863D01*
X80817816Y-81248082D01*
X80850500Y-81083767D01*
X80850500Y-80916233D01*
X80817816Y-80751918D01*
X80758677Y-80609144D01*
X80753704Y-80597139D01*
X80660626Y-80457837D01*
X80542162Y-80339373D01*
X80402860Y-80246295D01*
X80248082Y-80182184D01*
X80248074Y-80182182D01*
X80083771Y-80149500D01*
X80083767Y-80149500D01*
X79916233Y-80149500D01*
X79916228Y-80149500D01*
X79751925Y-80182182D01*
X79751917Y-80182184D01*
X79612192Y-80240061D01*
X79564739Y-80249500D01*
X77926076Y-80249500D01*
X77897242Y-80255234D01*
X77897243Y-80255235D01*
X77781093Y-80278339D01*
X77781089Y-80278340D01*
X77719844Y-80303709D01*
X77719838Y-80303711D01*
X77714749Y-80305820D01*
X77644505Y-80334916D01*
X77593920Y-80368716D01*
X77588381Y-80372416D01*
X77588375Y-80372420D01*
X77521586Y-80417047D01*
X77521582Y-80417050D01*
X77200451Y-80738181D01*
X77139128Y-80771666D01*
X77112770Y-80774500D01*
X76612498Y-80774500D01*
X76612480Y-80774501D01*
X76509703Y-80785000D01*
X76509700Y-80785001D01*
X76343168Y-80840185D01*
X76343163Y-80840187D01*
X76193842Y-80932289D01*
X76069788Y-81056343D01*
X76069783Y-81056349D01*
X76067741Y-81059661D01*
X76065747Y-81061453D01*
X76065307Y-81062011D01*
X76065211Y-81061935D01*
X76015791Y-81106383D01*
X75946828Y-81117602D01*
X75882747Y-81089755D01*
X75856668Y-81059656D01*
X75854819Y-81056659D01*
X75854816Y-81056655D01*
X75730845Y-80932684D01*
X75581624Y-80840643D01*
X75581619Y-80840641D01*
X75415197Y-80785494D01*
X75415190Y-80785493D01*
X75312486Y-80775000D01*
X75175000Y-80775000D01*
X74675000Y-80775000D01*
X74537527Y-80775000D01*
X74537512Y-80775001D01*
X74434802Y-80785494D01*
X74268380Y-80840641D01*
X74268375Y-80840643D01*
X74119154Y-80932684D01*
X73995184Y-81056654D01*
X73903143Y-81205875D01*
X73903141Y-81205880D01*
X73847994Y-81372302D01*
X73847993Y-81372309D01*
X73837500Y-81475013D01*
X68760600Y-81475013D01*
X68760600Y-67714298D01*
X88024500Y-67714298D01*
X88024500Y-68145701D01*
X88027401Y-68182567D01*
X88027402Y-68182573D01*
X88073254Y-68340393D01*
X88073255Y-68340396D01*
X88160890Y-68488580D01*
X88158919Y-68489745D01*
X88180232Y-68544058D01*
X88166540Y-68612573D01*
X88160864Y-68621404D01*
X88160890Y-68621420D01*
X88073255Y-68769603D01*
X88073254Y-68769606D01*
X88027402Y-68927426D01*
X88027401Y-68927432D01*
X88024500Y-68964298D01*
X88024500Y-69395701D01*
X88027401Y-69432567D01*
X88027402Y-69432573D01*
X88073254Y-69590393D01*
X88073255Y-69590396D01*
X88073256Y-69590398D01*
X88083360Y-69607483D01*
X88160890Y-69738580D01*
X88158919Y-69739745D01*
X88180232Y-69794058D01*
X88166540Y-69862573D01*
X88160864Y-69871404D01*
X88160890Y-69871420D01*
X88073255Y-70019603D01*
X88073254Y-70019606D01*
X88027402Y-70177426D01*
X88027401Y-70177432D01*
X88024500Y-70214298D01*
X88024500Y-70645701D01*
X88027401Y-70682567D01*
X88027402Y-70682573D01*
X88073254Y-70840393D01*
X88073255Y-70840396D01*
X88156917Y-70981862D01*
X88156923Y-70981870D01*
X88273129Y-71098076D01*
X88273133Y-71098079D01*
X88273135Y-71098081D01*
X88414602Y-71181744D01*
X88456224Y-71193836D01*
X88572426Y-71227597D01*
X88572429Y-71227597D01*
X88572431Y-71227598D01*
X88609306Y-71230500D01*
X88650500Y-71230500D01*
X88717539Y-71250185D01*
X88763294Y-71302989D01*
X88774500Y-71354500D01*
X88774500Y-75176880D01*
X88774499Y-75176898D01*
X88774499Y-75342604D01*
X88774498Y-75342604D01*
X88815423Y-75495334D01*
X88815424Y-75495338D01*
X88843584Y-75544113D01*
X88843585Y-75544113D01*
X88894477Y-75632262D01*
X88894481Y-75632267D01*
X89013349Y-75751135D01*
X89013355Y-75751140D01*
X93626589Y-80364374D01*
X93626599Y-80364385D01*
X93630929Y-80368715D01*
X93630930Y-80368716D01*
X93742734Y-80480520D01*
X93813860Y-80521584D01*
X93879665Y-80559577D01*
X94032393Y-80600501D01*
X94032396Y-80600501D01*
X94198103Y-80600501D01*
X94198119Y-80600500D01*
X98699902Y-80600500D01*
X98729342Y-80609144D01*
X98759329Y-80615668D01*
X98764344Y-80619422D01*
X98766941Y-80620185D01*
X98787583Y-80636819D01*
X98961162Y-80810398D01*
X98994647Y-80871721D01*
X98997481Y-80898079D01*
X98997481Y-80931753D01*
X99030163Y-81096056D01*
X99030165Y-81096064D01*
X99094276Y-81250842D01*
X99187354Y-81390144D01*
X99305818Y-81508608D01*
X99398475Y-81570519D01*
X99445118Y-81601685D01*
X99599899Y-81665798D01*
X99764209Y-81698481D01*
X99764213Y-81698482D01*
X99764214Y-81698482D01*
X99931749Y-81698482D01*
X99931750Y-81698481D01*
X100096063Y-81665798D01*
X100250844Y-81601685D01*
X100390143Y-81508608D01*
X100508607Y-81390144D01*
X100601684Y-81250845D01*
X100665797Y-81096064D01*
X100698481Y-80931749D01*
X100698481Y-80764215D01*
X100665797Y-80599900D01*
X100616208Y-80480183D01*
X100601685Y-80445121D01*
X100508607Y-80305819D01*
X100390143Y-80187355D01*
X100250841Y-80094277D01*
X100096063Y-80030166D01*
X100096055Y-80030164D01*
X99931752Y-79997482D01*
X99931748Y-79997482D01*
X99898079Y-79997482D01*
X99831040Y-79977797D01*
X99810398Y-79961163D01*
X99487590Y-79638355D01*
X99487588Y-79638352D01*
X99368717Y-79519481D01*
X99368716Y-79519480D01*
X99281904Y-79469360D01*
X99281904Y-79469359D01*
X99281902Y-79469359D01*
X99231785Y-79440423D01*
X99231782Y-79440422D01*
X99167232Y-79423126D01*
X99079058Y-79399500D01*
X99079056Y-79399499D01*
X99079055Y-79399499D01*
X98913348Y-79399499D01*
X98913332Y-79399500D01*
X94411547Y-79399500D01*
X94344508Y-79379815D01*
X94323866Y-79363181D01*
X93957173Y-78996488D01*
X93923688Y-78935165D01*
X93928672Y-78865473D01*
X93970544Y-78809540D01*
X94030971Y-78785587D01*
X94087818Y-78779182D01*
X94087821Y-78779181D01*
X94087832Y-78779180D01*
X94360545Y-78716935D01*
X94624575Y-78624547D01*
X94876600Y-78503178D01*
X95113452Y-78354355D01*
X95332151Y-78179948D01*
X95529948Y-77982151D01*
X95704355Y-77763452D01*
X95853178Y-77526600D01*
X95974547Y-77274575D01*
X96066935Y-77010545D01*
X96129180Y-76737832D01*
X96160500Y-76459863D01*
X96160500Y-76180137D01*
X96145583Y-76047744D01*
X99350200Y-76047744D01*
X99356601Y-76107272D01*
X99356603Y-76107279D01*
X99406845Y-76241986D01*
X99406849Y-76241993D01*
X99493009Y-76357087D01*
X99493012Y-76357090D01*
X99608106Y-76443250D01*
X99608113Y-76443254D01*
X99742820Y-76493496D01*
X99742827Y-76493498D01*
X99802355Y-76499899D01*
X99802372Y-76499900D01*
X102600200Y-76499900D01*
X103100200Y-76499900D01*
X105898028Y-76499900D01*
X105898044Y-76499899D01*
X105957572Y-76493498D01*
X105957579Y-76493496D01*
X106092286Y-76443254D01*
X106092293Y-76443250D01*
X106207387Y-76357090D01*
X106207390Y-76357087D01*
X106293550Y-76241993D01*
X106293554Y-76241986D01*
X106343796Y-76107279D01*
X106343798Y-76107272D01*
X106350199Y-76047744D01*
X106350200Y-76047727D01*
X106350200Y-74749900D01*
X103100200Y-74749900D01*
X103100200Y-76499900D01*
X102600200Y-76499900D01*
X102600200Y-74749900D01*
X99350200Y-74749900D01*
X99350200Y-76047744D01*
X96145583Y-76047744D01*
X96129180Y-75902168D01*
X96066935Y-75629455D01*
X95974547Y-75365425D01*
X95853178Y-75113400D01*
X95704355Y-74876548D01*
X95618414Y-74768782D01*
X95529948Y-74657849D01*
X95332150Y-74460051D01*
X95265887Y-74407208D01*
X95113452Y-74285645D01*
X94876600Y-74136822D01*
X94876597Y-74136820D01*
X94624578Y-74015454D01*
X94360556Y-73923068D01*
X94360548Y-73923065D01*
X94156010Y-73876381D01*
X94087832Y-73860820D01*
X94087828Y-73860819D01*
X94087819Y-73860818D01*
X93809867Y-73829500D01*
X93809863Y-73829500D01*
X93530137Y-73829500D01*
X93530133Y-73829500D01*
X93252180Y-73860818D01*
X93252168Y-73860820D01*
X92979451Y-73923065D01*
X92979443Y-73923068D01*
X92715421Y-74015454D01*
X92463402Y-74136820D01*
X92226549Y-74285644D01*
X92007849Y-74460051D01*
X91810051Y-74657849D01*
X91635644Y-74876549D01*
X91486820Y-75113402D01*
X91365454Y-75365421D01*
X91273068Y-75629443D01*
X91273065Y-75629451D01*
X91210820Y-75902168D01*
X91210818Y-75902179D01*
X91204412Y-75959030D01*
X91177344Y-76023444D01*
X91119749Y-76062998D01*
X91049912Y-76065135D01*
X90993511Y-76032826D01*
X90011819Y-75051134D01*
X89978334Y-74989811D01*
X89975500Y-74963453D01*
X89975500Y-71979983D01*
X90724500Y-71979983D01*
X90724500Y-72580001D01*
X90724501Y-72580019D01*
X90735000Y-72682796D01*
X90735001Y-72682799D01*
X90790185Y-72849331D01*
X90790187Y-72849336D01*
X90792624Y-72853287D01*
X90882288Y-72998656D01*
X91006344Y-73122712D01*
X91155666Y-73214814D01*
X91322203Y-73269999D01*
X91424991Y-73280500D01*
X93725008Y-73280499D01*
X93827797Y-73269999D01*
X93994334Y-73214814D01*
X94143656Y-73122712D01*
X94267712Y-72998656D01*
X94296456Y-72952055D01*
X99350200Y-72952055D01*
X99350200Y-74249900D01*
X102600200Y-74249900D01*
X103100200Y-74249900D01*
X106350200Y-74249900D01*
X106350200Y-72952072D01*
X106350199Y-72952055D01*
X106343798Y-72892527D01*
X106343796Y-72892520D01*
X106293554Y-72757813D01*
X106293550Y-72757806D01*
X106207390Y-72642712D01*
X106207387Y-72642709D01*
X106092293Y-72556549D01*
X106092286Y-72556545D01*
X105957579Y-72506303D01*
X105957572Y-72506301D01*
X105898044Y-72499900D01*
X103100200Y-72499900D01*
X103100200Y-74249900D01*
X102600200Y-74249900D01*
X102600200Y-72499900D01*
X99802355Y-72499900D01*
X99742827Y-72506301D01*
X99742820Y-72506303D01*
X99608113Y-72556545D01*
X99608106Y-72556549D01*
X99493012Y-72642709D01*
X99493009Y-72642712D01*
X99406849Y-72757806D01*
X99406845Y-72757813D01*
X99356603Y-72892520D01*
X99356601Y-72892527D01*
X99350200Y-72952055D01*
X94296456Y-72952055D01*
X94359814Y-72849334D01*
X94414999Y-72682797D01*
X94425500Y-72580009D01*
X94425499Y-71979992D01*
X94417087Y-71897648D01*
X94414999Y-71877203D01*
X94414998Y-71877200D01*
X94395320Y-71817816D01*
X94359814Y-71710666D01*
X94267712Y-71561344D01*
X94143656Y-71437288D01*
X94028916Y-71366516D01*
X93994336Y-71345187D01*
X93994331Y-71345185D01*
X93970629Y-71337331D01*
X93827797Y-71290001D01*
X93827795Y-71290000D01*
X93725010Y-71279500D01*
X91424998Y-71279500D01*
X91424981Y-71279501D01*
X91322203Y-71290000D01*
X91322200Y-71290001D01*
X91155668Y-71345185D01*
X91155663Y-71345187D01*
X91006342Y-71437289D01*
X90882289Y-71561342D01*
X90790187Y-71710663D01*
X90790185Y-71710668D01*
X90762349Y-71794670D01*
X90735001Y-71877203D01*
X90735001Y-71877204D01*
X90735000Y-71877204D01*
X90724500Y-71979983D01*
X89975500Y-71979983D01*
X89975500Y-71354500D01*
X89995185Y-71287461D01*
X90047989Y-71241706D01*
X90099500Y-71230500D01*
X90140686Y-71230500D01*
X90140694Y-71230500D01*
X90177569Y-71227598D01*
X90177571Y-71227597D01*
X90177573Y-71227597D01*
X90219191Y-71215505D01*
X90335398Y-71181744D01*
X90476865Y-71098081D01*
X90593081Y-70981865D01*
X90676744Y-70840398D01*
X90722598Y-70682569D01*
X90725500Y-70645694D01*
X90725500Y-70214306D01*
X90722598Y-70177431D01*
X90714483Y-70149500D01*
X90676745Y-70019606D01*
X90676745Y-70019605D01*
X90676744Y-70019603D01*
X90676744Y-70019602D01*
X90646001Y-69967619D01*
X90628820Y-69899896D01*
X90650981Y-69833634D01*
X90705447Y-69789871D01*
X90752735Y-69780500D01*
X93942744Y-69780500D01*
X94009783Y-69800185D01*
X94030425Y-69816819D01*
X94053877Y-69840271D01*
X94110545Y-69878135D01*
X94193177Y-69933348D01*
X94347958Y-69997461D01*
X94512268Y-70030144D01*
X94512272Y-70030145D01*
X94512273Y-70030145D01*
X94679808Y-70030145D01*
X94679809Y-70030144D01*
X94844122Y-69997461D01*
X94998903Y-69933348D01*
X95138202Y-69840271D01*
X95256666Y-69721807D01*
X95349743Y-69582508D01*
X95413856Y-69427727D01*
X95446540Y-69263412D01*
X95446540Y-69095878D01*
X95413856Y-68931563D01*
X95412144Y-68927431D01*
X95409876Y-68921954D01*
X95402406Y-68852485D01*
X95433680Y-68790005D01*
X95493769Y-68754352D01*
X95524436Y-68750500D01*
X99030192Y-68750500D01*
X99097231Y-68770185D01*
X99142986Y-68822989D01*
X99152930Y-68892147D01*
X99123905Y-68955703D01*
X99117873Y-68962181D01*
X97960708Y-70119345D01*
X97899385Y-70152830D01*
X97897219Y-70153281D01*
X97751923Y-70182182D01*
X97751917Y-70182184D01*
X97597139Y-70246295D01*
X97457837Y-70339373D01*
X97339373Y-70457837D01*
X97246295Y-70597139D01*
X97182184Y-70751917D01*
X97182182Y-70751925D01*
X97149500Y-70916228D01*
X97149500Y-71083771D01*
X97182182Y-71248074D01*
X97182184Y-71248082D01*
X97246295Y-71402860D01*
X97339373Y-71542162D01*
X97457837Y-71660626D01*
X97532723Y-71710663D01*
X97597137Y-71753703D01*
X97751918Y-71817816D01*
X97916228Y-71850499D01*
X97916232Y-71850500D01*
X97916233Y-71850500D01*
X98083768Y-71850500D01*
X98083769Y-71850499D01*
X98248082Y-71817816D01*
X98402863Y-71753703D01*
X98542162Y-71660626D01*
X98660626Y-71542162D01*
X98753703Y-71402863D01*
X98817816Y-71248082D01*
X98846718Y-71102781D01*
X98879102Y-71040870D01*
X98880598Y-71039347D01*
X99883127Y-70036817D01*
X99944450Y-70003333D01*
X99970808Y-70000499D01*
X105898071Y-70000499D01*
X105898072Y-70000499D01*
X105957683Y-69994091D01*
X106092531Y-69943796D01*
X106207746Y-69857546D01*
X106293996Y-69742331D01*
X106344291Y-69607483D01*
X106350700Y-69547873D01*
X106350700Y-69024500D01*
X106370385Y-68957461D01*
X106423189Y-68911706D01*
X106474700Y-68900500D01*
X109088693Y-68900500D01*
X109088694Y-68900499D01*
X109146682Y-68888964D01*
X109262658Y-68865896D01*
X109262661Y-68865894D01*
X109262666Y-68865894D01*
X109426547Y-68798013D01*
X109574035Y-68699464D01*
X109699464Y-68574035D01*
X109798013Y-68426547D01*
X109865894Y-68262666D01*
X109881261Y-68185414D01*
X109900499Y-68088695D01*
X109900500Y-68088693D01*
X109900500Y-67911306D01*
X109900499Y-67911304D01*
X109865896Y-67737341D01*
X109865893Y-67737332D01*
X109798016Y-67573459D01*
X109798009Y-67573446D01*
X109699464Y-67425965D01*
X109699461Y-67425961D01*
X109574038Y-67300538D01*
X109574034Y-67300535D01*
X109426553Y-67201990D01*
X109426540Y-67201983D01*
X109262667Y-67134106D01*
X109262658Y-67134103D01*
X109088694Y-67099500D01*
X109088691Y-67099500D01*
X106474699Y-67099500D01*
X106407660Y-67079815D01*
X106361905Y-67027011D01*
X106350699Y-66975500D01*
X106350699Y-66452129D01*
X106350698Y-66452123D01*
X106350697Y-66452116D01*
X106344291Y-66392517D01*
X106343983Y-66391692D01*
X106293997Y-66257671D01*
X106293993Y-66257664D01*
X106207747Y-66142455D01*
X106207744Y-66142452D01*
X106092535Y-66056206D01*
X106092528Y-66056202D01*
X105957682Y-66005908D01*
X105957683Y-66005908D01*
X105898083Y-65999501D01*
X105898081Y-65999500D01*
X105898073Y-65999500D01*
X105898064Y-65999500D01*
X99802329Y-65999500D01*
X99802323Y-65999501D01*
X99742716Y-66005908D01*
X99607871Y-66056202D01*
X99607864Y-66056206D01*
X99492655Y-66142452D01*
X99492652Y-66142455D01*
X99406406Y-66257664D01*
X99406402Y-66257671D01*
X99356108Y-66392517D01*
X99353068Y-66420798D01*
X99349701Y-66452123D01*
X99349700Y-66452135D01*
X99349700Y-67125500D01*
X99330015Y-67192539D01*
X99277211Y-67238294D01*
X99225700Y-67249500D01*
X90795153Y-67249500D01*
X90728114Y-67229815D01*
X90682359Y-67177011D01*
X90672415Y-67107853D01*
X90676077Y-67090905D01*
X90722099Y-66932494D01*
X90722100Y-66932488D01*
X90722295Y-66930001D01*
X90722295Y-66930000D01*
X88027705Y-66930000D01*
X88027704Y-66930001D01*
X88027899Y-66932486D01*
X88073718Y-67090198D01*
X88161288Y-67238271D01*
X88159285Y-67239455D01*
X88180551Y-67293645D01*
X88166860Y-67362160D01*
X88160671Y-67371788D01*
X88073255Y-67519603D01*
X88073254Y-67519606D01*
X88027402Y-67677426D01*
X88027401Y-67677432D01*
X88024500Y-67714298D01*
X68760600Y-67714298D01*
X68760600Y-64500132D01*
X72249500Y-64500132D01*
X72249500Y-64779867D01*
X72280818Y-65057819D01*
X72280820Y-65057831D01*
X72343065Y-65330548D01*
X72343068Y-65330556D01*
X72435454Y-65594578D01*
X72556820Y-65846597D01*
X72556822Y-65846600D01*
X72705645Y-66083452D01*
X72880052Y-66302151D01*
X73077849Y-66499948D01*
X73296548Y-66674355D01*
X73533400Y-66823178D01*
X73785425Y-66944547D01*
X73927014Y-66994091D01*
X74049443Y-67036931D01*
X74049451Y-67036934D01*
X74049454Y-67036934D01*
X74049455Y-67036935D01*
X74322168Y-67099180D01*
X74600132Y-67130499D01*
X74600133Y-67130500D01*
X74600137Y-67130500D01*
X74879867Y-67130500D01*
X74879867Y-67130499D01*
X75157832Y-67099180D01*
X75430545Y-67036935D01*
X75694575Y-66944547D01*
X75946600Y-66823178D01*
X76183452Y-66674355D01*
X76402151Y-66499948D01*
X76472101Y-66429998D01*
X88027704Y-66429998D01*
X88027705Y-66430000D01*
X89125000Y-66430000D01*
X89625000Y-66430000D01*
X90722295Y-66430000D01*
X90722295Y-66429998D01*
X90722100Y-66427513D01*
X90676281Y-66269801D01*
X90592685Y-66128447D01*
X90592678Y-66128438D01*
X90476561Y-66012321D01*
X90476552Y-66012314D01*
X90335196Y-65928717D01*
X90335193Y-65928716D01*
X90177495Y-65882900D01*
X90177489Y-65882899D01*
X90140649Y-65880000D01*
X89625000Y-65880000D01*
X89625000Y-66430000D01*
X89125000Y-66430000D01*
X89125000Y-65880000D01*
X88609350Y-65880000D01*
X88572510Y-65882899D01*
X88572504Y-65882900D01*
X88414806Y-65928716D01*
X88414803Y-65928717D01*
X88273447Y-66012314D01*
X88273438Y-66012321D01*
X88157321Y-66128438D01*
X88157314Y-66128447D01*
X88073718Y-66269801D01*
X88027899Y-66427513D01*
X88027704Y-66429998D01*
X76472101Y-66429998D01*
X76599948Y-66302151D01*
X76774355Y-66083452D01*
X76923178Y-65846600D01*
X77044547Y-65594575D01*
X77136935Y-65330545D01*
X77199180Y-65057832D01*
X77230500Y-64779863D01*
X77230500Y-64529983D01*
X90724500Y-64529983D01*
X90724500Y-65130001D01*
X90724501Y-65130019D01*
X90735000Y-65232796D01*
X90735001Y-65232799D01*
X90767395Y-65330556D01*
X90790186Y-65399334D01*
X90882288Y-65548656D01*
X91006344Y-65672712D01*
X91155666Y-65764814D01*
X91322203Y-65819999D01*
X91424991Y-65830500D01*
X93725008Y-65830499D01*
X93827797Y-65819999D01*
X93994334Y-65764814D01*
X94143656Y-65672712D01*
X94267712Y-65548656D01*
X94359814Y-65399334D01*
X94414999Y-65232797D01*
X94425500Y-65130009D01*
X94425500Y-65020713D01*
X141181163Y-65020713D01*
X141181163Y-65233287D01*
X141214417Y-65443243D01*
X141248668Y-65548657D01*
X141280107Y-65645414D01*
X141376614Y-65834820D01*
X141501553Y-66006786D01*
X141651876Y-66157109D01*
X141823845Y-66282050D01*
X141832609Y-66286516D01*
X141883405Y-66334491D01*
X141900199Y-66402312D01*
X141877661Y-66468447D01*
X141832609Y-66507484D01*
X141823845Y-66511949D01*
X141651876Y-66636890D01*
X141501553Y-66787213D01*
X141376614Y-66959179D01*
X141280107Y-67148585D01*
X141214416Y-67350760D01*
X141202505Y-67425965D01*
X141181163Y-67560713D01*
X141181163Y-67773287D01*
X141214417Y-67983243D01*
X141279182Y-68182569D01*
X141280107Y-68185414D01*
X141376614Y-68374820D01*
X141501553Y-68546786D01*
X141651876Y-68697109D01*
X141823845Y-68822050D01*
X141832609Y-68826516D01*
X141883405Y-68874491D01*
X141900199Y-68942312D01*
X141877661Y-69008447D01*
X141832609Y-69047484D01*
X141823845Y-69051949D01*
X141651876Y-69176890D01*
X141501553Y-69327213D01*
X141376614Y-69499179D01*
X141280107Y-69688585D01*
X141214416Y-69890760D01*
X141181163Y-70100713D01*
X141181163Y-70313286D01*
X141204057Y-70457837D01*
X141214417Y-70523243D01*
X141266185Y-70682569D01*
X141280107Y-70725414D01*
X141376614Y-70914820D01*
X141501553Y-71086786D01*
X141651876Y-71237109D01*
X141823845Y-71362050D01*
X141832609Y-71366516D01*
X141883405Y-71414491D01*
X141900199Y-71482312D01*
X141877661Y-71548447D01*
X141832609Y-71587484D01*
X141823845Y-71591949D01*
X141651876Y-71716890D01*
X141501553Y-71867213D01*
X141376614Y-72039179D01*
X141280107Y-72228585D01*
X141214416Y-72430760D01*
X141181163Y-72640713D01*
X141181163Y-72853286D01*
X141204187Y-72998657D01*
X141214417Y-73063243D01*
X141268470Y-73229601D01*
X141280107Y-73265414D01*
X141376614Y-73454820D01*
X141501553Y-73626786D01*
X141651876Y-73777109D01*
X141823842Y-73902048D01*
X141823844Y-73902049D01*
X141823847Y-73902051D01*
X141833156Y-73906794D01*
X141883953Y-73954766D01*
X141900750Y-74022587D01*
X141878215Y-74088722D01*
X141833165Y-74127762D01*
X141824106Y-74132378D01*
X141652203Y-74257272D01*
X141652198Y-74257276D01*
X141501939Y-74407535D01*
X141501935Y-74407540D01*
X141377042Y-74579442D01*
X141280567Y-74768782D01*
X141214905Y-74970870D01*
X141214905Y-74970873D01*
X141204432Y-75037000D01*
X142098651Y-75037000D01*
X142065738Y-75094007D01*
X142031663Y-75221174D01*
X142031663Y-75352826D01*
X142065738Y-75479993D01*
X142098651Y-75537000D01*
X141204432Y-75537000D01*
X141214905Y-75603126D01*
X141214905Y-75603129D01*
X141280567Y-75805217D01*
X141377042Y-75994557D01*
X141501935Y-76166459D01*
X141501939Y-76166464D01*
X141652198Y-76316723D01*
X141652203Y-76316727D01*
X141824107Y-76441622D01*
X141833158Y-76446234D01*
X141883955Y-76494208D01*
X141900750Y-76562029D01*
X141878213Y-76628164D01*
X141833162Y-76667202D01*
X141823845Y-76671949D01*
X141651876Y-76796890D01*
X141501553Y-76947213D01*
X141376614Y-77119179D01*
X141280107Y-77308585D01*
X141214416Y-77510760D01*
X141184523Y-77699500D01*
X141181163Y-77720713D01*
X141181163Y-77933287D01*
X141214417Y-78143243D01*
X141271324Y-78318385D01*
X141280107Y-78345414D01*
X141376614Y-78534820D01*
X141501553Y-78706786D01*
X141651876Y-78857109D01*
X141823842Y-78982048D01*
X141823844Y-78982049D01*
X141823847Y-78982051D01*
X142013251Y-79078557D01*
X142215420Y-79144246D01*
X142425376Y-79177500D01*
X142425377Y-79177500D01*
X142637949Y-79177500D01*
X142637950Y-79177500D01*
X142847906Y-79144246D01*
X143050075Y-79078557D01*
X143239479Y-78982051D01*
X143261452Y-78966086D01*
X143411449Y-78857109D01*
X143411451Y-78857106D01*
X143411455Y-78857104D01*
X143561767Y-78706792D01*
X143561769Y-78706788D01*
X143561772Y-78706786D01*
X143686711Y-78534820D01*
X143686710Y-78534820D01*
X143686714Y-78534816D01*
X143783220Y-78345412D01*
X143848909Y-78143243D01*
X143882163Y-77933287D01*
X143882163Y-77720713D01*
X143848909Y-77510757D01*
X143783220Y-77308588D01*
X143686714Y-77119184D01*
X143686712Y-77119181D01*
X143686711Y-77119179D01*
X143561772Y-76947213D01*
X143411449Y-76796890D01*
X143239480Y-76671949D01*
X143230167Y-76667204D01*
X143179370Y-76619230D01*
X143162575Y-76551409D01*
X143185112Y-76485274D01*
X143230170Y-76446232D01*
X143239221Y-76441620D01*
X143411122Y-76316727D01*
X143411127Y-76316723D01*
X143561386Y-76166464D01*
X143561390Y-76166459D01*
X143686283Y-75994557D01*
X143782758Y-75805217D01*
X143848420Y-75603129D01*
X143848420Y-75603126D01*
X143858894Y-75537000D01*
X142964675Y-75537000D01*
X142997588Y-75479993D01*
X143031663Y-75352826D01*
X143031663Y-75221174D01*
X142997588Y-75094007D01*
X142964675Y-75037000D01*
X143858894Y-75037000D01*
X143848420Y-74970873D01*
X143848420Y-74970870D01*
X143782758Y-74768782D01*
X143686283Y-74579442D01*
X143561390Y-74407540D01*
X143561386Y-74407535D01*
X143411127Y-74257276D01*
X143411122Y-74257272D01*
X143239218Y-74132377D01*
X143230163Y-74127763D01*
X143179369Y-74079788D01*
X143162575Y-74011966D01*
X143185114Y-73945832D01*
X143230171Y-73906793D01*
X143239479Y-73902051D01*
X143339338Y-73829500D01*
X143411449Y-73777109D01*
X143411451Y-73777106D01*
X143411455Y-73777104D01*
X143561767Y-73626792D01*
X143561769Y-73626788D01*
X143561772Y-73626786D01*
X143686711Y-73454820D01*
X143686710Y-73454820D01*
X143686714Y-73454816D01*
X143783220Y-73265412D01*
X143848909Y-73063243D01*
X143882163Y-72853287D01*
X143882163Y-72640713D01*
X143848909Y-72430757D01*
X143783220Y-72228588D01*
X143686714Y-72039184D01*
X143686712Y-72039181D01*
X143686711Y-72039179D01*
X143561772Y-71867213D01*
X143411449Y-71716890D01*
X143239483Y-71591951D01*
X143238778Y-71591591D01*
X143230717Y-71587485D01*
X143179922Y-71539512D01*
X143163126Y-71471692D01*
X143185662Y-71405556D01*
X143230717Y-71366515D01*
X143239479Y-71362051D01*
X143299579Y-71318386D01*
X143411449Y-71237109D01*
X143411451Y-71237106D01*
X143411455Y-71237104D01*
X143561767Y-71086792D01*
X143561769Y-71086788D01*
X143561772Y-71086786D01*
X143686711Y-70914820D01*
X143686710Y-70914820D01*
X143686714Y-70914816D01*
X143783220Y-70725412D01*
X143848909Y-70523243D01*
X143882163Y-70313287D01*
X143882163Y-70100713D01*
X143848909Y-69890757D01*
X143783220Y-69688588D01*
X143686714Y-69499184D01*
X143686712Y-69499181D01*
X143686711Y-69499179D01*
X143561772Y-69327213D01*
X143411449Y-69176890D01*
X143239483Y-69051951D01*
X143238778Y-69051591D01*
X143230717Y-69047485D01*
X143179922Y-68999512D01*
X143163126Y-68931692D01*
X143185662Y-68865556D01*
X143230717Y-68826515D01*
X143239479Y-68822051D01*
X143311668Y-68769603D01*
X143411449Y-68697109D01*
X143411451Y-68697106D01*
X143411455Y-68697104D01*
X143561767Y-68546792D01*
X143561769Y-68546788D01*
X143561772Y-68546786D01*
X143686711Y-68374820D01*
X143686710Y-68374820D01*
X143686714Y-68374816D01*
X143783220Y-68185412D01*
X143848909Y-67983243D01*
X143882163Y-67773287D01*
X143882163Y-67560713D01*
X153881163Y-67560713D01*
X153881163Y-67773287D01*
X153914417Y-67983243D01*
X153979182Y-68182569D01*
X153980107Y-68185414D01*
X154076614Y-68374820D01*
X154201553Y-68546786D01*
X154351876Y-68697109D01*
X154523845Y-68822050D01*
X154532609Y-68826516D01*
X154583405Y-68874491D01*
X154600199Y-68942312D01*
X154577661Y-69008447D01*
X154532609Y-69047484D01*
X154523845Y-69051949D01*
X154351876Y-69176890D01*
X154201553Y-69327213D01*
X154076614Y-69499179D01*
X153980107Y-69688585D01*
X153914416Y-69890760D01*
X153881163Y-70100713D01*
X153881163Y-70313286D01*
X153904057Y-70457837D01*
X153914417Y-70523243D01*
X153966185Y-70682569D01*
X153980107Y-70725414D01*
X154076614Y-70914820D01*
X154201553Y-71086786D01*
X154351876Y-71237109D01*
X154523845Y-71362050D01*
X154532609Y-71366516D01*
X154583405Y-71414491D01*
X154600199Y-71482312D01*
X154577661Y-71548447D01*
X154532609Y-71587484D01*
X154523845Y-71591949D01*
X154351876Y-71716890D01*
X154201553Y-71867213D01*
X154076614Y-72039179D01*
X153980107Y-72228585D01*
X153914416Y-72430760D01*
X153881163Y-72640713D01*
X153881163Y-72853286D01*
X153904187Y-72998657D01*
X153914417Y-73063243D01*
X153968470Y-73229601D01*
X153980107Y-73265414D01*
X154076614Y-73454820D01*
X154201553Y-73626786D01*
X154351876Y-73777109D01*
X154523845Y-73902050D01*
X154532609Y-73906516D01*
X154583405Y-73954491D01*
X154600199Y-74022312D01*
X154577661Y-74088447D01*
X154532609Y-74127484D01*
X154523845Y-74131949D01*
X154351876Y-74256890D01*
X154201553Y-74407213D01*
X154076614Y-74579179D01*
X153980107Y-74768585D01*
X153914416Y-74970760D01*
X153881163Y-75180713D01*
X153881163Y-75393286D01*
X153905051Y-75544113D01*
X153914417Y-75603243D01*
X153962470Y-75751135D01*
X153980107Y-75805414D01*
X154076614Y-75994820D01*
X154201553Y-76166786D01*
X154351876Y-76317109D01*
X154523845Y-76442050D01*
X154532609Y-76446516D01*
X154583405Y-76494491D01*
X154600199Y-76562312D01*
X154577661Y-76628447D01*
X154532609Y-76667484D01*
X154523845Y-76671949D01*
X154351876Y-76796890D01*
X154201553Y-76947213D01*
X154076614Y-77119179D01*
X153980107Y-77308585D01*
X153914416Y-77510760D01*
X153884523Y-77699500D01*
X153881163Y-77720713D01*
X153881163Y-77933287D01*
X153914417Y-78143243D01*
X153971324Y-78318385D01*
X153980107Y-78345414D01*
X154076614Y-78534820D01*
X154201553Y-78706786D01*
X154351876Y-78857109D01*
X154523842Y-78982048D01*
X154523844Y-78982049D01*
X154523847Y-78982051D01*
X154713251Y-79078557D01*
X154915420Y-79144246D01*
X155125376Y-79177500D01*
X155125377Y-79177500D01*
X155337949Y-79177500D01*
X155337950Y-79177500D01*
X155547906Y-79144246D01*
X155750075Y-79078557D01*
X155939479Y-78982051D01*
X155961452Y-78966086D01*
X156111449Y-78857109D01*
X156111451Y-78857106D01*
X156111455Y-78857104D01*
X156261767Y-78706792D01*
X156261769Y-78706788D01*
X156261772Y-78706786D01*
X156386711Y-78534820D01*
X156386710Y-78534820D01*
X156386714Y-78534816D01*
X156483220Y-78345412D01*
X156548909Y-78143243D01*
X156582163Y-77933287D01*
X156582163Y-77720713D01*
X156548909Y-77510757D01*
X156483220Y-77308588D01*
X156386714Y-77119184D01*
X156386712Y-77119181D01*
X156386711Y-77119179D01*
X156261772Y-76947213D01*
X156111449Y-76796890D01*
X155939483Y-76671951D01*
X155938778Y-76671591D01*
X155930717Y-76667485D01*
X155879922Y-76619512D01*
X155863126Y-76551692D01*
X155885662Y-76485556D01*
X155930717Y-76446515D01*
X155939479Y-76442051D01*
X155961452Y-76426086D01*
X156111449Y-76317109D01*
X156111451Y-76317106D01*
X156111455Y-76317104D01*
X156261767Y-76166792D01*
X156261769Y-76166788D01*
X156261772Y-76166786D01*
X156386711Y-75994820D01*
X156386710Y-75994820D01*
X156386714Y-75994816D01*
X156483220Y-75805412D01*
X156548909Y-75603243D01*
X156582163Y-75393287D01*
X156582163Y-75180713D01*
X156548909Y-74970757D01*
X156483220Y-74768588D01*
X156386714Y-74579184D01*
X156386712Y-74579181D01*
X156386711Y-74579179D01*
X156261772Y-74407213D01*
X156111449Y-74256890D01*
X155939483Y-74131951D01*
X155931263Y-74127763D01*
X155930717Y-74127485D01*
X155879922Y-74079512D01*
X155863126Y-74011692D01*
X155885662Y-73945556D01*
X155930717Y-73906515D01*
X155939479Y-73902051D01*
X156039338Y-73829500D01*
X156111449Y-73777109D01*
X156111451Y-73777106D01*
X156111455Y-73777104D01*
X156261767Y-73626792D01*
X156261769Y-73626788D01*
X156261772Y-73626786D01*
X156386711Y-73454820D01*
X156386710Y-73454820D01*
X156386714Y-73454816D01*
X156483220Y-73265412D01*
X156548909Y-73063243D01*
X156582163Y-72853287D01*
X156582163Y-72640713D01*
X156548909Y-72430757D01*
X156483220Y-72228588D01*
X156386714Y-72039184D01*
X156333297Y-71965661D01*
X156333296Y-71965658D01*
X156283884Y-71897648D01*
X162888210Y-71897648D01*
X162888210Y-72102351D01*
X162920232Y-72304534D01*
X162983491Y-72499223D01*
X163047401Y-72624653D01*
X163056603Y-72642712D01*
X163076425Y-72681613D01*
X163196738Y-72847213D01*
X163341496Y-72991971D01*
X163496459Y-73104556D01*
X163507100Y-73112287D01*
X163588209Y-73153614D01*
X163689486Y-73205218D01*
X163689488Y-73205218D01*
X163689491Y-73205220D01*
X163764528Y-73229601D01*
X163884175Y-73268477D01*
X163960085Y-73280500D01*
X164086358Y-73300500D01*
X164086359Y-73300500D01*
X164291061Y-73300500D01*
X164291062Y-73300500D01*
X164493244Y-73268477D01*
X164687929Y-73205220D01*
X164870320Y-73112287D01*
X165026720Y-72998657D01*
X165035923Y-72991971D01*
X165035925Y-72991968D01*
X165035929Y-72991966D01*
X165180676Y-72847219D01*
X165180678Y-72847215D01*
X165180681Y-72847213D01*
X165245638Y-72757806D01*
X165300997Y-72681610D01*
X165393930Y-72499219D01*
X165457187Y-72304534D01*
X165489210Y-72102352D01*
X165489210Y-71897648D01*
X165484390Y-71867214D01*
X165457187Y-71695465D01*
X165422102Y-71587486D01*
X165393930Y-71500781D01*
X165393928Y-71500778D01*
X165393928Y-71500776D01*
X165344038Y-71402863D01*
X165300997Y-71318390D01*
X165289808Y-71302989D01*
X165180681Y-71152786D01*
X165035923Y-71008028D01*
X164870323Y-70887715D01*
X164870322Y-70887714D01*
X164870320Y-70887713D01*
X164813363Y-70858691D01*
X164687933Y-70794781D01*
X164493244Y-70731522D01*
X164318705Y-70703878D01*
X164291062Y-70699500D01*
X164086358Y-70699500D01*
X164062039Y-70703351D01*
X163884175Y-70731522D01*
X163689486Y-70794781D01*
X163507096Y-70887715D01*
X163341496Y-71008028D01*
X163196738Y-71152786D01*
X163076425Y-71318386D01*
X162983491Y-71500776D01*
X162920232Y-71695465D01*
X162888210Y-71897648D01*
X156283884Y-71897648D01*
X156261772Y-71867214D01*
X156261768Y-71867209D01*
X156111449Y-71716890D01*
X155939483Y-71591951D01*
X155938778Y-71591591D01*
X155930717Y-71587485D01*
X155879922Y-71539512D01*
X155863126Y-71471692D01*
X155885662Y-71405556D01*
X155930717Y-71366515D01*
X155939479Y-71362051D01*
X155999579Y-71318386D01*
X156111449Y-71237109D01*
X156111451Y-71237106D01*
X156111455Y-71237104D01*
X156261767Y-71086792D01*
X156261769Y-71086788D01*
X156261772Y-71086786D01*
X156386711Y-70914820D01*
X156386710Y-70914820D01*
X156386714Y-70914816D01*
X156483220Y-70725412D01*
X156548909Y-70523243D01*
X156582163Y-70313287D01*
X156582163Y-70100713D01*
X156548909Y-69890757D01*
X156483220Y-69688588D01*
X156386714Y-69499184D01*
X156386712Y-69499181D01*
X156386711Y-69499179D01*
X156261772Y-69327213D01*
X156111449Y-69176890D01*
X155939483Y-69051951D01*
X155938778Y-69051591D01*
X155930717Y-69047485D01*
X155879922Y-68999512D01*
X155863126Y-68931692D01*
X155885662Y-68865556D01*
X155930717Y-68826515D01*
X155939479Y-68822051D01*
X156011668Y-68769603D01*
X156111449Y-68697109D01*
X156111451Y-68697106D01*
X156111455Y-68697104D01*
X156261767Y-68546792D01*
X156261769Y-68546788D01*
X156261772Y-68546786D01*
X156386711Y-68374820D01*
X156386710Y-68374820D01*
X156386714Y-68374816D01*
X156483220Y-68185412D01*
X156548909Y-67983243D01*
X156582163Y-67773287D01*
X156582163Y-67560713D01*
X156548909Y-67350757D01*
X156483220Y-67148588D01*
X156386714Y-66959184D01*
X156386712Y-66959181D01*
X156386711Y-66959179D01*
X156261772Y-66787213D01*
X156124326Y-66649767D01*
X156090841Y-66588444D01*
X156095825Y-66518752D01*
X156137697Y-66462819D01*
X156168670Y-66445906D01*
X156235994Y-66420796D01*
X156351209Y-66334546D01*
X156437459Y-66219331D01*
X156487754Y-66084483D01*
X156494163Y-66024873D01*
X156494162Y-64229128D01*
X156487754Y-64169517D01*
X156458894Y-64092139D01*
X156443974Y-64052135D01*
X160849500Y-64052135D01*
X160849500Y-66547870D01*
X160849501Y-66547876D01*
X160855908Y-66607483D01*
X160906202Y-66742328D01*
X160906206Y-66742335D01*
X160992452Y-66857544D01*
X160992455Y-66857547D01*
X161107664Y-66943793D01*
X161107671Y-66943797D01*
X161242517Y-66994091D01*
X161242516Y-66994091D01*
X161249444Y-66994835D01*
X161302127Y-67000500D01*
X163797872Y-67000499D01*
X163857483Y-66994091D01*
X163992331Y-66943796D01*
X164107546Y-66857546D01*
X164193796Y-66742331D01*
X164244091Y-66607483D01*
X164250500Y-66547873D01*
X164250499Y-64052135D01*
X174630500Y-64052135D01*
X174630500Y-66547870D01*
X174630501Y-66547876D01*
X174636908Y-66607483D01*
X174687202Y-66742328D01*
X174687206Y-66742335D01*
X174773452Y-66857544D01*
X174773455Y-66857547D01*
X174888664Y-66943793D01*
X174888671Y-66943797D01*
X175023517Y-66994091D01*
X175023516Y-66994091D01*
X175030444Y-66994835D01*
X175083127Y-67000500D01*
X177578872Y-67000499D01*
X177638483Y-66994091D01*
X177773331Y-66943796D01*
X177888546Y-66857546D01*
X177974796Y-66742331D01*
X178025091Y-66607483D01*
X178031500Y-66547873D01*
X178031499Y-64052128D01*
X178025091Y-63992517D01*
X178017420Y-63971951D01*
X177974797Y-63857671D01*
X177974793Y-63857664D01*
X177888547Y-63742455D01*
X177888544Y-63742452D01*
X177773335Y-63656206D01*
X177773328Y-63656202D01*
X177638482Y-63605908D01*
X177638483Y-63605908D01*
X177578883Y-63599501D01*
X177578881Y-63599500D01*
X177578873Y-63599500D01*
X177578864Y-63599500D01*
X175083129Y-63599500D01*
X175083123Y-63599501D01*
X175023516Y-63605908D01*
X174888671Y-63656202D01*
X174888664Y-63656206D01*
X174773455Y-63742452D01*
X174773452Y-63742455D01*
X174687206Y-63857664D01*
X174687202Y-63857671D01*
X174636908Y-63992517D01*
X174630501Y-64052116D01*
X174630501Y-64052123D01*
X174630500Y-64052135D01*
X164250499Y-64052135D01*
X164250499Y-64052128D01*
X164244091Y-63992517D01*
X164236420Y-63971951D01*
X164193797Y-63857671D01*
X164193793Y-63857664D01*
X164107547Y-63742455D01*
X164107544Y-63742452D01*
X163992335Y-63656206D01*
X163992328Y-63656202D01*
X163857482Y-63605908D01*
X163857483Y-63605908D01*
X163797883Y-63599501D01*
X163797881Y-63599500D01*
X163797873Y-63599500D01*
X163797864Y-63599500D01*
X161302129Y-63599500D01*
X161302123Y-63599501D01*
X161242516Y-63605908D01*
X161107671Y-63656202D01*
X161107664Y-63656206D01*
X160992455Y-63742452D01*
X160992452Y-63742455D01*
X160906206Y-63857664D01*
X160906202Y-63857671D01*
X160855908Y-63992517D01*
X160849501Y-64052116D01*
X160849501Y-64052123D01*
X160849500Y-64052135D01*
X156443974Y-64052135D01*
X156437460Y-64034671D01*
X156437456Y-64034664D01*
X156351210Y-63919455D01*
X156351207Y-63919452D01*
X156235998Y-63833206D01*
X156235991Y-63833202D01*
X156101145Y-63782908D01*
X156101146Y-63782908D01*
X156041546Y-63776501D01*
X156041544Y-63776500D01*
X156041536Y-63776500D01*
X156041527Y-63776500D01*
X154421792Y-63776500D01*
X154421786Y-63776501D01*
X154362179Y-63782908D01*
X154227334Y-63833202D01*
X154227327Y-63833206D01*
X154112118Y-63919452D01*
X154112115Y-63919455D01*
X154025869Y-64034664D01*
X154025865Y-64034671D01*
X153975571Y-64169517D01*
X153969911Y-64222168D01*
X153969164Y-64229123D01*
X153969163Y-64229135D01*
X153969163Y-66024870D01*
X153969164Y-66024876D01*
X153975571Y-66084483D01*
X154025865Y-66219328D01*
X154025869Y-66219335D01*
X154112115Y-66334544D01*
X154112118Y-66334547D01*
X154227327Y-66420793D01*
X154227336Y-66420798D01*
X154294650Y-66445904D01*
X154350584Y-66487774D01*
X154375002Y-66553238D01*
X154360151Y-66621511D01*
X154339000Y-66649767D01*
X154201552Y-66787215D01*
X154076614Y-66959179D01*
X153980107Y-67148585D01*
X153914416Y-67350760D01*
X153902505Y-67425965D01*
X153881163Y-67560713D01*
X143882163Y-67560713D01*
X143848909Y-67350757D01*
X143783220Y-67148588D01*
X143686714Y-66959184D01*
X143686712Y-66959181D01*
X143686711Y-66959179D01*
X143561772Y-66787213D01*
X143411449Y-66636890D01*
X143239483Y-66511951D01*
X143238778Y-66511591D01*
X143230717Y-66507485D01*
X143179922Y-66459512D01*
X143163126Y-66391692D01*
X143185662Y-66325556D01*
X143230717Y-66286515D01*
X143239479Y-66282051D01*
X143325801Y-66219335D01*
X143411449Y-66157109D01*
X143411451Y-66157106D01*
X143411455Y-66157104D01*
X143561767Y-66006792D01*
X143561769Y-66006788D01*
X143561772Y-66006786D01*
X143686711Y-65834820D01*
X143686710Y-65834820D01*
X143686714Y-65834816D01*
X143783220Y-65645412D01*
X143848909Y-65443243D01*
X143882163Y-65233287D01*
X143882163Y-65020713D01*
X143848909Y-64810757D01*
X143783220Y-64608588D01*
X143686714Y-64419184D01*
X143686712Y-64419181D01*
X143686711Y-64419179D01*
X143561772Y-64247213D01*
X143411449Y-64096890D01*
X143239483Y-63971951D01*
X143050077Y-63875444D01*
X143050076Y-63875443D01*
X143050075Y-63875443D01*
X142847906Y-63809754D01*
X142847904Y-63809753D01*
X142847903Y-63809753D01*
X142686620Y-63784208D01*
X142637950Y-63776500D01*
X142425376Y-63776500D01*
X142376705Y-63784208D01*
X142215423Y-63809753D01*
X142122333Y-63840000D01*
X142067954Y-63857669D01*
X142013248Y-63875444D01*
X141823842Y-63971951D01*
X141651876Y-64096890D01*
X141501553Y-64247213D01*
X141376614Y-64419179D01*
X141280107Y-64608585D01*
X141214416Y-64810760D01*
X141181935Y-65015841D01*
X141181163Y-65020713D01*
X94425500Y-65020713D01*
X94425499Y-64810760D01*
X94425499Y-64529998D01*
X94425498Y-64529980D01*
X94414999Y-64427203D01*
X94414998Y-64427200D01*
X94412340Y-64419179D01*
X94359814Y-64260666D01*
X94267712Y-64111344D01*
X94143656Y-63987288D01*
X93994334Y-63895186D01*
X93827797Y-63840001D01*
X93827795Y-63840000D01*
X93725010Y-63829500D01*
X91424998Y-63829500D01*
X91424981Y-63829501D01*
X91322203Y-63840000D01*
X91322200Y-63840001D01*
X91155668Y-63895185D01*
X91155663Y-63895187D01*
X91006342Y-63987289D01*
X90882289Y-64111342D01*
X90790187Y-64260663D01*
X90790186Y-64260666D01*
X90735001Y-64427203D01*
X90735001Y-64427204D01*
X90735000Y-64427204D01*
X90724500Y-64529983D01*
X77230500Y-64529983D01*
X77230500Y-64500137D01*
X77199180Y-64222168D01*
X77136935Y-63949455D01*
X77117945Y-63895186D01*
X77094961Y-63829500D01*
X77044547Y-63685425D01*
X76923178Y-63433400D01*
X76774355Y-63196548D01*
X76599948Y-62977849D01*
X76402151Y-62780052D01*
X76183452Y-62605645D01*
X75946600Y-62456822D01*
X75946597Y-62456820D01*
X75694578Y-62335454D01*
X75430556Y-62243068D01*
X75430548Y-62243065D01*
X75226010Y-62196381D01*
X75157832Y-62180820D01*
X75157828Y-62180819D01*
X75157819Y-62180818D01*
X74879867Y-62149500D01*
X74879863Y-62149500D01*
X74600137Y-62149500D01*
X74600133Y-62149500D01*
X74322180Y-62180818D01*
X74322168Y-62180820D01*
X74049451Y-62243065D01*
X74049443Y-62243068D01*
X73785421Y-62335454D01*
X73533402Y-62456820D01*
X73296549Y-62605644D01*
X73077849Y-62780051D01*
X72880051Y-62977849D01*
X72705644Y-63196549D01*
X72556820Y-63433402D01*
X72435454Y-63685421D01*
X72343068Y-63949443D01*
X72343065Y-63949451D01*
X72280820Y-64222168D01*
X72280818Y-64222180D01*
X72249500Y-64500132D01*
X68760600Y-64500132D01*
X68760600Y-60424500D01*
X68780285Y-60357461D01*
X68833089Y-60311706D01*
X68884600Y-60300500D01*
X180925500Y-60300500D01*
X180992539Y-60320185D01*
G37*
%TD.AperFunction*%
%TD*%
M02*
