%TF.GenerationSoftware,KiCad,Pcbnew,10.0.1*%
%TF.CreationDate,2026-08-10T17:57:07+02:00*%
%TF.ProjectId,Datalogger-v2,44617461-6c6f-4676-9765-722d76322e6b,rev?*%
%TF.SameCoordinates,Original*%
%TF.FileFunction,Copper,L2,Bot*%
%TF.FilePolarity,Positive*%
%FSLAX46Y46*%
G04 Gerber Fmt 4.6, Leading zero omitted, Abs format (unit mm)*
G04 Created by KiCad (PCBNEW 10.0.1) date 2026-08-10 17:57:07*
%MOMM*%
%LPD*%
G01*
G04 APERTURE LIST*
G04 Aperture macros list*
%AMRoundRect*
0 Rectangle with rounded corners*
0 $1 Rounding radius*
0 $2 $3 $4 $5 $6 $7 $8 $9 X,Y pos of 4 corners*
0 Add a 4 corners polygon primitive as box body*
4,1,4,$2,$3,$4,$5,$6,$7,$8,$9,$2,$3,0*
0 Add four circle primitives for the rounded corners*
1,1,$1+$1,$2,$3*
1,1,$1+$1,$4,$5*
1,1,$1+$1,$6,$7*
1,1,$1+$1,$8,$9*
0 Add four rect primitives between the rounded corners*
20,1,$1+$1,$2,$3,$4,$5,0*
20,1,$1+$1,$4,$5,$6,$7,0*
20,1,$1+$1,$6,$7,$8,$9,0*
20,1,$1+$1,$8,$9,$2,$3,0*%
G04 Aperture macros list end*
%TA.AperFunction,ComponentPad*%
%ADD10RoundRect,0.250000X-0.550000X-0.550000X0.550000X-0.550000X0.550000X0.550000X-0.550000X0.550000X0*%
%TD*%
%TA.AperFunction,ComponentPad*%
%ADD11C,1.600000*%
%TD*%
%TA.AperFunction,ComponentPad*%
%ADD12C,1.727200*%
%TD*%
%TA.AperFunction,ComponentPad*%
%ADD13R,1.727200X1.727200*%
%TD*%
%TA.AperFunction,ComponentPad*%
%ADD14R,1.070000X1.800000*%
%TD*%
%TA.AperFunction,ComponentPad*%
%ADD15O,1.070000X1.800000*%
%TD*%
%TA.AperFunction,ComponentPad*%
%ADD16R,1.524000X1.700000*%
%TD*%
%TA.AperFunction,ComponentPad*%
%ADD17O,1.700000X1.700000*%
%TD*%
%TA.AperFunction,ComponentPad*%
%ADD18R,2.400000X2.400000*%
%TD*%
%TA.AperFunction,WasherPad*%
%ADD19C,3.980000*%
%TD*%
%TA.AperFunction,ComponentPad*%
%ADD20R,1.524000X1.524000*%
%TD*%
%TA.AperFunction,ComponentPad*%
%ADD21O,1.524000X1.524000*%
%TD*%
%TA.AperFunction,ViaPad*%
%ADD22C,0.800000*%
%TD*%
%TA.AperFunction,ViaPad*%
%ADD23C,0.700000*%
%TD*%
%TA.AperFunction,Conductor*%
%ADD24C,0.500000*%
%TD*%
%TA.AperFunction,Conductor*%
%ADD25C,0.200000*%
%TD*%
%TA.AperFunction,Conductor*%
%ADD26C,0.300000*%
%TD*%
%TA.AperFunction,Conductor*%
%ADD27C,0.800000*%
%TD*%
G04 APERTURE END LIST*
D10*
%TO.P,C4,1*%
%TO.N,+5V*%
X114500000Y-88000000D03*
D11*
%TO.P,C4,2*%
%TO.N,GND*%
X117000000Y-88000000D03*
%TD*%
D12*
%TO.P,U1,1,CS_1*%
%TO.N,Net-(U1-CS)*%
X149780218Y-107849473D03*
%TO.P,U1,2,SCK_2*%
%TO.N,Net-(U1-SCK)*%
X152297098Y-107849473D03*
%TO.P,U1,3,MOSI_3*%
%TO.N,Net-(U1-MOSI)*%
X154837098Y-107849473D03*
%TO.P,U1,4,MISO_4*%
%TO.N,Net-(U1-MISO)*%
X157377098Y-107849473D03*
%TO.P,U1,5,VCC_5*%
%TO.N,+5V*%
X159917098Y-107849473D03*
D13*
%TO.P,U1,6,GND_6*%
%TO.N,GND*%
X162457098Y-107849473D03*
%TD*%
D14*
%TO.P,D1,1,DO_1*%
%TO.N,Net-(D1-DO)*%
X130095000Y-88000000D03*
D15*
%TO.P,D1,2,GND_2*%
%TO.N,GND*%
X131365000Y-88000000D03*
%TO.P,D1,3,VDD_3*%
%TO.N,Net-(D1-VDD)*%
X132635000Y-88000000D03*
%TO.P,D1,4,DI_4*%
%TO.N,Net-(D1-DI)*%
X133905000Y-88000000D03*
%TD*%
D16*
%TO.P,U3,1,D0_1*%
%TO.N,unconnected-(U3-D0-Pad1)*%
X155231663Y-65127000D03*
D17*
%TO.P,U3,2,VCC_2*%
%TO.N,unconnected-(U3-VCC-Pad2)*%
X155231663Y-67667000D03*
%TO.P,U3,3,RX_3*%
%TO.N,unconnected-(U3-RX-Pad3)*%
X155231663Y-70207000D03*
%TO.P,U3,4,TX_4*%
%TO.N,unconnected-(U3-TX-Pad4)*%
X155231663Y-72747000D03*
%TO.P,U3,5,GND_5*%
%TO.N,unconnected-(U3-GND-Pad5)*%
X155231663Y-75287000D03*
%TO.P,U3,6,D1_6*%
%TO.N,unconnected-(U3-D1-Pad6)*%
X155231663Y-77827000D03*
%TO.P,U3,7,D2_7*%
%TO.N,unconnected-(U3-D2-Pad7)*%
X142531663Y-65127000D03*
%TO.P,U3,8,VCC_8*%
%TO.N,+5V*%
X142531663Y-67667000D03*
%TO.P,U3,9,SCL_9*%
%TO.N,Net-(U3-SCL)*%
X142531663Y-70207000D03*
%TO.P,U3,10,SDA_10*%
%TO.N,Net-(U3-SDA)*%
X142531663Y-72747000D03*
%TO.P,U3,11,GND_11*%
%TO.N,GND*%
X142531663Y-75287000D03*
%TO.P,U3,12,D3_12*%
%TO.N,unconnected-(U3-D3-Pad12)*%
X142531663Y-77827000D03*
%TD*%
D18*
%TO.P,U7,1,+IN_1*%
%TO.N,unconnected-(U7-+IN-Pad1)*%
X176331000Y-65300000D03*
%TO.P,U7,2,-IN_2*%
%TO.N,unconnected-(U7--IN-Pad2)*%
X162550000Y-65300000D03*
%TO.P,U7,3,B+_3*%
%TO.N,Net-(BT1-+)*%
X173068900Y-88000000D03*
%TO.P,U7,4,B-_4*%
%TO.N,Net-(BT1--)*%
X165768100Y-88000000D03*
%TO.P,U7,5,OUT+_5*%
%TO.N,Net-(U2-VIN+)*%
X176350000Y-88000000D03*
%TO.P,U7,6,OUT-_6*%
%TO.N,Net-(U2-VIN-)*%
X162569000Y-88000000D03*
%TD*%
D19*
%TO.P,U5,*%
%TO.N,*%
X93670000Y-76320000D03*
X74740000Y-64640000D03*
%TD*%
D10*
%TO.P,C1,1*%
%TO.N,+5V*%
X173850000Y-140000000D03*
D11*
%TO.P,C1,2*%
%TO.N,GND*%
X176350000Y-140000000D03*
%TD*%
D20*
%TO.P,U8,1,EN_1*%
%TO.N,unconnected-(U8-EN-Pad1)*%
X111950000Y-101459800D03*
D21*
%TO.P,U8,2,VP_(ADC/D36\u002A)_2*%
%TO.N,unconnected-(U8-VP_(ADC{slash}D36\u002A)-Pad2)*%
X111950000Y-104000000D03*
%TO.P,U8,3,VN_(ADC/D39\u002A)_3*%
%TO.N,unconnected-(U8-VN_(ADC{slash}D39\u002A)-Pad3)*%
X111950000Y-106540000D03*
%TO.P,U8,4,ADC/D34\u002A_4*%
%TO.N,unconnected-(U8-ADC{slash}D34\u002A-Pad4)*%
X111950000Y-109080000D03*
%TO.P,U8,5,ADC/D35\u002A_5*%
%TO.N,unconnected-(U8-ADC{slash}D35\u002A-Pad5)*%
X111950000Y-111620000D03*
%TO.P,U8,6,ADC/D32_6*%
%TO.N,Net-(U6-RX)*%
X111950000Y-114160000D03*
%TO.P,U8,7,ADC/D33_7*%
%TO.N,Net-(U6-TX)*%
X111950000Y-116700000D03*
%TO.P,U8,8,ADC/DAC0/D25_8*%
%TO.N,Net-(U8-ADC{slash}DAC0{slash}D25)*%
X111950000Y-119240000D03*
%TO.P,U8,9,ADC/DAC1/D26_9*%
%TO.N,Net-(U8-ADC{slash}DAC1{slash}D26)*%
X111950000Y-121780000D03*
%TO.P,U8,10,ADC/D27_10*%
%TO.N,+5V*%
X111950000Y-124320000D03*
%TO.P,U8,11,ADC/D14_11*%
X111950000Y-126860000D03*
%TO.P,U8,12,ADC/D12_12*%
%TO.N,unconnected-(U8-ADC{slash}D12-Pad12)*%
X111950000Y-129400000D03*
%TO.P,U8,13,ADC/D13_13*%
%TO.N,Net-(U8-ADC{slash}D13)*%
X111950000Y-131940000D03*
%TO.P,U8,14,GND_14*%
%TO.N,GND*%
X111950000Y-134480000D03*
%TO.P,U8,15,VIN_15*%
%TO.N,+5V*%
X111950000Y-137020000D03*
%TO.P,U8,16,D23_16*%
%TO.N,Net-(U1-MOSI)*%
X137350000Y-101460000D03*
%TO.P,U8,17,SCL/D22_17*%
%TO.N,Net-(U3-SCL)*%
X137350000Y-104000000D03*
%TO.P,U8,18,UA0TX/D1_18*%
%TO.N,unconnected-(U8-UA0TX{slash}D1-Pad18)*%
X137350000Y-106540000D03*
%TO.P,U8,19,UA0RX/D3_19*%
%TO.N,unconnected-(U8-UA0RX{slash}D3-Pad19)*%
X137350000Y-109080000D03*
%TO.P,U8,20,SDA/D21_20*%
%TO.N,Net-(U3-SDA)*%
X137350000Y-111620000D03*
%TO.P,U8,21,D19_21*%
%TO.N,Net-(U1-MISO)*%
X137350000Y-114160000D03*
%TO.P,U8,22,SCK/D18_22*%
%TO.N,Net-(U1-SCK)*%
X137350000Y-116700000D03*
%TO.P,U8,23,CS/D5_23*%
%TO.N,Net-(U1-CS)*%
X137350000Y-119240000D03*
%TO.P,U8,24,UA2TX/D17_24*%
%TO.N,Net-(U4-RX)*%
X137350000Y-121780000D03*
%TO.P,U8,25,UA2RX/D16_25*%
%TO.N,Net-(U4-TX)*%
X137350000Y-124320000D03*
%TO.P,U8,26,ADC/D4_26*%
%TO.N,Net-(U8-ADC{slash}D4)*%
X137350000Y-126860000D03*
%TO.P,U8,27,LED0/D2_27*%
%TO.N,unconnected-(U8-LED0{slash}D2-Pad27)*%
X137350000Y-129400000D03*
%TO.P,U8,28,ADC/D15_28*%
%TO.N,unconnected-(U8-ADC{slash}D15-Pad28)*%
X137350000Y-131940000D03*
%TO.P,U8,29,GND_29*%
%TO.N,unconnected-(U8-GND-Pad29)*%
X137350000Y-134480000D03*
%TO.P,U8,30,3V3_30*%
%TO.N,+3.3V*%
X137350000Y-137020000D03*
%TD*%
%TO.P,U6,1,RX_1*%
%TO.N,Net-(U6-RX)*%
X174800703Y-116000000D03*
%TO.P,U6,2,TX_2*%
%TO.N,Net-(U6-TX)*%
X174800703Y-113460000D03*
%TO.P,U6,3,VIN_3*%
%TO.N,+5V*%
X174800703Y-110920000D03*
%TO.P,U6,4,GND_4*%
%TO.N,GND*%
X174800703Y-108380000D03*
%TD*%
D11*
%TO.P,R10,1*%
%TO.N,Net-(U5-SDA)*%
X99000000Y-112000000D03*
%TO.P,R10,2*%
%TO.N,+5V*%
X99000000Y-101840000D03*
%TD*%
D21*
%TO.P,U4,1,M0_1*%
%TO.N,GND*%
X90350000Y-89000000D03*
%TO.P,U4,2,M1_2*%
X87810000Y-89000000D03*
%TO.P,U4,3,RX_3*%
%TO.N,Net-(U4-RX)*%
X85270000Y-89000000D03*
%TO.P,U4,4,TX_4*%
%TO.N,Net-(U4-TX)*%
X82730000Y-89000000D03*
%TO.P,U4,5,AUX_5*%
%TO.N,unconnected-(U4-AUX-Pad5)*%
X80190000Y-89000000D03*
%TO.P,U4,6,VCC_6*%
%TO.N,+5V*%
X77610100Y-89000000D03*
%TO.P,U4,7,GND_7*%
%TO.N,GND*%
X75110000Y-89000000D03*
%TD*%
D11*
%TO.P,R11,1*%
%TO.N,Net-(U5-SCL)*%
X107000000Y-112000000D03*
%TO.P,R11,2*%
%TO.N,+5V*%
X107000000Y-101840000D03*
%TD*%
%TO.P,R5,1*%
%TO.N,Net-(U8-ADC{slash}D4)*%
X155000000Y-100000000D03*
%TO.P,R5,2*%
%TO.N,Net-(D1-DI)*%
X144840000Y-100000000D03*
%TD*%
%TO.P,R6,1*%
%TO.N,Net-(U8-ADC{slash}DAC1{slash}D26)*%
X155080000Y-94000000D03*
%TO.P,R6,2*%
%TO.N,Net-(D1-VDD)*%
X144920000Y-94000000D03*
%TD*%
%TO.P,R2,1*%
%TO.N,Net-(U3-SCL)*%
X120650049Y-133749173D03*
%TO.P,R2,2*%
%TO.N,+3.3V*%
X120650049Y-123589173D03*
%TD*%
%TO.P,R1,1*%
%TO.N,+3.3V*%
X128650049Y-133669173D03*
%TO.P,R1,2*%
%TO.N,Net-(U3-SDA)*%
X128650049Y-123509173D03*
%TD*%
%TO.P,R3,1*%
%TO.N,Net-(U8-ADC{slash}D13)*%
X174348710Y-72000000D03*
%TO.P,R3,2*%
%TO.N,Net-(BT1--)*%
X164188710Y-72000000D03*
%TD*%
%TO.P,R8,1*%
%TO.N,+3.3V*%
X161377329Y-115000000D03*
%TO.P,R8,2*%
%TO.N,Net-(U1-MOSI)*%
X151217329Y-115000000D03*
%TD*%
%TO.P,R9,1*%
%TO.N,+3.3V*%
X161377329Y-121000000D03*
%TO.P,R9,2*%
%TO.N,Net-(U1-MISO)*%
X151217329Y-121000000D03*
%TD*%
%TO.P,R7,1*%
%TO.N,Net-(U8-ADC{slash}DAC0{slash}D25)*%
X155160000Y-88000000D03*
%TO.P,R7,2*%
%TO.N,Net-(D1-DO)*%
X145000000Y-88000000D03*
%TD*%
%TO.P,R4,1*%
%TO.N,Net-(U8-ADC{slash}D13)*%
X174405577Y-79000000D03*
%TO.P,R4,2*%
%TO.N,Net-(BT1-+)*%
X164245577Y-79000000D03*
%TD*%
D22*
%TO.N,+5V*%
X109000000Y-68000000D03*
D23*
X80000000Y-81000000D03*
X98000000Y-71000000D03*
%TO.N,GND*%
X132000000Y-78000000D03*
%TO.N,Net-(U1-MOSI)*%
X144000000Y-103000000D03*
X147831957Y-105652716D03*
%TO.N,Net-(U3-SCL)*%
X140000000Y-100000000D03*
X141000000Y-113000000D03*
X144000000Y-92000000D03*
%TO.N,Net-(U3-SDA)*%
X143000000Y-91000000D03*
X136430293Y-99748000D03*
%TO.N,Net-(U5-SDA)*%
X94596040Y-69179645D03*
X97000000Y-83000000D03*
%TO.N,Net-(U5-SCL)*%
X99847981Y-80847982D03*
X101000000Y-84000000D03*
X101000000Y-99000000D03*
%TO.N,Net-(U6-RX)*%
X140000000Y-118000000D03*
X132000000Y-118000000D03*
%TO.N,Net-(U8-ADC{slash}DAC0{slash}D25)*%
X121000000Y-111000000D03*
X118000000Y-119000000D03*
%TO.N,Net-(U8-ADC{slash}DAC1{slash}D26)*%
X133000000Y-108000000D03*
%TO.N,Net-(U8-ADC{slash}D13)*%
X141929303Y-108929303D03*
%TO.N,Net-(U4-RX)*%
X128000000Y-117000000D03*
X125000000Y-114000000D03*
%TO.N,Net-(U4-TX)*%
X126262051Y-113748000D03*
X130000000Y-117000000D03*
%TD*%
%TO.N,+5V*%
D24*
X91000000Y-84000000D02*
X94000000Y-81000000D01*
X98000000Y-71000000D02*
X98000000Y-77000000D01*
X77610100Y-87389900D02*
X81000000Y-84000000D01*
D25*
X174800703Y-110920000D02*
X160880703Y-97000000D01*
D26*
X114500000Y-88000000D02*
X121470051Y-81029949D01*
D27*
X116940101Y-68000000D02*
X109000000Y-68000000D01*
D24*
X94000000Y-81000000D02*
X80000000Y-81000000D01*
D27*
X120470051Y-71529949D02*
X116940101Y-68000000D01*
D25*
X142531663Y-67667000D02*
X138668714Y-71529949D01*
X160880703Y-97000000D02*
X149067625Y-97000000D01*
D24*
X77610100Y-89000000D02*
X77610100Y-87389900D01*
D27*
X145940101Y-97000000D02*
X129970051Y-81029949D01*
D24*
X98000000Y-77000000D02*
X94000000Y-81000000D01*
D26*
X121470051Y-81029949D02*
X129970051Y-81029949D01*
D27*
X149067625Y-97000000D02*
X145940101Y-97000000D01*
D25*
X138668714Y-71529949D02*
X120470051Y-71529949D01*
D27*
X129970051Y-81029949D02*
X120470051Y-71529949D01*
D24*
X81000000Y-84000000D02*
X91000000Y-84000000D01*
D27*
X159917098Y-107849473D02*
X149067625Y-97000000D01*
%TO.N,GND*%
D25*
X142508993Y-75264330D02*
X139818171Y-75264330D01*
X142531663Y-75287000D02*
X142508993Y-75264330D01*
X137082501Y-78000000D02*
X132000000Y-78000000D01*
X139818171Y-75264330D02*
X137082501Y-78000000D01*
%TO.N,Net-(U1-CS)*%
X139760000Y-119240000D02*
X137350000Y-119240000D01*
X149780218Y-107849473D02*
X149780218Y-109219782D01*
X149780218Y-109219782D02*
X139760000Y-119240000D01*
%TO.N,Net-(U1-SCK)*%
X152297098Y-107849473D02*
X151133498Y-106685873D01*
X139284112Y-116700000D02*
X137350000Y-116700000D01*
X151133498Y-106685873D02*
X149298239Y-106685873D01*
X149298239Y-106685873D02*
X139284112Y-116700000D01*
%TO.N,Net-(U1-MOSI)*%
X154837098Y-107849473D02*
X154837098Y-111380231D01*
X154837098Y-111380231D02*
X151217329Y-115000000D01*
D26*
X146000000Y-105000000D02*
X144000000Y-103000000D01*
X147831957Y-105652716D02*
X147179241Y-105000000D01*
X147179241Y-105000000D02*
X146000000Y-105000000D01*
%TO.N,Net-(U1-MISO)*%
D25*
X155127625Y-105600000D02*
X149729899Y-105600000D01*
X157377098Y-107849473D02*
X157377098Y-114840231D01*
X141169899Y-114160000D02*
X137350000Y-114160000D01*
X149729899Y-105600000D02*
X141169899Y-114160000D01*
X157377098Y-114840231D02*
X151217329Y-121000000D01*
X157377098Y-107849473D02*
X155127625Y-105600000D01*
%TO.N,Net-(D1-DI)*%
D26*
X133905000Y-89065000D02*
X144840000Y-100000000D01*
X133905000Y-88000000D02*
X133905000Y-89065000D01*
%TO.N,Net-(U3-SCL)*%
D25*
X142579303Y-111420697D02*
X141000000Y-113000000D01*
X137919239Y-104000000D02*
X142579303Y-108660064D01*
X137350000Y-104000000D02*
X137919239Y-104000000D01*
X146100000Y-89900000D02*
X144000000Y-92000000D01*
X140000000Y-100000000D02*
X140000000Y-101350000D01*
X146100000Y-73775337D02*
X146100000Y-89900000D01*
X140000000Y-101350000D02*
X137350000Y-104000000D01*
X142531663Y-70207000D02*
X146100000Y-73775337D01*
X142579303Y-108660064D02*
X142579303Y-111420697D01*
%TO.N,Net-(U3-SDA)*%
X136430293Y-99748000D02*
X135000000Y-101178293D01*
X135000000Y-101178293D02*
X135000000Y-109270000D01*
X135000000Y-109270000D02*
X137350000Y-111620000D01*
X142531663Y-72747000D02*
X143900000Y-74115337D01*
X143900000Y-90100000D02*
X143000000Y-91000000D01*
X143900000Y-74115337D02*
X143900000Y-90100000D01*
%TO.N,Net-(BT1--)*%
X165768100Y-88000000D02*
X165768100Y-73579390D01*
X165768100Y-73579390D02*
X164188710Y-72000000D01*
%TO.N,Net-(U5-SDA)*%
X97000000Y-83000000D02*
X99000000Y-81000000D01*
X99000000Y-70545164D02*
X97634481Y-69179645D01*
X99000000Y-81000000D02*
X99000000Y-70545164D01*
X97634481Y-69179645D02*
X94596040Y-69179645D01*
%TO.N,Net-(U5-SCL)*%
X101000000Y-106000000D02*
X107000000Y-112000000D01*
X101000000Y-82000000D02*
X101000000Y-84000000D01*
X101000000Y-99000000D02*
X101000000Y-106000000D01*
X99847981Y-80847982D02*
X101000000Y-82000000D01*
%TO.N,Net-(U6-RX)*%
D26*
X132000000Y-118000000D02*
X140000000Y-118000000D01*
%TO.N,Net-(U8-ADC{slash}DAC0{slash}D25)*%
D25*
X120000000Y-117000000D02*
X118000000Y-119000000D01*
X121000000Y-111000000D02*
X120000000Y-112000000D01*
X120000000Y-112000000D02*
X120000000Y-117000000D01*
%TO.N,Net-(U8-ADC{slash}DAC1{slash}D26)*%
D26*
X111950000Y-121780000D02*
X119220000Y-121780000D01*
X119220000Y-121780000D02*
X133000000Y-108000000D01*
%TO.N,Net-(U8-ADC{slash}D13)*%
X128952000Y-113048000D02*
X119500049Y-122499951D01*
X141929303Y-108929303D02*
X137810606Y-113048000D01*
X137810606Y-113048000D02*
X128952000Y-113048000D01*
X119500049Y-124389951D02*
X111950000Y-131940000D01*
X119500049Y-122499951D02*
X119500049Y-124389951D01*
%TO.N,Net-(U4-RX)*%
D25*
X132780000Y-121780000D02*
X137350000Y-121780000D01*
X110000000Y-102000000D02*
X94000000Y-86000000D01*
X116478000Y-105478000D02*
X111510105Y-105478000D01*
X110000000Y-103967895D02*
X110000000Y-102000000D01*
X111510105Y-105478000D02*
X110000000Y-103967895D01*
X125000000Y-114000000D02*
X116478000Y-105478000D01*
X94000000Y-86000000D02*
X86000000Y-86000000D01*
X86000000Y-86000000D02*
X85270000Y-86730000D01*
X128000000Y-117000000D02*
X132780000Y-121780000D01*
X85270000Y-86730000D02*
X85270000Y-89000000D01*
%TO.N,Net-(U4-TX)*%
X138412000Y-123258000D02*
X137350000Y-124320000D01*
X133718000Y-120718000D02*
X137789895Y-120718000D01*
X82730000Y-89000000D02*
X82730000Y-86270000D01*
X97614200Y-85000000D02*
X95000000Y-85000000D01*
X126262051Y-113748000D02*
X124614200Y-112100149D01*
X124614200Y-112000000D02*
X97614200Y-85000000D01*
X124614200Y-112100149D02*
X124614200Y-112000000D01*
X137789895Y-120718000D02*
X138412000Y-121340105D01*
X138412000Y-121340105D02*
X138412000Y-123258000D01*
X84000000Y-85000000D02*
X95000000Y-85000000D01*
X82730000Y-86270000D02*
X84000000Y-85000000D01*
X130000000Y-117000000D02*
X133718000Y-120718000D01*
%TO.N,Net-(U8-ADC{slash}D4)*%
D26*
X146983675Y-126860000D02*
X137350000Y-126860000D01*
X161130698Y-106130698D02*
X161130698Y-112712977D01*
X155000000Y-100000000D02*
X161130698Y-106130698D01*
X161130698Y-112712977D02*
X146983675Y-126860000D01*
%TO.N,+3.3V*%
D25*
X120650049Y-125669173D02*
X128650049Y-133669173D01*
X128650049Y-133669173D02*
X133999173Y-133669173D01*
X133999173Y-133669173D02*
X137350000Y-137020000D01*
X120650049Y-123589173D02*
X120650049Y-125669173D01*
X145357329Y-137020000D02*
X137350000Y-137020000D01*
X161377329Y-115000000D02*
X161377329Y-121000000D01*
X161377329Y-121000000D02*
X145357329Y-137020000D01*
%TD*%
%TA.AperFunction,Conductor*%
%TO.N,GND*%
G36*
X141087061Y-70048953D02*
G01*
X141100497Y-70049914D01*
X141118223Y-70063184D01*
X141138366Y-70072383D01*
X141145648Y-70083714D01*
X141156430Y-70091786D01*
X141164167Y-70112531D01*
X141176140Y-70131161D01*
X141179291Y-70153079D01*
X141180847Y-70157250D01*
X141181163Y-70166096D01*
X141181163Y-70313287D01*
X141181178Y-70313380D01*
X141214416Y-70523239D01*
X141214416Y-70523241D01*
X141214417Y-70523243D01*
X141269094Y-70691522D01*
X141280107Y-70725414D01*
X141376614Y-70914820D01*
X141501553Y-71086786D01*
X141651876Y-71237109D01*
X141823845Y-71362050D01*
X141832609Y-71366516D01*
X141883405Y-71414491D01*
X141900199Y-71482312D01*
X141877661Y-71548447D01*
X141832609Y-71587484D01*
X141823845Y-71591949D01*
X141651876Y-71716890D01*
X141501553Y-71867213D01*
X141376614Y-72039179D01*
X141280107Y-72228585D01*
X141214416Y-72430760D01*
X141181163Y-72640713D01*
X141181163Y-72853286D01*
X141214416Y-73063239D01*
X141214416Y-73063241D01*
X141214417Y-73063243D01*
X141279591Y-73263828D01*
X141280107Y-73265414D01*
X141376614Y-73454820D01*
X141501553Y-73626786D01*
X141651876Y-73777109D01*
X141823842Y-73902048D01*
X141823844Y-73902049D01*
X141823847Y-73902051D01*
X141833156Y-73906794D01*
X141883953Y-73954766D01*
X141900750Y-74022587D01*
X141878215Y-74088722D01*
X141833165Y-74127762D01*
X141824106Y-74132378D01*
X141652203Y-74257272D01*
X141652198Y-74257276D01*
X141501939Y-74407535D01*
X141501935Y-74407540D01*
X141377042Y-74579442D01*
X141280567Y-74768782D01*
X141214905Y-74970870D01*
X141214905Y-74970873D01*
X141204432Y-75037000D01*
X142098651Y-75037000D01*
X142065738Y-75094007D01*
X142031663Y-75221174D01*
X142031663Y-75352826D01*
X142065738Y-75479993D01*
X142098651Y-75537000D01*
X141204432Y-75537000D01*
X141214905Y-75603126D01*
X141214905Y-75603129D01*
X141280567Y-75805217D01*
X141377042Y-75994557D01*
X141501935Y-76166459D01*
X141501939Y-76166464D01*
X141652198Y-76316723D01*
X141652203Y-76316727D01*
X141824107Y-76441622D01*
X141833158Y-76446234D01*
X141883955Y-76494208D01*
X141900750Y-76562029D01*
X141878213Y-76628164D01*
X141833162Y-76667202D01*
X141823845Y-76671949D01*
X141651876Y-76796890D01*
X141501553Y-76947213D01*
X141376614Y-77119179D01*
X141280107Y-77308585D01*
X141214416Y-77510760D01*
X141190483Y-77661867D01*
X141181163Y-77720713D01*
X141181163Y-77933287D01*
X141214417Y-78143243D01*
X141226343Y-78179948D01*
X141280107Y-78345414D01*
X141376614Y-78534820D01*
X141501553Y-78706786D01*
X141651876Y-78857109D01*
X141823842Y-78982048D01*
X141823844Y-78982049D01*
X141823847Y-78982051D01*
X142013251Y-79078557D01*
X142215420Y-79144246D01*
X142425376Y-79177500D01*
X142425377Y-79177500D01*
X142637949Y-79177500D01*
X142637950Y-79177500D01*
X142847906Y-79144246D01*
X143050075Y-79078557D01*
X143119204Y-79043333D01*
X143187874Y-79030437D01*
X143252614Y-79056713D01*
X143292872Y-79113819D01*
X143299500Y-79153818D01*
X143299500Y-89799903D01*
X143279815Y-89866942D01*
X143263181Y-89887584D01*
X143037584Y-90113181D01*
X142976261Y-90146666D01*
X142949903Y-90149500D01*
X142916228Y-90149500D01*
X142751925Y-90182182D01*
X142751917Y-90182184D01*
X142597139Y-90246295D01*
X142457837Y-90339373D01*
X142339373Y-90457837D01*
X142246295Y-90597139D01*
X142182184Y-90751917D01*
X142182182Y-90751925D01*
X142149500Y-90916228D01*
X142149500Y-91083771D01*
X142182182Y-91248074D01*
X142182184Y-91248082D01*
X142246295Y-91402860D01*
X142339373Y-91542162D01*
X142457837Y-91660626D01*
X142550494Y-91722537D01*
X142597137Y-91753703D01*
X142751918Y-91817816D01*
X142916228Y-91850499D01*
X142916232Y-91850500D01*
X143025500Y-91850500D01*
X143092539Y-91870185D01*
X143138294Y-91922989D01*
X143149500Y-91974500D01*
X143149500Y-92083771D01*
X143182182Y-92248074D01*
X143182184Y-92248082D01*
X143246295Y-92402860D01*
X143339373Y-92542162D01*
X143457837Y-92660626D01*
X143550494Y-92722537D01*
X143597137Y-92753703D01*
X143751918Y-92817816D01*
X143916228Y-92850499D01*
X143916232Y-92850500D01*
X143930953Y-92850500D01*
X143997992Y-92870185D01*
X144043747Y-92922989D01*
X144053691Y-92992147D01*
X144024666Y-93055703D01*
X144018634Y-93062181D01*
X143928032Y-93152782D01*
X143928028Y-93152786D01*
X143807713Y-93318388D01*
X143792126Y-93348978D01*
X143744150Y-93399773D01*
X143676329Y-93416566D01*
X143610195Y-93394027D01*
X143593962Y-93380361D01*
X137125085Y-86911484D01*
X130544087Y-80330485D01*
X122555732Y-72342130D01*
X122522247Y-72280807D01*
X122527231Y-72211115D01*
X122569103Y-72155182D01*
X122634567Y-72130765D01*
X122643413Y-72130449D01*
X138582045Y-72130449D01*
X138582061Y-72130450D01*
X138589657Y-72130450D01*
X138747768Y-72130450D01*
X138747771Y-72130450D01*
X138900499Y-72089526D01*
X138950618Y-72060588D01*
X139037430Y-72010469D01*
X139149234Y-71898665D01*
X139149234Y-71898663D01*
X139159442Y-71888456D01*
X139159444Y-71888453D01*
X140969482Y-70078415D01*
X140988918Y-70067802D01*
X141005652Y-70053302D01*
X141018983Y-70051385D01*
X141030805Y-70044930D01*
X141052891Y-70046509D01*
X141074810Y-70043358D01*
X141087061Y-70048953D01*
G37*
%TD.AperFunction*%
%TA.AperFunction,Conductor*%
G36*
X89923958Y-88823527D02*
G01*
X89892800Y-88939808D01*
X89892800Y-89060192D01*
X89923958Y-89176473D01*
X89966409Y-89250000D01*
X88193591Y-89250000D01*
X88236042Y-89176473D01*
X88267200Y-89060192D01*
X88267200Y-88939808D01*
X88236042Y-88823527D01*
X88193591Y-88750000D01*
X89966409Y-88750000D01*
X89923958Y-88823527D01*
G37*
%TD.AperFunction*%
%TA.AperFunction,Conductor*%
G36*
X180992539Y-60320185D02*
G01*
X181038294Y-60372989D01*
X181049500Y-60424500D01*
X181049500Y-149575500D01*
X181029815Y-149642539D01*
X180977011Y-149688294D01*
X180925500Y-149699500D01*
X68884600Y-149699500D01*
X68817561Y-149679815D01*
X68771806Y-149627011D01*
X68760600Y-149575500D01*
X68760600Y-144775995D01*
X111165500Y-144775995D01*
X111165500Y-145012004D01*
X111165501Y-145012020D01*
X111196306Y-145246010D01*
X111257394Y-145473993D01*
X111347714Y-145692045D01*
X111347719Y-145692056D01*
X111402659Y-145787213D01*
X111465727Y-145896450D01*
X111465729Y-145896453D01*
X111465730Y-145896454D01*
X111609406Y-146083697D01*
X111609412Y-146083704D01*
X111776295Y-146250587D01*
X111776301Y-146250592D01*
X111963550Y-146394273D01*
X112094918Y-146470118D01*
X112167943Y-146512280D01*
X112167948Y-146512282D01*
X112167951Y-146512284D01*
X112386007Y-146602606D01*
X112613986Y-146663693D01*
X112847989Y-146694500D01*
X112847996Y-146694500D01*
X113084004Y-146694500D01*
X113084011Y-146694500D01*
X113318014Y-146663693D01*
X113545993Y-146602606D01*
X113764049Y-146512284D01*
X113968450Y-146394273D01*
X114155699Y-146250592D01*
X114322592Y-146083699D01*
X114466273Y-145896450D01*
X114584284Y-145692049D01*
X114674606Y-145473993D01*
X114735693Y-145246014D01*
X114766500Y-145012011D01*
X114766500Y-144775995D01*
X134533500Y-144775995D01*
X134533500Y-145012004D01*
X134533501Y-145012020D01*
X134564306Y-145246010D01*
X134625394Y-145473993D01*
X134715714Y-145692045D01*
X134715719Y-145692056D01*
X134770659Y-145787213D01*
X134833727Y-145896450D01*
X134833729Y-145896453D01*
X134833730Y-145896454D01*
X134977406Y-146083697D01*
X134977412Y-146083704D01*
X135144295Y-146250587D01*
X135144301Y-146250592D01*
X135331550Y-146394273D01*
X135462918Y-146470118D01*
X135535943Y-146512280D01*
X135535948Y-146512282D01*
X135535951Y-146512284D01*
X135754007Y-146602606D01*
X135981986Y-146663693D01*
X136215989Y-146694500D01*
X136215996Y-146694500D01*
X136452004Y-146694500D01*
X136452011Y-146694500D01*
X136686014Y-146663693D01*
X136913993Y-146602606D01*
X137132049Y-146512284D01*
X137336450Y-146394273D01*
X137523699Y-146250592D01*
X137690592Y-146083699D01*
X137834273Y-145896450D01*
X137952284Y-145692049D01*
X138042606Y-145473993D01*
X138103693Y-145246014D01*
X138134500Y-145012011D01*
X138134500Y-144837648D01*
X145109500Y-144837648D01*
X145109500Y-145042351D01*
X145141522Y-145244534D01*
X145204781Y-145439223D01*
X145297715Y-145621613D01*
X145418028Y-145787213D01*
X145562786Y-145931971D01*
X145645371Y-145991971D01*
X145728390Y-146052287D01*
X145844607Y-146111503D01*
X145910776Y-146145218D01*
X145910778Y-146145218D01*
X145910781Y-146145220D01*
X146015137Y-146179127D01*
X146105465Y-146208477D01*
X146206557Y-146224488D01*
X146307648Y-146240500D01*
X146307649Y-146240500D01*
X146512351Y-146240500D01*
X146512352Y-146240500D01*
X146714534Y-146208477D01*
X146909219Y-146145220D01*
X147091610Y-146052287D01*
X147184590Y-145984732D01*
X147257213Y-145931971D01*
X147257215Y-145931968D01*
X147257219Y-145931966D01*
X147401966Y-145787219D01*
X147401968Y-145787215D01*
X147401971Y-145787213D01*
X147471113Y-145692045D01*
X147522287Y-145621610D01*
X147615220Y-145439219D01*
X147678477Y-145244534D01*
X147710500Y-145042352D01*
X147710500Y-144897648D01*
X165049500Y-144897648D01*
X165049500Y-145102351D01*
X165081522Y-145304534D01*
X165144781Y-145499223D01*
X165237715Y-145681613D01*
X165358028Y-145847213D01*
X165502786Y-145991971D01*
X165657749Y-146104556D01*
X165668390Y-146112287D01*
X165733021Y-146145218D01*
X165850776Y-146205218D01*
X165850778Y-146205218D01*
X165850781Y-146205220D01*
X165955137Y-146239127D01*
X166045465Y-146268477D01*
X166146557Y-146284488D01*
X166247648Y-146300500D01*
X166247649Y-146300500D01*
X166452351Y-146300500D01*
X166452352Y-146300500D01*
X166654534Y-146268477D01*
X166849219Y-146205220D01*
X167031610Y-146112287D01*
X167124590Y-146044732D01*
X167197213Y-145991971D01*
X167197215Y-145991968D01*
X167197219Y-145991966D01*
X167341966Y-145847219D01*
X167341968Y-145847215D01*
X167341971Y-145847213D01*
X167394732Y-145774590D01*
X167462287Y-145681610D01*
X167555220Y-145499219D01*
X167618477Y-145304534D01*
X167650500Y-145102352D01*
X167650500Y-144897648D01*
X167618477Y-144695466D01*
X167598981Y-144635465D01*
X167555218Y-144500776D01*
X167521503Y-144434607D01*
X167462287Y-144318390D01*
X167418692Y-144258386D01*
X167341971Y-144152786D01*
X167197213Y-144008028D01*
X167031613Y-143887715D01*
X167031612Y-143887714D01*
X167031610Y-143887713D01*
X166974653Y-143858691D01*
X166849223Y-143794781D01*
X166654534Y-143731522D01*
X166479995Y-143703878D01*
X166452352Y-143699500D01*
X166247648Y-143699500D01*
X166223329Y-143703351D01*
X166045465Y-143731522D01*
X165850776Y-143794781D01*
X165668386Y-143887715D01*
X165502786Y-144008028D01*
X165358028Y-144152786D01*
X165237715Y-144318386D01*
X165144781Y-144500776D01*
X165081522Y-144695465D01*
X165049500Y-144897648D01*
X147710500Y-144897648D01*
X147710500Y-144837648D01*
X147678477Y-144635466D01*
X147615220Y-144440781D01*
X147615218Y-144440778D01*
X147615218Y-144440776D01*
X147581503Y-144374607D01*
X147522287Y-144258390D01*
X147514556Y-144247749D01*
X147401971Y-144092786D01*
X147257213Y-143948028D01*
X147091613Y-143827715D01*
X147091612Y-143827714D01*
X147091610Y-143827713D01*
X147034653Y-143798691D01*
X146909223Y-143734781D01*
X146714534Y-143671522D01*
X146539995Y-143643878D01*
X146512352Y-143639500D01*
X146307648Y-143639500D01*
X146283329Y-143643351D01*
X146105465Y-143671522D01*
X145910776Y-143734781D01*
X145728386Y-143827715D01*
X145562786Y-143948028D01*
X145418028Y-144092786D01*
X145297715Y-144258386D01*
X145204781Y-144440776D01*
X145141522Y-144635465D01*
X145109500Y-144837648D01*
X138134500Y-144837648D01*
X138134500Y-144775989D01*
X138103693Y-144541986D01*
X138042606Y-144314007D01*
X137952284Y-144095951D01*
X137952282Y-144095948D01*
X137952280Y-144095943D01*
X137901525Y-144008034D01*
X137834273Y-143891550D01*
X137711480Y-143731523D01*
X137690593Y-143704302D01*
X137690587Y-143704295D01*
X137523704Y-143537412D01*
X137523697Y-143537406D01*
X137336454Y-143393730D01*
X137336453Y-143393729D01*
X137336450Y-143393727D01*
X137254957Y-143346677D01*
X137132056Y-143275719D01*
X137132045Y-143275714D01*
X136913993Y-143185394D01*
X136686010Y-143124306D01*
X136452020Y-143093501D01*
X136452017Y-143093500D01*
X136452011Y-143093500D01*
X136215989Y-143093500D01*
X136215983Y-143093500D01*
X136215979Y-143093501D01*
X135981989Y-143124306D01*
X135754006Y-143185394D01*
X135535954Y-143275714D01*
X135535943Y-143275719D01*
X135331545Y-143393730D01*
X135144302Y-143537406D01*
X135144295Y-143537412D01*
X134977412Y-143704295D01*
X134977406Y-143704302D01*
X134833730Y-143891545D01*
X134715719Y-144095943D01*
X134715714Y-144095954D01*
X134625394Y-144314006D01*
X134564306Y-144541989D01*
X134533501Y-144775979D01*
X134533500Y-144775995D01*
X114766500Y-144775995D01*
X114766500Y-144775989D01*
X114735693Y-144541986D01*
X114674606Y-144314007D01*
X114584284Y-144095951D01*
X114584282Y-144095948D01*
X114584280Y-144095943D01*
X114533525Y-144008034D01*
X114466273Y-143891550D01*
X114343480Y-143731523D01*
X114322593Y-143704302D01*
X114322587Y-143704295D01*
X114155704Y-143537412D01*
X114155697Y-143537406D01*
X113968454Y-143393730D01*
X113968453Y-143393729D01*
X113968450Y-143393727D01*
X113886957Y-143346677D01*
X113764056Y-143275719D01*
X113764045Y-143275714D01*
X113545993Y-143185394D01*
X113318010Y-143124306D01*
X113084020Y-143093501D01*
X113084017Y-143093500D01*
X113084011Y-143093500D01*
X112847989Y-143093500D01*
X112847983Y-143093500D01*
X112847979Y-143093501D01*
X112613989Y-143124306D01*
X112386006Y-143185394D01*
X112167954Y-143275714D01*
X112167943Y-143275719D01*
X111963545Y-143393730D01*
X111776302Y-143537406D01*
X111776295Y-143537412D01*
X111609412Y-143704295D01*
X111609406Y-143704302D01*
X111465730Y-143891545D01*
X111347719Y-144095943D01*
X111347714Y-144095954D01*
X111257394Y-144314006D01*
X111196306Y-144541989D01*
X111165501Y-144775979D01*
X111165500Y-144775995D01*
X68760600Y-144775995D01*
X68760600Y-139399983D01*
X172549500Y-139399983D01*
X172549500Y-140600001D01*
X172549501Y-140600018D01*
X172560000Y-140702796D01*
X172560001Y-140702799D01*
X172575681Y-140750116D01*
X172615186Y-140869334D01*
X172707288Y-141018656D01*
X172831344Y-141142712D01*
X172980666Y-141234814D01*
X173147203Y-141289999D01*
X173249991Y-141300500D01*
X174450008Y-141300499D01*
X174552797Y-141289999D01*
X174719334Y-141234814D01*
X174868656Y-141142712D01*
X174992712Y-141018656D01*
X175084814Y-140869334D01*
X175108102Y-140799054D01*
X175112110Y-140791050D01*
X175130060Y-140771772D01*
X175145055Y-140750116D01*
X175153495Y-140746606D01*
X175159725Y-140739917D01*
X175185249Y-140733404D01*
X175209571Y-140723292D01*
X175225834Y-140723048D01*
X175227425Y-140722643D01*
X175228523Y-140723008D01*
X175232719Y-140722946D01*
X175270525Y-140725921D01*
X175950000Y-140046446D01*
X175950000Y-140052661D01*
X175977259Y-140154394D01*
X176029920Y-140245606D01*
X176104394Y-140320080D01*
X176195606Y-140372741D01*
X176297339Y-140400000D01*
X176303553Y-140400000D01*
X175624076Y-141079474D01*
X175668650Y-141111859D01*
X175850968Y-141204755D01*
X176045582Y-141267990D01*
X176247683Y-141300000D01*
X176452317Y-141300000D01*
X176654417Y-141267990D01*
X176849031Y-141204755D01*
X177031349Y-141111859D01*
X177075921Y-141079474D01*
X176396447Y-140400000D01*
X176402661Y-140400000D01*
X176504394Y-140372741D01*
X176595606Y-140320080D01*
X176670080Y-140245606D01*
X176722741Y-140154394D01*
X176750000Y-140052661D01*
X176750000Y-140046448D01*
X177429474Y-140725922D01*
X177429474Y-140725921D01*
X177461859Y-140681349D01*
X177554755Y-140499031D01*
X177617990Y-140304417D01*
X177650000Y-140102317D01*
X177650000Y-139897682D01*
X177617990Y-139695582D01*
X177554755Y-139500968D01*
X177461859Y-139318650D01*
X177429474Y-139274077D01*
X177429474Y-139274076D01*
X176750000Y-139953551D01*
X176750000Y-139947339D01*
X176722741Y-139845606D01*
X176670080Y-139754394D01*
X176595606Y-139679920D01*
X176504394Y-139627259D01*
X176402661Y-139600000D01*
X176396446Y-139600000D01*
X177075922Y-138920524D01*
X177075921Y-138920523D01*
X177031359Y-138888147D01*
X177031350Y-138888141D01*
X176849031Y-138795244D01*
X176654417Y-138732009D01*
X176452317Y-138700000D01*
X176247683Y-138700000D01*
X176045582Y-138732009D01*
X175850968Y-138795244D01*
X175668644Y-138888143D01*
X175624077Y-138920523D01*
X175624077Y-138920524D01*
X176303554Y-139600000D01*
X176297339Y-139600000D01*
X176195606Y-139627259D01*
X176104394Y-139679920D01*
X176029920Y-139754394D01*
X175977259Y-139845606D01*
X175950000Y-139947339D01*
X175950000Y-139953553D01*
X175270524Y-139274077D01*
X175232719Y-139277053D01*
X175164341Y-139262689D01*
X175114584Y-139213638D01*
X175112110Y-139208949D01*
X175108101Y-139200942D01*
X175084814Y-139130666D01*
X174992712Y-138981344D01*
X174868656Y-138857288D01*
X174719334Y-138765186D01*
X174552797Y-138710001D01*
X174552795Y-138710000D01*
X174450010Y-138699500D01*
X173249998Y-138699500D01*
X173249981Y-138699501D01*
X173147203Y-138710000D01*
X173147200Y-138710001D01*
X172980668Y-138765185D01*
X172980663Y-138765187D01*
X172831342Y-138857289D01*
X172707289Y-138981342D01*
X172615187Y-139130663D01*
X172615186Y-139130666D01*
X172560001Y-139297203D01*
X172560001Y-139297204D01*
X172560000Y-139297204D01*
X172549500Y-139399983D01*
X68760600Y-139399983D01*
X68760600Y-111897648D01*
X97699500Y-111897648D01*
X97699500Y-112102351D01*
X97731522Y-112304534D01*
X97794781Y-112499223D01*
X97887715Y-112681613D01*
X98008028Y-112847213D01*
X98152786Y-112991971D01*
X98307749Y-113104556D01*
X98318390Y-113112287D01*
X98420593Y-113164362D01*
X98500776Y-113205218D01*
X98500778Y-113205218D01*
X98500781Y-113205220D01*
X98605137Y-113239127D01*
X98695465Y-113268477D01*
X98796557Y-113284488D01*
X98897648Y-113300500D01*
X98897649Y-113300500D01*
X99102351Y-113300500D01*
X99102352Y-113300500D01*
X99304534Y-113268477D01*
X99499219Y-113205220D01*
X99681610Y-113112287D01*
X99807114Y-113021104D01*
X99847213Y-112991971D01*
X99847215Y-112991968D01*
X99847219Y-112991966D01*
X99991966Y-112847219D01*
X99991968Y-112847215D01*
X99991971Y-112847213D01*
X100044732Y-112774590D01*
X100112287Y-112681610D01*
X100205220Y-112499219D01*
X100268477Y-112304534D01*
X100300500Y-112102352D01*
X100300500Y-111897648D01*
X100293032Y-111850499D01*
X100268477Y-111695465D01*
X100222888Y-111555157D01*
X100205220Y-111500781D01*
X100205218Y-111500778D01*
X100205218Y-111500776D01*
X100171503Y-111434607D01*
X100112287Y-111318390D01*
X100099552Y-111300861D01*
X99991971Y-111152786D01*
X99847213Y-111008028D01*
X99681613Y-110887715D01*
X99681612Y-110887714D01*
X99681610Y-110887713D01*
X99624653Y-110858691D01*
X99499223Y-110794781D01*
X99304534Y-110731522D01*
X99129995Y-110703878D01*
X99102352Y-110699500D01*
X98897648Y-110699500D01*
X98873329Y-110703351D01*
X98695465Y-110731522D01*
X98500776Y-110794781D01*
X98318386Y-110887715D01*
X98152786Y-111008028D01*
X98008028Y-111152786D01*
X97887715Y-111318386D01*
X97794781Y-111500776D01*
X97731522Y-111695465D01*
X97699500Y-111897648D01*
X68760600Y-111897648D01*
X68760600Y-101737648D01*
X97699500Y-101737648D01*
X97699500Y-101942351D01*
X97731522Y-102144534D01*
X97794781Y-102339223D01*
X97837457Y-102422978D01*
X97863668Y-102474420D01*
X97887715Y-102521613D01*
X98008028Y-102687213D01*
X98152786Y-102831971D01*
X98284273Y-102927500D01*
X98318390Y-102952287D01*
X98434607Y-103011503D01*
X98500776Y-103045218D01*
X98500778Y-103045218D01*
X98500781Y-103045220D01*
X98605137Y-103079127D01*
X98695465Y-103108477D01*
X98796557Y-103124488D01*
X98897648Y-103140500D01*
X98897649Y-103140500D01*
X99102351Y-103140500D01*
X99102352Y-103140500D01*
X99304534Y-103108477D01*
X99499219Y-103045220D01*
X99681610Y-102952287D01*
X99835494Y-102840485D01*
X99847213Y-102831971D01*
X99847215Y-102831968D01*
X99847219Y-102831966D01*
X99991966Y-102687219D01*
X99991968Y-102687215D01*
X99991971Y-102687213D01*
X100104790Y-102531929D01*
X100112287Y-102521610D01*
X100165015Y-102418124D01*
X100212989Y-102367329D01*
X100280810Y-102350534D01*
X100346945Y-102373071D01*
X100390397Y-102427786D01*
X100399500Y-102474420D01*
X100399500Y-105913330D01*
X100399499Y-105913348D01*
X100399499Y-106079054D01*
X100399498Y-106079054D01*
X100416794Y-106143602D01*
X100440423Y-106231785D01*
X100447682Y-106244358D01*
X100447684Y-106244366D01*
X100447687Y-106244365D01*
X100489713Y-106317157D01*
X100519479Y-106368714D01*
X100519481Y-106368717D01*
X100638349Y-106487585D01*
X100638355Y-106487590D01*
X105705922Y-111555157D01*
X105739407Y-111616480D01*
X105736173Y-111681155D01*
X105731523Y-111695466D01*
X105699500Y-111897648D01*
X105699500Y-112102351D01*
X105731522Y-112304534D01*
X105794781Y-112499223D01*
X105887715Y-112681613D01*
X106008028Y-112847213D01*
X106152786Y-112991971D01*
X106307749Y-113104556D01*
X106318390Y-113112287D01*
X106420593Y-113164362D01*
X106500776Y-113205218D01*
X106500778Y-113205218D01*
X106500781Y-113205220D01*
X106605137Y-113239127D01*
X106695465Y-113268477D01*
X106796557Y-113284488D01*
X106897648Y-113300500D01*
X106897649Y-113300500D01*
X107102351Y-113300500D01*
X107102352Y-113300500D01*
X107304534Y-113268477D01*
X107499219Y-113205220D01*
X107681610Y-113112287D01*
X107807114Y-113021104D01*
X107847213Y-112991971D01*
X107847215Y-112991968D01*
X107847219Y-112991966D01*
X107991966Y-112847219D01*
X107991968Y-112847215D01*
X107991971Y-112847213D01*
X108044732Y-112774590D01*
X108112287Y-112681610D01*
X108205220Y-112499219D01*
X108268477Y-112304534D01*
X108300500Y-112102352D01*
X108300500Y-111897648D01*
X108293032Y-111850499D01*
X108268477Y-111695465D01*
X108222888Y-111555157D01*
X108205220Y-111500781D01*
X108205218Y-111500778D01*
X108205218Y-111500776D01*
X108171503Y-111434607D01*
X108112287Y-111318390D01*
X108099552Y-111300861D01*
X107991971Y-111152786D01*
X107847213Y-111008028D01*
X107681613Y-110887715D01*
X107681612Y-110887714D01*
X107681610Y-110887713D01*
X107624653Y-110858691D01*
X107499223Y-110794781D01*
X107304534Y-110731522D01*
X107129995Y-110703878D01*
X107102352Y-110699500D01*
X106897648Y-110699500D01*
X106859599Y-110705526D01*
X106695468Y-110731522D01*
X106686717Y-110734365D01*
X106681154Y-110736173D01*
X106611313Y-110738167D01*
X106555157Y-110705922D01*
X101636819Y-105787584D01*
X101603334Y-105726261D01*
X101600500Y-105699903D01*
X101600500Y-99653650D01*
X101620185Y-99586611D01*
X101636815Y-99565972D01*
X101660626Y-99542162D01*
X101753703Y-99402863D01*
X101817816Y-99248082D01*
X101850500Y-99083767D01*
X101850500Y-98916233D01*
X101817816Y-98751918D01*
X101753703Y-98597137D01*
X101722537Y-98550494D01*
X101660626Y-98457837D01*
X101542162Y-98339373D01*
X101402860Y-98246295D01*
X101248082Y-98182184D01*
X101248074Y-98182182D01*
X101083771Y-98149500D01*
X101083767Y-98149500D01*
X100916233Y-98149500D01*
X100916228Y-98149500D01*
X100751925Y-98182182D01*
X100751917Y-98182184D01*
X100597139Y-98246295D01*
X100457837Y-98339373D01*
X100339373Y-98457837D01*
X100246295Y-98597139D01*
X100182184Y-98751917D01*
X100182182Y-98751925D01*
X100149500Y-98916228D01*
X100149500Y-99083771D01*
X100182182Y-99248074D01*
X100182184Y-99248082D01*
X100246295Y-99402860D01*
X100339372Y-99542160D01*
X100339373Y-99542161D01*
X100339374Y-99542162D01*
X100363181Y-99565969D01*
X100396666Y-99627290D01*
X100399500Y-99653650D01*
X100399500Y-101205579D01*
X100379815Y-101272618D01*
X100327011Y-101318373D01*
X100257853Y-101328317D01*
X100194297Y-101299292D01*
X100165015Y-101261874D01*
X100136147Y-101205218D01*
X100112287Y-101158390D01*
X100082173Y-101116941D01*
X99991971Y-100992786D01*
X99847213Y-100848028D01*
X99681613Y-100727715D01*
X99681612Y-100727714D01*
X99681610Y-100727713D01*
X99591128Y-100681610D01*
X99499223Y-100634781D01*
X99304534Y-100571522D01*
X99119146Y-100542160D01*
X99102352Y-100539500D01*
X98897648Y-100539500D01*
X98880854Y-100542160D01*
X98695465Y-100571522D01*
X98500776Y-100634781D01*
X98318386Y-100727715D01*
X98152786Y-100848028D01*
X98008028Y-100992786D01*
X97887715Y-101158386D01*
X97794781Y-101340776D01*
X97731522Y-101535465D01*
X97699500Y-101737648D01*
X68760600Y-101737648D01*
X68760600Y-88749999D01*
X73871865Y-88749999D01*
X73871865Y-88750000D01*
X74726409Y-88750000D01*
X74683958Y-88823527D01*
X74652800Y-88939808D01*
X74652800Y-89060192D01*
X74683958Y-89176473D01*
X74726409Y-89250000D01*
X73871865Y-89250000D01*
X73879074Y-89295517D01*
X73940456Y-89484435D01*
X74030641Y-89661432D01*
X74147403Y-89822139D01*
X74147403Y-89822140D01*
X74287859Y-89962596D01*
X74448567Y-90079358D01*
X74625562Y-90169542D01*
X74814473Y-90230922D01*
X74860000Y-90238133D01*
X74860000Y-89383591D01*
X74933527Y-89426042D01*
X75049808Y-89457200D01*
X75170192Y-89457200D01*
X75286473Y-89426042D01*
X75360000Y-89383591D01*
X75360000Y-90238132D01*
X75405526Y-90230922D01*
X75594437Y-90169542D01*
X75771432Y-90079358D01*
X75932139Y-89962596D01*
X75932140Y-89962596D01*
X76072596Y-89822140D01*
X76072596Y-89822139D01*
X76189358Y-89661432D01*
X76249284Y-89543822D01*
X76297258Y-89493026D01*
X76365079Y-89476231D01*
X76431214Y-89498768D01*
X76470253Y-89543821D01*
X76530313Y-89661694D01*
X76647119Y-89822464D01*
X76787636Y-89962981D01*
X76948406Y-90079787D01*
X77013945Y-90113181D01*
X77125467Y-90170005D01*
X77125470Y-90170006D01*
X77162945Y-90182182D01*
X77314464Y-90231413D01*
X77510739Y-90262500D01*
X77510740Y-90262500D01*
X77709460Y-90262500D01*
X77709461Y-90262500D01*
X77905736Y-90231413D01*
X78094732Y-90170005D01*
X78271794Y-90079787D01*
X78432564Y-89962981D01*
X78573081Y-89822464D01*
X78689887Y-89661694D01*
X78780105Y-89484632D01*
X78782118Y-89478435D01*
X78821555Y-89420760D01*
X78885913Y-89393561D01*
X78954760Y-89405474D01*
X79006236Y-89452717D01*
X79017981Y-89478434D01*
X79018384Y-89479673D01*
X79019995Y-89484633D01*
X79078729Y-89599903D01*
X79110213Y-89661694D01*
X79227019Y-89822464D01*
X79367536Y-89962981D01*
X79528306Y-90079787D01*
X79593845Y-90113181D01*
X79705367Y-90170005D01*
X79705370Y-90170006D01*
X79742845Y-90182182D01*
X79894364Y-90231413D01*
X80090639Y-90262500D01*
X80090640Y-90262500D01*
X80289360Y-90262500D01*
X80289361Y-90262500D01*
X80485636Y-90231413D01*
X80674632Y-90170005D01*
X80851694Y-90079787D01*
X81012464Y-89962981D01*
X81152981Y-89822464D01*
X81269787Y-89661694D01*
X81349515Y-89505218D01*
X81397490Y-89454423D01*
X81465311Y-89437628D01*
X81531446Y-89460165D01*
X81570484Y-89505218D01*
X81650213Y-89661694D01*
X81767019Y-89822464D01*
X81907536Y-89962981D01*
X82068306Y-90079787D01*
X82133845Y-90113181D01*
X82245367Y-90170005D01*
X82245370Y-90170006D01*
X82282845Y-90182182D01*
X82434364Y-90231413D01*
X82630639Y-90262500D01*
X82630640Y-90262500D01*
X82829360Y-90262500D01*
X82829361Y-90262500D01*
X83025636Y-90231413D01*
X83214632Y-90170005D01*
X83391694Y-90079787D01*
X83552464Y-89962981D01*
X83692981Y-89822464D01*
X83809787Y-89661694D01*
X83889515Y-89505218D01*
X83937490Y-89454423D01*
X84005311Y-89437628D01*
X84071446Y-89460165D01*
X84110484Y-89505218D01*
X84190213Y-89661694D01*
X84307019Y-89822464D01*
X84447536Y-89962981D01*
X84608306Y-90079787D01*
X84673845Y-90113181D01*
X84785367Y-90170005D01*
X84785370Y-90170006D01*
X84822845Y-90182182D01*
X84974364Y-90231413D01*
X85170639Y-90262500D01*
X85170640Y-90262500D01*
X85369360Y-90262500D01*
X85369361Y-90262500D01*
X85565636Y-90231413D01*
X85754632Y-90170005D01*
X85931694Y-90079787D01*
X86092464Y-89962981D01*
X86232981Y-89822464D01*
X86349787Y-89661694D01*
X86429796Y-89504667D01*
X86477769Y-89453872D01*
X86545590Y-89437077D01*
X86611725Y-89459614D01*
X86650765Y-89504668D01*
X86730641Y-89661432D01*
X86847403Y-89822139D01*
X86847403Y-89822140D01*
X86987859Y-89962596D01*
X87148567Y-90079358D01*
X87325562Y-90169542D01*
X87514473Y-90230922D01*
X87560000Y-90238133D01*
X87560000Y-89383591D01*
X87633527Y-89426042D01*
X87749808Y-89457200D01*
X87870192Y-89457200D01*
X87986473Y-89426042D01*
X88060000Y-89383591D01*
X88060000Y-90238132D01*
X88105526Y-90230922D01*
X88294437Y-90169542D01*
X88471432Y-90079358D01*
X88632139Y-89962596D01*
X88632140Y-89962596D01*
X88772596Y-89822140D01*
X88772596Y-89822139D01*
X88889358Y-89661432D01*
X88969515Y-89504117D01*
X89017490Y-89453321D01*
X89085311Y-89436526D01*
X89151446Y-89459063D01*
X89190485Y-89504117D01*
X89270641Y-89661432D01*
X89387403Y-89822139D01*
X89387403Y-89822140D01*
X89527859Y-89962596D01*
X89688567Y-90079358D01*
X89865562Y-90169542D01*
X90054473Y-90230922D01*
X90100000Y-90238133D01*
X90100000Y-89383591D01*
X90173527Y-89426042D01*
X90289808Y-89457200D01*
X90410192Y-89457200D01*
X90526473Y-89426042D01*
X90600000Y-89383591D01*
X90600000Y-90238132D01*
X90645526Y-90230922D01*
X90834437Y-90169542D01*
X91011432Y-90079358D01*
X91172139Y-89962596D01*
X91172140Y-89962596D01*
X91312596Y-89822140D01*
X91312596Y-89822139D01*
X91429358Y-89661432D01*
X91519543Y-89484435D01*
X91580925Y-89295517D01*
X91588134Y-89250000D01*
X90733591Y-89250000D01*
X90776042Y-89176473D01*
X90807200Y-89060192D01*
X90807200Y-88939808D01*
X90776042Y-88823527D01*
X90733591Y-88750000D01*
X91588135Y-88750000D01*
X91588134Y-88749999D01*
X91580925Y-88704482D01*
X91519543Y-88515564D01*
X91429358Y-88338567D01*
X91312596Y-88177860D01*
X91312596Y-88177859D01*
X91172140Y-88037403D01*
X91011432Y-87920641D01*
X90834434Y-87830456D01*
X90834436Y-87830456D01*
X90645517Y-87769074D01*
X90600000Y-87761865D01*
X90600000Y-88616408D01*
X90526473Y-88573958D01*
X90410192Y-88542800D01*
X90289808Y-88542800D01*
X90173527Y-88573958D01*
X90100000Y-88616408D01*
X90100000Y-87761865D01*
X90099999Y-87761865D01*
X90054482Y-87769074D01*
X89865564Y-87830456D01*
X89688567Y-87920641D01*
X89527860Y-88037403D01*
X89527859Y-88037403D01*
X89387403Y-88177859D01*
X89387403Y-88177860D01*
X89270641Y-88338567D01*
X89190485Y-88495882D01*
X89142510Y-88546678D01*
X89074689Y-88563473D01*
X89008554Y-88540935D01*
X88969515Y-88495882D01*
X88889358Y-88338567D01*
X88772596Y-88177860D01*
X88772596Y-88177859D01*
X88632140Y-88037403D01*
X88471432Y-87920641D01*
X88294434Y-87830456D01*
X88294436Y-87830456D01*
X88105517Y-87769074D01*
X88060000Y-87761865D01*
X88060000Y-88616408D01*
X87986473Y-88573958D01*
X87870192Y-88542800D01*
X87749808Y-88542800D01*
X87633527Y-88573958D01*
X87560000Y-88616408D01*
X87560000Y-87761865D01*
X87559999Y-87761865D01*
X87514482Y-87769074D01*
X87325564Y-87830456D01*
X87148567Y-87920641D01*
X86987860Y-88037403D01*
X86987859Y-88037403D01*
X86847403Y-88177859D01*
X86847403Y-88177860D01*
X86730639Y-88338569D01*
X86650764Y-88495332D01*
X86602790Y-88546127D01*
X86534969Y-88562922D01*
X86468834Y-88540384D01*
X86429796Y-88495332D01*
X86349787Y-88338306D01*
X86232981Y-88177536D01*
X86092464Y-88037019D01*
X85931694Y-87920213D01*
X85931690Y-87920210D01*
X85929715Y-87919000D01*
X85929121Y-87918343D01*
X85927752Y-87917349D01*
X85927960Y-87917061D01*
X85882837Y-87867190D01*
X85870500Y-87813270D01*
X85870500Y-87030097D01*
X85890185Y-86963058D01*
X85906819Y-86942416D01*
X86212416Y-86636819D01*
X86273739Y-86603334D01*
X86300097Y-86600500D01*
X93699903Y-86600500D01*
X93766942Y-86620185D01*
X93787584Y-86636819D01*
X107558137Y-100407372D01*
X107591622Y-100468695D01*
X107586638Y-100538387D01*
X107544766Y-100594320D01*
X107479302Y-100618737D01*
X107432138Y-100612984D01*
X107399219Y-100602288D01*
X107304534Y-100571522D01*
X107119146Y-100542160D01*
X107102352Y-100539500D01*
X106897648Y-100539500D01*
X106880854Y-100542160D01*
X106695465Y-100571522D01*
X106500776Y-100634781D01*
X106318386Y-100727715D01*
X106152786Y-100848028D01*
X106008028Y-100992786D01*
X105887715Y-101158386D01*
X105794781Y-101340776D01*
X105731522Y-101535465D01*
X105699500Y-101737648D01*
X105699500Y-101942351D01*
X105731522Y-102144534D01*
X105794781Y-102339223D01*
X105837457Y-102422978D01*
X105863668Y-102474420D01*
X105887715Y-102521613D01*
X106008028Y-102687213D01*
X106152786Y-102831971D01*
X106284273Y-102927500D01*
X106318390Y-102952287D01*
X106434607Y-103011503D01*
X106500776Y-103045218D01*
X106500778Y-103045218D01*
X106500781Y-103045220D01*
X106605137Y-103079127D01*
X106695465Y-103108477D01*
X106796557Y-103124488D01*
X106897648Y-103140500D01*
X106897649Y-103140500D01*
X107102351Y-103140500D01*
X107102352Y-103140500D01*
X107304534Y-103108477D01*
X107499219Y-103045220D01*
X107681610Y-102952287D01*
X107835494Y-102840485D01*
X107847213Y-102831971D01*
X107847215Y-102831968D01*
X107847219Y-102831966D01*
X107991966Y-102687219D01*
X107991968Y-102687215D01*
X107991971Y-102687213D01*
X108070339Y-102579347D01*
X108112287Y-102521610D01*
X108205220Y-102339219D01*
X108268477Y-102144534D01*
X108300500Y-101942352D01*
X108300500Y-101737648D01*
X108278931Y-101601471D01*
X108268477Y-101535465D01*
X108239906Y-101447534D01*
X108227014Y-101407858D01*
X108225020Y-101338021D01*
X108261100Y-101278188D01*
X108323800Y-101247359D01*
X108393215Y-101255323D01*
X108432627Y-101281862D01*
X109363181Y-102212416D01*
X109396666Y-102273739D01*
X109399500Y-102300097D01*
X109399500Y-103881225D01*
X109399499Y-103881243D01*
X109399499Y-104046949D01*
X109399498Y-104046949D01*
X109440424Y-104199682D01*
X109458958Y-104231783D01*
X109458959Y-104231786D01*
X109519475Y-104336604D01*
X109519481Y-104336612D01*
X109638349Y-104455480D01*
X109638355Y-104455485D01*
X110875684Y-105692814D01*
X110909169Y-105754137D01*
X110904185Y-105823829D01*
X110888324Y-105853376D01*
X110870215Y-105878302D01*
X110870212Y-105878307D01*
X110779994Y-106055367D01*
X110779993Y-106055370D01*
X110718587Y-106244362D01*
X110698891Y-106368717D01*
X110687500Y-106440639D01*
X110687500Y-106639361D01*
X110696386Y-106695465D01*
X110718587Y-106835637D01*
X110779993Y-107024629D01*
X110779994Y-107024632D01*
X110849574Y-107161188D01*
X110870213Y-107201694D01*
X110987019Y-107362464D01*
X111127536Y-107502981D01*
X111288306Y-107619787D01*
X111406832Y-107680179D01*
X111444780Y-107699515D01*
X111495576Y-107747490D01*
X111512371Y-107815311D01*
X111489833Y-107881446D01*
X111444780Y-107920485D01*
X111288305Y-108000213D01*
X111127533Y-108117021D01*
X110987021Y-108257533D01*
X110870213Y-108418305D01*
X110779994Y-108595367D01*
X110779993Y-108595370D01*
X110718587Y-108784362D01*
X110690770Y-108959994D01*
X110687500Y-108980639D01*
X110687500Y-109179361D01*
X110692919Y-109213573D01*
X110718587Y-109375637D01*
X110779993Y-109564629D01*
X110779994Y-109564632D01*
X110849123Y-109700303D01*
X110870213Y-109741694D01*
X110987019Y-109902464D01*
X111127536Y-110042981D01*
X111288306Y-110159787D01*
X111391708Y-110212473D01*
X111444780Y-110239515D01*
X111495576Y-110287490D01*
X111512371Y-110355311D01*
X111489833Y-110421446D01*
X111444780Y-110460485D01*
X111288305Y-110540213D01*
X111127533Y-110657021D01*
X110987021Y-110797533D01*
X110870213Y-110958305D01*
X110779994Y-111135367D01*
X110779993Y-111135370D01*
X110718587Y-111324362D01*
X110718587Y-111324364D01*
X110687500Y-111520639D01*
X110687500Y-111719361D01*
X110695237Y-111768213D01*
X110718587Y-111915637D01*
X110779993Y-112104629D01*
X110779994Y-112104632D01*
X110852176Y-112246295D01*
X110870213Y-112281694D01*
X110987019Y-112442464D01*
X111127536Y-112582981D01*
X111288306Y-112699787D01*
X111390632Y-112751925D01*
X111444780Y-112779515D01*
X111495576Y-112827490D01*
X111512371Y-112895311D01*
X111489833Y-112961446D01*
X111444780Y-113000485D01*
X111288305Y-113080213D01*
X111127533Y-113197021D01*
X110987021Y-113337533D01*
X110870213Y-113498305D01*
X110779994Y-113675367D01*
X110779993Y-113675370D01*
X110718587Y-113864362D01*
X110705874Y-113944629D01*
X110687500Y-114060639D01*
X110687500Y-114259361D01*
X110696849Y-114318386D01*
X110718587Y-114455637D01*
X110779993Y-114644629D01*
X110779994Y-114644632D01*
X110845319Y-114772837D01*
X110870213Y-114821694D01*
X110987019Y-114982464D01*
X111127536Y-115122981D01*
X111288306Y-115239787D01*
X111406832Y-115300179D01*
X111444780Y-115319515D01*
X111495576Y-115367490D01*
X111512371Y-115435311D01*
X111489833Y-115501446D01*
X111444780Y-115540485D01*
X111288305Y-115620213D01*
X111127533Y-115737021D01*
X110987021Y-115877533D01*
X110870213Y-116038305D01*
X110779994Y-116215367D01*
X110779993Y-116215370D01*
X110718587Y-116404362D01*
X110705874Y-116484629D01*
X110687500Y-116600639D01*
X110687500Y-116799361D01*
X110703043Y-116897498D01*
X110718587Y-116995637D01*
X110779993Y-117184629D01*
X110779994Y-117184632D01*
X110864000Y-117349500D01*
X110870213Y-117361694D01*
X110987019Y-117522464D01*
X111127536Y-117662981D01*
X111288306Y-117779787D01*
X111362940Y-117817815D01*
X111444780Y-117859515D01*
X111495576Y-117907490D01*
X111512371Y-117975311D01*
X111489833Y-118041446D01*
X111444780Y-118080485D01*
X111288305Y-118160213D01*
X111127533Y-118277021D01*
X110987021Y-118417533D01*
X110870213Y-118578305D01*
X110779994Y-118755367D01*
X110779993Y-118755370D01*
X110718587Y-118944362D01*
X110687500Y-119140639D01*
X110687500Y-119339360D01*
X110718587Y-119535637D01*
X110779993Y-119724629D01*
X110779994Y-119724632D01*
X110844128Y-119850500D01*
X110870213Y-119901694D01*
X110987019Y-120062464D01*
X111127536Y-120202981D01*
X111288306Y-120319787D01*
X111406832Y-120380179D01*
X111444780Y-120399515D01*
X111495576Y-120447490D01*
X111512371Y-120515311D01*
X111489833Y-120581446D01*
X111444780Y-120620485D01*
X111288305Y-120700213D01*
X111127533Y-120817021D01*
X110987021Y-120957533D01*
X110870213Y-121118305D01*
X110779994Y-121295367D01*
X110779993Y-121295370D01*
X110718587Y-121484362D01*
X110687500Y-121680639D01*
X110687500Y-121879360D01*
X110718587Y-122075637D01*
X110779993Y-122264629D01*
X110779994Y-122264632D01*
X110839033Y-122380500D01*
X110870213Y-122441694D01*
X110987019Y-122602464D01*
X111127536Y-122742981D01*
X111288306Y-122859787D01*
X111382071Y-122907563D01*
X111444780Y-122939515D01*
X111495576Y-122987490D01*
X111512371Y-123055311D01*
X111489833Y-123121446D01*
X111444780Y-123160485D01*
X111288305Y-123240213D01*
X111127533Y-123357021D01*
X110987021Y-123497533D01*
X110870213Y-123658305D01*
X110779994Y-123835367D01*
X110779993Y-123835370D01*
X110718587Y-124024362D01*
X110718587Y-124024364D01*
X110687500Y-124220639D01*
X110687500Y-124419361D01*
X110700452Y-124501139D01*
X110718587Y-124615637D01*
X110779993Y-124804629D01*
X110779994Y-124804632D01*
X110848252Y-124938593D01*
X110870213Y-124981694D01*
X110987019Y-125142464D01*
X111127536Y-125282981D01*
X111288306Y-125399787D01*
X111328836Y-125420438D01*
X111444780Y-125479515D01*
X111495576Y-125527490D01*
X111512371Y-125595311D01*
X111489833Y-125661446D01*
X111444780Y-125700485D01*
X111288305Y-125780213D01*
X111127533Y-125897021D01*
X110987021Y-126037533D01*
X110870213Y-126198305D01*
X110779994Y-126375367D01*
X110779993Y-126375370D01*
X110718587Y-126564362D01*
X110687500Y-126760639D01*
X110687500Y-126959360D01*
X110718587Y-127155637D01*
X110779993Y-127344629D01*
X110779994Y-127344632D01*
X110851772Y-127485502D01*
X110870213Y-127521694D01*
X110987019Y-127682464D01*
X111127536Y-127822981D01*
X111288306Y-127939787D01*
X111406832Y-128000179D01*
X111444780Y-128019515D01*
X111495576Y-128067490D01*
X111512371Y-128135311D01*
X111489833Y-128201446D01*
X111444780Y-128240485D01*
X111288305Y-128320213D01*
X111127533Y-128437021D01*
X110987021Y-128577533D01*
X110870213Y-128738305D01*
X110779994Y-128915367D01*
X110779993Y-128915370D01*
X110718587Y-129104362D01*
X110687500Y-129300639D01*
X110687500Y-129499360D01*
X110718587Y-129695637D01*
X110779993Y-129884629D01*
X110779994Y-129884632D01*
X110870213Y-130061694D01*
X110987019Y-130222464D01*
X111127536Y-130362981D01*
X111288306Y-130479787D01*
X111406832Y-130540179D01*
X111444780Y-130559515D01*
X111495576Y-130607490D01*
X111512371Y-130675311D01*
X111489833Y-130741446D01*
X111444780Y-130780485D01*
X111288305Y-130860213D01*
X111127533Y-130977021D01*
X110987021Y-131117533D01*
X110870213Y-131278305D01*
X110779994Y-131455367D01*
X110779993Y-131455370D01*
X110718587Y-131644362D01*
X110687500Y-131840639D01*
X110687500Y-132039360D01*
X110718587Y-132235637D01*
X110779993Y-132424629D01*
X110779994Y-132424632D01*
X110840792Y-132543953D01*
X110870213Y-132601694D01*
X110987019Y-132762464D01*
X111127536Y-132902981D01*
X111288306Y-133019787D01*
X111445332Y-133099796D01*
X111496127Y-133147769D01*
X111512922Y-133215590D01*
X111490385Y-133281725D01*
X111445332Y-133320764D01*
X111288569Y-133400639D01*
X111127860Y-133517403D01*
X111127859Y-133517403D01*
X110987403Y-133657859D01*
X110987403Y-133657860D01*
X110870641Y-133818567D01*
X110780456Y-133995564D01*
X110719074Y-134184482D01*
X110711865Y-134229999D01*
X110711865Y-134230000D01*
X111566409Y-134230000D01*
X111523958Y-134303527D01*
X111492800Y-134419808D01*
X111492800Y-134540192D01*
X111523958Y-134656473D01*
X111566409Y-134730000D01*
X110711865Y-134730000D01*
X110719074Y-134775517D01*
X110780456Y-134964435D01*
X110870641Y-135141432D01*
X110987403Y-135302139D01*
X110987403Y-135302140D01*
X111127859Y-135442596D01*
X111288567Y-135559358D01*
X111445331Y-135639234D01*
X111496127Y-135687209D01*
X111512922Y-135755030D01*
X111490384Y-135821165D01*
X111445331Y-135860204D01*
X111288305Y-135940213D01*
X111127533Y-136057021D01*
X110987021Y-136197533D01*
X110870213Y-136358305D01*
X110779994Y-136535367D01*
X110779993Y-136535370D01*
X110718587Y-136724362D01*
X110687500Y-136920639D01*
X110687500Y-137119360D01*
X110718587Y-137315637D01*
X110779993Y-137504629D01*
X110779994Y-137504632D01*
X110839033Y-137620500D01*
X110870213Y-137681694D01*
X110987019Y-137842464D01*
X111127536Y-137982981D01*
X111288306Y-138099787D01*
X111375149Y-138144035D01*
X111465367Y-138190005D01*
X111465370Y-138190006D01*
X111559866Y-138220709D01*
X111654364Y-138251413D01*
X111850639Y-138282500D01*
X111850640Y-138282500D01*
X112049360Y-138282500D01*
X112049361Y-138282500D01*
X112245636Y-138251413D01*
X112434632Y-138190005D01*
X112611694Y-138099787D01*
X112772464Y-137982981D01*
X112912981Y-137842464D01*
X113029787Y-137681694D01*
X113120005Y-137504632D01*
X113181413Y-137315636D01*
X113212500Y-137119361D01*
X113212500Y-136920639D01*
X113181413Y-136724364D01*
X113120005Y-136535368D01*
X113120005Y-136535367D01*
X113050937Y-136399815D01*
X113029787Y-136358306D01*
X112912981Y-136197536D01*
X112772464Y-136057019D01*
X112611694Y-135940213D01*
X112454667Y-135860203D01*
X112403872Y-135812229D01*
X112387077Y-135744408D01*
X112409614Y-135678273D01*
X112454668Y-135639234D01*
X112611432Y-135559358D01*
X112772139Y-135442596D01*
X112772140Y-135442596D01*
X112912596Y-135302140D01*
X112912596Y-135302139D01*
X113029358Y-135141432D01*
X113119543Y-134964435D01*
X113180925Y-134775517D01*
X113188134Y-134730000D01*
X112333591Y-134730000D01*
X112376042Y-134656473D01*
X112407200Y-134540192D01*
X112407200Y-134419808D01*
X112376042Y-134303527D01*
X112333591Y-134230000D01*
X113188135Y-134230000D01*
X113188134Y-134229999D01*
X113180925Y-134184482D01*
X113119543Y-133995564D01*
X113029358Y-133818567D01*
X112953992Y-133714835D01*
X112912596Y-133657860D01*
X112912596Y-133657859D01*
X112901558Y-133646821D01*
X119349549Y-133646821D01*
X119349549Y-133851524D01*
X119381571Y-134053707D01*
X119444830Y-134248396D01*
X119537764Y-134430786D01*
X119658077Y-134596386D01*
X119802835Y-134741144D01*
X119946955Y-134845851D01*
X119968439Y-134861460D01*
X120055936Y-134906042D01*
X120150825Y-134954391D01*
X120150827Y-134954391D01*
X120150830Y-134954393D01*
X120255186Y-134988300D01*
X120345514Y-135017650D01*
X120446606Y-135033661D01*
X120547697Y-135049673D01*
X120547698Y-135049673D01*
X120752400Y-135049673D01*
X120752401Y-135049673D01*
X120954583Y-135017650D01*
X121149268Y-134954393D01*
X121331659Y-134861460D01*
X121424639Y-134793905D01*
X121497262Y-134741144D01*
X121497264Y-134741141D01*
X121497268Y-134741139D01*
X121642015Y-134596392D01*
X121642017Y-134596388D01*
X121642020Y-134596386D01*
X121700142Y-134516386D01*
X121762336Y-134430783D01*
X121855269Y-134248392D01*
X121918526Y-134053707D01*
X121950549Y-133851525D01*
X121950549Y-133646821D01*
X121918526Y-133444639D01*
X121855269Y-133249954D01*
X121855267Y-133249951D01*
X121855267Y-133249949D01*
X121798650Y-133138834D01*
X121762336Y-133067563D01*
X121727625Y-133019787D01*
X121642020Y-132901959D01*
X121497262Y-132757201D01*
X121331662Y-132636888D01*
X121331661Y-132636887D01*
X121331659Y-132636886D01*
X121262591Y-132601694D01*
X121149272Y-132543954D01*
X120954583Y-132480695D01*
X120780044Y-132453051D01*
X120752401Y-132448673D01*
X120547697Y-132448673D01*
X120523378Y-132452524D01*
X120345514Y-132480695D01*
X120150825Y-132543954D01*
X119968435Y-132636888D01*
X119802835Y-132757201D01*
X119658077Y-132901959D01*
X119537764Y-133067559D01*
X119444830Y-133249949D01*
X119381571Y-133444638D01*
X119349549Y-133646821D01*
X112901558Y-133646821D01*
X112772140Y-133517403D01*
X112611432Y-133400641D01*
X112454668Y-133320765D01*
X112403872Y-133272790D01*
X112387077Y-133204969D01*
X112409615Y-133138834D01*
X112454667Y-133099796D01*
X112611694Y-133019787D01*
X112772464Y-132902981D01*
X112912981Y-132762464D01*
X113029787Y-132601694D01*
X113120005Y-132424632D01*
X113181413Y-132235636D01*
X113212500Y-132039361D01*
X113212500Y-131840639D01*
X113189132Y-131693099D01*
X113198087Y-131623805D01*
X113223921Y-131586023D01*
X119837868Y-124972078D01*
X119899191Y-124938593D01*
X119968883Y-124943577D01*
X120024816Y-124985449D01*
X120049233Y-125050913D01*
X120049549Y-125059759D01*
X120049549Y-125582503D01*
X120049548Y-125582521D01*
X120049548Y-125748227D01*
X120049547Y-125748227D01*
X120090472Y-125900957D01*
X120090473Y-125900960D01*
X120091238Y-125902284D01*
X120091242Y-125902302D01*
X120091247Y-125902300D01*
X120169526Y-126037885D01*
X120169530Y-126037890D01*
X120288398Y-126156758D01*
X120288404Y-126156763D01*
X127355971Y-133224330D01*
X127389456Y-133285653D01*
X127386222Y-133350328D01*
X127381571Y-133364641D01*
X127349549Y-133566821D01*
X127349549Y-133771524D01*
X127381571Y-133973707D01*
X127444830Y-134168396D01*
X127537764Y-134350786D01*
X127658077Y-134516386D01*
X127802835Y-134661144D01*
X127912941Y-134741139D01*
X127968439Y-134781460D01*
X128084656Y-134840676D01*
X128150825Y-134874391D01*
X128150827Y-134874391D01*
X128150830Y-134874393D01*
X128248236Y-134906042D01*
X128345514Y-134937650D01*
X128446606Y-134953661D01*
X128547697Y-134969673D01*
X128547698Y-134969673D01*
X128752400Y-134969673D01*
X128752401Y-134969673D01*
X128954583Y-134937650D01*
X129149268Y-134874393D01*
X129331659Y-134781460D01*
X129424639Y-134713905D01*
X129497262Y-134661144D01*
X129497264Y-134661141D01*
X129497268Y-134661139D01*
X129642015Y-134516392D01*
X129642017Y-134516388D01*
X129642020Y-134516386D01*
X129762333Y-134350787D01*
X129762334Y-134350786D01*
X129762336Y-134350783D01*
X129769166Y-134337377D01*
X129817140Y-134286582D01*
X129879651Y-134269673D01*
X133699076Y-134269673D01*
X133766115Y-134289358D01*
X133786757Y-134305992D01*
X136086237Y-136605472D01*
X136119722Y-136666795D01*
X136119160Y-136719522D01*
X136119349Y-136719552D01*
X136119146Y-136720831D01*
X136119133Y-136722087D01*
X136118587Y-136724360D01*
X136087500Y-136920639D01*
X136087500Y-137119360D01*
X136118587Y-137315637D01*
X136179993Y-137504629D01*
X136179994Y-137504632D01*
X136239033Y-137620500D01*
X136270213Y-137681694D01*
X136387019Y-137842464D01*
X136527536Y-137982981D01*
X136688306Y-138099787D01*
X136775149Y-138144035D01*
X136865367Y-138190005D01*
X136865370Y-138190006D01*
X136959866Y-138220709D01*
X137054364Y-138251413D01*
X137250639Y-138282500D01*
X137250640Y-138282500D01*
X137449360Y-138282500D01*
X137449361Y-138282500D01*
X137645636Y-138251413D01*
X137834632Y-138190005D01*
X138011694Y-138099787D01*
X138172464Y-137982981D01*
X138312981Y-137842464D01*
X138429787Y-137681694D01*
X138429789Y-137681689D01*
X138431000Y-137679715D01*
X138431656Y-137679121D01*
X138432651Y-137677752D01*
X138432938Y-137677960D01*
X138482810Y-137632837D01*
X138536730Y-137620500D01*
X145270660Y-137620500D01*
X145270676Y-137620501D01*
X145278272Y-137620501D01*
X145436383Y-137620501D01*
X145436386Y-137620501D01*
X145589114Y-137579577D01*
X145639233Y-137550639D01*
X145726045Y-137500520D01*
X145837849Y-137388716D01*
X145837849Y-137388714D01*
X145848057Y-137378507D01*
X145848059Y-137378504D01*
X160932487Y-122294075D01*
X160993808Y-122260592D01*
X161058480Y-122263825D01*
X161072795Y-122268477D01*
X161274977Y-122300500D01*
X161274978Y-122300500D01*
X161479680Y-122300500D01*
X161479681Y-122300500D01*
X161681863Y-122268477D01*
X161876548Y-122205220D01*
X162058939Y-122112287D01*
X162151919Y-122044732D01*
X162224542Y-121991971D01*
X162224544Y-121991968D01*
X162224548Y-121991966D01*
X162369295Y-121847219D01*
X162369297Y-121847215D01*
X162369300Y-121847213D01*
X162422061Y-121774590D01*
X162489616Y-121681610D01*
X162582549Y-121499219D01*
X162645806Y-121304534D01*
X162677829Y-121102352D01*
X162677829Y-120897648D01*
X162645806Y-120695466D01*
X162582549Y-120500781D01*
X162582547Y-120500778D01*
X162582547Y-120500776D01*
X162530951Y-120399515D01*
X162489616Y-120318390D01*
X162481885Y-120307749D01*
X162369300Y-120152786D01*
X162224542Y-120008028D01*
X162058939Y-119887712D01*
X162045529Y-119880879D01*
X161994735Y-119832903D01*
X161977829Y-119770397D01*
X161977829Y-116229601D01*
X161997514Y-116162562D01*
X162045535Y-116119116D01*
X162058939Y-116112287D01*
X162224548Y-115991966D01*
X162369295Y-115847219D01*
X162369297Y-115847215D01*
X162369300Y-115847213D01*
X162473084Y-115704364D01*
X162489616Y-115681610D01*
X162582549Y-115499219D01*
X162645806Y-115304534D01*
X162677829Y-115102352D01*
X162677829Y-114897648D01*
X162665391Y-114819121D01*
X162645806Y-114695465D01*
X162612024Y-114591496D01*
X162582549Y-114500781D01*
X162582547Y-114500778D01*
X162582547Y-114500776D01*
X162532657Y-114402863D01*
X162489616Y-114318390D01*
X162463516Y-114282466D01*
X162369300Y-114152786D01*
X162224542Y-114008028D01*
X162058942Y-113887715D01*
X162058941Y-113887714D01*
X162058939Y-113887713D01*
X161965586Y-113840147D01*
X161876552Y-113794781D01*
X161681863Y-113731522D01*
X161491260Y-113701334D01*
X161479681Y-113699500D01*
X161363483Y-113699500D01*
X161296444Y-113679815D01*
X161250689Y-113627011D01*
X161240745Y-113557853D01*
X161269770Y-113494297D01*
X161275802Y-113487819D01*
X161635971Y-113127650D01*
X161635971Y-113127649D01*
X161635975Y-113127646D01*
X161707163Y-113021104D01*
X161719231Y-112991971D01*
X161720049Y-112989995D01*
X161756197Y-112902725D01*
X161756199Y-112902721D01*
X161771164Y-112827490D01*
X161781198Y-112777048D01*
X161781198Y-109337073D01*
X161800883Y-109270034D01*
X161853687Y-109224279D01*
X161905198Y-109213073D01*
X162207098Y-109213073D01*
X162207098Y-108291724D01*
X162261017Y-108322854D01*
X162390218Y-108357473D01*
X162523978Y-108357473D01*
X162653179Y-108322854D01*
X162707098Y-108291724D01*
X162707098Y-109213073D01*
X163368526Y-109213073D01*
X163368542Y-109213072D01*
X163428070Y-109206671D01*
X163428077Y-109206669D01*
X163562784Y-109156427D01*
X163562791Y-109156423D01*
X163677885Y-109070263D01*
X163677888Y-109070260D01*
X163764048Y-108955166D01*
X163764052Y-108955159D01*
X163814294Y-108820452D01*
X163814296Y-108820445D01*
X163820697Y-108760917D01*
X163820698Y-108760900D01*
X163820698Y-108099473D01*
X162899349Y-108099473D01*
X162930479Y-108045554D01*
X162965098Y-107916353D01*
X162965098Y-107782593D01*
X162930479Y-107653392D01*
X162899349Y-107599473D01*
X163820698Y-107599473D01*
X163820698Y-106938045D01*
X163820696Y-106938026D01*
X163817257Y-106906031D01*
X163816355Y-106897648D01*
X165049500Y-106897648D01*
X165049500Y-107102351D01*
X165081522Y-107304534D01*
X165144781Y-107499223D01*
X165237715Y-107681613D01*
X165358028Y-107847213D01*
X165502786Y-107991971D01*
X165630119Y-108084482D01*
X165668390Y-108112287D01*
X165764766Y-108161393D01*
X165850776Y-108205218D01*
X165850778Y-108205218D01*
X165850781Y-108205220D01*
X165955137Y-108239127D01*
X166045465Y-108268477D01*
X166146557Y-108284488D01*
X166247648Y-108300500D01*
X166247649Y-108300500D01*
X166452351Y-108300500D01*
X166452352Y-108300500D01*
X166654534Y-108268477D01*
X166849219Y-108205220D01*
X167031610Y-108112287D01*
X167124590Y-108044732D01*
X167197213Y-107991971D01*
X167197215Y-107991968D01*
X167197219Y-107991966D01*
X167341966Y-107847219D01*
X167341968Y-107847215D01*
X167341971Y-107847213D01*
X167397042Y-107771413D01*
X167462287Y-107681610D01*
X167555220Y-107499219D01*
X167618477Y-107304534D01*
X167650500Y-107102352D01*
X167650500Y-106897648D01*
X167618477Y-106695466D01*
X167614358Y-106682790D01*
X167568781Y-106542518D01*
X167555220Y-106500781D01*
X167555218Y-106500778D01*
X167555218Y-106500776D01*
X167498537Y-106389535D01*
X167462287Y-106318390D01*
X167454556Y-106307749D01*
X167341971Y-106152786D01*
X167197213Y-106008028D01*
X167031613Y-105887715D01*
X167031612Y-105887714D01*
X167031610Y-105887713D01*
X166964220Y-105853376D01*
X166849223Y-105794781D01*
X166654534Y-105731522D01*
X166479995Y-105703878D01*
X166452352Y-105699500D01*
X166247648Y-105699500D01*
X166245104Y-105699903D01*
X166045465Y-105731522D01*
X165850776Y-105794781D01*
X165668386Y-105887715D01*
X165502786Y-106008028D01*
X165358028Y-106152786D01*
X165237715Y-106318386D01*
X165144781Y-106500776D01*
X165081522Y-106695465D01*
X165049500Y-106897648D01*
X163816355Y-106897648D01*
X163814296Y-106878499D01*
X163814294Y-106878493D01*
X163764052Y-106743786D01*
X163764048Y-106743779D01*
X163677888Y-106628685D01*
X163677885Y-106628682D01*
X163562791Y-106542522D01*
X163562784Y-106542518D01*
X163428077Y-106492276D01*
X163428070Y-106492274D01*
X163368542Y-106485873D01*
X162707098Y-106485873D01*
X162707098Y-107407221D01*
X162653179Y-107376092D01*
X162523978Y-107341473D01*
X162390218Y-107341473D01*
X162261017Y-107376092D01*
X162207098Y-107407221D01*
X162207098Y-106485873D01*
X161905198Y-106485873D01*
X161838159Y-106466188D01*
X161792404Y-106413384D01*
X161781198Y-106361873D01*
X161781198Y-106066626D01*
X161756200Y-105940959D01*
X161756199Y-105940958D01*
X161756199Y-105940954D01*
X161707163Y-105822571D01*
X161646327Y-105731523D01*
X161635974Y-105716028D01*
X156307137Y-100387191D01*
X156273652Y-100325868D01*
X156272345Y-100280112D01*
X156276480Y-100254004D01*
X156300500Y-100102352D01*
X156300500Y-99897648D01*
X156290066Y-99831771D01*
X156268477Y-99695465D01*
X156226400Y-99565967D01*
X156205220Y-99500781D01*
X156205218Y-99500778D01*
X156205218Y-99500776D01*
X156155328Y-99402863D01*
X156112287Y-99318390D01*
X156104556Y-99307749D01*
X155991971Y-99152786D01*
X155847213Y-99008028D01*
X155681613Y-98887715D01*
X155681612Y-98887714D01*
X155681610Y-98887713D01*
X155624653Y-98858691D01*
X155499223Y-98794781D01*
X155304534Y-98731522D01*
X155129995Y-98703878D01*
X155102352Y-98699500D01*
X154897648Y-98699500D01*
X154873329Y-98703351D01*
X154695465Y-98731522D01*
X154500776Y-98794781D01*
X154318386Y-98887715D01*
X154152786Y-99008028D01*
X154008028Y-99152786D01*
X153887715Y-99318386D01*
X153794781Y-99500776D01*
X153731522Y-99695465D01*
X153699500Y-99897648D01*
X153699500Y-100059013D01*
X153679815Y-100126052D01*
X153627011Y-100171807D01*
X153557853Y-100181751D01*
X153494297Y-100152726D01*
X153487819Y-100146694D01*
X151153306Y-97812181D01*
X151119821Y-97750858D01*
X151124805Y-97681166D01*
X151166677Y-97625233D01*
X151232141Y-97600816D01*
X151240987Y-97600500D01*
X160580606Y-97600500D01*
X160647645Y-97620185D01*
X160668287Y-97636819D01*
X173536940Y-110505473D01*
X173570425Y-110566796D01*
X173569863Y-110619523D01*
X173570052Y-110619553D01*
X173569849Y-110620832D01*
X173569836Y-110622088D01*
X173569290Y-110624361D01*
X173538203Y-110820639D01*
X173538203Y-111019360D01*
X173569290Y-111215637D01*
X173630696Y-111404629D01*
X173630697Y-111404632D01*
X173690907Y-111522798D01*
X173720916Y-111581694D01*
X173837722Y-111742464D01*
X173978239Y-111882981D01*
X174139009Y-111999787D01*
X174257535Y-112060179D01*
X174295483Y-112079515D01*
X174346279Y-112127490D01*
X174363074Y-112195311D01*
X174340536Y-112261446D01*
X174295483Y-112300485D01*
X174139008Y-112380213D01*
X173978236Y-112497021D01*
X173837724Y-112637533D01*
X173720916Y-112798305D01*
X173630697Y-112975367D01*
X173630696Y-112975370D01*
X173569290Y-113164362D01*
X173538203Y-113360639D01*
X173538203Y-113559360D01*
X173569290Y-113755637D01*
X173630696Y-113944629D01*
X173630697Y-113944632D01*
X173701591Y-114083767D01*
X173720916Y-114121694D01*
X173837722Y-114282464D01*
X173978239Y-114422981D01*
X174139009Y-114539787D01*
X174240493Y-114591496D01*
X174295483Y-114619515D01*
X174346279Y-114667490D01*
X174363074Y-114735311D01*
X174340536Y-114801446D01*
X174295483Y-114840485D01*
X174139008Y-114920213D01*
X173978236Y-115037021D01*
X173837724Y-115177533D01*
X173720916Y-115338305D01*
X173630697Y-115515367D01*
X173630696Y-115515370D01*
X173569290Y-115704362D01*
X173546665Y-115847213D01*
X173538203Y-115900639D01*
X173538203Y-116099361D01*
X173541332Y-116119115D01*
X173569290Y-116295637D01*
X173630696Y-116484629D01*
X173630697Y-116484632D01*
X173720916Y-116661694D01*
X173837722Y-116822464D01*
X173978239Y-116962981D01*
X174139009Y-117079787D01*
X174179013Y-117100170D01*
X174316070Y-117170005D01*
X174316073Y-117170006D01*
X174410569Y-117200709D01*
X174505067Y-117231413D01*
X174701342Y-117262500D01*
X174701343Y-117262500D01*
X174900063Y-117262500D01*
X174900064Y-117262500D01*
X175096339Y-117231413D01*
X175285335Y-117170005D01*
X175462397Y-117079787D01*
X175623167Y-116962981D01*
X175763684Y-116822464D01*
X175880490Y-116661694D01*
X175970708Y-116484632D01*
X176032116Y-116295636D01*
X176063203Y-116099361D01*
X176063203Y-115900639D01*
X176032116Y-115704364D01*
X175970708Y-115515368D01*
X175970708Y-115515367D01*
X175880489Y-115338305D01*
X175874459Y-115330005D01*
X175763684Y-115177536D01*
X175623167Y-115037019D01*
X175462397Y-114920213D01*
X175305921Y-114840484D01*
X175255126Y-114792510D01*
X175238331Y-114724689D01*
X175260868Y-114658554D01*
X175305921Y-114619515D01*
X175462397Y-114539787D01*
X175623167Y-114422981D01*
X175763684Y-114282464D01*
X175880490Y-114121694D01*
X175970708Y-113944632D01*
X176032116Y-113755636D01*
X176063203Y-113559361D01*
X176063203Y-113360639D01*
X176032116Y-113164364D01*
X176001412Y-113069866D01*
X175970709Y-112975370D01*
X175970708Y-112975367D01*
X175921002Y-112877815D01*
X175880490Y-112798306D01*
X175763684Y-112637536D01*
X175623167Y-112497019D01*
X175462397Y-112380213D01*
X175305921Y-112300484D01*
X175255126Y-112252510D01*
X175238331Y-112184689D01*
X175260868Y-112118554D01*
X175305921Y-112079515D01*
X175462397Y-111999787D01*
X175623167Y-111882981D01*
X175763684Y-111742464D01*
X175880490Y-111581694D01*
X175970708Y-111404632D01*
X176032116Y-111215636D01*
X176063203Y-111019361D01*
X176063203Y-110820639D01*
X176032116Y-110624364D01*
X175970708Y-110435368D01*
X175970708Y-110435367D01*
X175880489Y-110258305D01*
X175874459Y-110250005D01*
X175763684Y-110097536D01*
X175623167Y-109957019D01*
X175462397Y-109840213D01*
X175305370Y-109760203D01*
X175254575Y-109712229D01*
X175237780Y-109644408D01*
X175260317Y-109578273D01*
X175305371Y-109539234D01*
X175462135Y-109459358D01*
X175622842Y-109342596D01*
X175622843Y-109342596D01*
X175763299Y-109202140D01*
X175763299Y-109202139D01*
X175880061Y-109041432D01*
X175970246Y-108864435D01*
X176031628Y-108675517D01*
X176038837Y-108630000D01*
X175184063Y-108630000D01*
X175226559Y-108556395D01*
X175257703Y-108440165D01*
X175257703Y-108319835D01*
X175226559Y-108203605D01*
X175184063Y-108130000D01*
X176038838Y-108130000D01*
X176038837Y-108129999D01*
X176031628Y-108084482D01*
X175970246Y-107895564D01*
X175880061Y-107718567D01*
X175763299Y-107557860D01*
X175763299Y-107557859D01*
X175622843Y-107417403D01*
X175462135Y-107300641D01*
X175285137Y-107210456D01*
X175285139Y-107210456D01*
X175096220Y-107149074D01*
X175050703Y-107141865D01*
X175050703Y-107996639D01*
X174977098Y-107954144D01*
X174860868Y-107923000D01*
X174740538Y-107923000D01*
X174624308Y-107954144D01*
X174550703Y-107996639D01*
X174550703Y-107141865D01*
X174550702Y-107141865D01*
X174505185Y-107149074D01*
X174316267Y-107210456D01*
X174139270Y-107300641D01*
X173978563Y-107417403D01*
X173978562Y-107417403D01*
X173838106Y-107557859D01*
X173838106Y-107557860D01*
X173721344Y-107718567D01*
X173631159Y-107895564D01*
X173569777Y-108084482D01*
X173562568Y-108129999D01*
X173562568Y-108130000D01*
X174417343Y-108130000D01*
X174374847Y-108203605D01*
X174343703Y-108319835D01*
X174343703Y-108440165D01*
X174374847Y-108556395D01*
X174417343Y-108630000D01*
X173562568Y-108630000D01*
X173556345Y-108637286D01*
X173497838Y-108675479D01*
X173427971Y-108675978D01*
X173374374Y-108644435D01*
X172984682Y-108254743D01*
X161368293Y-96638355D01*
X161368291Y-96638352D01*
X161249420Y-96519481D01*
X161249419Y-96519480D01*
X161162607Y-96469360D01*
X161162607Y-96469359D01*
X161162603Y-96469358D01*
X161112488Y-96440423D01*
X160959760Y-96399499D01*
X160801646Y-96399499D01*
X160794050Y-96399499D01*
X160794034Y-96399500D01*
X149791987Y-96399500D01*
X149767630Y-96392347D01*
X149742445Y-96389173D01*
X149731564Y-96381757D01*
X149724948Y-96379815D01*
X149712426Y-96370611D01*
X149708205Y-96367080D01*
X149641661Y-96300536D01*
X149582584Y-96261063D01*
X149577031Y-96257352D01*
X149577028Y-96257350D01*
X149494169Y-96201985D01*
X149494167Y-96201984D01*
X149412232Y-96168046D01*
X149412231Y-96168046D01*
X149330291Y-96134105D01*
X149330283Y-96134103D01*
X149156321Y-96099500D01*
X149156317Y-96099500D01*
X149156316Y-96099500D01*
X146364463Y-96099500D01*
X146297424Y-96079815D01*
X146276782Y-96063181D01*
X145539638Y-95326037D01*
X145506153Y-95264714D01*
X145511137Y-95195022D01*
X145553009Y-95139089D01*
X145571025Y-95127871D01*
X145577817Y-95124409D01*
X145601610Y-95112287D01*
X145651144Y-95076298D01*
X145767213Y-94991971D01*
X145767215Y-94991968D01*
X145767219Y-94991966D01*
X145911966Y-94847219D01*
X145911968Y-94847215D01*
X145911971Y-94847213D01*
X145964732Y-94774590D01*
X146032287Y-94681610D01*
X146125220Y-94499219D01*
X146188477Y-94304534D01*
X146220500Y-94102352D01*
X146220500Y-93897648D01*
X153779500Y-93897648D01*
X153779500Y-94102351D01*
X153811522Y-94304534D01*
X153874781Y-94499223D01*
X153967715Y-94681613D01*
X154088028Y-94847213D01*
X154232786Y-94991971D01*
X154387749Y-95104556D01*
X154398390Y-95112287D01*
X154514607Y-95171503D01*
X154580776Y-95205218D01*
X154580778Y-95205218D01*
X154580781Y-95205220D01*
X154685137Y-95239127D01*
X154775465Y-95268477D01*
X154876557Y-95284488D01*
X154977648Y-95300500D01*
X154977649Y-95300500D01*
X155182351Y-95300500D01*
X155182352Y-95300500D01*
X155384534Y-95268477D01*
X155579219Y-95205220D01*
X155761610Y-95112287D01*
X155854590Y-95044732D01*
X155927213Y-94991971D01*
X155927215Y-94991968D01*
X155927219Y-94991966D01*
X156071966Y-94847219D01*
X156071968Y-94847215D01*
X156071971Y-94847213D01*
X156124732Y-94774590D01*
X156192287Y-94681610D01*
X156285220Y-94499219D01*
X156348477Y-94304534D01*
X156380500Y-94102352D01*
X156380500Y-93897648D01*
X156348477Y-93695466D01*
X156285220Y-93500781D01*
X156285218Y-93500778D01*
X156285218Y-93500776D01*
X156242310Y-93416566D01*
X156192287Y-93318390D01*
X156184556Y-93307749D01*
X156071971Y-93152786D01*
X155927213Y-93008028D01*
X155761613Y-92887715D01*
X155761612Y-92887714D01*
X155761610Y-92887713D01*
X155704653Y-92858691D01*
X155579223Y-92794781D01*
X155384534Y-92731522D01*
X155209995Y-92703878D01*
X155182352Y-92699500D01*
X154977648Y-92699500D01*
X154953329Y-92703351D01*
X154775465Y-92731522D01*
X154580776Y-92794781D01*
X154398386Y-92887715D01*
X154232786Y-93008028D01*
X154088028Y-93152786D01*
X153967715Y-93318386D01*
X153874781Y-93500776D01*
X153811522Y-93695465D01*
X153779500Y-93897648D01*
X146220500Y-93897648D01*
X146188477Y-93695466D01*
X146125220Y-93500781D01*
X146125218Y-93500778D01*
X146125218Y-93500776D01*
X146082310Y-93416566D01*
X146032287Y-93318390D01*
X146024556Y-93307749D01*
X145911971Y-93152786D01*
X145767213Y-93008028D01*
X145601613Y-92887715D01*
X145601612Y-92887714D01*
X145601610Y-92887713D01*
X145544653Y-92858691D01*
X145419223Y-92794781D01*
X145224534Y-92731522D01*
X145049995Y-92703878D01*
X145022352Y-92699500D01*
X144817648Y-92699500D01*
X144817645Y-92699500D01*
X144804459Y-92701588D01*
X144735166Y-92692630D01*
X144681717Y-92647631D01*
X144661081Y-92580878D01*
X144679809Y-92513565D01*
X144681936Y-92510268D01*
X144753703Y-92402863D01*
X144817816Y-92248082D01*
X144850500Y-92083767D01*
X144850500Y-92050096D01*
X144870185Y-91983057D01*
X144886814Y-91962420D01*
X146458506Y-90390727D01*
X146458511Y-90390724D01*
X146468714Y-90380520D01*
X146468716Y-90380520D01*
X146580520Y-90268716D01*
X146659577Y-90131784D01*
X146700500Y-89979057D01*
X146700500Y-87897648D01*
X153859500Y-87897648D01*
X153859500Y-88102351D01*
X153891522Y-88304534D01*
X153954781Y-88499223D01*
X154006135Y-88600009D01*
X154040293Y-88667048D01*
X154047715Y-88681613D01*
X154168028Y-88847213D01*
X154312786Y-88991971D01*
X154433226Y-89079474D01*
X154478390Y-89112287D01*
X154590333Y-89169325D01*
X154660776Y-89205218D01*
X154660778Y-89205218D01*
X154660781Y-89205220D01*
X154735286Y-89229428D01*
X154855465Y-89268477D01*
X154912724Y-89277546D01*
X155057648Y-89300500D01*
X155057649Y-89300500D01*
X155262351Y-89300500D01*
X155262352Y-89300500D01*
X155464534Y-89268477D01*
X155659219Y-89205220D01*
X155841610Y-89112287D01*
X155934590Y-89044732D01*
X156007213Y-88991971D01*
X156007215Y-88991968D01*
X156007219Y-88991966D01*
X156151966Y-88847219D01*
X156151968Y-88847215D01*
X156151971Y-88847213D01*
X156229925Y-88739917D01*
X156272287Y-88681610D01*
X156365220Y-88499219D01*
X156428477Y-88304534D01*
X156460500Y-88102352D01*
X156460500Y-87897648D01*
X156449785Y-87829995D01*
X156428477Y-87695465D01*
X156397458Y-87600000D01*
X156365220Y-87500781D01*
X156365218Y-87500778D01*
X156365218Y-87500776D01*
X156313865Y-87399991D01*
X156272287Y-87318390D01*
X156240092Y-87274077D01*
X156151971Y-87152786D01*
X156007213Y-87008028D01*
X155841613Y-86887715D01*
X155841612Y-86887714D01*
X155841610Y-86887713D01*
X155785829Y-86859291D01*
X155659223Y-86794781D01*
X155527974Y-86752135D01*
X160868500Y-86752135D01*
X160868500Y-89247870D01*
X160868501Y-89247876D01*
X160874908Y-89307483D01*
X160925202Y-89442328D01*
X160925206Y-89442335D01*
X161011452Y-89557544D01*
X161011455Y-89557547D01*
X161126664Y-89643793D01*
X161126671Y-89643797D01*
X161261517Y-89694091D01*
X161261516Y-89694091D01*
X161268444Y-89694835D01*
X161321127Y-89700500D01*
X163816872Y-89700499D01*
X163876483Y-89694091D01*
X164011331Y-89643796D01*
X164094239Y-89581730D01*
X164159703Y-89557314D01*
X164227976Y-89572165D01*
X164242860Y-89581730D01*
X164325769Y-89643796D01*
X164325770Y-89643796D01*
X164325771Y-89643797D01*
X164460617Y-89694091D01*
X164460616Y-89694091D01*
X164467544Y-89694835D01*
X164520227Y-89700500D01*
X167015972Y-89700499D01*
X167075583Y-89694091D01*
X167210431Y-89643796D01*
X167325646Y-89557546D01*
X167411896Y-89442331D01*
X167462191Y-89307483D01*
X167468600Y-89247873D01*
X167468599Y-86752135D01*
X171368400Y-86752135D01*
X171368400Y-89247870D01*
X171368401Y-89247876D01*
X171374808Y-89307483D01*
X171425102Y-89442328D01*
X171425106Y-89442335D01*
X171511352Y-89557544D01*
X171511355Y-89557547D01*
X171626564Y-89643793D01*
X171626571Y-89643797D01*
X171761417Y-89694091D01*
X171761416Y-89694091D01*
X171768344Y-89694835D01*
X171821027Y-89700500D01*
X174316772Y-89700499D01*
X174376383Y-89694091D01*
X174511231Y-89643796D01*
X174513373Y-89642191D01*
X174633545Y-89552232D01*
X174635437Y-89554759D01*
X174683092Y-89528738D01*
X174752784Y-89533722D01*
X174784130Y-89553867D01*
X174785355Y-89552232D01*
X174907664Y-89643793D01*
X174907671Y-89643797D01*
X175042517Y-89694091D01*
X175042516Y-89694091D01*
X175049444Y-89694835D01*
X175102127Y-89700500D01*
X177597872Y-89700499D01*
X177657483Y-89694091D01*
X177792331Y-89643796D01*
X177907546Y-89557546D01*
X177993796Y-89442331D01*
X178044091Y-89307483D01*
X178050500Y-89247873D01*
X178050499Y-86752128D01*
X178044091Y-86692517D01*
X178035497Y-86669476D01*
X177993797Y-86557671D01*
X177993793Y-86557664D01*
X177907546Y-86442454D01*
X177907544Y-86442452D01*
X177792335Y-86356206D01*
X177792328Y-86356202D01*
X177657482Y-86305908D01*
X177657483Y-86305908D01*
X177597883Y-86299501D01*
X177597881Y-86299500D01*
X177597873Y-86299500D01*
X177597864Y-86299500D01*
X175102129Y-86299500D01*
X175102123Y-86299501D01*
X175042516Y-86305908D01*
X174907671Y-86356202D01*
X174907664Y-86356206D01*
X174785355Y-86447768D01*
X174783466Y-86445245D01*
X174735770Y-86471269D01*
X174666080Y-86466263D01*
X174634764Y-86446138D01*
X174633545Y-86447768D01*
X174511235Y-86356206D01*
X174511228Y-86356202D01*
X174376382Y-86305908D01*
X174376383Y-86305908D01*
X174316783Y-86299501D01*
X174316781Y-86299500D01*
X174316773Y-86299500D01*
X174316764Y-86299500D01*
X171821029Y-86299500D01*
X171821023Y-86299501D01*
X171761416Y-86305908D01*
X171626571Y-86356202D01*
X171626564Y-86356206D01*
X171511355Y-86442452D01*
X171511354Y-86442454D01*
X171425106Y-86557664D01*
X171425102Y-86557671D01*
X171374808Y-86692517D01*
X171372091Y-86717794D01*
X171368401Y-86752123D01*
X171368400Y-86752135D01*
X167468599Y-86752135D01*
X167468599Y-86752128D01*
X167462191Y-86692517D01*
X167453597Y-86669476D01*
X167411897Y-86557671D01*
X167411893Y-86557664D01*
X167325646Y-86442454D01*
X167325644Y-86442452D01*
X167210435Y-86356206D01*
X167210428Y-86356202D01*
X167075582Y-86305908D01*
X167075583Y-86305908D01*
X167015983Y-86299501D01*
X167015981Y-86299500D01*
X167015973Y-86299500D01*
X167015965Y-86299500D01*
X166492600Y-86299500D01*
X166425561Y-86279815D01*
X166379806Y-86227011D01*
X166368600Y-86175500D01*
X166368600Y-78897648D01*
X173105077Y-78897648D01*
X173105077Y-79102351D01*
X173137099Y-79304534D01*
X173200358Y-79499223D01*
X173293292Y-79681613D01*
X173413605Y-79847213D01*
X173558363Y-79991971D01*
X173669905Y-80073009D01*
X173723967Y-80112287D01*
X173840184Y-80171503D01*
X173906353Y-80205218D01*
X173906355Y-80205218D01*
X173906358Y-80205220D01*
X174010714Y-80239127D01*
X174101042Y-80268477D01*
X174202134Y-80284488D01*
X174303225Y-80300500D01*
X174303226Y-80300500D01*
X174507928Y-80300500D01*
X174507929Y-80300500D01*
X174710111Y-80268477D01*
X174904796Y-80205220D01*
X175087187Y-80112287D01*
X175240954Y-80000570D01*
X175252790Y-79991971D01*
X175252792Y-79991968D01*
X175252796Y-79991966D01*
X175397543Y-79847219D01*
X175397545Y-79847215D01*
X175397548Y-79847213D01*
X175450309Y-79774590D01*
X175517864Y-79681610D01*
X175610797Y-79499219D01*
X175674054Y-79304534D01*
X175706077Y-79102352D01*
X175706077Y-78897648D01*
X175687313Y-78779179D01*
X175674054Y-78695465D01*
X175621857Y-78534820D01*
X175610797Y-78500781D01*
X175610795Y-78500778D01*
X175610795Y-78500776D01*
X175577080Y-78434607D01*
X175517864Y-78318390D01*
X175510133Y-78307749D01*
X175397548Y-78152786D01*
X175252790Y-78008028D01*
X175087190Y-77887715D01*
X175087189Y-77887714D01*
X175087187Y-77887713D01*
X175030230Y-77858691D01*
X174904800Y-77794781D01*
X174710111Y-77731522D01*
X174535572Y-77703878D01*
X174507929Y-77699500D01*
X174303225Y-77699500D01*
X174278906Y-77703351D01*
X174101042Y-77731522D01*
X173906353Y-77794781D01*
X173723963Y-77887715D01*
X173558363Y-78008028D01*
X173413605Y-78152786D01*
X173293292Y-78318386D01*
X173200358Y-78500776D01*
X173137099Y-78695465D01*
X173105077Y-78897648D01*
X166368600Y-78897648D01*
X166368600Y-73668450D01*
X166368601Y-73668437D01*
X166368601Y-73500334D01*
X166368601Y-73500333D01*
X166327677Y-73347606D01*
X166300481Y-73300500D01*
X166248624Y-73210680D01*
X166248618Y-73210672D01*
X165482787Y-72444841D01*
X165449302Y-72383518D01*
X165452537Y-72318842D01*
X165457187Y-72304534D01*
X165489210Y-72102352D01*
X165489210Y-71897648D01*
X173048210Y-71897648D01*
X173048210Y-72102351D01*
X173080232Y-72304534D01*
X173143491Y-72499223D01*
X173236425Y-72681613D01*
X173356738Y-72847213D01*
X173501496Y-72991971D01*
X173656459Y-73104556D01*
X173667100Y-73112287D01*
X173780759Y-73170199D01*
X173849486Y-73205218D01*
X173849488Y-73205218D01*
X173849491Y-73205220D01*
X173930440Y-73231522D01*
X174044175Y-73268477D01*
X174145267Y-73284488D01*
X174246358Y-73300500D01*
X174246359Y-73300500D01*
X174451061Y-73300500D01*
X174451062Y-73300500D01*
X174653244Y-73268477D01*
X174847929Y-73205220D01*
X175030320Y-73112287D01*
X175123300Y-73044732D01*
X175195923Y-72991971D01*
X175195925Y-72991968D01*
X175195929Y-72991966D01*
X175340676Y-72847219D01*
X175340678Y-72847215D01*
X175340681Y-72847213D01*
X175443206Y-72706097D01*
X175460997Y-72681610D01*
X175553930Y-72499219D01*
X175617187Y-72304534D01*
X175649210Y-72102352D01*
X175649210Y-71897648D01*
X175647753Y-71888450D01*
X175617187Y-71695465D01*
X175582102Y-71587486D01*
X175553930Y-71500781D01*
X175553928Y-71500778D01*
X175553928Y-71500776D01*
X175483243Y-71362051D01*
X175460997Y-71318390D01*
X175409910Y-71248074D01*
X175340681Y-71152786D01*
X175195923Y-71008028D01*
X175030323Y-70887715D01*
X175030322Y-70887714D01*
X175030320Y-70887713D01*
X174973363Y-70858691D01*
X174847933Y-70794781D01*
X174653244Y-70731522D01*
X174478705Y-70703878D01*
X174451062Y-70699500D01*
X174246358Y-70699500D01*
X174222039Y-70703351D01*
X174044175Y-70731522D01*
X173849486Y-70794781D01*
X173667096Y-70887715D01*
X173501496Y-71008028D01*
X173356738Y-71152786D01*
X173236425Y-71318386D01*
X173143491Y-71500776D01*
X173080232Y-71695465D01*
X173048210Y-71897648D01*
X165489210Y-71897648D01*
X165487753Y-71888450D01*
X165457187Y-71695465D01*
X165422102Y-71587486D01*
X165393930Y-71500781D01*
X165393928Y-71500778D01*
X165393928Y-71500776D01*
X165323243Y-71362051D01*
X165300997Y-71318390D01*
X165249910Y-71248074D01*
X165180681Y-71152786D01*
X165035923Y-71008028D01*
X164870323Y-70887715D01*
X164870322Y-70887714D01*
X164870320Y-70887713D01*
X164813363Y-70858691D01*
X164687933Y-70794781D01*
X164493244Y-70731522D01*
X164318705Y-70703878D01*
X164291062Y-70699500D01*
X164086358Y-70699500D01*
X164062039Y-70703351D01*
X163884175Y-70731522D01*
X163689486Y-70794781D01*
X163507096Y-70887715D01*
X163341496Y-71008028D01*
X163196738Y-71152786D01*
X163076425Y-71318386D01*
X162983491Y-71500776D01*
X162920232Y-71695465D01*
X162888210Y-71897648D01*
X162888210Y-72102351D01*
X162920232Y-72304534D01*
X162983491Y-72499223D01*
X163076425Y-72681613D01*
X163196738Y-72847213D01*
X163341496Y-72991971D01*
X163496459Y-73104556D01*
X163507100Y-73112287D01*
X163620759Y-73170199D01*
X163689486Y-73205218D01*
X163689488Y-73205218D01*
X163689491Y-73205220D01*
X163770440Y-73231522D01*
X163884175Y-73268477D01*
X163985267Y-73284488D01*
X164086358Y-73300500D01*
X164086359Y-73300500D01*
X164291061Y-73300500D01*
X164291062Y-73300500D01*
X164493244Y-73268477D01*
X164507552Y-73263827D01*
X164577389Y-73261831D01*
X164633551Y-73294077D01*
X165131281Y-73791806D01*
X165164766Y-73853129D01*
X165167600Y-73879487D01*
X165167600Y-77819018D01*
X165147915Y-77886057D01*
X165095111Y-77931812D01*
X165025953Y-77941756D01*
X164970716Y-77919337D01*
X164927190Y-77887714D01*
X164744800Y-77794781D01*
X164550111Y-77731522D01*
X164375572Y-77703878D01*
X164347929Y-77699500D01*
X164143225Y-77699500D01*
X164118906Y-77703351D01*
X163941042Y-77731522D01*
X163746353Y-77794781D01*
X163563963Y-77887715D01*
X163398363Y-78008028D01*
X163253605Y-78152786D01*
X163133292Y-78318386D01*
X163040358Y-78500776D01*
X162977099Y-78695465D01*
X162945077Y-78897648D01*
X162945077Y-79102351D01*
X162977099Y-79304534D01*
X163040358Y-79499223D01*
X163133292Y-79681613D01*
X163253605Y-79847213D01*
X163398363Y-79991971D01*
X163509905Y-80073009D01*
X163563967Y-80112287D01*
X163680184Y-80171503D01*
X163746353Y-80205218D01*
X163746355Y-80205218D01*
X163746358Y-80205220D01*
X163850714Y-80239127D01*
X163941042Y-80268477D01*
X164042134Y-80284488D01*
X164143225Y-80300500D01*
X164143226Y-80300500D01*
X164347928Y-80300500D01*
X164347929Y-80300500D01*
X164550111Y-80268477D01*
X164744796Y-80205220D01*
X164927187Y-80112287D01*
X164951976Y-80094277D01*
X164970715Y-80080663D01*
X165036521Y-80057183D01*
X165104575Y-80073009D01*
X165153270Y-80123115D01*
X165167600Y-80180981D01*
X165167600Y-86175500D01*
X165147915Y-86242539D01*
X165095111Y-86288294D01*
X165043600Y-86299500D01*
X164520229Y-86299500D01*
X164520223Y-86299501D01*
X164460616Y-86305908D01*
X164325771Y-86356202D01*
X164325769Y-86356204D01*
X164242861Y-86418269D01*
X164177397Y-86442686D01*
X164109124Y-86427835D01*
X164094239Y-86418269D01*
X164053563Y-86387819D01*
X164011331Y-86356204D01*
X164011329Y-86356203D01*
X164011328Y-86356202D01*
X163876482Y-86305908D01*
X163876483Y-86305908D01*
X163816883Y-86299501D01*
X163816881Y-86299500D01*
X163816873Y-86299500D01*
X163816864Y-86299500D01*
X161321129Y-86299500D01*
X161321123Y-86299501D01*
X161261516Y-86305908D01*
X161126671Y-86356202D01*
X161126664Y-86356206D01*
X161011455Y-86442452D01*
X161011454Y-86442454D01*
X160925206Y-86557664D01*
X160925202Y-86557671D01*
X160874908Y-86692517D01*
X160872191Y-86717794D01*
X160868501Y-86752123D01*
X160868500Y-86752135D01*
X155527974Y-86752135D01*
X155464534Y-86731522D01*
X155289995Y-86703878D01*
X155262352Y-86699500D01*
X155057648Y-86699500D01*
X155033329Y-86703351D01*
X154855465Y-86731522D01*
X154660776Y-86794781D01*
X154478386Y-86887715D01*
X154312786Y-87008028D01*
X154168028Y-87152786D01*
X154047715Y-87318386D01*
X153954781Y-87500776D01*
X153891522Y-87695465D01*
X153859500Y-87897648D01*
X146700500Y-87897648D01*
X146700500Y-73864397D01*
X146700501Y-73864384D01*
X146700501Y-73696281D01*
X146693040Y-73668437D01*
X146659577Y-73543553D01*
X146634624Y-73500333D01*
X146580524Y-73406627D01*
X146580518Y-73406619D01*
X145234487Y-72060588D01*
X143865419Y-70691521D01*
X143831935Y-70630199D01*
X143835170Y-70565523D01*
X143848909Y-70523243D01*
X143882163Y-70313287D01*
X143882163Y-70100713D01*
X143848909Y-69890757D01*
X143783220Y-69688588D01*
X143686714Y-69499184D01*
X143686712Y-69499181D01*
X143686711Y-69499179D01*
X143561772Y-69327213D01*
X143411449Y-69176890D01*
X143239483Y-69051951D01*
X143238778Y-69051591D01*
X143230717Y-69047485D01*
X143179922Y-68999512D01*
X143163126Y-68931692D01*
X143185662Y-68865556D01*
X143230717Y-68826515D01*
X143239479Y-68822051D01*
X143301787Y-68776782D01*
X143411449Y-68697109D01*
X143411451Y-68697106D01*
X143411455Y-68697104D01*
X143561767Y-68546792D01*
X143561769Y-68546788D01*
X143561772Y-68546786D01*
X143686711Y-68374820D01*
X143686710Y-68374820D01*
X143686714Y-68374816D01*
X143783220Y-68185412D01*
X143848909Y-67983243D01*
X143882163Y-67773287D01*
X143882163Y-67560713D01*
X153881163Y-67560713D01*
X153881163Y-67773287D01*
X153914417Y-67983243D01*
X153969094Y-68151522D01*
X153980107Y-68185414D01*
X154076614Y-68374820D01*
X154201553Y-68546786D01*
X154351876Y-68697109D01*
X154523845Y-68822050D01*
X154532609Y-68826516D01*
X154583405Y-68874491D01*
X154600199Y-68942312D01*
X154577661Y-69008447D01*
X154532609Y-69047484D01*
X154523845Y-69051949D01*
X154351876Y-69176890D01*
X154201553Y-69327213D01*
X154076614Y-69499179D01*
X153980107Y-69688585D01*
X153914416Y-69890760D01*
X153897516Y-69997462D01*
X153881163Y-70100713D01*
X153881163Y-70313287D01*
X153881178Y-70313380D01*
X153914416Y-70523239D01*
X153914416Y-70523241D01*
X153914417Y-70523243D01*
X153969094Y-70691522D01*
X153980107Y-70725414D01*
X154076614Y-70914820D01*
X154201553Y-71086786D01*
X154351876Y-71237109D01*
X154523845Y-71362050D01*
X154532609Y-71366516D01*
X154583405Y-71414491D01*
X154600199Y-71482312D01*
X154577661Y-71548447D01*
X154532609Y-71587484D01*
X154523845Y-71591949D01*
X154351876Y-71716890D01*
X154201553Y-71867213D01*
X154076614Y-72039179D01*
X153980107Y-72228585D01*
X153914416Y-72430760D01*
X153881163Y-72640713D01*
X153881163Y-72853286D01*
X153914416Y-73063239D01*
X153914416Y-73063241D01*
X153914417Y-73063243D01*
X153979591Y-73263828D01*
X153980107Y-73265414D01*
X154076614Y-73454820D01*
X154201553Y-73626786D01*
X154351876Y-73777109D01*
X154523845Y-73902050D01*
X154532609Y-73906516D01*
X154583405Y-73954491D01*
X154600199Y-74022312D01*
X154577661Y-74088447D01*
X154532609Y-74127484D01*
X154523845Y-74131949D01*
X154351876Y-74256890D01*
X154201553Y-74407213D01*
X154076614Y-74579179D01*
X153980107Y-74768585D01*
X153914416Y-74970760D01*
X153881163Y-75180713D01*
X153881163Y-75393286D01*
X153914416Y-75603239D01*
X153980107Y-75805414D01*
X154076614Y-75994820D01*
X154201553Y-76166786D01*
X154351876Y-76317109D01*
X154523845Y-76442050D01*
X154532609Y-76446516D01*
X154583405Y-76494491D01*
X154600199Y-76562312D01*
X154577661Y-76628447D01*
X154532609Y-76667484D01*
X154523845Y-76671949D01*
X154351876Y-76796890D01*
X154201553Y-76947213D01*
X154076614Y-77119179D01*
X153980107Y-77308585D01*
X153914416Y-77510760D01*
X153890483Y-77661867D01*
X153881163Y-77720713D01*
X153881163Y-77933287D01*
X153914417Y-78143243D01*
X153926343Y-78179948D01*
X153980107Y-78345414D01*
X154076614Y-78534820D01*
X154201553Y-78706786D01*
X154351876Y-78857109D01*
X154523842Y-78982048D01*
X154523844Y-78982049D01*
X154523847Y-78982051D01*
X154713251Y-79078557D01*
X154915420Y-79144246D01*
X155125376Y-79177500D01*
X155125377Y-79177500D01*
X155337949Y-79177500D01*
X155337950Y-79177500D01*
X155547906Y-79144246D01*
X155750075Y-79078557D01*
X155939479Y-78982051D01*
X156055651Y-78897648D01*
X156111449Y-78857109D01*
X156111451Y-78857106D01*
X156111455Y-78857104D01*
X156261767Y-78706792D01*
X156261769Y-78706788D01*
X156261772Y-78706786D01*
X156386711Y-78534820D01*
X156386710Y-78534820D01*
X156386714Y-78534816D01*
X156483220Y-78345412D01*
X156548909Y-78143243D01*
X156582163Y-77933287D01*
X156582163Y-77720713D01*
X156548909Y-77510757D01*
X156483220Y-77308588D01*
X156386714Y-77119184D01*
X156386712Y-77119181D01*
X156386711Y-77119179D01*
X156261772Y-76947213D01*
X156111449Y-76796890D01*
X155939483Y-76671951D01*
X155938778Y-76671591D01*
X155930717Y-76667485D01*
X155879922Y-76619512D01*
X155863126Y-76551692D01*
X155885662Y-76485556D01*
X155930717Y-76446515D01*
X155939479Y-76442051D01*
X155961452Y-76426086D01*
X156111449Y-76317109D01*
X156111451Y-76317106D01*
X156111455Y-76317104D01*
X156261767Y-76166792D01*
X156261769Y-76166788D01*
X156261772Y-76166786D01*
X156386711Y-75994820D01*
X156386710Y-75994820D01*
X156386714Y-75994816D01*
X156483220Y-75805412D01*
X156548909Y-75603243D01*
X156582163Y-75393287D01*
X156582163Y-75180713D01*
X156548909Y-74970757D01*
X156483220Y-74768588D01*
X156386714Y-74579184D01*
X156386712Y-74579181D01*
X156386711Y-74579179D01*
X156261772Y-74407213D01*
X156111449Y-74256890D01*
X155939483Y-74131951D01*
X155938778Y-74131591D01*
X155930717Y-74127485D01*
X155879922Y-74079512D01*
X155863126Y-74011692D01*
X155885662Y-73945556D01*
X155930717Y-73906515D01*
X155939479Y-73902051D01*
X155961452Y-73886086D01*
X156111449Y-73777109D01*
X156111451Y-73777106D01*
X156111455Y-73777104D01*
X156261767Y-73626792D01*
X156261769Y-73626788D01*
X156261772Y-73626786D01*
X156386711Y-73454820D01*
X156386710Y-73454820D01*
X156386714Y-73454816D01*
X156483220Y-73265412D01*
X156548909Y-73063243D01*
X156582163Y-72853287D01*
X156582163Y-72640713D01*
X156548909Y-72430757D01*
X156483220Y-72228588D01*
X156386714Y-72039184D01*
X156386712Y-72039181D01*
X156386711Y-72039179D01*
X156261772Y-71867213D01*
X156111449Y-71716890D01*
X155939483Y-71591951D01*
X155938778Y-71591591D01*
X155930717Y-71587485D01*
X155879922Y-71539512D01*
X155863126Y-71471692D01*
X155885662Y-71405556D01*
X155930717Y-71366515D01*
X155939479Y-71362051D01*
X155999579Y-71318386D01*
X156111449Y-71237109D01*
X156111451Y-71237106D01*
X156111455Y-71237104D01*
X156261767Y-71086792D01*
X156261769Y-71086788D01*
X156261772Y-71086786D01*
X156386711Y-70914820D01*
X156386710Y-70914820D01*
X156386714Y-70914816D01*
X156483220Y-70725412D01*
X156548909Y-70523243D01*
X156582163Y-70313287D01*
X156582163Y-70100713D01*
X156548909Y-69890757D01*
X156483220Y-69688588D01*
X156386714Y-69499184D01*
X156386712Y-69499181D01*
X156386711Y-69499179D01*
X156261772Y-69327213D01*
X156111449Y-69176890D01*
X155939483Y-69051951D01*
X155938778Y-69051591D01*
X155930717Y-69047485D01*
X155879922Y-68999512D01*
X155863126Y-68931692D01*
X155885662Y-68865556D01*
X155930717Y-68826515D01*
X155939479Y-68822051D01*
X156001787Y-68776782D01*
X156111449Y-68697109D01*
X156111451Y-68697106D01*
X156111455Y-68697104D01*
X156261767Y-68546792D01*
X156261769Y-68546788D01*
X156261772Y-68546786D01*
X156386711Y-68374820D01*
X156386710Y-68374820D01*
X156386714Y-68374816D01*
X156483220Y-68185412D01*
X156548909Y-67983243D01*
X156582163Y-67773287D01*
X156582163Y-67560713D01*
X156548909Y-67350757D01*
X156483220Y-67148588D01*
X156386714Y-66959184D01*
X156386712Y-66959181D01*
X156386711Y-66959179D01*
X156261772Y-66787213D01*
X156124326Y-66649767D01*
X156090841Y-66588444D01*
X156095825Y-66518752D01*
X156137697Y-66462819D01*
X156168670Y-66445906D01*
X156235994Y-66420796D01*
X156351209Y-66334546D01*
X156437459Y-66219331D01*
X156487754Y-66084483D01*
X156494163Y-66024873D01*
X156494162Y-64229128D01*
X156487754Y-64169517D01*
X156458894Y-64092139D01*
X156443974Y-64052135D01*
X160849500Y-64052135D01*
X160849500Y-66547870D01*
X160849501Y-66547876D01*
X160855908Y-66607483D01*
X160906202Y-66742328D01*
X160906206Y-66742335D01*
X160992452Y-66857544D01*
X160992455Y-66857547D01*
X161107664Y-66943793D01*
X161107671Y-66943797D01*
X161242517Y-66994091D01*
X161242516Y-66994091D01*
X161249444Y-66994835D01*
X161302127Y-67000500D01*
X163797872Y-67000499D01*
X163857483Y-66994091D01*
X163992331Y-66943796D01*
X164107546Y-66857546D01*
X164193796Y-66742331D01*
X164244091Y-66607483D01*
X164250500Y-66547873D01*
X164250499Y-64052135D01*
X174630500Y-64052135D01*
X174630500Y-66547870D01*
X174630501Y-66547876D01*
X174636908Y-66607483D01*
X174687202Y-66742328D01*
X174687206Y-66742335D01*
X174773452Y-66857544D01*
X174773455Y-66857547D01*
X174888664Y-66943793D01*
X174888671Y-66943797D01*
X175023517Y-66994091D01*
X175023516Y-66994091D01*
X175030444Y-66994835D01*
X175083127Y-67000500D01*
X177578872Y-67000499D01*
X177638483Y-66994091D01*
X177773331Y-66943796D01*
X177888546Y-66857546D01*
X177974796Y-66742331D01*
X178025091Y-66607483D01*
X178031500Y-66547873D01*
X178031499Y-64052128D01*
X178025091Y-63992517D01*
X178017420Y-63971951D01*
X177974797Y-63857671D01*
X177974793Y-63857664D01*
X177888547Y-63742455D01*
X177888544Y-63742452D01*
X177773335Y-63656206D01*
X177773328Y-63656202D01*
X177638482Y-63605908D01*
X177638483Y-63605908D01*
X177578883Y-63599501D01*
X177578881Y-63599500D01*
X177578873Y-63599500D01*
X177578864Y-63599500D01*
X175083129Y-63599500D01*
X175083123Y-63599501D01*
X175023516Y-63605908D01*
X174888671Y-63656202D01*
X174888664Y-63656206D01*
X174773455Y-63742452D01*
X174773452Y-63742455D01*
X174687206Y-63857664D01*
X174687202Y-63857671D01*
X174636908Y-63992517D01*
X174630501Y-64052116D01*
X174630501Y-64052123D01*
X174630500Y-64052135D01*
X164250499Y-64052135D01*
X164250499Y-64052128D01*
X164244091Y-63992517D01*
X164236420Y-63971951D01*
X164193797Y-63857671D01*
X164193793Y-63857664D01*
X164107547Y-63742455D01*
X164107544Y-63742452D01*
X163992335Y-63656206D01*
X163992328Y-63656202D01*
X163857482Y-63605908D01*
X163857483Y-63605908D01*
X163797883Y-63599501D01*
X163797881Y-63599500D01*
X163797873Y-63599500D01*
X163797864Y-63599500D01*
X161302129Y-63599500D01*
X161302123Y-63599501D01*
X161242516Y-63605908D01*
X161107671Y-63656202D01*
X161107664Y-63656206D01*
X160992455Y-63742452D01*
X160992452Y-63742455D01*
X160906206Y-63857664D01*
X160906202Y-63857671D01*
X160855908Y-63992517D01*
X160849501Y-64052116D01*
X160849501Y-64052123D01*
X160849500Y-64052135D01*
X156443974Y-64052135D01*
X156437460Y-64034671D01*
X156437456Y-64034664D01*
X156351210Y-63919455D01*
X156351207Y-63919452D01*
X156235998Y-63833206D01*
X156235991Y-63833202D01*
X156101145Y-63782908D01*
X156101146Y-63782908D01*
X156041546Y-63776501D01*
X156041544Y-63776500D01*
X156041536Y-63776500D01*
X156041527Y-63776500D01*
X154421792Y-63776500D01*
X154421786Y-63776501D01*
X154362179Y-63782908D01*
X154227334Y-63833202D01*
X154227327Y-63833206D01*
X154112118Y-63919452D01*
X154112115Y-63919455D01*
X154025869Y-64034664D01*
X154025865Y-64034671D01*
X153975571Y-64169517D01*
X153969911Y-64222168D01*
X153969164Y-64229123D01*
X153969163Y-64229135D01*
X153969163Y-66024870D01*
X153969164Y-66024876D01*
X153975571Y-66084483D01*
X154025865Y-66219328D01*
X154025869Y-66219335D01*
X154112115Y-66334544D01*
X154112118Y-66334547D01*
X154227327Y-66420793D01*
X154227336Y-66420798D01*
X154294650Y-66445904D01*
X154350584Y-66487774D01*
X154375002Y-66553238D01*
X154360151Y-66621511D01*
X154339000Y-66649767D01*
X154201552Y-66787215D01*
X154076614Y-66959179D01*
X153980107Y-67148585D01*
X153914416Y-67350760D01*
X153902505Y-67425965D01*
X153881163Y-67560713D01*
X143882163Y-67560713D01*
X143848909Y-67350757D01*
X143783220Y-67148588D01*
X143686714Y-66959184D01*
X143686712Y-66959181D01*
X143686711Y-66959179D01*
X143561772Y-66787213D01*
X143411449Y-66636890D01*
X143239483Y-66511951D01*
X143238778Y-66511591D01*
X143230717Y-66507485D01*
X143179922Y-66459512D01*
X143163126Y-66391692D01*
X143185662Y-66325556D01*
X143230717Y-66286515D01*
X143239479Y-66282051D01*
X143325801Y-66219335D01*
X143411449Y-66157109D01*
X143411451Y-66157106D01*
X143411455Y-66157104D01*
X143561767Y-66006792D01*
X143561769Y-66006788D01*
X143561772Y-66006786D01*
X143686711Y-65834820D01*
X143686710Y-65834820D01*
X143686714Y-65834816D01*
X143783220Y-65645412D01*
X143848909Y-65443243D01*
X143882163Y-65233287D01*
X143882163Y-65020713D01*
X143848909Y-64810757D01*
X143783220Y-64608588D01*
X143686714Y-64419184D01*
X143686712Y-64419181D01*
X143686711Y-64419179D01*
X143561772Y-64247213D01*
X143411449Y-64096890D01*
X143239483Y-63971951D01*
X143050077Y-63875444D01*
X143050076Y-63875443D01*
X143050075Y-63875443D01*
X142847906Y-63809754D01*
X142847904Y-63809753D01*
X142847903Y-63809753D01*
X142686620Y-63784208D01*
X142637950Y-63776500D01*
X142425376Y-63776500D01*
X142376705Y-63784208D01*
X142215423Y-63809753D01*
X142114335Y-63842598D01*
X142067954Y-63857669D01*
X142013248Y-63875444D01*
X141823842Y-63971951D01*
X141651876Y-64096890D01*
X141501553Y-64247213D01*
X141376614Y-64419179D01*
X141280107Y-64608585D01*
X141214416Y-64810760D01*
X141181163Y-65020713D01*
X141181163Y-65233286D01*
X141214416Y-65443239D01*
X141280107Y-65645414D01*
X141376614Y-65834820D01*
X141501553Y-66006786D01*
X141651876Y-66157109D01*
X141823845Y-66282050D01*
X141832609Y-66286516D01*
X141883405Y-66334491D01*
X141900199Y-66402312D01*
X141877661Y-66468447D01*
X141832609Y-66507484D01*
X141823845Y-66511949D01*
X141651876Y-66636890D01*
X141501553Y-66787213D01*
X141376614Y-66959179D01*
X141280107Y-67148585D01*
X141214416Y-67350760D01*
X141181163Y-67560713D01*
X141181163Y-67773286D01*
X141214417Y-67983244D01*
X141214417Y-67983247D01*
X141228154Y-68025523D01*
X141230149Y-68095364D01*
X141197904Y-68151522D01*
X138456298Y-70893130D01*
X138394975Y-70926615D01*
X138368617Y-70929449D01*
X121194413Y-70929449D01*
X121164976Y-70920805D01*
X121134987Y-70914282D01*
X121129969Y-70910526D01*
X121127374Y-70909764D01*
X121106737Y-70893135D01*
X121044087Y-70830485D01*
X121044083Y-70830482D01*
X117514137Y-67300536D01*
X117471955Y-67272352D01*
X117366648Y-67201987D01*
X117366645Y-67201985D01*
X117366644Y-67201985D01*
X117366643Y-67201984D01*
X117270649Y-67162223D01*
X117202767Y-67134105D01*
X117202759Y-67134103D01*
X117028797Y-67099500D01*
X117028793Y-67099500D01*
X117028792Y-67099500D01*
X108911309Y-67099500D01*
X108911306Y-67099500D01*
X108737341Y-67134103D01*
X108737332Y-67134106D01*
X108573459Y-67201983D01*
X108573446Y-67201990D01*
X108425965Y-67300535D01*
X108425961Y-67300538D01*
X108300538Y-67425961D01*
X108300535Y-67425965D01*
X108201990Y-67573446D01*
X108201983Y-67573459D01*
X108134106Y-67737332D01*
X108134103Y-67737341D01*
X108099500Y-67911304D01*
X108099500Y-68088695D01*
X108134103Y-68262658D01*
X108134106Y-68262667D01*
X108201983Y-68426540D01*
X108201990Y-68426553D01*
X108300535Y-68574034D01*
X108300538Y-68574038D01*
X108425961Y-68699461D01*
X108425965Y-68699464D01*
X108573446Y-68798009D01*
X108573459Y-68798016D01*
X108631486Y-68822051D01*
X108737334Y-68865894D01*
X108737336Y-68865894D01*
X108737341Y-68865896D01*
X108911304Y-68900499D01*
X108911307Y-68900500D01*
X108911309Y-68900500D01*
X116515739Y-68900500D01*
X116582778Y-68920185D01*
X116603420Y-68936819D01*
X119766246Y-72099643D01*
X119766267Y-72099666D01*
X127834370Y-80167768D01*
X127867855Y-80229091D01*
X127862871Y-80298783D01*
X127820999Y-80354716D01*
X127755535Y-80379133D01*
X127746689Y-80379449D01*
X121405980Y-80379449D01*
X121280312Y-80404446D01*
X121280302Y-80404449D01*
X121249887Y-80417048D01*
X121161932Y-80453479D01*
X121161914Y-80453489D01*
X121055383Y-80524670D01*
X121055376Y-80524676D01*
X114916871Y-86663181D01*
X114855548Y-86696666D01*
X114829190Y-86699500D01*
X113899998Y-86699500D01*
X113899980Y-86699501D01*
X113797203Y-86710000D01*
X113797200Y-86710001D01*
X113630668Y-86765185D01*
X113630663Y-86765187D01*
X113481342Y-86857289D01*
X113357289Y-86981342D01*
X113265187Y-87130663D01*
X113265185Y-87130668D01*
X113251825Y-87170987D01*
X113210001Y-87297203D01*
X113210001Y-87297204D01*
X113210000Y-87297204D01*
X113199500Y-87399983D01*
X113199500Y-88600001D01*
X113199501Y-88600018D01*
X113210000Y-88702796D01*
X113210001Y-88702799D01*
X113265185Y-88869331D01*
X113265186Y-88869334D01*
X113357288Y-89018656D01*
X113481344Y-89142712D01*
X113630666Y-89234814D01*
X113797203Y-89289999D01*
X113899991Y-89300500D01*
X115100008Y-89300499D01*
X115202797Y-89289999D01*
X115369334Y-89234814D01*
X115518656Y-89142712D01*
X115642712Y-89018656D01*
X115734814Y-88869334D01*
X115758102Y-88799054D01*
X115762110Y-88791050D01*
X115780060Y-88771772D01*
X115795055Y-88750116D01*
X115803495Y-88746606D01*
X115809725Y-88739917D01*
X115835249Y-88733404D01*
X115859571Y-88723292D01*
X115875834Y-88723048D01*
X115877425Y-88722643D01*
X115878523Y-88723008D01*
X115882719Y-88722946D01*
X115920525Y-88725921D01*
X116600000Y-88046446D01*
X116600000Y-88052661D01*
X116627259Y-88154394D01*
X116679920Y-88245606D01*
X116754394Y-88320080D01*
X116845606Y-88372741D01*
X116947339Y-88400000D01*
X116953553Y-88400000D01*
X116274076Y-89079474D01*
X116318650Y-89111859D01*
X116500968Y-89204755D01*
X116695582Y-89267990D01*
X116897683Y-89300000D01*
X117102317Y-89300000D01*
X117304417Y-89267990D01*
X117499031Y-89204755D01*
X117681349Y-89111859D01*
X117725921Y-89079474D01*
X117046447Y-88400000D01*
X117052661Y-88400000D01*
X117154394Y-88372741D01*
X117245606Y-88320080D01*
X117320080Y-88245606D01*
X117372741Y-88154394D01*
X117400000Y-88052661D01*
X117400000Y-88046447D01*
X118079474Y-88725921D01*
X118111859Y-88681349D01*
X118204755Y-88499031D01*
X118267990Y-88304417D01*
X118300000Y-88102317D01*
X118300000Y-87897682D01*
X118267990Y-87695582D01*
X118204755Y-87500968D01*
X118111859Y-87318650D01*
X118079474Y-87274077D01*
X118079474Y-87274076D01*
X117400000Y-87953551D01*
X117400000Y-87947339D01*
X117372741Y-87845606D01*
X117320080Y-87754394D01*
X117245606Y-87679920D01*
X117154394Y-87627259D01*
X117052661Y-87600000D01*
X117046446Y-87600000D01*
X117685322Y-86961125D01*
X117725922Y-86920524D01*
X117725921Y-86920523D01*
X117681359Y-86888147D01*
X117681350Y-86888141D01*
X117499031Y-86795244D01*
X117304417Y-86732009D01*
X117102317Y-86700000D01*
X117019306Y-86700000D01*
X116952267Y-86680315D01*
X116906512Y-86627511D01*
X116896568Y-86558353D01*
X116925593Y-86494797D01*
X116931608Y-86488336D01*
X121703178Y-81716768D01*
X121764501Y-81683283D01*
X121790859Y-81680449D01*
X129295689Y-81680449D01*
X129362728Y-81700134D01*
X129383370Y-81716768D01*
X134054421Y-86387819D01*
X134087906Y-86449142D01*
X134082922Y-86518834D01*
X134041050Y-86574767D01*
X133975586Y-86599184D01*
X133966740Y-86599500D01*
X133803010Y-86599500D01*
X133602961Y-86639292D01*
X133602951Y-86639295D01*
X133414509Y-86717350D01*
X133374438Y-86744125D01*
X133342917Y-86765187D01*
X133338891Y-86767877D01*
X133272213Y-86788755D01*
X133204833Y-86770270D01*
X133201109Y-86767877D01*
X133197083Y-86765187D01*
X133125493Y-86717352D01*
X133125492Y-86717351D01*
X133125490Y-86717350D01*
X132937048Y-86639295D01*
X132937038Y-86639292D01*
X132736990Y-86599500D01*
X132736988Y-86599500D01*
X132533012Y-86599500D01*
X132533010Y-86599500D01*
X132332961Y-86639292D01*
X132332951Y-86639295D01*
X132144511Y-86717349D01*
X132068438Y-86768178D01*
X132001760Y-86789054D01*
X131934380Y-86770568D01*
X131930659Y-86768177D01*
X131855254Y-86717794D01*
X131666896Y-86639773D01*
X131666893Y-86639772D01*
X131615000Y-86629449D01*
X131615000Y-87442876D01*
X131612617Y-87467068D01*
X131599500Y-87533012D01*
X131599500Y-87615773D01*
X131538694Y-87580667D01*
X131424244Y-87550000D01*
X131305756Y-87550000D01*
X131191306Y-87580667D01*
X131130499Y-87615773D01*
X131130499Y-87052128D01*
X131124091Y-86992517D01*
X131122818Y-86989103D01*
X131115000Y-86945771D01*
X131115000Y-86629450D01*
X131114999Y-86629449D01*
X131063106Y-86639772D01*
X131063099Y-86639774D01*
X130991393Y-86669476D01*
X130921924Y-86676945D01*
X130880867Y-86659074D01*
X130880114Y-86660454D01*
X130872328Y-86656202D01*
X130737482Y-86605908D01*
X130737483Y-86605908D01*
X130677883Y-86599501D01*
X130677881Y-86599500D01*
X130677873Y-86599500D01*
X130677864Y-86599500D01*
X129512129Y-86599500D01*
X129512123Y-86599501D01*
X129452516Y-86605908D01*
X129317671Y-86656202D01*
X129317664Y-86656206D01*
X129202455Y-86742452D01*
X129202452Y-86742455D01*
X129116206Y-86857664D01*
X129116202Y-86857671D01*
X129065908Y-86992517D01*
X129059501Y-87052116D01*
X129059501Y-87052123D01*
X129059500Y-87052135D01*
X129059500Y-88947870D01*
X129059501Y-88947876D01*
X129065908Y-89007483D01*
X129116202Y-89142328D01*
X129116206Y-89142335D01*
X129202452Y-89257544D01*
X129202455Y-89257547D01*
X129317664Y-89343793D01*
X129317671Y-89343797D01*
X129452517Y-89394091D01*
X129452516Y-89394091D01*
X129459444Y-89394835D01*
X129512127Y-89400500D01*
X130677872Y-89400499D01*
X130737483Y-89394091D01*
X130872331Y-89343796D01*
X130872335Y-89343792D01*
X130880118Y-89339544D01*
X130881190Y-89341507D01*
X130935082Y-89321401D01*
X130991394Y-89330523D01*
X131063101Y-89360225D01*
X131063109Y-89360227D01*
X131114999Y-89370549D01*
X131115000Y-89370549D01*
X131115000Y-89054230D01*
X131122819Y-89010895D01*
X131124089Y-89007488D01*
X131124091Y-89007483D01*
X131130500Y-88947873D01*
X131130499Y-88384226D01*
X131191306Y-88419333D01*
X131305756Y-88450000D01*
X131424244Y-88450000D01*
X131538694Y-88419333D01*
X131599500Y-88384226D01*
X131599500Y-88466988D01*
X131610794Y-88523768D01*
X131612617Y-88532929D01*
X131615000Y-88557122D01*
X131615000Y-89370549D01*
X131666890Y-89360227D01*
X131666898Y-89360225D01*
X131855252Y-89282206D01*
X131855256Y-89282204D01*
X131930658Y-89231822D01*
X131997336Y-89210944D01*
X132064716Y-89229428D01*
X132068401Y-89231796D01*
X132144507Y-89282648D01*
X132144509Y-89282649D01*
X132144513Y-89282651D01*
X132332951Y-89360704D01*
X132332956Y-89360706D01*
X132332960Y-89360706D01*
X132332961Y-89360707D01*
X132533009Y-89400500D01*
X132533012Y-89400500D01*
X132736990Y-89400500D01*
X132887560Y-89370549D01*
X132937044Y-89360706D01*
X133082795Y-89300333D01*
X133125486Y-89282651D01*
X133125486Y-89282650D01*
X133125493Y-89282648D01*
X133129531Y-89279949D01*
X133196202Y-89259067D01*
X133263584Y-89277546D01*
X133310279Y-89329520D01*
X133312988Y-89335594D01*
X133328533Y-89373125D01*
X133374773Y-89442328D01*
X133382854Y-89454423D01*
X133399726Y-89479673D01*
X133399727Y-89479674D01*
X143532862Y-99612808D01*
X143566347Y-99674131D01*
X143567654Y-99719886D01*
X143539500Y-99897647D01*
X143539500Y-100102351D01*
X143571522Y-100304534D01*
X143634781Y-100499223D01*
X143727715Y-100681613D01*
X143848028Y-100847213D01*
X143992786Y-100991971D01*
X144137682Y-101097242D01*
X144158390Y-101112287D01*
X144260593Y-101164362D01*
X144340776Y-101205218D01*
X144340778Y-101205218D01*
X144340781Y-101205220D01*
X144408275Y-101227150D01*
X144535465Y-101268477D01*
X144619974Y-101281862D01*
X144737648Y-101300500D01*
X144737649Y-101300500D01*
X144942351Y-101300500D01*
X144942352Y-101300500D01*
X145144534Y-101268477D01*
X145339219Y-101205220D01*
X145521610Y-101112287D01*
X145614590Y-101044732D01*
X145687213Y-100991971D01*
X145687215Y-100991968D01*
X145687219Y-100991966D01*
X145831966Y-100847219D01*
X145831968Y-100847215D01*
X145831971Y-100847213D01*
X145918791Y-100727713D01*
X145952287Y-100681610D01*
X146045220Y-100499219D01*
X146108477Y-100304534D01*
X146140500Y-100102352D01*
X146140500Y-99897648D01*
X146130066Y-99831771D01*
X146108477Y-99695465D01*
X146066400Y-99565967D01*
X146045220Y-99500781D01*
X146045218Y-99500778D01*
X146045218Y-99500776D01*
X145995328Y-99402863D01*
X145952287Y-99318390D01*
X145944556Y-99307749D01*
X145831971Y-99152786D01*
X145687213Y-99008028D01*
X145521613Y-98887715D01*
X145521612Y-98887714D01*
X145521610Y-98887713D01*
X145464653Y-98858691D01*
X145339223Y-98794781D01*
X145144534Y-98731522D01*
X144969995Y-98703878D01*
X144942352Y-98699500D01*
X144737648Y-98699500D01*
X144559886Y-98727654D01*
X144490593Y-98718699D01*
X144452808Y-98692862D01*
X134811609Y-89051663D01*
X134778124Y-88990340D01*
X134783108Y-88920648D01*
X134796184Y-88895098D01*
X134822648Y-88855493D01*
X134900706Y-88667044D01*
X134925791Y-88540935D01*
X134940500Y-88466990D01*
X134940500Y-87573260D01*
X134960185Y-87506221D01*
X135012989Y-87460466D01*
X135082147Y-87450522D01*
X135145703Y-87479547D01*
X135152180Y-87485578D01*
X140314232Y-92647631D01*
X145366065Y-97699464D01*
X145366067Y-97699466D01*
X145400427Y-97722423D01*
X145425141Y-97738936D01*
X145513554Y-97798013D01*
X145595494Y-97831953D01*
X145601581Y-97834474D01*
X145601586Y-97834477D01*
X145638041Y-97849577D01*
X145677435Y-97865895D01*
X145851404Y-97900499D01*
X145851408Y-97900500D01*
X145851409Y-97900500D01*
X145851410Y-97900500D01*
X148643263Y-97900500D01*
X148710302Y-97920185D01*
X148730944Y-97936819D01*
X157107366Y-106313241D01*
X157108684Y-106315655D01*
X157111042Y-106317077D01*
X157125336Y-106346150D01*
X157140851Y-106374564D01*
X157140654Y-106377308D01*
X157141869Y-106379778D01*
X157138177Y-106411950D01*
X157135867Y-106444256D01*
X157134217Y-106446459D01*
X157133904Y-106449192D01*
X157113405Y-106474259D01*
X157093995Y-106500189D01*
X157090884Y-106501801D01*
X157089675Y-106503281D01*
X157058002Y-106518853D01*
X157007779Y-106535171D01*
X156937938Y-106537166D01*
X156881781Y-106504921D01*
X155615215Y-105238355D01*
X155615213Y-105238352D01*
X155496342Y-105119481D01*
X155496341Y-105119480D01*
X155409529Y-105069360D01*
X155409529Y-105069359D01*
X155409525Y-105069358D01*
X155359410Y-105040423D01*
X155206682Y-104999499D01*
X155048568Y-104999499D01*
X155040972Y-104999499D01*
X155040956Y-104999500D01*
X149808956Y-104999500D01*
X149650842Y-104999500D01*
X149498114Y-105040423D01*
X149498113Y-105040423D01*
X149498111Y-105040424D01*
X149498108Y-105040425D01*
X149447995Y-105069359D01*
X149447994Y-105069360D01*
X149443328Y-105072054D01*
X149361184Y-105119479D01*
X149361181Y-105119481D01*
X149249377Y-105231286D01*
X148884533Y-105596129D01*
X148823210Y-105629614D01*
X148753518Y-105624630D01*
X148697585Y-105582758D01*
X148675235Y-105532639D01*
X148649774Y-105404641D01*
X148649773Y-105404634D01*
X148585660Y-105249853D01*
X148498548Y-105119481D01*
X148492583Y-105110553D01*
X148374119Y-104992089D01*
X148234817Y-104899011D01*
X148080039Y-104834900D01*
X148080031Y-104834898D01*
X147934738Y-104805997D01*
X147872827Y-104773612D01*
X147871248Y-104772061D01*
X147593915Y-104494727D01*
X147593914Y-104494726D01*
X147593910Y-104494723D01*
X147487368Y-104423535D01*
X147368985Y-104374499D01*
X147368979Y-104374497D01*
X147243312Y-104349500D01*
X147243310Y-104349500D01*
X146320807Y-104349500D01*
X146253768Y-104329815D01*
X146233126Y-104313181D01*
X145558990Y-103639045D01*
X144880654Y-102960708D01*
X144847169Y-102899385D01*
X144846718Y-102897218D01*
X144831691Y-102821674D01*
X144817816Y-102751918D01*
X144753703Y-102597137D01*
X144664829Y-102464128D01*
X144660626Y-102457837D01*
X144542162Y-102339373D01*
X144402860Y-102246295D01*
X144248082Y-102182184D01*
X144248074Y-102182182D01*
X144083771Y-102149500D01*
X144083767Y-102149500D01*
X143916233Y-102149500D01*
X143916228Y-102149500D01*
X143751925Y-102182182D01*
X143751917Y-102182184D01*
X143597139Y-102246295D01*
X143457837Y-102339373D01*
X143339373Y-102457837D01*
X143246295Y-102597139D01*
X143182184Y-102751917D01*
X143182182Y-102751925D01*
X143149500Y-102916228D01*
X143149500Y-103083771D01*
X143182182Y-103248074D01*
X143182184Y-103248082D01*
X143246295Y-103402860D01*
X143339373Y-103542162D01*
X143457837Y-103660626D01*
X143506624Y-103693224D01*
X143597137Y-103753703D01*
X143751918Y-103817816D01*
X143830119Y-103833371D01*
X143897218Y-103846718D01*
X143959129Y-103879102D01*
X143960708Y-103880654D01*
X145494724Y-105414669D01*
X145540268Y-105460213D01*
X145585332Y-105505277D01*
X145691866Y-105576461D01*
X145691879Y-105576468D01*
X145767360Y-105607733D01*
X145821764Y-105651574D01*
X145843829Y-105717868D01*
X145826550Y-105785567D01*
X145776203Y-105832779D01*
X145668386Y-105887715D01*
X145502786Y-106008028D01*
X145358028Y-106152786D01*
X145237715Y-106318386D01*
X145144781Y-106500776D01*
X145081522Y-106695465D01*
X145049500Y-106897648D01*
X145049500Y-107102351D01*
X145081522Y-107304534D01*
X145144781Y-107499223D01*
X145237715Y-107681613D01*
X145358028Y-107847213D01*
X145502786Y-107991971D01*
X145630119Y-108084482D01*
X145668390Y-108112287D01*
X145850781Y-108205220D01*
X145978855Y-108246833D01*
X146036529Y-108286270D01*
X146063728Y-108350629D01*
X146051813Y-108419475D01*
X146028217Y-108452445D01*
X143391484Y-111089179D01*
X143330161Y-111122664D01*
X143260469Y-111117680D01*
X143204536Y-111075808D01*
X143180119Y-111010344D01*
X143179803Y-111001498D01*
X143179803Y-108749124D01*
X143179804Y-108749111D01*
X143179804Y-108581008D01*
X143178516Y-108576200D01*
X143138880Y-108428280D01*
X143136020Y-108423327D01*
X143059827Y-108291354D01*
X143059821Y-108291346D01*
X140846975Y-106078500D01*
X138630333Y-103861859D01*
X138620293Y-103843471D01*
X138606262Y-103827912D01*
X138598870Y-103804239D01*
X138596849Y-103800537D01*
X138595650Y-103794251D01*
X138595627Y-103794111D01*
X138581413Y-103704364D01*
X138580387Y-103701208D01*
X138579078Y-103693224D01*
X138582831Y-103662860D01*
X138584360Y-103632316D01*
X138587159Y-103627855D01*
X138587651Y-103623882D01*
X138595790Y-103614104D01*
X138613760Y-103585473D01*
X140358506Y-101840728D01*
X140358511Y-101840724D01*
X140368714Y-101830520D01*
X140368716Y-101830520D01*
X140480520Y-101718716D01*
X140530998Y-101631284D01*
X140559577Y-101581785D01*
X140600501Y-101429057D01*
X140600501Y-101270943D01*
X140600501Y-101263348D01*
X140600500Y-101263330D01*
X140600500Y-100653650D01*
X140620185Y-100586611D01*
X140636815Y-100565972D01*
X140660626Y-100542162D01*
X140753703Y-100402863D01*
X140817816Y-100248082D01*
X140850500Y-100083767D01*
X140850500Y-99916233D01*
X140817816Y-99751918D01*
X140753703Y-99597137D01*
X140689320Y-99500781D01*
X140660626Y-99457837D01*
X140542162Y-99339373D01*
X140402860Y-99246295D01*
X140248082Y-99182184D01*
X140248074Y-99182182D01*
X140083771Y-99149500D01*
X140083767Y-99149500D01*
X139916233Y-99149500D01*
X139916228Y-99149500D01*
X139751925Y-99182182D01*
X139751917Y-99182184D01*
X139597139Y-99246295D01*
X139457837Y-99339373D01*
X139339373Y-99457837D01*
X139246295Y-99597139D01*
X139182184Y-99751917D01*
X139182182Y-99751925D01*
X139149500Y-99916228D01*
X139149500Y-100083771D01*
X139182182Y-100248074D01*
X139182184Y-100248082D01*
X139246295Y-100402860D01*
X139339372Y-100542160D01*
X139339373Y-100542161D01*
X139339374Y-100542162D01*
X139363181Y-100565969D01*
X139396666Y-100627290D01*
X139399500Y-100653650D01*
X139399500Y-101049902D01*
X139379815Y-101116941D01*
X139363181Y-101137583D01*
X138820457Y-101680306D01*
X138759134Y-101713791D01*
X138689442Y-101708807D01*
X138633509Y-101666935D01*
X138609092Y-101601471D01*
X138610302Y-101573235D01*
X138612500Y-101559361D01*
X138612500Y-101360639D01*
X138581413Y-101164364D01*
X138544222Y-101049902D01*
X138520006Y-100975370D01*
X138520005Y-100975367D01*
X138455122Y-100848028D01*
X138429787Y-100798306D01*
X138312981Y-100637536D01*
X138172464Y-100497019D01*
X138011694Y-100380213D01*
X137834632Y-100289994D01*
X137834629Y-100289993D01*
X137645637Y-100228587D01*
X137547498Y-100213043D01*
X137449361Y-100197500D01*
X137350258Y-100197500D01*
X137283219Y-100177815D01*
X137237464Y-100125011D01*
X137227520Y-100055853D01*
X137235697Y-100026048D01*
X137248107Y-99996086D01*
X137248109Y-99996082D01*
X137280793Y-99831767D01*
X137280793Y-99664233D01*
X137248109Y-99499918D01*
X137183996Y-99345137D01*
X137090919Y-99205838D01*
X137090918Y-99205837D01*
X137089974Y-99204686D01*
X137089667Y-99203964D01*
X137087535Y-99200773D01*
X137088140Y-99200368D01*
X137062661Y-99140376D01*
X137074452Y-99071508D01*
X137121604Y-99019948D01*
X137130997Y-99014802D01*
X137132029Y-99014292D01*
X137132049Y-99014284D01*
X137336450Y-98896273D01*
X137523699Y-98752592D01*
X137690592Y-98585699D01*
X137834273Y-98398450D01*
X137952284Y-98194049D01*
X138042606Y-97975993D01*
X138103693Y-97748014D01*
X138134500Y-97514011D01*
X138134500Y-97277989D01*
X138103693Y-97043986D01*
X138042606Y-96816007D01*
X137952284Y-96597951D01*
X137952282Y-96597948D01*
X137952280Y-96597943D01*
X137906978Y-96519479D01*
X137834273Y-96393550D01*
X137690592Y-96206301D01*
X137690587Y-96206295D01*
X137523704Y-96039412D01*
X137523697Y-96039406D01*
X137336454Y-95895730D01*
X137336453Y-95895729D01*
X137336450Y-95895727D01*
X137254957Y-95848677D01*
X137132056Y-95777719D01*
X137132045Y-95777714D01*
X136913993Y-95687394D01*
X136686010Y-95626306D01*
X136452020Y-95595501D01*
X136452017Y-95595500D01*
X136452011Y-95595500D01*
X136215989Y-95595500D01*
X136215983Y-95595500D01*
X136215979Y-95595501D01*
X135981989Y-95626306D01*
X135754006Y-95687394D01*
X135535954Y-95777714D01*
X135535943Y-95777719D01*
X135331545Y-95895730D01*
X135144302Y-96039406D01*
X135144295Y-96039412D01*
X134977412Y-96206295D01*
X134977406Y-96206302D01*
X134833730Y-96393545D01*
X134715719Y-96597943D01*
X134715714Y-96597954D01*
X134625394Y-96816006D01*
X134564306Y-97043989D01*
X134533501Y-97277979D01*
X134533500Y-97277995D01*
X134533500Y-97514004D01*
X134533501Y-97514020D01*
X134563111Y-97738936D01*
X134564307Y-97748014D01*
X134605165Y-97900499D01*
X134625394Y-97975993D01*
X134715714Y-98194045D01*
X134715719Y-98194056D01*
X134745880Y-98246295D01*
X134833727Y-98398450D01*
X134833729Y-98398453D01*
X134833730Y-98398454D01*
X134977406Y-98585697D01*
X134977412Y-98585704D01*
X135144295Y-98752587D01*
X135144302Y-98752593D01*
X135199283Y-98794781D01*
X135331550Y-98896273D01*
X135462918Y-98972118D01*
X135535943Y-99014280D01*
X135535948Y-99014282D01*
X135535951Y-99014284D01*
X135674102Y-99071508D01*
X135679657Y-99073809D01*
X135734060Y-99117650D01*
X135756125Y-99183944D01*
X135738846Y-99251643D01*
X135735307Y-99257260D01*
X135676588Y-99345140D01*
X135612477Y-99499917D01*
X135612475Y-99499925D01*
X135579793Y-99664228D01*
X135579793Y-99697902D01*
X135560108Y-99764941D01*
X135543474Y-99785583D01*
X134519481Y-100809575D01*
X134519479Y-100809577D01*
X134497751Y-100847213D01*
X134486966Y-100865894D01*
X134463694Y-100906201D01*
X134440423Y-100946507D01*
X134440423Y-100946508D01*
X134399499Y-101099236D01*
X134399499Y-101099238D01*
X134399499Y-101267338D01*
X134399500Y-101267352D01*
X134399500Y-109183330D01*
X134399499Y-109183348D01*
X134399499Y-109349056D01*
X134440422Y-109501783D01*
X134442714Y-109505752D01*
X134442719Y-109505771D01*
X134442723Y-109505769D01*
X134519475Y-109638709D01*
X134519481Y-109638717D01*
X134638349Y-109757585D01*
X134638355Y-109757590D01*
X136086237Y-111205472D01*
X136119722Y-111266795D01*
X136119160Y-111319522D01*
X136119349Y-111319552D01*
X136119146Y-111320831D01*
X136119133Y-111322087D01*
X136118587Y-111324360D01*
X136097217Y-111459286D01*
X136087500Y-111520639D01*
X136087500Y-111719361D01*
X136095237Y-111768213D01*
X136118587Y-111915637D01*
X136179993Y-112104629D01*
X136179994Y-112104632D01*
X136237354Y-112217205D01*
X136250250Y-112285874D01*
X136223974Y-112350615D01*
X136166867Y-112390872D01*
X136126869Y-112397500D01*
X129821808Y-112397500D01*
X129754769Y-112377815D01*
X129709014Y-112325011D01*
X129699070Y-112255853D01*
X129728095Y-112192297D01*
X129734127Y-112185819D01*
X131379733Y-110540213D01*
X133039293Y-108880652D01*
X133100614Y-108847169D01*
X133102781Y-108846718D01*
X133121360Y-108843022D01*
X133248082Y-108817816D01*
X133402863Y-108753703D01*
X133542162Y-108660626D01*
X133660626Y-108542162D01*
X133753703Y-108402863D01*
X133817816Y-108248082D01*
X133850500Y-108083767D01*
X133850500Y-107916233D01*
X133817816Y-107751918D01*
X133753703Y-107597137D01*
X133688276Y-107499219D01*
X133660626Y-107457837D01*
X133542162Y-107339373D01*
X133402860Y-107246295D01*
X133248082Y-107182184D01*
X133248074Y-107182182D01*
X133083771Y-107149500D01*
X133083767Y-107149500D01*
X132916233Y-107149500D01*
X132916228Y-107149500D01*
X132751925Y-107182182D01*
X132751917Y-107182184D01*
X132597139Y-107246295D01*
X132457837Y-107339373D01*
X132339373Y-107457837D01*
X132246295Y-107597139D01*
X132182184Y-107751917D01*
X132182182Y-107751923D01*
X132153281Y-107897219D01*
X132120896Y-107959130D01*
X132119345Y-107960708D01*
X126986127Y-113093925D01*
X126924804Y-113127410D01*
X126855112Y-113122426D01*
X126810765Y-113093925D01*
X126804213Y-113087373D01*
X126664911Y-112994295D01*
X126510133Y-112930184D01*
X126510125Y-112930182D01*
X126345822Y-112897500D01*
X126345818Y-112897500D01*
X126312148Y-112897500D01*
X126245109Y-112877815D01*
X126224467Y-112861181D01*
X125212745Y-111849459D01*
X125188527Y-111815206D01*
X125183605Y-111804899D01*
X125173777Y-111768216D01*
X125173777Y-111768215D01*
X125131775Y-111695466D01*
X125094720Y-111631284D01*
X124982916Y-111519480D01*
X124978585Y-111515149D01*
X124978574Y-111515139D01*
X112871616Y-99408181D01*
X112838131Y-99346858D01*
X112843115Y-99277166D01*
X112884987Y-99221233D01*
X112950451Y-99196816D01*
X112959297Y-99196500D01*
X113084004Y-99196500D01*
X113084011Y-99196500D01*
X113318014Y-99165693D01*
X113545993Y-99104606D01*
X113764049Y-99014284D01*
X113968450Y-98896273D01*
X114155699Y-98752592D01*
X114322592Y-98585699D01*
X114466273Y-98398450D01*
X114584284Y-98194049D01*
X114674606Y-97975993D01*
X114735693Y-97748014D01*
X114766500Y-97514011D01*
X114766500Y-97277989D01*
X114735693Y-97043986D01*
X114674606Y-96816007D01*
X114584284Y-96597951D01*
X114584282Y-96597948D01*
X114584280Y-96597943D01*
X114538978Y-96519479D01*
X114466273Y-96393550D01*
X114322592Y-96206301D01*
X114322587Y-96206295D01*
X114155704Y-96039412D01*
X114155697Y-96039406D01*
X113968454Y-95895730D01*
X113968453Y-95895729D01*
X113968450Y-95895727D01*
X113886957Y-95848677D01*
X113764056Y-95777719D01*
X113764045Y-95777714D01*
X113545993Y-95687394D01*
X113318010Y-95626306D01*
X113084020Y-95595501D01*
X113084017Y-95595500D01*
X113084011Y-95595500D01*
X112847989Y-95595500D01*
X112847983Y-95595500D01*
X112847979Y-95595501D01*
X112613989Y-95626306D01*
X112386006Y-95687394D01*
X112167954Y-95777714D01*
X112167943Y-95777719D01*
X111963545Y-95895730D01*
X111776302Y-96039406D01*
X111776295Y-96039412D01*
X111609412Y-96206295D01*
X111609406Y-96206302D01*
X111465730Y-96393545D01*
X111347719Y-96597943D01*
X111347714Y-96597954D01*
X111257394Y-96816006D01*
X111196306Y-97043989D01*
X111165501Y-97277979D01*
X111165500Y-97277995D01*
X111165500Y-97402703D01*
X111145815Y-97469742D01*
X111093011Y-97515497D01*
X111023853Y-97525441D01*
X110960297Y-97496416D01*
X110953819Y-97490384D01*
X98101790Y-84638355D01*
X98101788Y-84638352D01*
X97982917Y-84519481D01*
X97982916Y-84519480D01*
X97896104Y-84469360D01*
X97896104Y-84469359D01*
X97896100Y-84469358D01*
X97845985Y-84440423D01*
X97693257Y-84399499D01*
X97535143Y-84399499D01*
X97527547Y-84399499D01*
X97527531Y-84399500D01*
X91961230Y-84399500D01*
X91894191Y-84379815D01*
X91848436Y-84327011D01*
X91838492Y-84257853D01*
X91867517Y-84194297D01*
X91873549Y-84187819D01*
X92243553Y-83817815D01*
X94468206Y-81593159D01*
X94468211Y-81593156D01*
X94478414Y-81582952D01*
X94478416Y-81582952D01*
X98187819Y-77873547D01*
X98249142Y-77840063D01*
X98318834Y-77845047D01*
X98374767Y-77886919D01*
X98399184Y-77952383D01*
X98399500Y-77961229D01*
X98399500Y-80699903D01*
X98379815Y-80766942D01*
X98363181Y-80787584D01*
X97037584Y-82113181D01*
X96976261Y-82146666D01*
X96949903Y-82149500D01*
X96916228Y-82149500D01*
X96751925Y-82182182D01*
X96751917Y-82182184D01*
X96597139Y-82246295D01*
X96457837Y-82339373D01*
X96339373Y-82457837D01*
X96246295Y-82597139D01*
X96182184Y-82751917D01*
X96182182Y-82751925D01*
X96149500Y-82916228D01*
X96149500Y-83083771D01*
X96182182Y-83248074D01*
X96182184Y-83248082D01*
X96246295Y-83402860D01*
X96339373Y-83542162D01*
X96457837Y-83660626D01*
X96550494Y-83722537D01*
X96597137Y-83753703D01*
X96751918Y-83817816D01*
X96916228Y-83850499D01*
X96916232Y-83850500D01*
X96916233Y-83850500D01*
X97083768Y-83850500D01*
X97083769Y-83850499D01*
X97248082Y-83817816D01*
X97402863Y-83753703D01*
X97542162Y-83660626D01*
X97660626Y-83542162D01*
X97753703Y-83402863D01*
X97817816Y-83248082D01*
X97850500Y-83083767D01*
X97850500Y-83050096D01*
X97870185Y-82983057D01*
X97886814Y-82962420D01*
X99254727Y-81594506D01*
X99316048Y-81561023D01*
X99385740Y-81566007D01*
X99411297Y-81579087D01*
X99445111Y-81601681D01*
X99445115Y-81601683D01*
X99445118Y-81601685D01*
X99599899Y-81665798D01*
X99764209Y-81698481D01*
X99764213Y-81698482D01*
X99764214Y-81698482D01*
X99797884Y-81698482D01*
X99864923Y-81718167D01*
X99885565Y-81734801D01*
X100363181Y-82212416D01*
X100396666Y-82273739D01*
X100399500Y-82300097D01*
X100399500Y-83346349D01*
X100379815Y-83413388D01*
X100363181Y-83434030D01*
X100339376Y-83457834D01*
X100339373Y-83457837D01*
X100246295Y-83597139D01*
X100182184Y-83751917D01*
X100182182Y-83751925D01*
X100149500Y-83916228D01*
X100149500Y-84083771D01*
X100182182Y-84248074D01*
X100182184Y-84248082D01*
X100246295Y-84402860D01*
X100339373Y-84542162D01*
X100457837Y-84660626D01*
X100550494Y-84722537D01*
X100597137Y-84753703D01*
X100751918Y-84817816D01*
X100916228Y-84850499D01*
X100916232Y-84850500D01*
X100916233Y-84850500D01*
X101083768Y-84850500D01*
X101083769Y-84850499D01*
X101248082Y-84817816D01*
X101402863Y-84753703D01*
X101542162Y-84660626D01*
X101660626Y-84542162D01*
X101753703Y-84402863D01*
X101817816Y-84248082D01*
X101850500Y-84083767D01*
X101850500Y-83916233D01*
X101817816Y-83751918D01*
X101753703Y-83597137D01*
X101716970Y-83542162D01*
X101660626Y-83457837D01*
X101636819Y-83434030D01*
X101603334Y-83372707D01*
X101600500Y-83346349D01*
X101600500Y-81920945D01*
X101600500Y-81920943D01*
X101559577Y-81768216D01*
X101540285Y-81734801D01*
X101480524Y-81631290D01*
X101480521Y-81631286D01*
X101480520Y-81631284D01*
X101368716Y-81519480D01*
X101368715Y-81519479D01*
X101364385Y-81515149D01*
X101364374Y-81515139D01*
X100734800Y-80885565D01*
X100701315Y-80824242D01*
X100698481Y-80797884D01*
X100698481Y-80764214D01*
X100698480Y-80764210D01*
X100665798Y-80599907D01*
X100665797Y-80599900D01*
X100616208Y-80480183D01*
X100601685Y-80445121D01*
X100508607Y-80305819D01*
X100390143Y-80187355D01*
X100250841Y-80094277D01*
X100096063Y-80030166D01*
X100096055Y-80030164D01*
X99931752Y-79997482D01*
X99931748Y-79997482D01*
X99764214Y-79997482D01*
X99748689Y-80000569D01*
X99679098Y-79994341D01*
X99623922Y-79951478D01*
X99600678Y-79885588D01*
X99600500Y-79878952D01*
X99600500Y-70466106D01*
X99598284Y-70457838D01*
X99598283Y-70457833D01*
X99587355Y-70417050D01*
X99587355Y-70417049D01*
X99559577Y-70313380D01*
X99483832Y-70182184D01*
X99480524Y-70176454D01*
X99480521Y-70176450D01*
X99480520Y-70176448D01*
X99368716Y-70064644D01*
X99368715Y-70064643D01*
X99364385Y-70060313D01*
X99364374Y-70060303D01*
X98122071Y-68818000D01*
X98122069Y-68817997D01*
X98003198Y-68699126D01*
X98003197Y-68699125D01*
X97896429Y-68637483D01*
X97896428Y-68637482D01*
X97866264Y-68620067D01*
X97810362Y-68605088D01*
X97713538Y-68579144D01*
X97555424Y-68579144D01*
X97547828Y-68579144D01*
X97547812Y-68579145D01*
X95249691Y-68579145D01*
X95182652Y-68559460D01*
X95162010Y-68542826D01*
X95138202Y-68519018D01*
X94998900Y-68425940D01*
X94844122Y-68361829D01*
X94844114Y-68361827D01*
X94679811Y-68329145D01*
X94679807Y-68329145D01*
X94512273Y-68329145D01*
X94512268Y-68329145D01*
X94347965Y-68361827D01*
X94347957Y-68361829D01*
X94193179Y-68425940D01*
X94053877Y-68519018D01*
X93935413Y-68637482D01*
X93842335Y-68776784D01*
X93778224Y-68931562D01*
X93778222Y-68931570D01*
X93745540Y-69095873D01*
X93745540Y-69263416D01*
X93778222Y-69427719D01*
X93778224Y-69427727D01*
X93842335Y-69582505D01*
X93935413Y-69721807D01*
X94053877Y-69840271D01*
X94129435Y-69890757D01*
X94193177Y-69933348D01*
X94347958Y-69997461D01*
X94512268Y-70030144D01*
X94512272Y-70030145D01*
X94512273Y-70030145D01*
X94679808Y-70030145D01*
X94679809Y-70030144D01*
X94844122Y-69997461D01*
X94998903Y-69933348D01*
X95138202Y-69840271D01*
X95138205Y-69840268D01*
X95162010Y-69816464D01*
X95223333Y-69782979D01*
X95249691Y-69780145D01*
X97334384Y-69780145D01*
X97401423Y-69799830D01*
X97422065Y-69816464D01*
X97646055Y-70040454D01*
X97679540Y-70101777D01*
X97674556Y-70171469D01*
X97632684Y-70227402D01*
X97605836Y-70242692D01*
X97597144Y-70246292D01*
X97597139Y-70246295D01*
X97457837Y-70339373D01*
X97457834Y-70339376D01*
X97339378Y-70457833D01*
X97339373Y-70457837D01*
X97246295Y-70597139D01*
X97182184Y-70751917D01*
X97182182Y-70751925D01*
X97149500Y-70916228D01*
X97149500Y-71083771D01*
X97182182Y-71248074D01*
X97182184Y-71248082D01*
X97240061Y-71387808D01*
X97249500Y-71435261D01*
X97249500Y-76637770D01*
X97229815Y-76704809D01*
X97213181Y-76725451D01*
X93725451Y-80213181D01*
X93664128Y-80246666D01*
X93637770Y-80249500D01*
X80435261Y-80249500D01*
X80387808Y-80240061D01*
X80248082Y-80182184D01*
X80248074Y-80182182D01*
X80083771Y-80149500D01*
X80083767Y-80149500D01*
X79916233Y-80149500D01*
X79916228Y-80149500D01*
X79751925Y-80182182D01*
X79751917Y-80182184D01*
X79597139Y-80246295D01*
X79457837Y-80339373D01*
X79339373Y-80457837D01*
X79246295Y-80597139D01*
X79182184Y-80751917D01*
X79182182Y-80751925D01*
X79149500Y-80916228D01*
X79149500Y-81083771D01*
X79182182Y-81248074D01*
X79182184Y-81248082D01*
X79246295Y-81402860D01*
X79339373Y-81542162D01*
X79457837Y-81660626D01*
X79541860Y-81716768D01*
X79597137Y-81753703D01*
X79751918Y-81817816D01*
X79916228Y-81850499D01*
X79916232Y-81850500D01*
X79916233Y-81850500D01*
X80083768Y-81850500D01*
X80083769Y-81850499D01*
X80248082Y-81817816D01*
X80387808Y-81759938D01*
X80435261Y-81750500D01*
X91888771Y-81750500D01*
X91955810Y-81770185D01*
X92001565Y-81822989D01*
X92011509Y-81892147D01*
X91982484Y-81955703D01*
X91976452Y-81962181D01*
X90725451Y-83213181D01*
X90664128Y-83246666D01*
X90637770Y-83249500D01*
X80926076Y-83249500D01*
X80897242Y-83255234D01*
X80897243Y-83255235D01*
X80781093Y-83278339D01*
X80781083Y-83278342D01*
X80701081Y-83311479D01*
X80701082Y-83311480D01*
X80644506Y-83334915D01*
X80593920Y-83368716D01*
X80521582Y-83417049D01*
X77027148Y-86911483D01*
X77010288Y-86936717D01*
X76993539Y-86961785D01*
X76945019Y-87034398D01*
X76945012Y-87034411D01*
X76888443Y-87170982D01*
X76888440Y-87170992D01*
X76859600Y-87315979D01*
X76859600Y-87921553D01*
X76839915Y-87988592D01*
X76808487Y-88021869D01*
X76798226Y-88029324D01*
X76787634Y-88037020D01*
X76647121Y-88177533D01*
X76530309Y-88338310D01*
X76470253Y-88456177D01*
X76422279Y-88506973D01*
X76354458Y-88523768D01*
X76288323Y-88501230D01*
X76249284Y-88456177D01*
X76189358Y-88338567D01*
X76072596Y-88177860D01*
X76072596Y-88177859D01*
X75932140Y-88037403D01*
X75771432Y-87920641D01*
X75594434Y-87830456D01*
X75594436Y-87830456D01*
X75405517Y-87769074D01*
X75360000Y-87761865D01*
X75360000Y-88616408D01*
X75286473Y-88573958D01*
X75170192Y-88542800D01*
X75049808Y-88542800D01*
X74933527Y-88573958D01*
X74860000Y-88616408D01*
X74860000Y-87761865D01*
X74859999Y-87761865D01*
X74814482Y-87769074D01*
X74625564Y-87830456D01*
X74448567Y-87920641D01*
X74287860Y-88037403D01*
X74287859Y-88037403D01*
X74147403Y-88177859D01*
X74147403Y-88177860D01*
X74030641Y-88338567D01*
X73940456Y-88515564D01*
X73879074Y-88704482D01*
X73871865Y-88749999D01*
X68760600Y-88749999D01*
X68760600Y-76180132D01*
X91179500Y-76180132D01*
X91179500Y-76459867D01*
X91210818Y-76737819D01*
X91210820Y-76737831D01*
X91273065Y-77010548D01*
X91273068Y-77010556D01*
X91365454Y-77274578D01*
X91486820Y-77526597D01*
X91486822Y-77526600D01*
X91635645Y-77763452D01*
X91810052Y-77982151D01*
X92007849Y-78179948D01*
X92226548Y-78354355D01*
X92463400Y-78503178D01*
X92715425Y-78624547D01*
X92913718Y-78693932D01*
X92979443Y-78716931D01*
X92979451Y-78716934D01*
X92979454Y-78716934D01*
X92979455Y-78716935D01*
X93252168Y-78779180D01*
X93530132Y-78810499D01*
X93530133Y-78810500D01*
X93530137Y-78810500D01*
X93809867Y-78810500D01*
X93809867Y-78810499D01*
X94087832Y-78779180D01*
X94360545Y-78716935D01*
X94624575Y-78624547D01*
X94876600Y-78503178D01*
X95113452Y-78354355D01*
X95332151Y-78179948D01*
X95529948Y-77982151D01*
X95704355Y-77763452D01*
X95853178Y-77526600D01*
X95974547Y-77274575D01*
X96066935Y-77010545D01*
X96129180Y-76737832D01*
X96160500Y-76459863D01*
X96160500Y-76180137D01*
X96129180Y-75902168D01*
X96066935Y-75629455D01*
X95974547Y-75365425D01*
X95853178Y-75113400D01*
X95704355Y-74876548D01*
X95529948Y-74657849D01*
X95332151Y-74460052D01*
X95113452Y-74285645D01*
X94876600Y-74136822D01*
X94876597Y-74136820D01*
X94624578Y-74015454D01*
X94360556Y-73923068D01*
X94360548Y-73923065D01*
X94156010Y-73876381D01*
X94087832Y-73860820D01*
X94087828Y-73860819D01*
X94087819Y-73860818D01*
X93809867Y-73829500D01*
X93809863Y-73829500D01*
X93530137Y-73829500D01*
X93530133Y-73829500D01*
X93252180Y-73860818D01*
X93252168Y-73860820D01*
X92979451Y-73923065D01*
X92979443Y-73923068D01*
X92715421Y-74015454D01*
X92463402Y-74136820D01*
X92226549Y-74285644D01*
X92007849Y-74460051D01*
X91810051Y-74657849D01*
X91635644Y-74876549D01*
X91486820Y-75113402D01*
X91365454Y-75365421D01*
X91273068Y-75629443D01*
X91273065Y-75629451D01*
X91210820Y-75902168D01*
X91210818Y-75902180D01*
X91179500Y-76180132D01*
X68760600Y-76180132D01*
X68760600Y-64500132D01*
X72249500Y-64500132D01*
X72249500Y-64779867D01*
X72280818Y-65057819D01*
X72280820Y-65057831D01*
X72343065Y-65330548D01*
X72343068Y-65330556D01*
X72435454Y-65594578D01*
X72556820Y-65846597D01*
X72556822Y-65846600D01*
X72705645Y-66083452D01*
X72880052Y-66302151D01*
X73077849Y-66499948D01*
X73296548Y-66674355D01*
X73533400Y-66823178D01*
X73785425Y-66944547D01*
X73927014Y-66994091D01*
X74049443Y-67036931D01*
X74049451Y-67036934D01*
X74049454Y-67036934D01*
X74049455Y-67036935D01*
X74322168Y-67099180D01*
X74600132Y-67130499D01*
X74600133Y-67130500D01*
X74600137Y-67130500D01*
X74879867Y-67130500D01*
X74879867Y-67130499D01*
X75157832Y-67099180D01*
X75430545Y-67036935D01*
X75694575Y-66944547D01*
X75946600Y-66823178D01*
X76183452Y-66674355D01*
X76402151Y-66499948D01*
X76599948Y-66302151D01*
X76774355Y-66083452D01*
X76923178Y-65846600D01*
X77044547Y-65594575D01*
X77136935Y-65330545D01*
X77199180Y-65057832D01*
X77230500Y-64779863D01*
X77230500Y-64500137D01*
X77199180Y-64222168D01*
X77136935Y-63949455D01*
X77044547Y-63685425D01*
X76923178Y-63433400D01*
X76774355Y-63196548D01*
X76599948Y-62977849D01*
X76402151Y-62780052D01*
X76183452Y-62605645D01*
X75946600Y-62456822D01*
X75946597Y-62456820D01*
X75694578Y-62335454D01*
X75430556Y-62243068D01*
X75430548Y-62243065D01*
X75226010Y-62196381D01*
X75157832Y-62180820D01*
X75157828Y-62180819D01*
X75157819Y-62180818D01*
X74879867Y-62149500D01*
X74879863Y-62149500D01*
X74600137Y-62149500D01*
X74600133Y-62149500D01*
X74322180Y-62180818D01*
X74322168Y-62180820D01*
X74049451Y-62243065D01*
X74049443Y-62243068D01*
X73785421Y-62335454D01*
X73533402Y-62456820D01*
X73296549Y-62605644D01*
X73077849Y-62780051D01*
X72880051Y-62977849D01*
X72705644Y-63196549D01*
X72556820Y-63433402D01*
X72435454Y-63685421D01*
X72343068Y-63949443D01*
X72343065Y-63949451D01*
X72280820Y-64222168D01*
X72280818Y-64222180D01*
X72249500Y-64500132D01*
X68760600Y-64500132D01*
X68760600Y-60424500D01*
X68780285Y-60357461D01*
X68833089Y-60311706D01*
X68884600Y-60300500D01*
X180925500Y-60300500D01*
X180992539Y-60320185D01*
G37*
%TD.AperFunction*%
%TD*%
M02*
